<svg width="320" height="89" viewBox="0 0 320 89" fill="none" xmlns="http://www.w3.org/2000/svg">
<rect width="320" height="89" fill="#F4F5F6"/>
<path d="M15.916 11.876V19H14.5098V13.4971L12.8203 14.0342V12.9258L15.7646 11.876H15.916ZM21.6582 11.876V19H20.252V13.4971L18.5625 14.0342V12.9258L21.5068 11.876H21.6582ZM24.085 18.3213C24.085 18.113 24.1566 17.9388 24.2998 17.7988C24.4463 17.6589 24.64 17.5889 24.8809 17.5889C25.1217 17.5889 25.3138 17.6589 25.457 17.7988C25.6035 17.9388 25.6768 18.113 25.6768 18.3213C25.6768 18.5296 25.6035 18.7038 25.457 18.8438C25.3138 18.9837 25.1217 19.0537 24.8809 19.0537C24.64 19.0537 24.4463 18.9837 24.2998 18.8438C24.1566 18.7038 24.085 18.5296 24.085 18.3213ZM24.085 14.293C24.085 14.0846 24.1566 13.9105 24.2998 13.7705C24.4463 13.6305 24.64 13.5605 24.8809 13.5605C25.1217 13.5605 25.3138 13.6305 25.457 13.7705C25.6035 13.9105 25.6768 14.0846 25.6768 14.293C25.6768 14.5013 25.6035 14.6755 25.457 14.8154C25.3138 14.9554 25.1217 15.0254 24.8809 15.0254C24.64 15.0254 24.4463 14.9554 24.2998 14.8154C24.1566 14.6755 24.085 14.5013 24.085 14.293ZM30.2227 11.876V19H28.8164V13.4971L27.127 14.0342V12.9258L30.0713 11.876H30.2227ZM33.5332 17.9307H33.626C34.0166 17.9307 34.3519 17.8835 34.6318 17.7891C34.915 17.6914 35.1478 17.5514 35.3301 17.3691C35.5124 17.1868 35.6475 16.9639 35.7354 16.7002C35.8232 16.4333 35.8672 16.1305 35.8672 15.792V14.4443C35.8672 14.1872 35.8411 13.9609 35.7891 13.7656C35.7402 13.5703 35.6686 13.4092 35.5742 13.2822C35.4831 13.152 35.3757 13.0544 35.252 12.9893C35.1315 12.9242 34.998 12.8916 34.8516 12.8916C34.6953 12.8916 34.557 12.9307 34.4365 13.0088C34.3161 13.0837 34.2135 13.1862 34.1289 13.3164C34.0475 13.4466 33.984 13.5964 33.9385 13.7656C33.8962 13.9316 33.875 14.1058 33.875 14.2881C33.875 14.4704 33.8962 14.6445 33.9385 14.8105C33.9808 14.9733 34.0443 15.1182 34.1289 15.2451C34.2135 15.3688 34.3193 15.4681 34.4463 15.543C34.5732 15.6146 34.723 15.6504 34.8955 15.6504C35.0615 15.6504 35.2096 15.6195 35.3398 15.5576C35.4733 15.4925 35.5856 15.4079 35.6768 15.3037C35.7712 15.1995 35.8428 15.084 35.8916 14.957C35.9437 14.8301 35.9697 14.7015 35.9697 14.5713L36.4336 14.8252C36.4336 15.0531 36.3848 15.2777 36.2871 15.499C36.1895 15.7204 36.0527 15.9222 35.877 16.1045C35.7044 16.2835 35.5042 16.4268 35.2764 16.5342C35.0485 16.6416 34.8044 16.6953 34.5439 16.6953C34.2119 16.6953 33.9173 16.6351 33.6602 16.5146C33.403 16.391 33.1849 16.2217 33.0059 16.0068C32.8301 15.7887 32.6966 15.5348 32.6055 15.2451C32.5143 14.9554 32.4688 14.6413 32.4688 14.3027C32.4688 13.9577 32.5241 13.6338 32.6348 13.3311C32.7487 13.0283 32.9098 12.7614 33.1182 12.5303C33.3298 12.2992 33.582 12.1185 33.875 11.9883C34.1712 11.8548 34.5 11.7881 34.8613 11.7881C35.2227 11.7881 35.5514 11.8581 35.8477 11.998C36.1439 12.138 36.3978 12.3366 36.6094 12.5938C36.821 12.8477 36.9837 13.152 37.0977 13.5068C37.2148 13.8617 37.2734 14.2555 37.2734 14.6885V15.1768C37.2734 15.639 37.223 16.0687 37.1221 16.4658C37.0244 16.863 36.8763 17.2227 36.6777 17.5449C36.4824 17.8639 36.2383 18.1374 35.9453 18.3652C35.6556 18.5931 35.3187 18.7673 34.9346 18.8877C34.5505 19.0081 34.1208 19.0684 33.6455 19.0684H33.5332V17.9307Z" fill="black"/>
<path d="M275.469 17.3438V18.4473H270.347L270.278 17.5928L273.242 12.8906H274.36L273.149 14.917L271.675 17.3438H275.469ZM274.663 12.8906V20H273.257V12.8906H274.663ZM282.012 16.2842V19.1016C281.901 19.235 281.73 19.3799 281.499 19.5361C281.268 19.6891 280.97 19.821 280.605 19.9316C280.241 20.0423 279.8 20.0977 279.282 20.0977C278.823 20.0977 278.405 20.0228 278.027 19.873C277.65 19.7201 277.324 19.4971 277.051 19.2041C276.781 18.9111 276.572 18.5531 276.426 18.1299C276.279 17.7035 276.206 17.2168 276.206 16.6699V16.2256C276.206 15.6787 276.276 15.1921 276.416 14.7656C276.559 14.3392 276.763 13.9795 277.026 13.6865C277.29 13.3936 277.604 13.1706 277.969 13.0176C278.333 12.8646 278.739 12.7881 279.185 12.7881C279.803 12.7881 280.311 12.889 280.708 13.0908C281.105 13.2894 281.408 13.5661 281.616 13.9209C281.828 14.2725 281.958 14.6761 282.007 15.1318H280.586C280.55 14.891 280.482 14.681 280.381 14.502C280.28 14.3229 280.135 14.1829 279.946 14.082C279.761 13.9811 279.52 13.9307 279.224 13.9307C278.979 13.9307 278.761 13.9811 278.569 14.082C278.381 14.1797 278.221 14.3245 278.091 14.5166C277.961 14.7087 277.861 14.9463 277.793 15.2295C277.725 15.5127 277.69 15.8415 277.69 16.2158V16.6699C277.69 17.041 277.726 17.3698 277.798 17.6562C277.869 17.9395 277.975 18.1787 278.115 18.374C278.258 18.5661 278.434 18.7109 278.643 18.8086C278.851 18.9062 279.093 18.9551 279.37 18.9551C279.601 18.9551 279.793 18.9355 279.946 18.8965C280.103 18.8574 280.228 18.8102 280.322 18.7549C280.42 18.6963 280.495 18.641 280.547 18.5889V17.3291H279.209V16.2842H282.012Z" fill="black"/>
<path d="M254.6 21V13H257V21H254.6ZM251.4 15H253.8V21H251.4V15ZM248.2 17H250.6V21H248.2V17ZM245 19H247.4V21H245V19Z" fill="black"/>
<path d="M292.667 19.4V14.6H301V19.4H292.667ZM305.167 15C305.397 15 305.593 15.0781 305.756 15.2344C305.919 15.3906 306 15.5792 306 15.8V18.2C306 18.4208 305.919 18.6094 305.756 18.7656C305.593 18.9219 305.397 19 305.167 19V20C305.167 20.275 305.065 20.5104 304.861 20.7063C304.657 20.9021 304.411 21 304.125 21H292.042C291.755 21 291.51 20.9021 291.306 20.7063C291.102 20.5104 291 20.275 291 20V14C291 13.725 291.102 13.4896 291.306 13.2938C291.51 13.0979 291.755 13 292.042 13H304.125C304.411 13 304.657 13.0979 304.861 13.2938C305.065 13.4896 305.167 13.725 305.167 14V15ZM305.167 18.2V15.8H304.333V14C304.333 13.9417 304.314 13.8938 304.275 13.8563C304.236 13.8188 304.186 13.8 304.125 13.8H292.042C291.981 13.8 291.931 13.8188 291.892 13.8563C291.853 13.8938 291.833 13.9417 291.833 14V20C291.833 20.0583 291.853 20.1063 291.892 20.1438C291.931 20.1813 291.981 20.2 292.042 20.2H304.125C304.186 20.2 304.236 20.1813 304.275 20.1438C304.314 20.1063 304.333 20.0583 304.333 20V18.2H305.167Z" fill="black"/>
<circle cx="160" cy="57" r="22" fill="#8C95A0"/>
<path d="M168.735 51.5C168.735 53.688 167.866 55.7865 166.319 57.3336C164.772 58.8808 162.673 59.75 160.485 59.75C158.297 59.75 156.199 58.8808 154.652 57.3336C153.105 55.7865 152.235 53.688 152.235 51.5C152.235 49.312 153.105 47.2135 154.652 45.6664C156.199 44.1192 158.297 43.25 160.485 43.25C162.673 43.25 164.772 44.1192 166.319 45.6664C167.866 47.2135 168.735 49.312 168.735 51.5V51.5Z" fill="white"/>
<mask id="mask0_3916_28887" style="mask-type:alpha" maskUnits="userSpaceOnUse" x="138" y="35" width="44" height="44">
<path fill-rule="evenodd" clip-rule="evenodd" d="M138 57C138 51.1652 140.318 45.5695 144.444 41.4437C148.569 37.3179 154.165 35 160 35C165.835 35 171.431 37.3179 175.556 41.4437C179.682 45.5695 182 51.1652 182 57C182 62.8348 179.682 68.4306 175.556 72.5564C171.431 76.6822 165.835 79 160 79C154.165 79 148.569 76.6822 144.444 72.5564C140.318 68.4306 138 62.8348 138 57V57ZM160 37.75C156.375 37.7502 152.824 38.774 149.755 40.7036C146.686 42.6332 144.224 45.3901 142.653 48.657C141.082 51.924 140.465 55.5682 140.874 59.1702C141.282 62.7722 142.7 66.1856 144.963 69.0175C146.916 65.8715 151.214 62.5 160 62.5C168.786 62.5 173.082 65.8687 175.037 69.0175C177.3 66.1856 178.718 62.7722 179.126 59.1702C179.535 55.5682 178.918 51.924 177.347 48.657C175.776 45.3901 173.314 42.6332 170.245 40.7036C167.176 38.774 163.625 37.7502 160 37.75V37.75Z" fill="#939AA6"/>
</mask>
<g mask="url(#mask0_3916_28887)">
<circle cx="160" cy="57.0005" r="18.1176" fill="white"/>
</g>
<path d="M25.83 63.9993C25.6806 63.9998 25.533 63.9668 25.3981 63.9028C25.2631 63.8388 25.1442 63.7453 25.05 63.6293L20.22 57.6293C20.073 57.4504 19.9926 57.2259 19.9926 56.9943C19.9926 56.7627 20.073 56.5382 20.22 56.3593L25.22 50.3593C25.3898 50.1551 25.6337 50.0267 25.8981 50.0023C26.1625 49.9779 26.4258 50.0596 26.63 50.2293C26.8343 50.399 26.9627 50.6429 26.9871 50.9074C27.0114 51.1718 26.9298 51.4351 26.76 51.6393L22.29 56.9993L26.61 62.3593C26.7323 62.5061 26.81 62.6848 26.8339 62.8744C26.8578 63.0639 26.8268 63.2563 26.7448 63.4289C26.6627 63.6014 26.533 63.7468 26.3709 63.8479C26.2088 63.949 26.0211 64.0015 25.83 63.9993Z" fill="#0978FB"/>
</svg>
