<svg width="320" height="89" viewBox="0 0 320 89" fill="none" xmlns="http://www.w3.org/2000/svg">
<rect width="320" height="89" fill="#D7D8DD"/>
<rect x="90" y="73" width="140" height="4" rx="2" fill="black"/>
<rect x="48" y="17" width="258" height="28" rx="12" fill="white"/>
<path d="M24.5 29.0769C25.4503 29.0769 26.2629 29.4155 26.9378 30.0925C27.6126 30.7696 27.95 31.5849 27.95 32.5385C27.95 33.492 27.6126 34.3073 26.9378 34.9844C26.2629 35.6615 25.4503 36 24.5 36C23.5497 36 22.7371 35.6615 22.0622 34.9844C21.3874 34.3073 21.05 33.492 21.05 32.5385C21.05 31.5849 21.3874 30.7696 22.0622 30.0925C22.7371 29.4155 23.5497 29.0769 24.5 29.0769ZM32.9333 24.0769C33.7799 24.0769 34.5026 24.3774 35.1016 24.9784C35.7005 25.5793 36 26.3045 36 27.1538V37.9231C36 38.7724 35.7005 39.4976 35.1016 40.0986C34.5026 40.6995 33.7799 41 32.9333 41H16.0667C15.2201 41 14.4974 40.6995 13.8984 40.0986C13.2995 39.4976 13 38.7724 13 37.9231V27.1538C13 26.3045 13.2995 25.5793 13.8984 24.9784C14.4974 24.3774 15.2201 24.0769 16.0667 24.0769H18.75L19.3609 22.4423C19.5127 22.0497 19.7902 21.7111 20.1935 21.4267C20.5968 21.1422 21.0101 21 21.4333 21H27.5667C27.9899 21 28.4032 21.1422 28.8065 21.4267C29.2098 21.7111 29.4873 22.0497 29.6391 22.4423L30.25 24.0769H32.9333ZM24.5 37.9231C25.9774 37.9231 27.2412 37.3962 28.2914 36.3425C29.3416 35.2889 29.8667 34.0208 29.8667 32.5385C29.8667 31.0561 29.3416 29.7881 28.2914 28.7344C27.2412 27.6807 25.9774 27.1538 24.5 27.1538C23.0226 27.1538 21.7588 27.6807 20.7086 28.7344C19.6584 29.7881 19.1333 31.0561 19.1333 32.5385C19.1333 34.0208 19.6584 35.2889 20.7086 36.3425C21.7588 37.3962 23.0226 37.9231 24.5 37.9231Z" fill="#929292"/>
<circle cx="289.5" cy="30.5" r="11.5" fill="#929292"/>
<path d="M289 37C289 37.5523 289.448 38 290 38C290.552 38 291 37.5523 291 37L289 37ZM290.707 23.2929C290.317 22.9024 289.683 22.9024 289.293 23.2929L282.929 29.6569C282.538 30.0474 282.538 30.6805 282.929 31.0711C283.319 31.4616 283.953 31.4616 284.343 31.0711L290 25.4142L295.657 31.0711C296.047 31.4616 296.681 31.4616 297.071 31.0711C297.462 30.6805 297.462 30.0474 297.071 29.6569L290.707 23.2929ZM291 37L291 24L289 24L289 37L291 37Z" fill="white"/>
</svg>
