<svg width="23" height="20" viewBox="0 0 23 20" fill="none" xmlns="http://www.w3.org/2000/svg">
<path d="M13.2611 18.6797H9.31234C9.26025 18.6797 9.2197 18.6701 9.19116 18.6594V5.40899C9.2197 5.39828 9.26025 5.38867 9.31234 5.38867H13.2611C13.3132 5.38867 13.3538 5.39828 13.3823 5.40899V18.6594C13.3538 18.6701 13.3133 18.6797 13.2611 18.6797Z" stroke="#575757" stroke-width="2"/>
<path d="M5.06998 18.6779H1.12118C1.06909 18.6779 1.02854 18.6683 1 18.6575V8.59845C1.02854 8.58774 1.06909 8.57812 1.12118 8.57812H5.06998C5.12207 8.57812 5.16261 8.58774 5.19116 8.59845V18.6575C5.16261 18.6683 5.12207 18.6779 5.06998 18.6779Z" stroke="#575757" stroke-width="2"/>
<path d="M21.4523 18.678H17.5035C17.4514 18.678 17.4109 18.6684 17.3823 18.6577V1.02032C17.4109 1.00961 17.4514 1 17.5035 1H21.4523C21.5044 1 21.5449 1.00961 21.5735 1.02032V18.6577C21.5449 18.6684 21.5044 18.678 21.4523 18.678Z" stroke="#575757" stroke-width="2"/>
</svg>
