<svg width="35" height="35" viewBox="0 0 35 35" fill="none" xmlns="http://www.w3.org/2000/svg">
<path d="M17.5 0C7.84 0 0 7.84 0 17.5C0 27.16 7.84 35 17.5 35C27.16 35 35 27.16 35 17.5C35 7.84 27.16 0 17.5 0ZM8.8725 28.49C9.625 26.915 14.21 25.375 17.5 25.375C20.79 25.375 25.3925 26.915 26.1275 28.49C23.7475 30.38 20.755 31.5 17.5 31.5C14.245 31.5 11.2525 30.38 8.8725 28.49ZM28.63 25.9525C26.1275 22.9075 20.055 21.875 17.5 21.875C14.945 21.875 8.8725 22.9075 6.37 25.9525C4.585 23.6075 3.5 20.685 3.5 17.5C3.5 9.7825 9.7825 3.5 17.5 3.5C25.2175 3.5 31.5 9.7825 31.5 17.5C31.5 20.685 30.415 23.6075 28.63 25.9525ZM17.5 7C14.105 7 11.375 9.73 11.375 13.125C11.375 16.52 14.105 19.25 17.5 19.25C20.895 19.25 23.625 16.52 23.625 13.125C23.625 9.73 20.895 7 17.5 7ZM17.5 15.75C16.0475 15.75 14.875 14.5775 14.875 13.125C14.875 11.6725 16.0475 10.5 17.5 10.5C18.9525 10.5 20.125 11.6725 20.125 13.125C20.125 14.5775 18.9525 15.75 17.5 15.75Z" fill="#BADADE"/>
</svg>
