<svg width="685" height="358" viewBox="0 0 685 358" fill="none" xmlns="http://www.w3.org/2000/svg">
<g clip-path="url(#clip0_3680_25943)">
<path d="M621.649 120.213L571.701 95.8408L537.123 166.791L587.071 191.162L621.649 120.213Z" fill="#F1C0B4"/>
<path d="M559.58 145.572L549.772 140.787L571.719 95.7607L621.671 120.126L619.304 124.985C608.476 147.176 581.746 156.382 559.58 145.572Z" fill="#EBA393"/>
<path d="M638.191 115.792L641.65 117.747C646.725 120.614 653.158 118.828 656.023 113.751L660.429 105.941C663.294 100.864 661.51 94.4265 656.436 91.56L652.976 89.6045L638.191 115.792Z" fill="#EBA393"/>
<path d="M640.497 110.872L642.622 112.075C645.729 113.836 649.686 112.743 651.447 109.621L654.154 104.836C655.914 101.726 654.821 97.7664 651.701 96.0052L649.577 94.8027L640.497 110.872Z" fill="#DE8079"/>
<path d="M575.19 56.0446L571.937 54.1984C567.166 51.5019 561.121 53.1781 558.426 57.9516L554.287 65.2879C551.592 70.0614 553.267 76.1102 558.037 78.8066L561.291 80.6529L575.19 56.0446Z" fill="#EBA393"/>
<path d="M573.017 60.6726L571.026 59.543C568.101 57.8911 564.386 58.9235 562.735 61.8508L560.198 66.357C558.547 69.2842 559.579 73.001 562.505 74.6529L564.495 75.7825L573.017 60.6726Z" fill="#DE8079"/>
<path d="M581.016 137.691C581.49 137.934 582.23 138.299 583.141 138.687C594.673 143.534 606.29 139.902 610.247 138.663C628.006 133.112 640.619 116.363 647.987 100.548C651.774 92.4223 652.454 90.9526 658.985 76.948C659.41 76.0371 660.624 73.4378 662.189 70.0611C665.321 63.3321 660.551 56.3481 660.004 55.3156C656.169 48.0644 648.642 44.4083 633.59 37.0963C631.612 36.1368 629.973 35.3837 628.892 34.8979C627.824 34.3877 626.198 33.6104 624.195 32.7115C608.924 25.8732 601.276 22.4601 593.265 24.1849C592.111 24.4278 583.699 25.2659 580.567 31.9949C579.001 35.3716 577.787 37.9708 577.363 38.8818C570.832 52.8985 570.152 54.3682 566.365 62.4819C558.996 78.2963 554.287 98.7262 561.473 115.901C563.075 119.727 567.761 130.95 578.892 136.683C579.766 137.157 580.519 137.485 581.016 137.691Z" fill="#F1C0B4"/>
<path d="M585.289 32.1409C582.194 37.971 578.807 44.0199 575.093 50.2144C571.524 56.1661 567.955 61.7776 564.41 67.0612C565.236 53.6275 567.142 42.6716 568.841 34.8738C572.616 17.4925 575.821 13.4964 578.212 11.2251C583.638 6.07509 589.805 5.13983 600.888 3.46365C609.555 2.15186 623.454 0.208468 639.939 5.45563C650.257 8.74726 659.701 11.7595 662.736 20.2619C665.588 28.2905 661.073 36.5256 659.373 39.3193C662.044 40.0602 671.986 43.1089 674.826 51.2226C675.53 53.2267 676.744 58.2674 668.477 73.0493C664.702 79.7905 658.463 89.4588 648.436 99.7467C650.269 93.9772 652.478 84.9769 652.393 73.8024C652.333 65.5429 652.308 61.1096 649.504 56.6155C641.917 44.445 621.949 44.6393 619.752 44.6879C607.819 44.9551 603.558 50.0687 596.591 46.9714C590.278 44.1899 587.049 37.4852 585.289 32.1409Z" fill="#575757"/>
<path d="M598.824 99.8677C595.85 98.9081 594.224 95.6408 595.195 92.6164L598.958 84.6363C599.735 82.2071 602.077 79.5592 605.051 80.5066C608.025 81.4662 608.377 84.9885 607.601 87.4178L606.01 96.0902C605.027 99.1146 601.798 100.815 598.824 99.8677Z" fill="#EBA393"/>
<path d="M607.601 87.4055C608.28 85.3042 608.098 82.3891 606.108 81.0166C606.63 82.4134 606.557 84.1017 606.12 85.45L604.53 94.1224C603.558 97.1589 600.329 98.8594 597.355 97.8998C596.651 97.6691 596.02 97.3047 595.474 96.8553C596.117 98.2399 597.295 99.3574 598.836 99.8554C601.81 100.815 605.039 99.1145 606.01 96.0779L607.601 87.4055Z" fill="#DC8F87"/>
<path d="M586.175 80.7377C589.166 80.7377 591.589 78.3124 591.589 75.3205C591.589 72.3287 589.166 69.9033 586.175 69.9033C583.185 69.9033 580.761 72.3287 580.761 75.3205C580.761 78.3124 583.185 80.7377 586.175 80.7377Z" fill="#575757"/>
<path d="M623.406 92.7143C626.396 92.7143 628.82 90.2889 628.82 87.2971C628.82 84.3052 626.396 81.8799 623.406 81.8799C620.416 81.8799 617.992 84.3052 617.992 87.2971C617.992 90.2889 620.416 92.7143 623.406 92.7143Z" fill="#575757"/>
<path d="M611.182 114.128C609.737 116.594 606.411 119.436 600.572 119.436H598.666H596.761C590.934 119.436 587.596 116.594 586.151 114.128" stroke="#DE8079" stroke-width="2.5012" stroke-miterlimit="10" stroke-linecap="round"/>
<path d="M579.026 94.9488L569.715 91.9487C566.741 90.9891 565.102 87.7825 566.049 84.8067C567.008 81.8309 570.213 80.1912 573.187 81.1386L582.497 84.1387C585.471 85.0982 587.11 88.3048 586.163 91.2806C585.204 94.2565 581.987 95.8962 579.026 94.9488Z" fill="#EBA393"/>
<path d="M627.096 110.411L617.785 107.411C614.811 106.451 613.172 103.244 614.119 100.269C615.078 97.2928 618.283 95.6531 621.257 96.6005L630.568 99.6006C633.542 100.56 635.18 103.767 634.233 106.743C633.275 109.718 630.058 111.37 627.096 110.411Z" fill="#EBA393"/>
<path d="M594.806 63.1864C593.216 62.4334 590.873 61.5588 587.936 61.1459C585.326 60.7815 583.092 60.9151 581.453 61.1459" stroke="#575757" stroke-width="3.3534" stroke-miterlimit="10" stroke-linecap="round"/>
<path d="M623.466 72.4053C625.202 72.7332 627.606 73.377 630.228 74.7616C632.558 75.9884 634.294 77.4095 635.496 78.5391" stroke="#575757" stroke-width="3.3534" stroke-miterlimit="10" stroke-linecap="round"/>
<path d="M583.106 173.885C583.106 173.885 616.014 177.881 619.741 179.581C619.741 179.581 632.657 188.57 640.705 202.088C658.052 231.263 692.162 287.428 683.665 313.36C679.295 326.721 667.641 356.345 605.708 322.044L614.254 288.472L574.924 226.66L583.106 173.885Z" fill="#578F91"/>
<path d="M600.974 162.942L596.835 165.262C574.548 177.481 551.715 164.922 549.408 140.119L531.564 130.402L516.682 118.754L469.777 179.849L417.834 286.87L522.472 347.576L574.111 290.416L618.867 232.467L635.328 194.413C630.46 189.36 625.192 184.173 619.498 178.926C613.186 173.108 606.971 167.788 600.974 162.942Z" fill="#578F91"/>
<path d="M529.33 340.033C529.33 340.033 529.33 339.924 529.549 339.741L530.241 338.915L532.96 335.83C535.351 333.134 538.738 329.296 543.023 324.546L558.063 307.87L566.937 298.019L571.635 292.821L574.026 290.16L576.344 287.403C589.066 272.609 600.307 259.018 608.039 248.876L617.192 236.839C618.284 235.418 619.134 234.324 619.729 233.596L620.397 232.757C620.554 232.575 620.639 232.478 620.652 232.49C620.664 232.502 620.591 232.6 620.457 232.794L619.826 233.656L617.398 236.972C615.274 239.839 612.239 244.029 608.403 249.143C600.732 259.358 589.515 273.01 576.806 287.804L574.487 290.561L572.084 293.221L567.386 298.42L558.488 308.234C552.807 314.489 547.709 320.113 543.448 324.85L533.239 336.012L530.435 339.025L529.694 339.802L529.33 340.033Z" fill="#575757"/>
<path d="M413.464 31.5312L431.333 112.474L516.645 118.729L503.924 160.305L483.494 180.699C483.494 180.699 395.049 177.091 385.448 155.714C375.833 134.337 378.613 38.321 378.613 38.321L413.464 31.5312Z" fill="#578F91"/>
<path d="M485.812 168.832C485.788 169.196 485.727 169.561 485.642 169.913C485.472 170.703 485.266 171.699 484.987 172.937C484.392 175.561 483.567 179.363 482.583 184.063C480.629 193.465 478.225 206.51 476.32 221.036C474.426 235.563 473.418 248.815 472.921 258.398C472.666 263.196 472.496 267.083 472.399 269.767C472.399 271.03 472.29 272.087 472.265 272.852C472.265 273.217 472.229 273.581 472.144 273.933C472.095 273.569 472.071 273.204 472.071 272.84C472.071 272.038 472.071 271.018 472.071 269.755C472.071 267.071 472.071 263.184 472.302 258.362C472.654 248.754 473.564 235.49 475.446 220.915C477.327 206.34 479.852 193.295 481.976 183.869C483.045 179.241 483.967 175.391 484.659 172.804C484.999 171.65 485.278 170.593 485.485 169.816C485.557 169.476 485.667 169.148 485.812 168.832Z" fill="#575757"/>
<path d="M523.055 18.4258H0.606934V357.305H523.055V18.4258Z" fill="white" stroke="#575757" stroke-miterlimit="10"/>
<path d="M522.375 19.0088H1.21387V70.278H522.375V19.0088Z" fill="#71AFB6"/>
<g opacity="0.3">
<path opacity="0.3" d="M414.071 17.94C403.935 15.2436 391.347 17.1019 381.223 14.4055C379.754 13.8346 378.128 13.786 376.623 14.2719C374.911 15.0492 374.195 17.0776 373.903 18.9482C373.345 24.2075 375.032 29.4546 378.553 33.39C382.085 37.2768 386.686 40.0218 391.784 41.2729C395.826 42.3418 400.281 42.609 404.105 40.9692C410.818 38.0784 415.115 25.1792 414.071 17.94Z" fill="black"/>
</g>
<path opacity="0.3" d="M526.587 343.033L523.054 346.944V123.758L526.587 126.515V343.033Z" fill="black"/>
<path d="M605.709 322.032C605.696 321.935 605.696 321.838 605.709 321.741C605.709 321.522 605.818 321.267 605.891 320.927C606.073 320.15 606.316 319.129 606.619 317.842C607.299 315.109 608.27 311.234 609.447 306.473C611.912 296.853 615.225 283.65 619.001 269.051L619.086 268.735L619.171 268.419L619.474 268.528C626.648 270.848 633.24 273.63 639.212 276.193C645.184 278.755 650.501 281.209 654.968 283.237L665.529 288.084L668.394 289.42L669.134 289.772L669.377 289.906C669.377 289.906 669.28 289.906 669.11 289.821L668.345 289.517C667.678 289.25 666.682 288.849 665.42 288.302C662.895 287.221 659.266 285.618 654.786 283.675C650.307 281.731 644.954 279.302 638.981 276.727C633.009 274.152 626.418 271.419 619.316 269.136L619.693 268.917L619.608 269.233C615.808 283.808 612.373 297.011 609.884 306.619L606.862 317.927L606.012 321C605.903 321.328 605.842 321.583 605.769 321.802L605.709 322.032Z" fill="#575757"/>
<path d="M374.037 31.8105C371.913 31.8105 370.189 30.0857 370.189 27.9601V9.80152C370.189 7.67593 371.913 5.95117 374.037 5.95117C376.161 5.95117 377.885 7.67593 377.885 9.80152V27.9601C377.873 30.0857 376.161 31.8105 374.037 31.8105Z" fill="#F1C0B4"/>
<path d="M382.753 34.7989C380.058 34.7989 377.885 32.6126 377.885 29.9283V6.92337C377.885 4.22691 380.07 2.05273 382.753 2.05273C385.448 2.05273 387.62 4.23905 387.62 6.92337V29.9283C387.62 32.6248 385.448 34.7989 382.753 34.7989Z" fill="#F1C0B4"/>
<path d="M392.5 38.212C389.805 38.212 387.633 36.0257 387.633 33.3414V4.87063C387.633 2.17417 389.818 0 392.5 0C395.195 0 397.368 2.18632 397.368 4.87063V33.3292C397.368 36.0257 395.195 38.212 392.5 38.212Z" fill="#F1C0B4"/>
<path d="M402.248 34.7989C399.553 34.7989 397.38 32.6126 397.38 29.9283V6.92337C397.38 4.22691 399.565 2.05273 402.248 2.05273C404.943 2.05273 407.116 4.23905 407.116 6.92337V29.9283C407.116 32.6248 404.931 34.7989 402.248 34.7989Z" fill="#F1C0B4"/>
<path d="M416.863 17.8311H407.116V9.54739C407.116 6.85093 409.301 4.67676 411.983 4.67676C414.678 4.67676 416.851 6.86308 416.851 9.54739V17.8311H416.863Z" fill="#F1C0B4"/>
<path d="M378.031 9.58301H377.727V28.4339H378.031V9.58301Z" fill="#EBA393"/>
<path d="M387.778 6.79004H387.475V29.9893H387.778V6.79004Z" fill="#EBA393"/>
<path d="M397.599 6.79004H397.295V29.9893H397.599V6.79004Z" fill="#EBA393"/>
<path d="M605.344 268.954C605.344 268.954 578.445 247.686 573.516 244.054C568.588 240.423 536.723 227.317 535.57 226.503C535.57 226.503 525.507 222.434 524.256 225.118C523.006 227.803 526.284 230.876 526.575 231.191C526.83 231.471 546.895 243.653 551.083 246.192L548.146 249.241C541.263 258.022 547.66 273.533 557.857 278.088H557.869C564.266 281.307 583.749 288.728 583.749 288.728L606.85 317.66L617.738 276.084C617.811 275.987 605.344 268.954 605.344 268.954Z" fill="#F1C0B4"/>
<path d="M49.3078 188.96V190.5H61.1878V188.96H49.3078ZM49.8578 191.644V193.096H60.7698V191.644H49.8578ZM49.0218 194.35V195.89H61.4298V194.35H49.0218ZM54.1258 187.244V195.186H56.1278V187.244H54.1258ZM58.3058 197.034V205.658C58.3058 205.901 58.2398 205.989 57.9538 205.989C57.6678 205.989 56.7658 205.989 55.8418 205.967C56.0838 206.429 56.3258 207.155 56.4138 207.639C57.7998 207.661 58.7678 207.639 59.4278 207.353C60.0658 207.089 60.2638 206.583 60.2638 205.658V197.034H58.3058ZM51.2658 199.96V201.39H59.2078V199.96H51.2658ZM51.2658 202.776V204.184H59.2078V202.776H51.2658ZM50.2098 197.034V201.038C50.2098 202.776 50.0778 204.954 48.7578 206.561C49.1538 206.803 49.9238 207.529 50.2098 207.903C51.7938 206.055 52.1018 203.194 52.1018 201.082V197.034H50.2098ZM51.3318 197.034V198.618H58.9218V197.034H51.3318ZM41.6958 193.8V195.428H48.2078V193.8H41.6958ZM42.7518 199.872V201.566H46.3818V204.734H42.7518V206.429H48.1858V199.872H42.7518ZM41.7398 199.872V207.375H43.5218V199.872H41.7398ZM41.6958 196.814V198.442H48.2298V196.814H41.6958ZM41.1458 190.896V192.59H48.8458V190.896H41.1458ZM43.6318 187.838C44.0278 188.784 44.5338 190.06 44.7098 190.852L46.5578 190.236C46.3378 189.444 45.8318 188.212 45.3918 187.288L43.6318 187.838ZM74.9818 198.046V204.558C74.9818 206.671 75.5098 207.331 77.7098 207.331C78.1498 207.331 80.1078 207.331 80.5698 207.331C82.4618 207.331 83.0338 206.429 83.2538 203.018C82.6818 202.864 81.7798 202.534 81.3398 202.182C81.2518 204.932 81.1418 205.35 80.3938 205.35C79.9318 205.35 78.3258 205.35 77.9738 205.35C77.2038 205.35 77.0718 205.24 77.0718 204.558V198.046H74.9818ZM63.5198 196.55V198.574H82.9898V196.55H63.5198ZM67.1498 190.478V192.48H81.3398V190.478H67.1498ZM69.0858 198.112C68.7338 201.632 67.9638 204.492 63.1898 205.989C63.6738 206.407 64.2678 207.243 64.5098 207.793C69.7458 205.901 70.8458 202.468 71.2638 198.112H69.0858ZM67.3698 187.684C66.8638 189.95 65.7858 192.92 64.3118 194.746C64.8178 194.944 65.6538 195.384 66.1378 195.714C67.6558 193.756 68.7998 190.654 69.4818 188.102L67.3698 187.684ZM72.1878 187.244V197.188H74.2998V187.244H72.1878ZM85.8718 188.388V190.346H104.462V188.388H85.8718ZM87.3238 199.366V201.302H103.23V199.366H87.3238ZM85.3438 204.932V206.891H105.166V204.932H85.3438ZM94.0998 196.814V206.253H96.2558V196.814H94.0998ZM97.1798 192.018C99.1818 193.58 101.624 195.868 102.702 197.364L104.506 196.088C103.296 194.57 100.788 192.392 98.8298 190.918L97.1798 192.018ZM87.4998 196.704C87.4998 196.264 89.0178 195.626 89.0178 195.626V195.604C90.8218 194.152 92.8458 191.952 94.5838 189.576L92.2958 188.938C90.9318 191.072 88.9958 193.096 88.3578 193.668C87.7638 194.218 87.2798 194.57 86.8178 194.68C87.0378 195.23 87.3898 196.242 87.4998 196.704ZM87.4998 196.704C88.4238 196.374 89.7658 196.352 102.02 195.802C101.91 195.384 101.734 194.592 101.69 194.042L88.8638 194.482L87.4778 195.186L87.4998 196.704ZM260.439 189.752V191.732H268.623V189.752H260.439ZM268.843 192.128V194.13H279.051V192.128H268.843ZM263.519 190.544V201.588H265.565V190.544H263.519ZM278.083 192.128V192.568C277.819 201.148 277.511 204.404 276.873 205.108C276.631 205.394 276.389 205.46 275.971 205.46C275.465 205.46 274.299 205.46 273.045 205.35C273.397 205.923 273.639 206.803 273.683 207.397C274.915 207.463 276.169 207.485 276.895 207.397C277.687 207.287 278.193 207.089 278.699 206.385C279.535 205.372 279.799 202.16 280.107 193.118C280.129 192.832 280.129 192.128 280.129 192.128H278.083ZM260.131 201.588L260.637 203.744C263.013 203.106 266.203 202.204 269.173 201.346L268.909 199.366C265.719 200.224 262.331 201.126 260.131 201.588ZM272.319 187.596C272.275 195.846 272.451 202.6 266.181 206.033C266.687 206.407 267.369 207.177 267.655 207.705C274.343 203.854 274.387 196.396 274.431 187.596H272.319ZM289.699 195.12V205.592C289.699 205.879 289.633 205.967 289.325 205.967C289.039 205.967 288.137 205.989 287.213 205.945C287.477 206.407 287.763 207.111 287.851 207.595C289.215 207.595 290.205 207.573 290.843 207.309C291.481 207.023 291.679 206.538 291.679 205.592V195.12H289.699ZM284.661 195.12V196.88H290.777V195.12H284.661ZM293.505 197.562V204.8C293.505 206.891 294.121 207.507 296.453 207.507C296.959 207.507 299.511 207.507 300.039 207.507C301.975 207.507 302.547 206.693 302.811 203.81C302.239 203.7 301.403 203.37 300.963 203.04C300.853 205.284 300.699 205.658 299.863 205.658C299.269 205.658 297.135 205.658 296.717 205.658C295.749 205.658 295.573 205.548 295.573 204.778V197.562H293.505ZM288.643 189.488C289.633 191.094 290.821 193.272 291.305 194.614L293.109 193.844C292.559 192.524 291.349 190.412 290.337 188.85L288.643 189.488ZM294.759 190.148V191.952H301.293V190.148H294.759ZM294.781 200.005V201.874H301.513V200.005H294.781ZM283.429 194.042C283.429 193.646 284.639 193.03 284.639 193.03V193.008C286.025 191.776 287.609 189.818 288.797 187.904L286.685 187.244C285.805 189.004 284.397 190.764 283.957 191.248C283.517 191.732 283.143 192.04 282.769 192.128C282.989 192.656 283.319 193.624 283.429 194.042ZM283.429 194.042C284.023 193.8 284.925 193.668 291.657 193.052C291.525 192.634 291.349 191.93 291.283 191.402L284.397 191.908L283.363 192.524L283.429 194.042ZM283.671 195.12V200.334C283.671 202.226 283.561 204.602 282.329 206.319C282.725 206.583 283.495 207.331 283.781 207.727C285.321 205.724 285.585 202.644 285.585 200.356V195.12H283.671ZM285.255 203.26L285.915 205.02C287.367 204.162 289.039 203.106 290.667 202.05L290.271 200.774C288.401 201.72 286.531 202.688 285.255 203.26ZM285.585 198.838C286.641 199.564 288.027 200.576 288.709 201.214L289.831 200.092C289.105 199.498 287.719 198.53 286.663 197.87L285.585 198.838ZM293.505 187.288V193.932C293.505 196.088 294.143 196.88 296.387 196.88C296.871 196.88 299.555 196.88 300.193 196.88C301.007 196.88 301.865 196.836 302.261 196.726C302.195 196.242 302.107 195.472 302.085 194.922C301.623 195.032 300.721 195.076 300.149 195.076C299.511 195.076 297.025 195.076 296.431 195.076C295.727 195.076 295.573 194.79 295.573 193.998V187.288H293.505ZM313.965 190.83H313.701L312.073 192.546V203.326H313.965V192.524H323.865V190.83H313.965ZM312.975 194.416V196.022H323.161V194.416H312.975ZM313.063 197.958V199.586H323.183V197.958H313.063ZM312.997 201.588V203.326H324.305V201.588H312.997ZM317.419 191.512V202.468H319.223V191.512H317.419ZM313.767 187.398C312.799 190.192 311.215 192.986 309.477 194.79C309.807 195.186 310.357 196.088 310.555 196.462C312.513 194.372 314.339 191.116 315.483 187.882L313.767 187.398ZM316.891 188.058C317.507 189.18 318.145 190.676 318.387 191.6L320.191 191.028C319.949 190.104 319.245 188.63 318.607 187.552L316.891 188.058ZM305.099 188.212C306.089 189.29 307.343 190.83 307.937 191.754L309.521 190.61C308.905 189.708 307.673 188.322 306.661 187.266L305.099 188.212ZM304.417 192.348V194.042H309.169V192.348H304.417ZM308.575 202.204L307.189 202.82C308.817 206.693 311.633 207.331 316.759 207.331C319.245 207.331 322.039 207.287 324.195 207.155C324.305 206.583 324.591 205.614 324.877 205.196C322.523 205.394 319.113 205.526 316.803 205.526C312.601 205.504 309.851 205.13 308.575 202.204ZM308.509 197.782V198.112C307.915 202.072 306.287 204.844 303.933 206.297C304.329 206.583 305.011 207.309 305.275 207.705C307.783 206.055 309.609 202.886 310.357 198.112L309.345 197.738L308.993 197.782H308.509ZM304.769 199.74C304.945 199.564 305.539 199.432 306.089 199.432H309.125L309.147 197.782H305.627L304.769 198.222V199.74ZM304.769 199.74C304.769 199.256 306.243 198.552 306.243 198.552C307.497 197.122 309.499 194.35 310.555 192.854L309.235 192.238L308.663 192.48V192.546C307.915 193.734 305.825 196.638 305.143 197.298C304.747 197.738 304.395 197.892 304.043 197.98C304.241 198.376 304.637 199.3 304.769 199.74ZM335.107 188.542V190.522H345.887V188.542H335.107ZM341.157 195.23V205.108C341.157 205.46 341.025 205.548 340.607 205.57C340.211 205.592 338.737 205.592 337.307 205.526C337.593 206.143 337.879 207.023 337.967 207.617C340.035 207.617 341.355 207.595 342.191 207.287C343.027 206.957 343.291 206.341 343.291 205.152V195.23H341.157ZM334.139 194.636V196.616H346.481V194.636H334.139ZM329.519 196.726V207.727H331.587V195.01L331.345 194.9L329.519 196.726ZM332.027 191.996C330.553 194.505 328.133 197.056 325.867 198.662C326.285 199.08 327.011 200.005 327.319 200.422C329.651 198.53 332.291 195.582 334.007 192.744L332.027 191.996ZM331.169 187.244C330.069 188.806 327.935 190.786 326.109 191.996C326.461 192.414 327.011 193.228 327.297 193.691C329.321 192.26 331.631 190.06 333.171 188.058L331.169 187.244ZM351.607 195.472V197.496H363.905V195.472H351.607ZM363.201 195.472V195.846C362.959 202.204 362.673 204.69 362.101 205.284C361.881 205.526 361.617 205.57 361.199 205.57C360.671 205.57 359.395 205.548 358.053 205.438C358.427 206.033 358.691 206.913 358.735 207.529C360.077 207.595 361.419 207.617 362.167 207.529C362.959 207.441 363.509 207.264 363.993 206.627C364.763 205.746 365.071 203.172 365.357 196.418C365.379 196.132 365.379 195.472 365.379 195.472H363.201ZM355.941 196.044C355.545 200.092 354.819 204.008 348.989 205.923C349.473 206.385 350.089 207.243 350.331 207.793C356.667 205.482 357.723 200.928 358.185 196.044H355.941ZM353.631 187.992C352.597 191.38 350.595 194.328 348.021 196.132C348.527 196.484 349.407 197.254 349.781 197.672C352.355 195.604 354.577 192.326 355.809 188.52L353.631 187.992ZM357.305 187.618V189.554H362.211V187.618H357.305ZM360.231 187.618V188.74H360.715C361.925 192.216 364.301 195.67 367.403 197.628C367.733 197.056 368.437 196.176 368.877 195.736C365.951 194.152 363.619 190.984 362.541 187.618H360.231ZM381.043 191.512V193.404H390.217V191.512H381.043ZM381.329 195.956V197.892H389.821V195.956H381.329ZM380.537 200.686V202.644H390.701V200.686H380.537ZM381.219 187.97C381.879 189.114 382.473 190.632 382.649 191.644L384.431 190.984C384.211 189.972 383.595 188.498 382.869 187.398L381.219 187.97ZM387.863 187.222C387.555 188.388 386.895 190.016 386.389 191.05L388.105 191.49C388.633 190.522 389.271 189.048 389.865 187.706L387.863 187.222ZM384.519 192.458V207.683H386.521V192.458H384.519ZM370.263 191.952V193.712H380.801V191.952H370.263ZM371.429 188.322V190.082H377.677V195.56H371.319V197.32H379.591V188.322H371.429ZM372.551 199.345V207.683H374.443V199.345H372.551ZM373.321 199.345V201.148H377.919V204.734H373.321V206.538H379.943V199.345H373.321ZM373.893 188.982C373.607 194.703 372.793 199.388 369.955 202.094C370.373 202.468 371.077 203.304 371.319 203.722C374.487 200.51 375.477 195.516 375.873 189.07L373.893 188.982ZM399.611 204.888V206.803H409.885V204.888H399.611ZM398.687 189.444V191.292H406.651V189.444H398.687ZM399.501 187.156C398.225 189.554 395.739 192.326 392.109 194.284C392.571 194.658 393.275 195.406 393.583 195.912C397.455 193.602 400.095 190.632 401.855 187.618L399.501 187.156ZM405.969 189.444V189.796C403.791 195.472 397.895 199.762 392.021 201.456C392.461 201.896 392.989 202.754 393.231 203.326C399.479 201.258 405.529 196.814 408.147 190.082L406.739 189.334L406.365 189.444H405.969ZM395.893 193.756C397.543 194.944 399.567 196.726 400.447 197.936L402.141 196.44C401.151 195.23 399.083 193.558 397.433 192.414L395.893 193.756ZM408.895 198.046V207.705H411.051V198.046H408.895ZM400.513 198.046H400.051L398.423 199.63V207.661H400.513V199.938H409.951V198.046H400.513ZM423.261 194.416V207.661H425.417V194.416H423.261ZM418.839 198.222H430.125V199.806H418.839V198.222ZM418.839 195.098H430.125V196.682H418.839V195.098ZM416.793 193.47V201.434H432.259V193.47H416.793ZM414.637 202.886V204.712H434.239V202.886H414.637ZM417.981 189.422H421.721V191.16H417.981V189.422ZM416.133 188.102V192.458H423.679V188.102H416.133ZM427.111 189.422H430.895V191.16H427.111V189.422ZM425.241 188.102V192.458H432.853V188.102H425.241ZM445.459 193.25V194.988H456.437V193.25H445.459ZM438.529 204.69V206.341H443.809V204.69H438.529ZM438.573 194.064V195.714H442.643V197.738H438.551V199.388H444.601V194.064H438.573ZM438.551 200.84V202.512H443.017V207.177H444.953V200.84H438.551ZM437.407 194.064V207.595H439.343V194.064H437.407ZM440.047 192.172C439.783 192.92 439.277 194.02 438.881 194.746L440.685 195.164C441.125 194.505 441.653 193.58 442.181 192.568L440.047 192.172ZM446.009 196.638V205.636H447.879V198.42H454.413V196.638H446.009ZM453.819 196.638V203.568C453.819 203.766 453.775 203.832 453.577 203.832C453.357 203.854 452.807 203.854 452.125 203.832C452.367 204.338 452.565 205.064 452.631 205.614C453.731 205.614 454.523 205.592 455.095 205.284C455.667 204.976 455.799 204.47 455.799 203.59V196.638H453.819ZM449.903 193.8V207.639H451.839V193.8H449.903ZM439.233 188.74V190.346H446.493V188.74H439.233ZM448.429 188.762V190.346H456.569V188.762H448.429ZM439.563 187.068C438.837 188.982 437.561 190.874 436.175 192.128C436.593 192.458 437.297 193.162 437.605 193.536C439.035 192.084 440.531 189.818 441.411 187.596L439.563 187.068ZM448.913 187.046C448.363 188.718 447.351 190.346 446.141 191.402C446.603 191.666 447.373 192.304 447.725 192.634C448.957 191.402 450.167 189.488 450.849 187.53L448.913 187.046ZM440.971 191.138C441.631 191.71 442.489 192.546 442.885 193.074L444.205 191.886C443.787 191.358 442.907 190.588 442.225 190.06L440.971 191.138ZM450.981 191.094C451.619 191.732 452.433 192.634 452.807 193.206L454.215 191.996C453.819 191.446 452.983 190.61 452.323 190.038L450.981 191.094ZM464.863 196.528V198.09H477.579V196.528H464.863ZM463.983 199.85V201.412H478.327V199.85H463.983ZM467.745 195.142V200.708H469.681V195.142H467.745ZM472.651 195.142V200.708H474.587V195.142H472.651ZM472.189 202.314C473.663 203.04 475.225 204.03 476.083 204.8L477.931 203.898C476.897 203.128 475.115 202.138 473.553 201.39L472.189 202.314ZM468.493 201.434C467.503 202.27 465.875 203.084 464.357 203.612C464.819 203.898 465.545 204.514 465.919 204.866C467.415 204.206 469.197 203.15 470.341 202.072L468.493 201.434ZM465.457 188.058V189.4H468.889V190.654H465.457V191.996H470.649V188.058H465.457ZM472.453 188.08V189.422H475.995V190.676H472.453V192.018H477.777V188.08H472.453ZM471.661 188.08V192.458C471.661 194.152 472.079 194.79 473.817 194.79C474.191 194.79 476.171 194.79 476.633 194.79C477.249 194.79 477.865 194.746 478.217 194.658C478.151 194.262 478.107 193.646 478.063 193.206C477.689 193.294 477.007 193.316 476.589 193.316C476.171 193.316 474.323 193.316 473.905 193.316C473.421 193.316 473.333 193.118 473.333 192.502V188.08H471.661ZM464.731 195.384C465.127 195.164 465.831 195.032 470.539 194.218C470.561 193.866 470.671 193.184 470.781 192.766L465.457 193.558L464.665 194.086L464.731 195.384ZM464.731 195.384C464.731 194.79 466.315 193.932 466.315 193.932V188.058H464.665V192.458C464.665 193.294 464.335 193.624 464.027 193.778C464.291 194.174 464.621 194.944 464.731 195.384ZM458.747 188.278C459.737 189.378 460.991 190.896 461.585 191.82L463.191 190.676C462.553 189.796 461.321 188.41 460.287 187.332L458.747 188.278ZM458.417 192.392V194.086H462.443V192.392H458.417ZM462.487 202.204L461.101 202.82C462.729 206.715 465.567 207.331 470.737 207.331C473.245 207.331 476.039 207.287 478.217 207.155C478.327 206.583 478.591 205.614 478.899 205.174C476.523 205.394 473.113 205.526 470.759 205.526C466.535 205.504 463.763 205.13 462.487 202.204ZM462.069 197.782V198.112C461.541 202.006 460.111 204.8 457.977 206.297C458.373 206.583 459.055 207.287 459.341 207.705C461.607 205.989 463.257 202.798 463.917 198.09L462.905 197.738L462.575 197.782H462.069ZM458.835 199.74C459.011 199.586 459.605 199.432 460.111 199.432H462.619V197.782H459.671L458.835 198.222V199.74ZM458.835 199.74C458.835 199.256 460.287 198.53 460.287 198.53C461.343 197.144 463.015 194.262 463.873 192.766L462.553 192.26L462.003 192.48V192.546C461.409 193.712 459.693 196.704 459.143 197.32C458.791 197.76 458.461 197.892 458.131 198.002C458.329 198.376 458.725 199.3 458.835 199.74Z" fill="#575757"/>
<path d="M128.998 188.234V189.994H138.106V188.234H128.998ZM131.286 196.594H135.664V198.332H131.286V196.594ZM131.286 199.85H135.664V201.588H131.286V199.85ZM131.286 193.36H135.664V195.076H131.286V193.36ZM129.57 191.754V203.194H137.446V191.754H129.57ZM132.518 189.158C132.474 190.17 132.276 191.666 132.078 192.656L133.75 192.986C134.036 192.062 134.366 190.676 134.696 189.4L132.518 189.158ZM131.484 203.656C130.78 204.602 129.416 205.79 128.162 206.451C128.602 206.781 129.196 207.353 129.504 207.705C130.758 207.001 132.232 205.768 133.156 204.646L131.484 203.656ZM134.146 204.624C135.136 205.482 136.324 206.715 136.852 207.529L138.436 206.473C137.842 205.68 136.632 204.514 135.664 203.7L134.146 204.624ZM124.224 196.55C124.598 197.254 124.972 198.2 125.148 198.838L126.622 198.354C126.446 197.76 126.028 196.836 125.632 196.154L124.224 196.55ZM122.222 200.356V201.566H128.382V200.356H122.222ZM122.222 202.622V203.854H128.426V202.622H122.222ZM124.884 198.64V205.702H126.292V198.64H124.884ZM122.992 197.98H122.596L121.43 199.3V207.441H122.992V199.322H128.624V197.98H122.992ZM122.31 196.066C121.804 197.782 120.946 199.498 119.912 200.642C120.22 200.95 120.704 201.676 120.88 201.984C122.068 200.62 123.146 198.508 123.784 196.462L122.31 196.066ZM119.758 191.204V192.788H126.512V194.416H119.758V196.022H128.382V191.204H119.758ZM126.776 187.618C124.972 188.212 121.76 188.674 119.01 188.916C119.208 189.312 119.472 189.994 119.538 190.412C122.442 190.192 125.918 189.73 128.316 189.026L126.776 187.618ZM118.988 188.916V196.022C118.988 199.124 118.922 203.568 117.734 206.671C118.174 206.825 118.966 207.221 119.296 207.507C120.55 204.25 120.748 199.345 120.748 196.022V188.916H118.988ZM122.266 204.91V206.319H128.778V204.91H122.266ZM147.456 191.248C146.356 192.92 144.266 194.746 141.186 196.022C141.648 196.352 142.286 197.056 142.572 197.54C145.872 195.978 148.116 193.932 149.678 191.688L147.456 191.248ZM147.676 192.832L146.224 194.416H154.87V192.832H147.676ZM154.254 192.832V193.14C151.834 196.88 145.652 199.366 139.844 200.312C140.218 200.774 140.658 201.632 140.856 202.16C147.016 200.972 153.462 198.288 156.432 193.58L155.024 192.722L154.65 192.832H154.254ZM146.774 194.042L144.948 194.856C147.984 198.64 153.176 200.906 159.16 201.786C159.446 201.192 160.018 200.29 160.48 199.806C154.584 199.124 149.326 197.166 146.774 194.042ZM144.068 200.84V207.661H146.114V202.579H154.276V207.617H156.41V200.84H144.068ZM145.234 205.218V206.957H155.354V205.218H145.234ZM140.768 189.158V193.624H142.814V191.05H157.422V193.624H159.534V189.158H140.768ZM148.446 187.53C148.974 188.476 149.634 189.73 149.92 190.5L152.076 189.928C151.746 189.136 151.064 187.904 150.492 187.024L148.446 187.53ZM176.298 192.062V193.954H182.37V192.062H176.298ZM172.734 204.8V206.693H180.456V204.8H172.734ZM171.722 197.848V207.661H173.658V199.696H179.356V207.573H181.38V197.848H171.722ZM175.22 187.266V198.706H177.266V187.266H175.22ZM164.286 202.446C163.78 203.986 162.856 205.526 161.756 206.538C162.218 206.803 163.054 207.375 163.406 207.705C164.528 206.538 165.606 204.734 166.244 202.909L164.286 202.446ZM167.256 203.15C168.092 204.25 168.994 205.79 169.368 206.803L171.128 205.923C170.71 204.932 169.786 203.48 168.906 202.38L167.256 203.15ZM164.902 193.844H168.378V196.33H164.902V193.844ZM164.902 197.892H168.378V200.422H164.902V197.892ZM164.902 189.796H168.378V192.26H164.902V189.796ZM162.988 188.102V202.094H170.358V188.102H162.988ZM195.284 189.07V195.67H196.824V189.07H195.284ZM198.452 189.07V195.67H199.97V189.07H198.452ZM199.794 203.348C200.872 204.448 202.06 206.011 202.61 207.023L204.216 206.055C203.644 205.064 202.434 203.612 201.312 202.534L199.794 203.348ZM193.59 202.534C192.93 203.832 191.808 205.13 190.664 206.033C191.104 206.297 191.874 206.825 192.226 207.133C193.37 206.143 194.602 204.558 195.416 203.062L193.59 202.534ZM191.5 188.19V189.862H203.93V188.19H191.5ZM192.886 197.364V198.992H202.588V197.364H192.886ZM191.522 200.246V201.918H204.018V200.246H191.522ZM193.678 192.656H201.752V194.856H193.678V192.656ZM191.962 191.116V196.396H203.556V191.116H191.962ZM196.692 201.192V207.661H198.584V201.192H196.692ZM184.306 191.446V193.36H191.478V191.446H184.306ZM187.254 187.244V207.661H189.146V187.244H187.254ZM187.122 192.788C186.506 195.626 185.142 199.3 183.734 201.192C184.064 201.72 184.548 202.644 184.768 203.26C186.242 200.994 187.606 196.704 188.266 193.272L187.122 192.788ZM189.08 194.35L188.112 195.12C188.706 196.088 190.048 198.662 190.532 199.85L191.764 198.42C191.368 197.76 189.586 194.966 189.08 194.35ZM209.342 195.472V197.496H221.64V195.472H209.342ZM220.936 195.472V195.846C220.694 202.204 220.408 204.69 219.836 205.284C219.616 205.526 219.352 205.57 218.934 205.57C218.406 205.57 217.13 205.548 215.788 205.438C216.162 206.033 216.426 206.913 216.47 207.529C217.812 207.595 219.154 207.617 219.902 207.529C220.694 207.441 221.244 207.264 221.728 206.627C222.498 205.746 222.806 203.172 223.092 196.418C223.114 196.132 223.114 195.472 223.114 195.472H220.936ZM213.676 196.044C213.28 200.092 212.554 204.008 206.724 205.923C207.208 206.385 207.824 207.243 208.066 207.793C214.402 205.482 215.458 200.928 215.92 196.044H213.676ZM211.366 187.992C210.332 191.38 208.33 194.328 205.756 196.132C206.262 196.484 207.142 197.254 207.516 197.672C210.09 195.604 212.312 192.326 213.544 188.52L211.366 187.992ZM215.04 187.618V189.554H219.946V187.618H215.04ZM217.966 187.618V188.74H218.45C219.66 192.216 222.036 195.67 225.138 197.628C225.468 197.056 226.172 196.176 226.612 195.736C223.686 194.152 221.354 190.984 220.276 187.618H217.966ZM238.778 191.512V193.404H247.952V191.512H238.778ZM239.064 195.956V197.892H247.556V195.956H239.064ZM238.272 200.686V202.644H248.436V200.686H238.272ZM238.954 187.97C239.614 189.114 240.208 190.632 240.384 191.644L242.166 190.984C241.946 189.972 241.33 188.498 240.604 187.398L238.954 187.97ZM245.598 187.222C245.29 188.388 244.63 190.016 244.124 191.05L245.84 191.49C246.368 190.522 247.006 189.048 247.6 187.706L245.598 187.222ZM242.254 192.458V207.683H244.256V192.458H242.254ZM227.998 191.952V193.712H238.536V191.952H227.998ZM229.164 188.322V190.082H235.412V195.56H229.054V197.32H237.326V188.322H229.164ZM230.286 199.345V207.683H232.178V199.345H230.286ZM231.056 199.345V201.148H235.654V204.734H231.056V206.538H237.678V199.345H231.056ZM231.628 188.982C231.342 194.703 230.528 199.388 227.69 202.094C228.108 202.468 228.812 203.304 229.054 203.722C232.222 200.51 233.212 195.516 233.608 189.07L231.628 188.982Z" fill="#71AFB6"/>
</g>
<defs>
<clipPath id="clip0_3680_25943">
<rect width="685" height="357.913" fill="white"/>
</clipPath>
</defs>
</svg>
