<svg width="300" height="40" viewBox="0 0 300 40" fill="none" xmlns="http://www.w3.org/2000/svg">
<rect x="0.5" y="0.5" width="299" height="39" rx="9.5" stroke="#C4C4C4"/>
<path d="M57.542 15.292V16.552H67.1V15.292H57.542ZM58.082 19.396V20.656H66.614V19.396H58.082ZM59.162 27.424V28.666H65.462V27.424H59.162ZM61.502 12.88V20.062H62.87V12.88H61.502ZM58.442 22.528V29.44H59.702V23.77H64.778V29.368H66.092V22.528H58.442ZM55.274 19.99C55.76 21.232 56.246 22.834 56.426 23.824L57.524 23.446C57.326 22.492 56.804 20.908 56.3 19.702L55.274 19.99ZM53.528 24.616C53.762 25.912 53.96 27.604 53.996 28.72L55.094 28.504C55.022 27.388 54.806 25.732 54.554 24.436L53.528 24.616ZM51.494 24.472C51.314 25.966 51.062 27.64 50.612 28.774C50.918 28.864 51.458 29.044 51.71 29.17C52.07 28.036 52.43 26.272 52.628 24.67L51.494 24.472ZM51.062 19.63C51.062 19.36 51.89 18.946 51.89 18.946V18.928C53.132 17.47 54.392 15.382 55.382 13.366L54.14 12.826C53.366 14.806 52.07 16.876 51.656 17.416C51.278 17.956 50.954 18.334 50.63 18.406C50.774 18.748 50.99 19.36 51.062 19.63ZM51.062 19.63C51.35 19.486 51.854 19.396 54.752 19.054C54.752 18.784 54.788 18.316 54.86 17.992L51.656 18.262L51.026 18.64L51.062 19.63ZM51.17 23.68C51.17 23.41 52.016 23.014 52.016 23.014V22.978C53.762 21.25 55.544 18.784 56.966 16.354L55.814 15.67C54.608 18.082 52.7 20.62 52.106 21.25C51.548 21.916 51.134 22.366 50.738 22.438C50.9 22.798 51.116 23.41 51.17 23.68ZM51.17 23.68C51.548 23.5 52.142 23.356 56.642 22.708C56.624 22.42 56.642 21.934 56.696 21.61L51.8 22.24L51.134 22.672L51.17 23.68ZM55.382 24.274C55.778 25.39 56.21 26.866 56.39 27.82L57.398 27.478C57.218 26.542 56.768 25.084 56.336 23.968L55.382 24.274ZM69.35 14.806V16.066H84.668V14.806H69.35ZM76.262 12.898V29.44H77.666V12.898H76.262ZM76.136 22.51C74.552 24.67 71.492 26.758 68.702 27.712C69.026 28 69.44 28.504 69.656 28.846C72.446 27.712 75.542 25.498 77.27 23.014L76.136 22.51ZM77.882 22.546L76.766 23.032C78.494 25.498 81.572 27.748 84.416 28.864C84.632 28.504 85.064 27.982 85.388 27.694C82.544 26.758 79.448 24.724 77.882 22.546ZM71.906 19.252H82.076V22.006H71.906V19.252ZM70.592 18.046V23.23H83.444V18.046H70.592Z" fill="#575757"/>
<rect x="18" y="16" width="25" height="12" rx="6" fill="#EBE6F8"/>
<path d="M148.334 15.868H148.208L147.092 17.056V25.948H148.334V17.002H156.578V15.868H148.334ZM147.686 18.82V19.9H156.092V18.82H147.686ZM147.722 21.772V22.852H156.092V21.772H147.722ZM147.686 24.796V25.948H156.992V24.796H147.686ZM151.484 16.336V25.372H152.69V16.336H151.484ZM148.514 13.006C147.704 15.364 146.39 17.722 144.95 19.27C145.184 19.522 145.562 20.08 145.706 20.332C147.272 18.604 148.73 15.958 149.666 13.33L148.514 13.006ZM150.998 13.474C151.52 14.392 152.096 15.616 152.312 16.354L153.5 15.976C153.266 15.22 152.672 14.032 152.114 13.15L150.998 13.474ZM141.494 13.51C142.286 14.392 143.294 15.652 143.78 16.408L144.824 15.67C144.32 14.932 143.33 13.78 142.502 12.916L141.494 13.51ZM140.846 17.038V18.172H144.788V17.038H140.846ZM144.05 25.3L143.15 25.714C144.5 28.684 146.858 29.188 151.07 29.188C153.05 29.188 155.318 29.134 157.01 29.044C157.082 28.666 157.262 28.036 157.46 27.748C155.624 27.892 152.978 27.982 151.088 27.982C147.506 27.982 145.166 27.658 144.05 25.3ZM144.302 21.538V21.772C143.798 25.066 142.412 27.352 140.504 28.558C140.756 28.756 141.206 29.206 141.386 29.494C143.402 28.144 144.896 25.606 145.526 21.754L144.842 21.502L144.608 21.538H144.302ZM141.098 22.888C141.224 22.744 141.692 22.636 142.16 22.636H144.734L144.752 21.538H141.746L141.098 21.862V22.888ZM141.098 22.888C141.098 22.546 142.106 22.042 142.106 22.042C143.168 20.89 144.842 18.604 145.724 17.38L144.824 16.948L144.41 17.128V17.182C143.798 18.136 142.034 20.566 141.458 21.124C141.152 21.484 140.864 21.592 140.594 21.664C140.738 21.952 141.008 22.582 141.098 22.888ZM165.83 13.978V15.274H174.668V13.978H165.83ZM171.086 19.342V27.694C171.086 28 170.978 28.072 170.618 28.09C170.294 28.108 169.088 28.108 167.81 28.072C168.008 28.468 168.188 29.026 168.242 29.404C170.006 29.404 171.032 29.386 171.644 29.188C172.256 28.972 172.454 28.558 172.454 27.712V19.342H171.086ZM165.038 18.946V20.224H175.19V18.946H165.038ZM161.438 20.332V29.494H162.788V19.234L162.626 19.162L161.438 20.332ZM163.526 16.732C162.284 18.802 160.304 20.89 158.432 22.222C158.72 22.474 159.188 23.068 159.386 23.338C161.276 21.826 163.4 19.504 164.804 17.218L163.526 16.732ZM162.788 12.88C161.87 14.176 160.124 15.796 158.63 16.804C158.864 17.074 159.224 17.596 159.422 17.884C161.024 16.732 162.878 14.986 164.084 13.402L162.788 12.88ZM177.728 16.102V24.67H179.078V17.434H190.832V24.58H192.236V16.102H177.728ZM178.448 22.222V23.536H191.642V22.222H178.448ZM184.244 12.88V29.422H185.648V12.88H184.244Z" fill="#575757"/>
<rect x="108" y="16" width="25" height="12" rx="6" fill="#71AFB6"/>
<path d="M248.062 13.762V14.95H253.912V13.762H248.062ZM247.666 19.468V20.692H254.542V19.468H247.666ZM250.636 20.062V27.838C250.636 28.054 250.564 28.126 250.312 28.126C250.06 28.144 249.214 28.144 248.296 28.126C248.476 28.486 248.674 29.044 248.728 29.404C249.97 29.404 250.762 29.386 251.266 29.17C251.788 28.972 251.932 28.576 251.932 27.856V20.062H250.636ZM253.498 13.762V14.032C252.94 15.058 251.806 16.516 250.816 17.362C251.05 17.56 251.41 17.92 251.608 18.154C252.742 17.2 254.038 15.652 254.902 14.266L254.038 13.69L253.786 13.762H253.498ZM254.164 19.468V19.666C253.804 20.908 253.282 22.42 252.85 23.338L253.894 23.608C254.362 22.618 254.938 21.052 255.406 19.648L254.56 19.414L254.362 19.468H254.164ZM248.566 16.912C250.078 17.722 251.86 18.982 252.724 19.918L253.498 18.928C252.616 18.01 250.798 16.804 249.286 16.012L248.566 16.912ZM255.028 13.726V14.896H264.172V13.726H255.028ZM256.972 20.422H262.246V22.186H256.972V20.422ZM256.972 23.176H262.246V24.958H256.972V23.176ZM256.972 17.668H262.246V19.414H256.972V17.668ZM255.712 16.624V26.02H263.56V16.624H255.712ZM258.898 14.302C258.79 15.13 258.538 16.372 258.322 17.182L259.51 17.416C259.798 16.66 260.122 15.526 260.428 14.482L258.898 14.302ZM257.512 26.344C256.738 27.136 255.118 28.072 253.678 28.594C253.948 28.828 254.38 29.242 254.578 29.512C256.018 28.972 257.71 28 258.7 27.046L257.512 26.344ZM260.302 27.118C261.418 27.802 262.804 28.828 263.47 29.494L264.55 28.72C263.812 28.036 262.426 27.064 261.328 26.434L260.302 27.118ZM268.798 18.442V19.738H279.292V18.442H268.798ZM273.982 22.69V23.968H280.048V22.69H273.982ZM273.262 19.054V27.982L274.666 28.162V19.054H273.262ZM269.032 21.196C268.636 24.472 267.664 27.046 265.648 28.594C265.972 28.81 266.53 29.26 266.746 29.494C268.78 27.712 269.896 24.976 270.4 21.34L269.032 21.196ZM269.878 23.5L268.78 23.932C270.328 28.324 273.262 29.152 277.546 29.152H281.758C281.83 28.756 282.064 28.126 282.28 27.784C281.398 27.82 278.284 27.82 277.618 27.82C273.964 27.802 271.156 27.172 269.878 23.5ZM266.476 14.914V18.856H267.808V16.21H280.138V18.856H281.524V14.914H266.476ZM272.65 13.15C273.082 13.87 273.496 14.824 273.658 15.418L275.062 14.986C274.882 14.374 274.414 13.456 273.982 12.772L272.65 13.15Z" fill="#575757"/>
<rect x="215" y="16" width="25" height="12" rx="6" fill="#FC9F66"/>
</svg>
