<svg width="113" height="21" viewBox="0 0 113 21" fill="none" xmlns="http://www.w3.org/2000/svg">
<path d="M0 20.7783V1.97852H12.5877V5.5328H4.23289V9.46618H11.6661V13.0205H4.23289V20.7783H0V20.7783Z" fill="#231815"/>
<path d="M19.7213 2.38768C19.7213 3.12911 19.4825 3.71346 19.0029 4.13654C18.5233 4.56172 17.9578 4.77326 17.3064 4.77326C16.655 4.77326 16.0895 4.56172 15.6099 4.13654C15.1302 3.71137 14.8915 3.12911 14.8915 2.38768C14.8915 1.64624 15.1302 1.06398 15.6099 0.638808C16.0916 0.213634 16.6571 0 17.3064 0C17.9557 0 18.5233 0.213634 19.0029 0.636714C19.4825 1.06189 19.7213 1.64624 19.7213 2.38768ZM19.3422 20.7791H15.2999V6.51165H19.3422V20.7791Z" fill="#231815"/>
<path d="M31.7391 10.0899C31.3768 9.9998 30.9516 9.90555 30.4636 9.80502C29.9756 9.70658 29.4499 9.65631 28.8906 9.65631C28.6372 9.65631 28.3335 9.67935 27.9817 9.72333C27.6298 9.76941 27.3617 9.81759 27.1816 9.87204V20.7779H23.1393V7.26864C23.8619 7.01521 24.7164 6.77644 25.7029 6.55024C26.6873 6.32404 27.7869 6.21094 28.9996 6.21094C29.2174 6.21094 29.4792 6.2256 29.7871 6.25073C30.095 6.27796 30.4007 6.31357 30.7086 6.35964C31.0165 6.40572 31.3223 6.46018 31.6302 6.52301C31.9381 6.58584 32.1999 6.66334 32.4177 6.7534L31.7391 10.0899Z" fill="#231815"/>
<path d="M38.6825 17.4976C39.4239 17.4976 39.9496 17.4243 40.2575 17.2798C40.5654 17.1353 40.7183 16.8546 40.7183 16.4399C40.7183 16.1153 40.5193 15.8305 40.1214 15.5854C39.7234 15.3404 39.1181 15.066 38.3034 14.7581C37.6688 14.5235 37.0949 14.2785 36.5796 14.025C36.0644 13.7716 35.6267 13.4679 35.2643 13.116C34.902 12.7642 34.6213 12.3432 34.4224 11.8552C34.2234 11.3672 34.1249 10.7786 34.1249 10.0917C34.1249 8.7533 34.6213 7.69561 35.6162 6.91856C36.6111 6.14152 37.9766 5.75195 39.7129 5.75195C40.5821 5.75195 41.4136 5.82945 42.2095 5.98234C43.0054 6.13524 43.638 6.30279 44.1071 6.48501L43.4013 9.63297C42.9321 9.46961 42.4211 9.32509 41.8681 9.19942C41.3173 9.07376 40.6973 9.00883 40.0104 9.00883C38.7432 9.00883 38.1107 9.3607 38.1107 10.0665C38.1107 10.2299 38.1379 10.3744 38.1924 10.5001C38.2468 10.6278 38.3557 10.7493 38.5191 10.8666C38.6804 10.9839 38.9024 11.1117 39.1831 11.2478C39.4637 11.3839 39.8198 11.5347 40.2554 11.6981C41.1414 12.0269 41.8723 12.3495 42.4525 12.6699C43.0306 12.9883 43.4871 13.3339 43.8223 13.7025C44.1574 14.0732 44.392 14.4837 44.5281 14.934C44.6642 15.3843 44.7313 15.908 44.7313 16.5028C44.7313 17.9103 44.2014 18.9763 43.1437 19.6968C42.086 20.4173 40.5884 20.7797 38.6552 20.7797C37.3881 20.7797 36.3346 20.6707 35.4947 20.455C34.6527 20.2372 34.0705 20.0571 33.7458 19.9125L34.4245 16.6305C35.1114 16.9007 35.8173 17.1144 36.5399 17.2673C37.2645 17.4202 37.9787 17.4976 38.6825 17.4976Z" fill="#231815"/>
<path d="M47.609 2.62989L51.6513 1.97852V6.18418H56.5063V9.54787H51.6492V14.5662C51.6492 15.4165 51.7979 16.0951 52.0974 16.5999C52.3949 17.1068 52.9981 17.3602 53.9008 17.3602C54.3343 17.3602 54.7825 17.3183 55.2433 17.2387C55.7041 17.157 56.1251 17.0439 56.5042 16.8994L57.0739 20.0474C56.5859 20.2463 56.0434 20.4181 55.4465 20.5626C54.8496 20.7071 54.1165 20.7804 53.2494 20.7804C52.1456 20.7804 51.2324 20.6317 50.5098 20.3322C49.7852 20.0348 49.2071 19.618 48.7735 19.0839C48.34 18.5498 48.0363 17.9047 47.8646 17.1445C47.6928 16.3842 47.6069 15.5443 47.6069 14.6206V2.62989H47.609Z" fill="#231815"/>
<path d="M73.4023 4.38788H78.2907V0H73.4023C67.6635 0 63.0117 4.65178 63.0117 10.3906C63.0117 16.1294 67.6635 20.7812 73.4023 20.7812H78.2907V16.3912H73.4023C70.0868 16.3912 67.4017 13.704 67.4017 10.3906C67.4017 7.07506 70.0889 4.38788 73.4023 4.38788Z" fill="#6DB2C6"/>
<path d="M106.492 0H97.7314V4.38788H106.492C107.663 4.38788 108.614 5.33667 108.614 6.50956C108.614 7.68036 107.665 8.63124 106.492 8.63124H104.235C100.693 8.63124 97.8173 11.4629 97.7335 14.9837H97.7251V20.7791H102.113V14.9837H102.128C102.209 13.8862 103.114 13.0191 104.233 13.0191H106.49C110.084 13.0191 113 10.1057 113 6.50956C113 2.91338 110.087 0 106.492 0Z" fill="#F6D98C"/>
<path d="M85.2567 0H80.3683V4.38788H85.2567C88.5723 4.38788 91.2573 7.07506 91.2573 10.3885C91.2573 13.704 88.5702 16.3891 85.2567 16.3891H84.7583V8.63124H80.3704V16.3912V20.7791H84.7583H85.2567C90.9955 20.7791 95.6473 16.1273 95.6473 10.3885C95.6452 4.65178 90.9934 0 85.2567 0Z" fill="#A6D2C5"/>
</svg>
