<svg width="18" height="18" viewBox="0 0 18 18" fill="none" xmlns="http://www.w3.org/2000/svg">
<path fill-rule="evenodd" clip-rule="evenodd" d="M12.8163 6.2848C13.1981 6.603 13.2497 7.17051 12.9315 7.55236L8.88151 12.4124C8.71963 12.6066 8.4835 12.7238 8.23089 12.7353C7.97829 12.7467 7.73251 12.6514 7.55371 12.4726L5.12371 10.0426C4.77224 9.69112 4.77224 9.12127 5.12371 8.7698C5.47518 8.41833 6.04503 8.41833 6.3965 8.7698L8.12963 10.5029L11.5487 6.40003C11.8669 6.01818 12.4344 5.96659 12.8163 6.2848Z" fill="white"/>
<path fill-rule="evenodd" clip-rule="evenodd" d="M9 1.8C5.02355 1.8 1.8 5.02355 1.8 9C1.8 12.9764 5.02355 16.2 9 16.2C12.9764 16.2 16.2 12.9764 16.2 9C16.2 5.02355 12.9764 1.8 9 1.8ZM0 9C0 4.02944 4.02944 0 9 0C13.9706 0 18 4.02944 18 9C18 13.9706 13.9706 18 9 18C4.02944 18 0 13.9706 0 9Z" fill="white"/>
</svg>
