<svg width="15" height="18" viewBox="0 0 15 18" fill="none" xmlns="http://www.w3.org/2000/svg">
<path d="M4.47635 0L3.30724 1.17911L4.27627 2.15641H0.826811C0.607527 2.15641 0.397224 2.24427 0.242167 2.40065C0.0871101 2.55703 0 2.76913 0 2.99029V5.15004C0 5.58616 0.176111 6.01477 0.482031 6.32331L4.96086 10.8404V17.1662C4.96103 17.3083 4.99714 17.448 5.06579 17.5721C5.13443 17.6961 5.23334 17.8004 5.35314 17.8752C5.47294 17.9499 5.60967 17.9926 5.75039 17.9991C5.89111 18.0057 6.03115 17.9759 6.15726 17.9126L9.4645 16.2448C9.74479 16.103 9.92173 15.8145 9.92173 15.4985V10.8404L11.4042 9.34529L13.8309 11.7927L15 10.6136L4.47635 0ZM10.2351 8.16618L8.51036 9.90566C8.43343 9.98296 8.37243 10.0748 8.33085 10.176C8.28927 10.2772 8.26795 10.3857 8.26811 10.4952V14.9831L6.61449 15.817V10.4952C6.61464 10.3857 6.59332 10.2772 6.55174 10.176C6.51017 10.0748 6.44916 9.98296 6.37223 9.90566L1.65362 5.15004V3.82417H5.92989L10.2351 8.16618ZM14.0558 2.15641H8.95271L10.6063 3.82417H13.2298L13.2315 5.1442L12.5733 5.80797L13.7424 6.98708L14.4006 6.32331C14.7065 6.01477 14.8826 5.58616 14.8826 5.15004V2.99029C14.8826 2.76913 14.7955 2.55703 14.6404 2.40065C14.4854 2.24427 14.2751 2.15641 14.0558 2.15641Z" fill="white"/>
</svg>
