<svg width="18" height="18" viewBox="0 0 18 18" fill="none" xmlns="http://www.w3.org/2000/svg">
<path d="M7.76995 5.14538L7.92767 5.1411H14.3562C15.0676 5.14104 15.7521 5.41315 16.2693 5.90165C16.7865 6.39014 17.0972 7.05798 17.1377 7.76824L17.142 7.92681V9.26395C16.7594 8.89678 16.3264 8.58595 15.8562 8.34081V7.92681C15.8562 7.52898 15.6982 7.14745 15.4169 6.86615C15.1356 6.58485 14.7541 6.42681 14.3562 6.42681H7.92767C7.55122 6.42682 7.18854 6.56838 6.91162 6.82339C6.6347 7.0784 6.46379 7.42821 6.43281 7.80338L6.42767 7.92681V14.3554C6.4277 14.732 6.56938 15.0948 6.82456 15.3717C7.07975 15.6486 7.42977 15.8195 7.80509 15.8502L7.92767 15.8554H8.34081C8.58681 16.3268 8.89795 16.7597 9.26309 17.1411H7.92767C7.21612 17.1411 6.53153 16.8689 6.01433 16.3802C5.49712 15.8916 5.18652 15.2235 5.14624 14.5131L5.14195 14.3562V7.92767C5.14191 7.21612 5.41414 6.53153 5.90281 6.01433C6.39149 5.49712 7.05955 5.18652 7.76995 5.14624V5.14538ZM11.6408 1.9131L11.6854 2.06481L12.2794 4.2831H10.9482L10.4442 2.39738C10.3933 2.207 10.3054 2.02852 10.1854 1.87215C10.0655 1.71577 9.91593 1.58456 9.74526 1.48601C9.5746 1.38747 9.38619 1.32352 9.19079 1.29782C8.99541 1.27212 8.79687 1.28517 8.60652 1.33624L2.39738 3.00081C2.03492 3.09801 1.72206 3.32754 1.52053 3.6441C1.31901 3.96067 1.24347 4.34128 1.30881 4.71081L1.33624 4.83767L3.00081 11.0468C3.07889 11.3386 3.24323 11.6 3.47233 11.7968C3.70142 11.9936 3.9846 12.1167 4.28481 12.15V13.4408C3.72752 13.4076 3.19304 13.2078 2.75061 12.8673C2.30818 12.5268 1.97819 12.0613 1.80338 11.5311L1.75881 11.3802L0.0950955 5.17024C-0.0891877 4.48313 -0.00361656 3.75155 0.334262 3.12552C0.672141 2.49949 1.23672 2.02644 1.91224 1.80338L2.06481 1.75881L8.27395 0.0950955C8.96106 -0.0891877 9.69264 -0.00361656 10.3187 0.334262C10.9447 0.672141 11.4177 1.23758 11.6408 1.9131Z" fill="#575757"/>
<path fill-rule="evenodd" clip-rule="evenodd" d="M13.2846 16.7132C15.1781 16.7132 16.7132 15.1781 16.7132 13.2846C16.7132 11.3911 15.1781 9.85603 13.2846 9.85603C11.3911 9.85603 9.85603 11.3911 9.85603 13.2846C9.85603 15.1781 11.3911 16.7132 13.2846 16.7132ZM13.2846 17.9989C15.8882 17.9989 17.9989 15.8882 17.9989 13.2846C17.9989 10.681 15.8882 8.57031 13.2846 8.57031C10.681 8.57031 8.57031 10.681 8.57031 13.2846C8.57031 15.8882 10.681 17.9989 13.2846 17.9989Z" fill="#575757"/>
<path fill-rule="evenodd" clip-rule="evenodd" d="M11.1426 13.5003C11.1426 13.1452 11.4304 12.8574 11.7854 12.8574L14.7854 12.8574C15.1405 12.8574 15.4283 13.1452 15.4283 13.5003C15.4283 13.8553 15.1405 14.1431 14.7854 14.1431L11.7854 14.1431C11.4304 14.1431 11.1426 13.8553 11.1426 13.5003Z" fill="#575757"/>
</svg>
