<svg width="348" height="37" viewBox="0 0 348 37" fill="none" xmlns="http://www.w3.org/2000/svg">
<path d="M217 29.9976V8.28613H231.537V12.3909H221.888V16.9335H230.473V21.0383H221.888V29.9976H217Z" fill="#231815"/>
<path d="M239.776 8.75748C239.776 9.61375 239.5 10.2886 238.946 10.7772C238.392 11.2682 237.739 11.5125 236.987 11.5125C236.234 11.5125 235.581 11.2682 235.027 10.7772C234.474 10.2862 234.198 9.61375 234.198 8.75748C234.198 7.90121 234.474 7.22877 235.027 6.73775C235.584 6.24672 236.237 6 236.987 6C237.737 6 238.392 6.24672 238.946 6.73533C239.5 7.22635 239.776 7.90121 239.776 8.75748ZM239.338 29.9973H234.669V13.5202H239.338V29.9973Z" fill="#231815"/>
<path d="M253.655 17.654C253.237 17.55 252.746 17.4412 252.182 17.325C251.618 17.2114 251.011 17.1533 250.366 17.1533C250.073 17.1533 249.722 17.1799 249.316 17.2307C248.909 17.2839 248.6 17.3396 248.392 17.4024V29.9974H243.723V14.3958C244.558 14.1032 245.545 13.8274 246.684 13.5662C247.821 13.3049 249.091 13.1743 250.491 13.1743C250.743 13.1743 251.045 13.1912 251.401 13.2203C251.756 13.2517 252.11 13.2928 252.465 13.3461C252.821 13.3993 253.174 13.4622 253.529 13.5347C253.885 13.6073 254.187 13.6968 254.439 13.8008L253.655 17.654Z" fill="#231815"/>
<path d="M261.674 26.2065C262.53 26.2065 263.137 26.1218 263.493 25.9549C263.848 25.788 264.025 25.4639 264.025 24.9849C264.025 24.61 263.795 24.2811 263.335 23.9981C262.876 23.7151 262.177 23.3982 261.236 23.0426C260.503 22.7717 259.84 22.4887 259.245 22.196C258.65 21.9033 258.145 21.5526 257.726 21.1462C257.308 20.7399 256.983 20.2537 256.754 19.6901C256.524 19.1265 256.41 18.4468 256.41 17.6534C256.41 16.1078 256.983 14.8863 258.132 13.9889C259.281 13.0915 260.858 12.6416 262.864 12.6416C263.868 12.6416 264.828 12.7311 265.747 12.9077C266.666 13.0842 267.397 13.2778 267.938 13.4882L267.123 17.1237C266.581 16.935 265.991 16.7681 265.353 16.623C264.717 16.4779 264.001 16.4029 263.207 16.4029C261.744 16.4029 261.013 16.8093 261.013 17.6244C261.013 17.8131 261.045 17.98 261.108 18.1251C261.171 18.2727 261.296 18.413 261.485 18.5484C261.671 18.6839 261.928 18.8314 262.252 18.9886C262.576 19.1459 262.987 19.32 263.49 19.5087C264.513 19.8884 265.358 20.2609 266.028 20.631C266.695 20.9987 267.222 21.3978 267.609 21.8235C267.996 22.2517 268.267 22.7257 268.425 23.2458C268.582 23.7658 268.659 24.3706 268.659 25.0575C268.659 26.683 268.047 27.9142 266.826 28.7462C265.604 29.5783 263.875 29.9968 261.642 29.9968C260.179 29.9968 258.962 29.871 257.992 29.6219C257.02 29.3703 256.347 29.1623 255.972 28.9954L256.756 25.2051C257.549 25.5171 258.365 25.7638 259.199 25.9404C260.036 26.117 260.861 26.2065 261.674 26.2065Z" fill="#231815"/>
<path d="M271.983 9.03839L276.651 8.28613V13.1432H282.258V17.0278H276.649V22.8234C276.649 23.8054 276.821 24.5891 277.167 25.1721C277.51 25.7574 278.207 26.0501 279.249 26.0501C279.75 26.0501 280.268 26.0017 280.8 25.9098C281.332 25.8155 281.818 25.6849 282.256 25.518L282.914 29.1535C282.35 29.3833 281.724 29.5816 281.034 29.7485C280.345 29.9154 279.498 30.0001 278.497 30.0001C277.222 30.0001 276.168 29.8283 275.333 29.4824C274.496 29.139 273.829 28.6576 273.328 28.0408C272.827 27.424 272.477 26.679 272.278 25.801C272.08 24.9229 271.981 23.953 271.981 22.8863V9.03839H271.983Z" fill="#231815"/>
<path d="M301.77 11.0675H307.416V6H301.77C295.143 6 289.771 11.3722 289.771 17.9999C289.771 24.6275 295.143 29.9997 301.77 29.9997H307.416V24.9298H301.77C297.941 24.9298 294.84 21.8265 294.84 17.9999C294.84 14.1708 297.944 11.0675 301.77 11.0675Z" fill="#63A7C8"/>
<path d="M339.986 6H329.868V11.0675H339.986C341.338 11.0675 342.436 12.1632 342.436 13.5178C342.436 14.8699 341.34 15.968 339.986 15.968H337.378C333.288 15.968 329.967 19.2383 329.87 23.3044H329.861V29.9973H334.928V23.3044H334.945C335.039 22.0369 336.084 21.0355 337.376 21.0355H339.983C344.134 21.0355 347.501 17.6709 347.501 13.5178C347.501 9.36461 344.137 6 339.986 6Z" fill="#F6D98C"/>
<path d="M315.462 6H309.816V11.0675H315.462C319.291 11.0675 322.392 14.1708 322.392 17.9974C322.392 21.8265 319.288 24.9274 315.462 24.9274H314.886V15.968H309.819V24.9298V29.9973H314.886H315.462C322.089 29.9973 327.462 24.6251 327.462 17.9974C327.459 11.3722 322.087 6 315.462 6Z" fill="#A6D2C5"/>
<path d="M190.622 14.1705L189.451 13L184.811 17.6404L180.17 13L179 14.1705L183.64 18.8109L179 23.4513L180.17 24.6218L184.811 19.9814L189.451 24.6218L190.622 23.4513L185.981 18.8109L190.622 14.1705Z" fill="black"/>
<g clip-path="url(#clip0_6891_45412)">
<path d="M14.9259 10.6917C14.53 11.5337 14.0522 12.2471 13.4958 12.8355C12.9395 13.4238 12.3421 13.9074 11.7039 14.2827C11.0656 14.6614 10.4069 14.9353 9.72422 15.1111C9.04158 15.2869 8.38624 15.3715 7.75821 15.3715C6.65916 15.3715 5.6352 15.1686 4.69316 14.7628C3.7477 14.3571 2.92853 13.8025 2.23224 13.0959C1.53594 12.3925 0.989829 11.5743 0.593898 10.6444C0.197966 9.7213 0 8.73395 0 7.68912C0 6.64429 0.197966 5.65357 0.593898 4.71694C0.989829 3.77693 1.53594 2.96204 2.23224 2.26548C2.92853 1.56893 3.7477 1.01778 4.69316 0.608638C5.63861 0.202879 6.66258 0 7.76163 0C8.33163 0 8.92894 0.074389 9.55356 0.216404C10.1748 0.361801 10.7926 0.591731 11.4001 0.902813C12.0077 1.21389 12.5845 1.62642 13.1272 2.13361C13.6699 2.64081 14.1443 3.26636 14.5573 4.00686C14.2331 4.2537 13.8986 4.49039 13.547 4.71356C13.1954 4.94011 12.8234 5.19033 12.4275 5.46421C11.8268 4.5073 11.127 3.79046 10.3284 3.32046C9.52967 2.84707 8.67637 2.61376 7.76845 2.61376C7.05168 2.61376 6.37928 2.75239 5.75808 3.02628C5.13346 3.30355 4.59417 3.67211 4.12998 4.13874C3.6692 4.60198 3.30398 5.14299 3.04117 5.76177C2.77835 6.37717 2.64523 7.023 2.64523 7.68912C2.64523 8.3992 2.78518 9.06532 3.06164 9.68072C3.34153 10.2995 3.71698 10.8338 4.19483 11.2936C4.66926 11.7501 5.21538 12.1085 5.83317 12.3723C6.44754 12.6326 7.09264 12.7645 7.76845 12.7645C8.16439 12.7645 8.59445 12.7036 9.05523 12.5785C9.51602 12.4568 9.96656 12.264 10.4069 12.0003C10.8472 11.7399 11.2499 11.4052 11.6151 10.9994C11.9803 10.5937 12.2739 10.1135 12.4957 9.56237L14.9259 10.6917Z" fill="#D22B19"/>
<path d="M29.3912 15.3546H18.9297V0H21.4794V12.7848H29.3946V15.3546H29.3912Z" fill="#231815"/>
<path d="M36.5145 15.3546H33.9648V0H36.5145V15.3546Z" fill="#231815"/>
<path d="M56.3896 10.6917C55.9936 11.5336 55.5192 12.2471 54.9594 12.8354C54.4031 13.4238 53.8058 13.9073 53.1675 14.2826C52.5292 14.6613 51.8705 14.9352 51.1878 15.111C50.5052 15.2869 49.8499 15.3714 49.2218 15.3714C48.1228 15.3714 47.0988 15.1685 46.1568 14.7628C45.2113 14.357 44.3922 13.8025 43.6959 13.0958C42.9996 12.3925 42.4535 11.5742 42.0575 10.6443C41.6616 9.71446 41.4636 8.72711 41.4636 7.68229C41.4636 6.63746 41.6616 5.64673 42.0575 4.71011C42.4535 3.77348 42.9996 2.95858 43.6959 2.25865C44.3922 1.5621 45.2113 1.01094 46.1568 0.601802C47.1022 0.196043 48.1228 -0.00683594 49.2218 -0.00683594C49.7918 -0.00683594 50.3892 0.0675531 51.0138 0.209569C51.635 0.354965 52.2528 0.584895 52.8603 0.895977C53.4679 1.20706 54.0447 1.61958 54.5874 2.12678C55.1301 2.63398 55.6045 3.25952 56.0175 4.00003C55.6933 4.24687 55.3588 4.48356 55.0072 4.70673C54.6557 4.93327 54.2836 5.18349 53.8877 5.45738C53.287 4.50046 52.5873 3.78362 51.7886 3.31362C50.9899 2.84024 50.1366 2.60692 49.2287 2.60692C48.5119 2.60692 47.8395 2.74556 47.2183 3.01945C46.5937 3.29671 46.0544 3.66528 45.5902 4.1319C45.1294 4.59514 44.7642 5.13615 44.5014 5.75493C44.2386 6.37034 44.1054 7.01617 44.1054 7.68229C44.1054 8.39236 44.2454 9.05849 44.5219 9.67389C44.7983 10.2927 45.1772 10.8269 45.655 11.2868C46.1295 11.7433 46.6756 12.1017 47.2934 12.3654C47.9078 12.6258 48.5528 12.7576 49.2287 12.7576C49.6246 12.7576 50.0547 12.6968 50.5154 12.5717C50.9762 12.4499 51.4268 12.2572 51.8671 11.9935C52.3074 11.7331 52.7101 11.3984 53.0753 10.9926C53.4406 10.5868 53.7341 10.1067 53.956 9.55554L56.3896 10.6917Z" fill="#231815"/>
<path d="M73.3839 15.3546H69.8683L63.0965 8.71028V15.3546H60.5024V0H63.076V5.11932C63.2808 5.33572 63.4958 5.55551 63.7245 5.77191C63.9498 5.98832 64.1682 6.20134 64.373 6.40422L69.271 0H72.4794L66.2571 8.20985L73.3839 15.3546Z" fill="#231815"/>
<path d="M88.5523 2.59009H79.9339V5.96465H86.1562V8.64266H79.9578V15.3512H77.3638V0H88.5523V2.59009Z" fill="#D22B19"/>
<path d="M108.226 7.68912C108.226 8.77791 108.021 9.7923 107.612 10.7289C107.202 11.6656 106.646 12.4771 105.943 13.1669C105.239 13.8567 104.417 14.3977 103.482 14.7899C102.543 15.1821 101.546 15.3782 100.492 15.3782C99.3926 15.3782 98.3686 15.1754 97.4231 14.7696C96.4777 14.3638 95.6585 13.8093 94.9622 13.1026C94.2659 12.3993 93.7198 11.581 93.3239 10.6512C92.928 9.7213 92.73 8.73395 92.73 7.68912C92.73 6.64429 92.928 5.65357 93.3239 4.71694C93.7198 3.78032 94.2659 2.96542 94.9622 2.26548C95.6585 1.56893 96.4777 1.01778 97.4231 0.608638C98.3686 0.202879 99.3926 0 100.492 0C101.591 0 102.615 0.202879 103.56 0.608638C104.506 1.0144 105.321 1.56893 106.011 2.26548C106.7 2.96204 107.243 3.78032 107.639 4.71694C108.028 5.65019 108.226 6.64091 108.226 7.68912ZM105.611 7.68912C105.611 7.023 105.475 6.38393 105.205 5.77191C104.932 5.16328 104.564 4.62903 104.096 4.17255C103.628 3.71607 103.086 3.35089 102.468 3.08376C101.853 2.81664 101.191 2.68139 100.488 2.68139C99.7851 2.68139 99.1263 2.81664 98.5085 3.08376C97.8942 3.35427 97.3515 3.71607 96.8804 4.17255C96.4128 4.62903 96.0408 5.16328 95.7711 5.77191C95.4981 6.38055 95.365 7.01962 95.365 7.68912C95.365 8.35862 95.5015 8.99431 95.7711 9.60633C96.0442 10.215 96.4128 10.7492 96.8804 11.2057C97.348 11.6622 97.8907 12.024 98.5085 12.2945C99.1229 12.565 99.7851 12.6969 100.488 12.6969C101.147 12.6969 101.785 12.5684 102.4 12.3148C103.014 12.0612 103.56 11.7095 104.038 11.2598C104.516 10.8101 104.895 10.2792 105.181 9.67058C105.468 9.05856 105.611 8.3992 105.611 7.68912Z" fill="#D22B19"/>
<path d="M125.285 15.4185H122.316L119.193 10.191H115.366V15.4185H112.772V0.0639648H119.674C119.705 0.0639648 119.773 0.0707275 119.882 0.0842528C119.991 0.097778 120.114 0.121447 120.244 0.148498C120.377 0.17893 120.507 0.209362 120.64 0.246556C120.773 0.283751 120.875 0.317564 120.947 0.344614C121.561 0.577926 122.091 0.8721 122.531 1.22714C122.971 1.58218 123.326 1.97103 123.596 2.39369C123.865 2.81636 124.07 3.26269 124.2 3.7327C124.33 4.2027 124.398 4.6727 124.398 5.13595C124.398 5.49775 124.353 5.87984 124.265 6.27883C124.176 6.67783 124.029 7.07344 123.824 7.46568C123.62 7.85791 123.353 8.22985 123.022 8.58827C122.691 8.94331 122.285 9.26116 121.8 9.53504L125.285 15.4185ZM121.77 5.13933C121.77 4.67609 121.657 4.24328 121.428 3.84428C121.2 3.44529 120.831 3.12068 120.319 2.87722C120.2 2.81974 120.066 2.7724 119.913 2.73521C119.759 2.69801 119.647 2.68111 119.572 2.68111H115.373V7.58064H119.572C119.892 7.58064 120.186 7.50625 120.452 7.35071C120.715 7.19855 120.947 6.99905 121.145 6.75222C121.343 6.50538 121.497 6.24164 121.606 5.95761C121.715 5.67358 121.77 5.39969 121.77 5.13933Z" fill="#D22B19"/>
<path d="M144.566 10.6917C144.17 11.5336 143.693 12.2471 143.136 12.8354C142.58 13.4238 141.983 13.9073 141.344 14.2826C140.706 14.6613 140.047 14.9352 139.365 15.111C138.682 15.2869 138.027 15.3714 137.399 15.3714C136.3 15.3714 135.276 15.1685 134.33 14.7628C133.385 14.357 132.562 13.8025 131.869 13.0958C131.173 12.3925 130.627 11.5742 130.231 10.6443C129.835 9.71446 129.637 8.72711 129.637 7.68229C129.637 6.63746 129.835 5.64673 130.231 4.71011C130.627 3.77348 131.173 2.95858 131.869 2.25865C132.565 1.5621 133.385 1.01094 134.33 0.601802C135.276 0.196043 136.296 -0.00683594 137.399 -0.00683594C137.969 -0.00683594 138.566 0.0675531 139.191 0.209569C139.812 0.354965 140.43 0.584895 141.037 0.895977C141.645 1.20706 142.221 1.61958 142.764 2.12678C143.307 2.63398 143.781 3.25952 144.194 4.00003C143.87 4.24687 143.536 4.48356 143.184 4.70673C142.832 4.93327 142.457 5.18349 142.061 5.45738C141.46 4.50046 140.761 3.78362 139.962 3.31362C139.163 2.84024 138.31 2.60692 137.402 2.60692C136.682 2.60692 136.013 2.74556 135.392 3.01945C134.77 3.29671 134.228 3.66528 133.764 4.1319C133.303 4.59514 132.938 5.13615 132.675 5.75493C132.412 6.37034 132.279 7.01617 132.279 7.68229C132.279 8.39236 132.419 9.05849 132.695 9.67389C132.975 10.2927 133.351 10.8269 133.828 11.2868C134.306 11.7433 134.849 12.1017 135.467 12.3654C136.081 12.6258 136.726 12.7576 137.402 12.7576C137.798 12.7576 138.225 12.6968 138.689 12.5717C139.15 12.4499 139.6 12.2572 140.04 11.9935C140.481 11.7331 140.883 11.3984 141.249 10.9926C141.614 10.5868 141.907 10.1067 142.129 9.55554L144.566 10.6917Z" fill="#D22B19"/>
<path d="M159.8 15.3546H148.611V0H159.8V2.59009H151.181V5.96465H157.404V8.64266H151.181V12.7374H159.8V15.3546Z" fill="#D22B19"/>
<path d="M29.8792 28.9883H28.5856V27.8014H29.8792V23.9399H31.1455V27.8014H32.1217V28.9883H31.1455V33.1608C31.3025 33.0797 31.4697 32.9884 31.654 32.8869C31.8759 32.7787 32.0773 32.6637 32.2616 32.5454V33.8269C31.1148 34.4998 29.927 35.0577 28.6948 35.5041L28.5037 34.1955C28.7528 34.1042 28.9986 34.0197 29.2477 33.9351C29.4969 33.854 29.7051 33.7762 29.8826 33.7018V28.9883H29.8792ZM36.9445 32.7111V33.8709C35.8147 34.4085 34.2583 34.9089 32.2753 35.3722L32.0978 34.0907C33.7293 33.7356 35.3471 33.2758 36.9445 32.7111ZM32.1524 26.8614V25.6746H37.1937V23.9399H38.4873V25.6712H41.4875V26.858H38.5009C38.5282 28.5115 38.6341 30.0263 38.8184 31.3991C39.1665 30.7161 39.5386 29.6476 39.9345 28.1936L41.0916 28.6163C40.5693 30.6079 39.9379 32.1464 39.2041 33.2284C39.2041 33.3468 39.3269 33.6646 39.5761 34.182C39.815 34.6925 40.0062 34.9461 40.1529 34.9461C40.2348 34.9461 40.2997 34.4085 40.3441 33.3366L41.4875 34.1143C41.4431 35.8523 41.0472 36.7213 40.3031 36.7213C39.4874 36.7213 38.815 35.991 38.2927 34.5235C37.6954 35.2606 36.866 35.9774 35.8011 36.6774L34.8795 35.6664C36.1731 34.8379 37.1459 33.9757 37.7978 33.0729C37.5145 31.8083 37.32 29.7355 37.221 26.8513H32.1524V26.8614ZM32.6882 27.9772H36.6544V32.2208H32.6882V27.9772ZM35.47 29.0829H33.8726V31.1151H35.47V29.0829ZM39.8765 25.6746C39.4532 25.1302 39.1017 24.7244 38.815 24.4607L39.7911 23.9839C40.1666 24.2375 40.5591 24.6162 40.9619 25.1166L39.8765 25.6746Z" fill="#231815"/>
<path d="M65.6838 35.6863V36.0549C64.4619 36.2442 62.1648 36.4268 58.7857 36.5993L58.5502 35.4259H60.2841C60.8268 35.4259 61.349 35.409 61.8542 35.3718V34.3338H59.2089V33.3532H61.8542V32.5214H59.127V28.0614H61.8542V27.2837H58.4819V26.2592H61.8542V25.3462C61.5436 25.3733 61.1647 25.3902 60.7244 25.4003C60.2841 25.4172 59.8097 25.4375 59.3045 25.4544L58.9188 24.3758C59.0007 24.3758 59.1168 24.3758 59.2636 24.3758C62.0453 24.3758 64.0216 24.2338 65.1991 23.9531L65.834 24.8661C65.2571 25.0656 64.3288 25.2211 63.0522 25.3293V26.2558H66.1924V26.6108H67.8853V24.129H69.0697V26.6108H71.3975C71.36 31.4495 71.3088 34.1951 71.2473 34.8511C71.1825 35.497 71.0323 35.9703 70.7934 36.2713C70.5544 36.5722 69.9674 36.721 69.0322 36.721C68.8205 36.721 68.6362 36.7176 68.4826 36.7075L67.9741 35.3583C68.4792 35.4395 68.8786 35.48 69.1721 35.48C69.5305 35.48 69.7626 35.338 69.8752 35.0574C69.9947 34.7767 70.0766 33.9382 70.1244 32.5484C70.1687 31.1486 70.1995 29.5526 70.2063 27.7605H69.0765C68.9571 31.4056 68.1857 34.4217 66.7624 36.8055L65.6838 35.6863ZM61.8576 29.8603V28.9609H60.3285V29.8603H61.8576ZM61.8576 31.6186V30.6786H60.3285V31.6186H61.8576ZM65.6838 35.6728C66.9979 33.9348 67.7181 31.2906 67.8444 27.7334H66.1241V27.2837H63.0522V28.0614H65.8749V32.5214H63.0522V33.3532H65.6838V34.3338H63.0522V35.2873C64.3663 35.169 65.2401 35.0743 65.6838 34.9999V35.6728ZM64.6667 29.8603V28.9609H63.0556V29.8603H64.6667ZM64.6667 31.6186V30.6786H63.0556V31.6186H64.6667Z" fill="#231815"/>
<path d="M91.6105 36.789H90.3169V31.0204C90.0882 31.3484 89.6821 31.7812 89.1052 32.3155L88.4021 31.0204C89.863 29.6916 90.9552 28.4236 91.6788 27.2131L92.6993 27.9502C92.2317 28.6772 91.8699 29.2588 91.6105 29.6949V36.789ZM92.5594 24.65C91.4774 25.9146 90.3886 26.9628 89.2964 27.8014L88.4704 26.6146C89.6821 25.8673 90.6787 24.978 91.4569 23.9399L92.5594 24.65ZM99.2936 29.5326V35.0307C99.2936 35.7205 99.1776 36.1668 98.9489 36.3663C98.71 36.5759 98.2082 36.6808 97.4471 36.6808L95.464 36.6943L95.1466 35.3316L97.0751 35.4263C97.157 35.4263 97.2355 35.4263 97.3106 35.4263C97.5666 35.4263 97.7338 35.3992 97.8055 35.3451C97.8806 35.2809 97.9147 35.0915 97.9147 34.7737V29.5326H92.9144V28.2782H101.372V29.5326H99.2936ZM93.6482 25.8774V24.6365H100.659V25.8774H93.6482Z" fill="#231815"/>
<path d="M119.278 27.9906L118.851 28.4809L118.37 27.24C119.489 26.1748 120.278 25.0996 120.739 24.0074H121.827C122.718 24.8528 123.456 25.6575 124.046 26.4217L123.097 27.3076C122.554 26.4623 121.995 25.7522 121.418 25.1807C121.042 25.9348 120.554 26.6482 119.957 27.3211H123.357V28.4539H121.851V29.6137H123.725V30.7464H121.851V34.8276C122.182 34.7262 122.514 34.6383 122.841 34.5538C123.145 34.4794 123.483 34.3779 123.862 34.2393V35.4261C122.053 35.9807 120.363 36.3797 118.793 36.6265L118.629 35.372C119.602 35.2368 120.285 35.1218 120.681 35.0305V30.7464H118.602V29.6137H120.681V28.4539H119.278V27.9906ZM119.042 34.4016C118.988 33.3027 118.868 32.3796 118.684 31.6323L119.704 31.47C119.879 32.126 120.029 33.0355 120.158 34.1987L119.042 34.4016ZM123.725 31.5511C123.623 32.3796 123.473 33.1471 123.271 33.8572L122.251 33.6509C122.527 32.7955 122.688 32.0448 122.732 31.399L123.725 31.5511ZM125.101 27.568C124.65 26.54 124.165 25.6575 123.64 24.9204L124.701 24.3895C125.207 25.0522 125.739 25.9111 126.299 26.9661L125.101 27.568ZM130.818 27.9906V34.99C130.818 35.6087 130.729 36.028 130.555 36.2444C130.371 36.471 130.019 36.5859 129.494 36.5859H127.746L127.429 35.3856L129.067 35.4397C129.398 35.4397 129.562 35.2943 129.562 35.0035V33.8572H125.527V36.7753H124.275V27.9771H126.876V23.9263H128.142V27.9771L130.818 27.9906ZM125.527 30.3778H129.562V29.0963H125.527V30.3778ZM125.527 32.8056H129.562V31.4159H125.527V32.8056ZM131.299 24.7445C130.849 25.999 130.367 26.9695 129.852 27.6491L128.708 26.9255C129.323 26.0971 129.818 25.1943 130.197 24.2103L131.299 24.7445Z" fill="#231815"/>
</g>
<defs>
<clipPath id="clip0_6891_45412">
<rect width="159.799" height="36.8023" fill="white"/>
</clipPath>
</defs>
</svg>
