<svg width="49" height="48" viewBox="0 0 49 48" fill="none" xmlns="http://www.w3.org/2000/svg">
<path d="M24.5 48C11.2665 48 0.5 37.2335 0.5 24C0.5 10.7665 11.2665 0 24.5 0C37.7335 0 48.5 10.7665 48.5 24C48.5 37.2335 37.7335 48 24.5 48ZM24.5 2.34055C12.5585 2.34055 2.84055 12.0585 2.84055 24C2.84055 35.9415 12.5585 45.6595 24.5 45.6595C36.4415 45.6595 46.1595 35.9415 46.1595 24C46.1595 12.0585 36.4462 2.34055 24.5 2.34055Z" fill="white"/>
<path d="M32.6213 33.2908C32.3217 33.2908 32.0221 33.1785 31.7928 32.9491L23.3293 24.4857V9.75426C23.3293 9.10827 23.8536 8.58398 24.4996 8.58398C25.1456 8.58398 25.6699 9.10827 25.6699 9.75426V23.5167L33.4452 31.292C33.9039 31.7507 33.9039 32.4904 33.4452 32.9491C33.2205 33.1738 32.9209 33.2908 32.6213 33.2908Z" fill="white"/>
</svg>
