<svg width="51" height="49" viewBox="0 0 51 49" fill="none" xmlns="http://www.w3.org/2000/svg">
<path d="M33.4809 33.3813C33.1712 33.3813 32.8614 33.2675 32.6243 33.035L23.9897 24.5678V9.83433C23.9897 9.17972 24.5318 8.64844 25.1997 8.64844C25.8677 8.64844 26.4097 9.17972 26.4097 9.83433V23.5859L34.3376 31.3558C34.8119 31.8207 34.8119 32.5702 34.3376 33.035C34.1004 33.2675 33.7907 33.3813 33.4809 33.3813Z" fill="white"/>
<path d="M43.4802 4.43979C42.8123 4.43979 42.2702 4.97107 42.2702 5.62568V6.81157C37.8368 2.57084 32.024 0.156368 25.795 0.00931774C19.261 -0.147219 13.0465 2.19609 8.30817 6.61708C3.56984 11.0381 0.869138 17.0007 0.709419 23.4093C0.5497 29.8178 2.94064 35.9038 7.4515 40.5477C12.1027 45.3387 18.3801 47.9856 25.1319 48.0046C25.1319 48.0046 25.1319 48.0046 25.1367 48.0046C25.8047 48.0046 26.3467 47.4733 26.3467 46.8234C26.3467 46.1688 25.8095 45.6375 25.1416 45.6328C19.0577 45.6186 13.3998 43.2326 9.2084 38.9159C5.13799 34.7226 2.97936 29.2391 3.12456 23.4614C3.26976 17.6885 5.70427 12.3141 9.97312 8.32951C14.242 4.34492 19.8418 2.23404 25.7321 2.37635C31.419 2.51866 36.7139 4.74338 40.7263 8.65207H39.2356C38.5677 8.65207 38.0256 9.18335 38.0256 9.83796C38.0256 10.4926 38.5677 11.0238 39.2356 11.0238H44.6854V5.62568C44.6902 4.97107 44.1481 4.43979 43.4802 4.43979Z" fill="white"/>
<path d="M32.9196 47.2971C33.93 47.2971 34.7491 46.4943 34.7491 45.504C34.7491 44.5137 33.93 43.7109 32.9196 43.7109C31.9092 43.7109 31.0901 44.5137 31.0901 45.504C31.0901 46.4943 31.9092 47.2971 32.9196 47.2971Z" fill="white"/>
<path d="M40.7895 42.8068C41.7999 42.8068 42.619 42.004 42.619 41.0138C42.619 40.0235 41.7999 39.2207 40.7895 39.2207C39.7791 39.2207 38.96 40.0235 38.96 41.0138C38.96 42.004 39.7791 42.8068 40.7895 42.8068Z" fill="white"/>
<path d="M45.8568 36.0038C46.795 36.0038 47.5556 35.2584 47.5556 34.3388C47.5556 33.4193 46.795 32.6738 45.8568 32.6738C44.9186 32.6738 44.158 33.4193 44.158 34.3388C44.158 35.2584 44.9186 36.0038 45.8568 36.0038Z" fill="white"/>
<path d="M48.4704 27.0256C49.4808 27.0256 50.2999 26.2228 50.2999 25.2325C50.2999 24.2422 49.4808 23.4395 48.4704 23.4395C47.46 23.4395 46.6409 24.2422 46.6409 25.2325C46.6409 26.2228 47.46 27.0256 48.4704 27.0256Z" fill="white"/>
</svg>
