<svg width="220" height="924" viewBox="0 0 220 924" fill="none" xmlns="http://www.w3.org/2000/svg">
<path d="M220 0H0V924H220V0Z" fill="#EAF3F4"/>
<path d="M55.666 55.744V56.914H63.082V55.744H55.666ZM57.322 62.332H61.282V64.024H57.322V62.332ZM57.322 65.05H61.282V66.742H57.322V65.05ZM57.322 59.65H61.282V61.306H57.322V59.65ZM56.188 58.588V67.822H62.452V58.588H56.188ZM58.654 56.32C58.6 57.13 58.438 58.354 58.276 59.164L59.392 59.38C59.59 58.624 59.824 57.508 60.076 56.482L58.654 56.32ZM57.79 68.344C57.214 69.118 56.098 70.072 55.072 70.63C55.36 70.846 55.756 71.224 55.954 71.458C56.98 70.882 58.168 69.892 58.924 68.992L57.79 68.344ZM59.986 68.974C60.814 69.676 61.822 70.666 62.29 71.332L63.316 70.63C62.812 69.982 61.822 69.028 60.994 68.362L59.986 68.974ZM51.724 62.314C52.048 62.89 52.372 63.682 52.534 64.204L53.506 63.862C53.344 63.358 52.984 62.602 52.642 62.026L51.724 62.314ZM49.942 65.536V66.382H55.144V65.536H49.942ZM49.942 67.408V68.272H55.198V67.408H49.942ZM52.3 64.042V69.82H53.272V64.042H52.3ZM50.464 63.61H50.23L49.42 64.528V71.242H50.464V64.528H55.342V63.61H50.464ZM50.194 61.972C49.762 63.412 49.042 64.852 48.16 65.806C48.394 66.022 48.736 66.472 48.862 66.67C49.798 65.572 50.662 63.88 51.184 62.242L50.194 61.972ZM48.088 58.084V59.164H53.902V60.748H48.088V61.828H55.108V58.084H48.088ZM53.92 55.222C52.48 55.708 49.816 56.086 47.566 56.302C47.71 56.572 47.89 57.004 47.926 57.292C50.266 57.112 53.074 56.716 54.946 56.158L53.92 55.222ZM47.566 56.302V62.35C47.566 64.834 47.494 68.326 46.576 70.792C46.864 70.9 47.386 71.17 47.602 71.35C48.574 68.794 48.718 64.978 48.718 62.35V56.302H47.566ZM49.96 69.298V70.252H55.468V69.298H49.96ZM70.804 58.066C69.886 59.47 68.14 61.036 65.638 62.152C65.944 62.35 66.358 62.8 66.556 63.124C69.202 61.81 71.02 60.1 72.262 58.354L70.804 58.066ZM70.642 59.416L69.688 60.496H76.924V59.416H70.642ZM76.528 59.416V59.632C74.458 62.746 69.274 64.87 64.63 65.698C64.864 65.986 65.17 66.544 65.296 66.886C70.174 65.896 75.52 63.664 77.95 59.92L77.05 59.362L76.798 59.416H76.528ZM70.084 60.262L68.896 60.802C71.308 63.916 75.664 65.842 80.506 66.598C80.704 66.202 81.064 65.626 81.37 65.32C76.546 64.708 72.19 62.962 70.084 60.262ZM68.14 65.896V71.422H69.472V67.048H76.6V71.404H77.986V65.896H68.14ZM68.878 69.676V70.828H77.32V69.676H68.878ZM65.368 56.518V59.92H66.7V57.76H79.228V59.92H80.596V56.518H65.368ZM71.776 55.06C72.226 55.798 72.748 56.806 72.982 57.418L74.368 57.022C74.116 56.392 73.558 55.42 73.072 54.736L71.776 55.06ZM94.276 58.84V60.082H99.28V58.84H94.276ZM91.306 69.37V70.594H97.804V69.37H91.306ZM90.64 63.538V71.44H91.9V64.762H97.102V71.368H98.416V63.538H90.64ZM93.592 54.898V64.114H94.906V54.898H93.592ZM84.646 67.282C84.214 68.56 83.476 69.838 82.594 70.684C82.9 70.864 83.44 71.242 83.674 71.458C84.574 70.504 85.42 69.064 85.924 67.588L84.646 67.282ZM87.094 67.768C87.778 68.65 88.516 69.874 88.822 70.684L89.974 70.108C89.632 69.316 88.894 68.146 88.174 67.246L87.094 67.768ZM84.79 60.064H88.12V62.386H84.79V60.064ZM84.79 63.43H88.12V65.788H84.79V63.43ZM84.79 56.698H88.12V59.002H84.79V56.698ZM83.53 55.582V66.904H89.416V55.582H83.53ZM109.954 56.338V61.792H110.98V56.338H109.954ZM112.618 56.338V61.792H113.644V56.338H112.618ZM113.68 67.84C114.58 68.74 115.606 70.036 116.074 70.882L117.118 70.234C116.632 69.406 115.606 68.182 114.652 67.282L113.68 67.84ZM108.64 67.3C108.082 68.38 107.128 69.46 106.156 70.216C106.462 70.378 106.966 70.738 107.2 70.936C108.154 70.126 109.162 68.866 109.846 67.642L108.64 67.3ZM106.804 55.726V56.842H116.902V55.726H106.804ZM107.992 63.232V64.312H115.768V63.232H107.992ZM106.84 65.572V66.67H116.992V65.572H106.84ZM108.334 59.092H115.408V61.234H108.334V59.092ZM107.2 58.048V62.278H116.596V58.048H107.2ZM111.16 66.13V71.44H112.402V66.13H111.16ZM101.026 58.372V59.614H106.804V58.372H101.026ZM103.564 54.88V71.422H104.806V54.88H103.564ZM103.474 59.182C102.952 61.648 101.746 64.78 100.558 66.382C100.792 66.706 101.134 67.3 101.278 67.696C102.502 65.86 103.708 62.314 104.266 59.488L103.474 59.182ZM104.734 60.496L104.086 61C104.554 61.738 105.724 63.88 106.12 64.78L106.948 63.808C106.606 63.268 105.148 60.982 104.734 60.496ZM121.366 61.702V63.016H131.662V61.702H121.366ZM131.212 61.702V61.954C130.978 67.3 130.708 69.352 130.222 69.838C130.042 70.036 129.826 70.072 129.466 70.072C129.034 70.072 127.918 70.054 126.73 69.946C126.982 70.342 127.162 70.9 127.18 71.314C128.314 71.368 129.448 71.386 130.042 71.332C130.672 71.278 131.068 71.152 131.428 70.702C132.076 70.018 132.328 67.93 132.58 62.35C132.598 62.17 132.616 61.702 132.616 61.702H131.212ZM125.164 62.062C124.804 65.464 124.084 68.794 119.368 70.36C119.674 70.648 120.07 71.188 120.232 71.53C125.254 69.73 126.19 66.004 126.604 62.062H125.164ZM123.292 55.474C122.428 58.3 120.772 60.712 118.63 62.206C118.954 62.44 119.53 62.926 119.764 63.196C121.888 61.522 123.688 58.93 124.696 55.816L123.292 55.474ZM126.118 55.204V56.464H130.06V55.204H126.118ZM128.764 55.204V55.96H129.142C130.132 58.858 132.094 61.63 134.488 63.16C134.722 62.8 135.172 62.242 135.46 61.954C133.156 60.658 131.212 58.03 130.294 55.204H128.764ZM145.54 58.39V59.632H152.938V58.39H145.54ZM145.792 62.08V63.34H152.632V62.08H145.792ZM145.126 65.95V67.228H153.352V65.95H145.126ZM145.774 55.384C146.332 56.32 146.836 57.562 146.998 58.39L148.168 57.94C147.988 57.13 147.448 55.924 146.836 55.024L145.774 55.384ZM151.3 54.862C151.03 55.816 150.436 57.166 149.986 58.012L151.102 58.318C151.57 57.508 152.11 56.266 152.614 55.186L151.3 54.862ZM148.51 58.984V71.458H149.824V58.984H148.51ZM136.774 58.768V59.938H145.342V58.768H136.774ZM137.71 55.798V56.968H143.02V61.72H137.602V62.89H144.28V55.798H137.71ZM138.664 64.762V71.458H139.906V64.762H138.664ZM139.168 64.762V65.95H143.2V69.28H139.168V70.486H144.532V64.762H139.168ZM139.942 56.212C139.636 61.018 138.898 64.906 136.486 67.174C136.774 67.426 137.242 67.966 137.404 68.236C139.978 65.608 140.86 61.558 141.238 56.284L139.942 56.212Z" fill="#8A8A8A"/>
<path d="M173.071 58.9121L169.246 62.7288L165.421 58.9121L164.246 60.0871L169.246 65.0871L174.246 60.0871L173.071 58.9121Z" fill="#8A8A8A"/>
<path d="M47.8 120H49.474V114.42H51.922C54.604 114.42 56.53 113.16 56.53 110.514C56.53 107.778 54.604 106.806 51.922 106.806H47.8V120ZM49.474 113.07V108.174H51.688C53.74 108.174 54.874 108.786 54.874 110.514C54.874 112.224 53.74 113.07 51.688 113.07H49.474ZM55.054 120H56.926L52.894 113.106L51.598 113.97L55.054 120ZM62.7777 120.252C64.1097 120.252 65.1357 119.802 65.9997 119.244L65.4057 118.146C64.6857 118.632 63.9117 118.938 62.9757 118.938C61.1037 118.938 59.8437 117.588 59.7177 115.518H66.3057C66.3597 115.266 66.3777 114.924 66.3777 114.582C66.3777 111.774 64.9737 109.992 62.4897 109.992C60.2397 109.992 58.0977 111.954 58.0977 115.14C58.0977 118.344 60.1677 120.252 62.7777 120.252ZM59.6997 114.33C59.9157 112.404 61.1397 111.306 62.5077 111.306C64.0557 111.306 64.9377 112.368 64.9377 114.33H59.6997ZM68.9465 120H70.4585V112.71C70.4585 111.558 70.3325 109.974 70.2425 108.804H70.3145L71.3585 111.81L73.8605 118.686H74.9765L77.4785 111.81L78.5225 108.804H78.6125C78.5225 109.974 78.3965 111.558 78.3965 112.71V120H79.9445V106.806H77.9285L75.4265 113.88C75.1205 114.78 74.8325 115.698 74.5085 116.634H74.4365C74.1125 115.698 73.8065 114.78 73.4825 113.88L70.9445 106.806H68.9465V120ZM81.8079 120H83.4999L85.8219 112.62C86.3079 111.144 86.7219 109.704 87.1539 108.174H87.2259C87.6579 109.704 88.0719 111.144 88.5399 112.62L90.8619 120H92.6079L88.1439 106.806H86.2719L81.8079 120ZM84.1479 115.968H90.2319V114.654H84.1479V115.968ZM100.535 105.978V107.274H109.373V105.978H100.535ZM105.791 111.342V119.694C105.791 120 105.683 120.072 105.323 120.09C104.999 120.108 103.793 120.108 102.515 120.072C102.713 120.468 102.893 121.026 102.947 121.404C104.711 121.404 105.737 121.386 106.349 121.188C106.961 120.972 107.159 120.558 107.159 119.712V111.342H105.791ZM99.7431 110.946V112.224H109.895V110.946H99.7431ZM96.1431 112.332V121.494H97.4931V111.234L97.3311 111.162L96.1431 112.332ZM98.2311 108.732C96.9891 110.802 95.0091 112.89 93.1371 114.222C93.4251 114.474 93.8931 115.068 94.0911 115.338C95.9811 113.826 98.1051 111.504 99.5091 109.218L98.2311 108.732ZM97.4931 104.88C96.5751 106.176 94.8291 107.796 93.3351 108.804C93.5691 109.074 93.9291 109.596 94.1271 109.884C95.7291 108.732 97.5831 106.986 98.7891 105.402L97.4931 104.88ZM126.491 105.384C126.059 106.446 125.249 107.904 124.619 108.822L125.735 109.29C126.365 108.39 127.139 107.076 127.751 105.888L126.491 105.384ZM118.553 105.996C119.309 107.058 120.047 108.462 120.317 109.398L121.487 108.804C121.199 107.886 120.407 106.5 119.651 105.474L118.553 105.996ZM125.897 110.028V119.748C125.897 119.982 125.825 120.072 125.537 120.072C125.249 120.09 124.331 120.09 123.305 120.054C123.485 120.414 123.665 120.972 123.719 121.332C125.087 121.332 125.969 121.332 126.491 121.116C127.031 120.9 127.175 120.486 127.175 119.766V110.028H125.897ZM122.423 104.898V110.82H123.719V104.898H122.423ZM119.507 110.028V111.216H126.221V110.028H119.507ZM119.003 110.028V115.014C119.003 116.796 118.913 119.064 117.977 120.72C118.283 120.864 118.805 121.278 119.021 121.512C120.101 119.712 120.263 117.012 120.263 115.014V110.028H119.003ZM120.281 116.688L120.731 117.858C122.405 117.444 124.583 116.922 126.653 116.364L126.527 115.284C124.241 115.824 121.865 116.364 120.281 116.688ZM120.587 113.322C122.045 113.646 123.845 114.276 124.799 114.78L125.357 113.808C124.385 113.304 122.549 112.728 121.127 112.458L120.587 113.322ZM112.685 109.452V110.622H117.239V109.452H112.685ZM111.587 112.584V113.772H117.869V112.584H111.587ZM111.749 114.942C112.037 116.004 112.361 117.39 112.487 118.308L113.477 118.038C113.351 117.138 113.027 115.77 112.703 114.708L111.749 114.942ZM111.371 119.586L111.695 120.81C113.441 120.432 115.799 119.892 118.049 119.388L117.995 118.344C115.511 118.83 112.973 119.316 111.371 119.586ZM116.987 114.492C116.807 115.482 116.411 116.922 116.105 117.804L116.969 118.092C117.311 117.246 117.725 115.932 118.067 114.816L116.987 114.492ZM114.359 109.956V119.694L115.547 119.496V109.956H114.359ZM114.701 104.88C113.909 106.608 112.577 108.264 111.209 109.326C111.443 109.65 111.803 110.37 111.893 110.658C113.423 109.344 114.953 107.31 115.907 105.276L114.701 104.88ZM114.431 106.5C115.529 107.454 117.023 108.822 117.743 109.632L118.517 108.588C117.779 107.832 116.285 106.536 115.169 105.6L114.431 106.5ZM132.539 111.342V112.602H142.997V111.342H132.539ZM132.539 115.248V116.508H142.997V115.248H132.539ZM132.539 119.19V120.45H142.997V119.19H132.539ZM131.621 107.346V121.458H132.989V108.642H142.637V121.368H144.041V107.346H131.621ZM136.895 104.862C136.715 105.744 136.319 107.004 135.995 107.85L137.201 108.084C137.597 107.31 138.065 106.14 138.461 105.06L136.895 104.862ZM147.947 116.652V117.678H156.155V116.652H147.947ZM147.461 107.976V109.02H156.443V107.976H147.461ZM151.367 106.338V119.586H152.609V106.338H151.367ZM147.443 119.622L147.641 120.792C149.927 120.558 153.185 120.18 156.245 119.82L156.227 118.758C153.005 119.1 149.639 119.424 147.443 119.622ZM149.117 113.286H154.949V114.618H149.117V113.286ZM149.117 111.09H154.949V112.386H149.117V111.09ZM147.983 110.154V115.554H156.101V110.154H147.983ZM155.453 105.06C153.599 105.492 150.323 105.816 147.641 105.96C147.785 106.23 147.911 106.68 147.965 106.968C150.665 106.878 154.013 106.572 156.137 106.104L155.453 105.06ZM156.317 109.092V110.352H162.815V109.092H156.317ZM162.293 109.092V109.416C162.095 116.706 161.897 119.298 161.447 119.856C161.285 120.09 161.105 120.144 160.817 120.144C160.457 120.144 159.665 120.126 158.783 120.054C158.999 120.414 159.143 120.972 159.179 121.35C160.007 121.404 160.871 121.404 161.375 121.35C161.915 121.296 162.275 121.134 162.599 120.666C163.193 119.892 163.373 117.372 163.571 109.776C163.571 109.596 163.589 109.092 163.589 109.092H162.293ZM158.495 105.114C158.477 111.918 158.567 117.624 154.445 120.576C154.769 120.792 155.237 121.224 155.453 121.548C159.755 118.326 159.773 112.278 159.791 105.114H158.495ZM173.489 105.168V118.38C173.489 120.306 174.011 120.828 175.829 120.828C176.225 120.828 178.835 120.828 179.267 120.828C181.211 120.828 181.553 119.676 181.769 116.31C181.391 116.22 180.869 115.968 180.527 115.716C180.383 118.794 180.221 119.604 179.213 119.604C178.637 119.604 176.369 119.604 175.919 119.604C174.983 119.604 174.785 119.388 174.785 118.416V105.168H173.489ZM170.285 104.952C169.133 107.724 167.207 110.406 165.209 112.116C165.461 112.44 165.839 113.16 165.983 113.466C168.125 111.468 170.213 108.444 171.545 105.384L170.285 104.952ZM168.431 109.344V121.44H169.727V108.102L169.709 108.084L168.431 109.344ZM174.245 110.118V111.396H181.229V110.118H174.245Z" fill="#63A7C8"/>
<g clip-path="url(#clip0_4041_28959)">
<path d="M201.825 109.158L198 112.975L194.175 109.158L193 110.333L198 115.333L203 110.333L201.825 109.158Z" fill="#63A7C8"/>
</g>
<path d="M53.83 537.978V539.274H62.668V537.978H53.83ZM59.086 543.342V551.694C59.086 552 58.978 552.072 58.618 552.09C58.294 552.108 57.088 552.108 55.81 552.072C56.008 552.468 56.188 553.026 56.242 553.404C58.006 553.404 59.032 553.386 59.644 553.188C60.256 552.972 60.454 552.558 60.454 551.712V543.342H59.086ZM53.038 542.946V544.224H63.19V542.946H53.038ZM49.438 544.332V553.494H50.788V543.234L50.626 543.162L49.438 544.332ZM51.526 540.732C50.284 542.802 48.304 544.89 46.432 546.222C46.72 546.474 47.188 547.068 47.386 547.338C49.276 545.826 51.4 543.504 52.804 541.218L51.526 540.732ZM50.788 536.88C49.87 538.176 48.124 539.796 46.63 540.804C46.864 541.074 47.224 541.596 47.422 541.884C49.024 540.732 50.878 538.986 52.084 537.402L50.788 536.88ZM79.786 537.384C79.354 538.446 78.544 539.904 77.914 540.822L79.03 541.29C79.66 540.39 80.434 539.076 81.046 537.888L79.786 537.384ZM71.848 537.996C72.604 539.058 73.342 540.462 73.612 541.398L74.782 540.804C74.494 539.886 73.702 538.5 72.946 537.474L71.848 537.996ZM79.192 542.028V551.748C79.192 551.982 79.12 552.072 78.832 552.072C78.544 552.09 77.626 552.09 76.6 552.054C76.78 552.414 76.96 552.972 77.014 553.332C78.382 553.332 79.264 553.332 79.786 553.116C80.326 552.9 80.47 552.486 80.47 551.766V542.028H79.192ZM75.718 536.898V542.82H77.014V536.898H75.718ZM72.802 542.028V543.216H79.516V542.028H72.802ZM72.298 542.028V547.014C72.298 548.796 72.208 551.064 71.272 552.72C71.578 552.864 72.1 553.278 72.316 553.512C73.396 551.712 73.558 549.012 73.558 547.014V542.028H72.298ZM73.576 548.688L74.026 549.858C75.7 549.444 77.878 548.922 79.948 548.364L79.822 547.284C77.536 547.824 75.16 548.364 73.576 548.688ZM73.882 545.322C75.34 545.646 77.14 546.276 78.094 546.78L78.652 545.808C77.68 545.304 75.844 544.728 74.422 544.458L73.882 545.322ZM65.98 541.452V542.622H70.534V541.452H65.98ZM64.882 544.584V545.772H71.164V544.584H64.882ZM65.044 546.942C65.332 548.004 65.656 549.39 65.782 550.308L66.772 550.038C66.646 549.138 66.322 547.77 65.998 546.708L65.044 546.942ZM64.666 551.586L64.99 552.81C66.736 552.432 69.094 551.892 71.344 551.388L71.29 550.344C68.806 550.83 66.268 551.316 64.666 551.586ZM70.282 546.492C70.102 547.482 69.706 548.922 69.4 549.804L70.264 550.092C70.606 549.246 71.02 547.932 71.362 546.816L70.282 546.492ZM67.654 541.956V551.694L68.842 551.496V541.956H67.654ZM67.996 536.88C67.204 538.608 65.872 540.264 64.504 541.326C64.738 541.65 65.098 542.37 65.188 542.658C66.718 541.344 68.248 539.31 69.202 537.276L67.996 536.88ZM67.726 538.5C68.824 539.454 70.318 540.822 71.038 541.632L71.812 540.588C71.074 539.832 69.58 538.536 68.464 537.6L67.726 538.5ZM85.06 543.63V544.89H89.542V543.63H85.06ZM89.002 543.63V543.864C88.948 547.752 88.858 549.102 88.588 549.426C88.462 549.588 88.282 549.606 88.03 549.606C87.724 549.606 86.932 549.606 86.122 549.534C86.32 549.876 86.464 550.398 86.5 550.794C87.382 550.83 88.192 550.848 88.66 550.794C89.164 550.74 89.452 550.614 89.74 550.29C90.118 549.786 90.226 548.274 90.316 544.206C90.316 544.026 90.316 543.63 90.316 543.63H89.002ZM94.078 537.798C95.212 538.392 96.598 539.31 97.282 539.94L98.128 539.022C97.426 538.392 96.004 537.528 94.888 536.952L94.078 537.798ZM96.652 542.676C95.302 547.014 92.764 550.308 89.11 552.252C89.398 552.522 89.902 553.08 90.1 553.35C93.79 551.172 96.472 547.698 98.002 543L96.652 542.676ZM85.168 539.94V541.272H99.1V539.94H85.168ZM84.304 539.94V544.998C84.304 547.356 84.142 550.452 82.648 552.666C82.972 552.828 83.548 553.296 83.782 553.566C85.42 551.208 85.708 547.572 85.708 545.016V539.94H84.304ZM91.774 536.916C91.846 545.538 93.466 553.314 97.138 553.314C98.506 553.314 99.01 552.432 99.262 549.354C98.902 549.228 98.398 548.922 98.092 548.616C97.984 551.01 97.75 551.946 97.246 551.946C94.906 551.946 93.142 545.196 93.178 536.916H91.774ZM101.026 539.508V540.732H109.234V539.508H101.026ZM103.042 541.2C102.466 542.604 101.548 544.08 100.612 545.088C100.9 545.286 101.386 545.718 101.584 545.916C102.52 544.818 103.546 543.108 104.212 541.56L103.042 541.2ZM106.192 544.134C105.238 547.608 103.384 550.362 100.684 552.018C100.972 552.252 101.44 552.756 101.638 553.008C104.392 551.136 106.354 548.202 107.47 544.368L106.192 544.134ZM106.012 541.686C106.804 542.676 107.668 544.008 108.01 544.872L109.072 544.26C108.73 543.396 107.83 542.1 107.02 541.146L106.012 541.686ZM102.466 545.52C104.338 547.356 106.444 549.912 107.326 551.604L108.424 550.74C107.488 549.066 105.328 546.6 103.474 544.8L102.466 545.52ZM111.178 540.174V541.434H117.154V540.174H111.178ZM111.592 536.862C111.07 540.066 110.17 543.144 108.712 545.124C108.982 545.358 109.45 545.88 109.63 546.132C111.196 543.936 112.24 540.606 112.87 537.06L111.592 536.862ZM114.904 540.966C114.112 546.78 112.276 550.452 107.92 552.486C108.208 552.738 108.676 553.242 108.838 553.512C113.284 551.19 115.282 547.338 116.2 541.128L114.904 540.966ZM111.358 542.496L110.206 542.766C111.232 547.554 113.158 551.514 116.434 553.44C116.65 553.098 117.082 552.612 117.388 552.342C114.22 550.704 112.258 546.87 111.358 542.496ZM103.618 537.312C104.14 538.014 104.698 538.968 104.95 539.598L106.138 539.076C105.868 538.464 105.292 537.546 104.734 536.862L103.618 537.312Z" fill="#8A8A8A"/>
<path d="M131.158 540.175L134.975 544L131.158 547.825L132.333 549L137.333 544L132.333 539L131.158 540.175Z" fill="#8A8A8A"/>
<path d="M14.9791 108C15.9931 108 16.7695 108.185 17.3095 108.555C17.8489 108.924 18.1189 109.499 18.1189 110.277C18.1189 110.763 18.0101 111.157 17.7924 111.46C17.5747 111.764 17.2613 112.001 16.8514 112.174C16.9878 112.347 17.1311 112.545 17.2806 112.768C17.4301 112.991 17.5782 113.224 17.7242 113.467C17.8703 113.711 18.0122 113.964 18.1486 114.227C18.285 114.49 18.4117 114.748 18.5288 115.001H16.828C16.704 114.774 16.578 114.545 16.4512 114.312C16.3238 114.079 16.1936 113.853 16.0599 113.633C15.9263 113.413 15.794 113.206 15.6638 113.009C15.533 112.813 15.4028 112.634 15.2726 112.475H14.5217V115.001H13V108.18C13.3313 108.114 13.6744 108.067 14.0285 108.04C14.3825 108.013 14.6994 108 14.9791 108ZM15.0666 109.328C14.9557 109.328 14.8572 109.331 14.769 109.338C14.6815 109.345 14.5982 109.351 14.5203 109.358V111.235H14.9495C15.5212 111.235 15.9311 111.162 16.1777 111.016C16.4243 110.87 16.5483 110.62 16.5483 110.266C16.5483 109.927 16.423 109.686 16.1729 109.542C15.9235 109.4 15.5543 109.328 15.0666 109.328Z" fill="#63A7C8"/>
<path d="M18.9187 112.275C18.9187 111.809 18.9883 111.401 19.1281 111.051C19.268 110.702 19.4512 110.411 19.6792 110.178C19.9065 109.945 20.1683 109.769 20.4638 109.649C20.7593 109.529 21.0631 109.469 21.3752 109.469C22.1033 109.469 22.6785 109.697 23.1008 110.153C23.5231 110.609 23.7345 111.28 23.7345 112.165C23.7345 112.252 23.7311 112.347 23.7249 112.45C23.718 112.553 23.7118 112.645 23.7056 112.724H20.4101C20.4425 113.03 20.5823 113.273 20.8296 113.453C21.0762 113.633 21.4083 113.723 21.8243 113.723C22.0909 113.723 22.352 113.698 22.6089 113.648C22.8659 113.598 23.0753 113.536 23.2379 113.463L23.4328 114.672C23.355 114.712 23.251 114.751 23.1208 114.792C22.9906 114.832 22.8459 114.866 22.6868 114.897C22.5277 114.926 22.3568 114.952 22.175 114.972C21.9931 114.992 21.8112 115.002 21.6287 115.002C21.1672 115.002 20.7655 114.932 20.4246 114.792C20.0836 114.653 19.8004 114.461 19.5766 114.218C19.352 113.975 19.1867 113.687 19.0792 113.354C18.9724 113.02 18.9187 112.661 18.9187 112.275ZM22.3306 111.705C22.3238 111.579 22.3031 111.456 22.2673 111.336C22.2314 111.216 22.1763 111.109 22.1012 111.016C22.0262 110.923 21.9325 110.846 21.8181 110.786C21.7045 110.726 21.5632 110.696 21.3938 110.696C21.2312 110.696 21.0914 110.725 20.9743 110.781C20.8572 110.838 20.76 110.912 20.6815 111.005C20.6037 111.099 20.543 111.207 20.501 111.33C20.4583 111.454 20.428 111.578 20.408 111.705H22.3306V111.705Z" fill="#63A7C8"/>
<path d="M39.9999 110.573C39.9999 109.152 38.8757 108 37.4876 108H36.4185H34.9753V115H36.4185V109.478H37.4876C38.078 109.478 38.5567 109.969 38.5567 110.573V112.047H37.1136V113.525H38.5567V114.999H39.9999V110.573Z" fill="#F6D98C"/>
<path d="M28.1998 108H27.1307V108.001H25.6875V114.999H27.1307V109.478H28.1998C28.7901 109.478 29.2689 109.969 29.2689 110.573V114.999H30.7121V110.573C30.7114 109.152 29.5865 108 28.1998 108Z" fill="#6DB2C6"/>
<path d="M34.2921 110.573C34.2921 109.152 33.1672 108 31.7805 108H29.5837C30.1589 108.325 30.6129 108.847 30.8602 109.478H31.1998C31.1998 109.479 31.2005 109.479 31.2005 109.48H31.7805C32.3709 109.48 32.8496 109.97 32.8496 110.575V115.001H34.2928V114.999V110.573H34.2921Z" fill="#6DB2C6"/>
<g clip-path="url(#clip1_4041_28959)">
<path d="M27.1692 551.283H24.8309C24.4658 551.283 24.167 550.985 24.167 550.619V540.629C24.167 540.264 24.4658 539.965 24.8309 539.965H27.1692C27.5344 539.965 27.8332 540.264 27.8332 540.629V550.619C27.8332 550.985 27.5344 551.283 27.1692 551.283Z" fill="#8A8A8A"/>
<path d="M21.6002 551.283H19.2618C18.8967 551.283 18.5979 550.985 18.5979 550.62V542.991C18.5979 542.626 18.8967 542.327 19.2618 542.327H21.6002C21.9653 542.327 22.2641 542.626 22.2641 542.991V550.62C22.2641 550.985 21.9653 551.283 21.6002 551.283Z" fill="#8A8A8A"/>
<path d="M32.7381 551.284H30.3998C30.0346 551.284 29.7358 550.985 29.7358 550.62V537.382C29.7358 537.017 30.0346 536.718 30.3998 536.718H32.7381C33.1033 536.718 33.402 537.017 33.402 537.382V550.62C33.402 550.985 33.1033 551.284 32.7381 551.284Z" fill="#8A8A8A"/>
<path d="M34.3395 554H17.6611C16.7449 554 16 553.255 16 552.34V535.661C16 534.745 16.7449 534 17.6611 534H34.3395C35.2551 534 36.0007 534.745 36.0007 535.661V552.34C36 553.255 35.2551 554 34.3395 554ZM17.6611 535.51C17.5795 535.51 17.5104 535.579 17.5104 535.66V552.339C17.5104 552.421 17.5795 552.49 17.6611 552.49H34.3395C34.4212 552.49 34.4902 552.421 34.4902 552.339V535.661C34.4902 535.579 34.4212 535.51 34.3395 535.51H17.6611V535.51Z" fill="#8A8A8A"/>
</g>
<rect x="10" y="228" width="200" height="40" rx="8" fill="#63A7C8"/>
<path d="M47.8 170H55.594V168.596H49.474V163.772H54.46V162.35H49.474V158.21H55.396V156.806H47.8V170ZM58.2556 170H59.8936V162.908C60.7756 161.918 61.6036 161.414 62.3416 161.414C63.6016 161.414 64.1776 162.188 64.1776 164.024V170H65.8156V162.908C66.7336 161.918 67.5076 161.414 68.2636 161.414C69.5236 161.414 70.0996 162.188 70.0996 164.024V170H71.7376V163.808C71.7376 161.324 70.7656 159.992 68.7676 159.992C67.5796 159.992 66.5536 160.766 65.5276 161.846C65.1496 160.694 64.3396 159.992 62.8456 159.992C61.6756 159.992 60.6496 160.73 59.8036 161.648H59.7496L59.5876 160.226H58.2556V170ZM77.1697 170.252C78.3757 170.252 79.4737 169.622 80.3917 168.848H80.4637L80.6077 170H81.9577V164.006C81.9577 161.576 80.9497 159.992 78.5557 159.992C76.9897 159.992 75.6217 160.676 74.7217 161.252L75.3697 162.404C76.1257 161.882 77.1517 161.342 78.3037 161.342C79.9057 161.342 80.3017 162.548 80.3017 163.808C76.1437 164.276 74.3077 165.338 74.3077 167.462C74.3077 169.226 75.5317 170.252 77.1697 170.252ZM77.6197 168.92C76.6657 168.92 75.9097 168.47 75.9097 167.354C75.9097 166.094 77.0077 165.284 80.3017 164.906V167.624C79.3657 168.47 78.5737 168.92 77.6197 168.92ZM85.0623 170H86.7003V160.226H85.0623V170ZM85.8903 158.21C86.5203 158.21 86.9883 157.796 86.9883 157.112C86.9883 156.482 86.5203 156.068 85.8903 156.068C85.2423 156.068 84.7923 156.482 84.7923 157.112C84.7923 157.796 85.2423 158.21 85.8903 158.21ZM91.7473 170.252C92.1973 170.252 92.4493 170.18 92.6833 170.108L92.4673 168.848C92.2693 168.884 92.1973 168.884 92.1253 168.884C91.8733 168.884 91.6573 168.686 91.6573 168.164V155.69H90.0193V168.056C90.0193 169.46 90.5053 170.252 91.7473 170.252Z" fill="#63A7C8"/>
<path d="M61.558 204.474L61.918 205.788C63.448 205.302 65.482 204.636 67.39 204.006L67.21 202.764C65.122 203.43 62.98 204.096 61.558 204.474ZM61.72 198.48V199.74H67.372V198.48H61.72ZM64.024 194.898V209.784C64.024 210.054 63.934 210.108 63.718 210.108C63.502 210.126 62.8 210.126 62.026 210.108C62.206 210.486 62.386 211.062 62.422 211.404C63.574 211.422 64.276 211.368 64.708 211.152C65.176 210.936 65.338 210.558 65.338 209.784V194.898H64.024ZM69.19 201.702V202.908H77.524V201.702H69.19ZM69.208 205.302V206.508H77.506V205.302H69.208ZM69.244 208.956V210.198H78.172V208.956H69.244ZM70.036 194.988C69.208 197.652 67.84 200.28 66.274 201.954C66.562 202.188 67.066 202.674 67.282 202.908C68.884 201.054 70.36 198.21 71.314 195.33L70.036 194.988ZM70.054 198.102H69.784L68.74 199.182V211.44H70.054V199.344H77.812V198.102H70.054ZM73.096 198.768V209.622H74.374V198.768H73.096ZM72.538 195.492C73.042 196.32 73.6 197.454 73.816 198.192L75.04 197.652C74.806 196.932 74.248 195.852 73.708 195.042L72.538 195.492ZM81.754 198.822V199.812H95.578V198.822H81.754ZM84.292 204.762V205.716H95.038V204.762H84.292ZM84.256 206.742V207.714H94.534V206.742H84.256ZM85.282 199.542V203.268H86.452V199.542H85.282ZM89.386 199.542V203.268H90.574V199.542H89.386ZM81.268 198.822V203.016C81.268 205.302 81.088 208.452 79.522 210.702C79.828 210.828 80.368 211.17 80.602 211.386C82.258 209.01 82.528 205.5 82.528 203.016V198.822H81.268ZM82.042 200.874V201.738H93.31V202.89H82.042V203.736H94.624V200.874H82.042ZM94.174 206.742V206.904C94.012 209.154 93.832 210.036 93.58 210.306C93.454 210.432 93.328 210.45 93.076 210.45C92.842 210.45 92.248 210.45 91.6 210.378C91.762 210.666 91.87 211.116 91.906 211.422C92.608 211.458 93.292 211.458 93.634 211.44C94.066 211.404 94.354 211.296 94.624 211.044C95.002 210.63 95.2 209.658 95.398 207.246C95.434 207.066 95.452 206.742 95.452 206.742H94.174ZM83.536 208.182C83.266 209.01 82.762 210.108 82.204 210.756L83.176 211.314C83.734 210.594 84.202 209.478 84.508 208.614L83.536 208.182ZM85.408 208.578C85.642 209.406 85.804 210.486 85.804 211.188L86.902 211.008C86.884 210.324 86.704 209.244 86.434 208.416L85.408 208.578ZM87.784 208.452C88.198 209.172 88.63 210.162 88.792 210.81L89.836 210.45C89.638 209.82 89.206 208.848 88.756 208.146L87.784 208.452ZM90.214 208.254C90.718 208.776 91.312 209.532 91.564 210.018L92.482 209.514C92.23 209.046 91.654 208.344 91.114 207.84L90.214 208.254ZM86.812 197.814C87.226 198.318 87.64 199.038 87.82 199.524L88.918 199.074C88.72 198.606 88.27 197.922 87.838 197.436L86.812 197.814ZM79.954 196.014V197.094H87.406V196.014H79.954ZM83.752 194.898V198.21H85.066V194.898H83.752ZM91.024 194.898V198.21H92.32V194.898H91.024ZM88.432 196.014V197.076H95.92V196.014H88.432ZM84.166 203.412L83.41 207.714H84.598L85.318 203.592L84.166 203.412ZM99.124 200.604V211.404H100.42V201.738H112.39V200.604H99.124ZM111.67 200.604V209.946C111.67 210.216 111.562 210.288 111.274 210.306C110.986 210.324 109.942 210.342 108.826 210.306C108.988 210.594 109.168 211.026 109.222 211.35C110.77 211.35 111.688 211.332 112.21 211.17C112.75 210.972 112.93 210.648 112.93 209.946V200.604H111.67ZM103.336 205.014V206.04H108.124V208.128H103.336V209.136H109.276V205.014H103.336ZM102.634 205.014V209.982H103.804V205.014H102.634ZM98.098 196.824V198.012H113.92V196.824H98.098ZM101.932 198.426C102.328 199.092 102.814 199.992 103.048 200.55L104.236 200.046C104.002 199.542 103.48 198.678 103.084 198.03L101.932 198.426ZM108.844 198.12C108.52 198.948 107.854 200.136 107.332 200.874L108.376 201.18C108.934 200.496 109.636 199.398 110.212 198.444L108.844 198.12ZM104.956 195.132C105.244 195.87 105.604 196.878 105.766 197.508L107.08 197.112C106.9 196.5 106.54 195.546 106.198 194.808L104.956 195.132ZM103.606 201.162C103.462 202.962 102.85 203.79 100.456 204.222C100.708 204.438 100.996 204.888 101.104 205.158C103.858 204.546 104.614 203.412 104.812 201.162H103.606ZM106.792 201.198V202.872C106.792 203.97 107.008 204.438 108.124 204.438C108.394 204.438 109.672 204.438 110.032 204.438C110.41 204.438 110.86 204.42 111.076 204.348C111.04 204.06 111.004 203.682 110.986 203.376C110.734 203.43 110.266 203.448 109.996 203.448C109.726 203.448 108.628 203.448 108.376 203.448C108.052 203.448 108.016 203.304 108.016 202.89V201.198H106.792ZM120.418 196.95H127.618V200.37H120.418V196.95ZM119.104 195.654V201.666H128.986V195.654H119.104ZM116.494 203.574V211.44H117.772V204.87H121.552V211.296H122.902V203.574H116.494ZM124.864 203.574V211.44H126.16V204.87H130.282V211.332H131.632V203.574H124.864ZM117.07 209.172V210.468H122.092V209.172H117.07ZM125.53 209.172V210.468H130.876V209.172H125.53ZM134.062 195.762V196.95H139.912V195.762H134.062ZM133.666 201.468V202.692H140.542V201.468H133.666ZM136.636 202.062V209.838C136.636 210.054 136.564 210.126 136.312 210.126C136.06 210.144 135.214 210.144 134.296 210.126C134.476 210.486 134.674 211.044 134.728 211.404C135.97 211.404 136.762 211.386 137.266 211.17C137.788 210.972 137.932 210.576 137.932 209.856V202.062H136.636ZM139.498 195.762V196.032C138.94 197.058 137.806 198.516 136.816 199.362C137.05 199.56 137.41 199.92 137.608 200.154C138.742 199.2 140.038 197.652 140.902 196.266L140.038 195.69L139.786 195.762H139.498ZM140.164 201.468V201.666C139.804 202.908 139.282 204.42 138.85 205.338L139.894 205.608C140.362 204.618 140.938 203.052 141.406 201.648L140.56 201.414L140.362 201.468H140.164ZM134.566 198.912C136.078 199.722 137.86 200.982 138.724 201.918L139.498 200.928C138.616 200.01 136.798 198.804 135.286 198.012L134.566 198.912ZM141.028 195.726V196.896H150.172V195.726H141.028ZM142.972 202.422H148.246V204.186H142.972V202.422ZM142.972 205.176H148.246V206.958H142.972V205.176ZM142.972 199.668H148.246V201.414H142.972V199.668ZM141.712 198.624V208.02H149.56V198.624H141.712ZM144.898 196.302C144.79 197.13 144.538 198.372 144.322 199.182L145.51 199.416C145.798 198.66 146.122 197.526 146.428 196.482L144.898 196.302ZM143.512 208.344C142.738 209.136 141.118 210.072 139.678 210.594C139.948 210.828 140.38 211.242 140.578 211.512C142.018 210.972 143.71 210 144.7 209.046L143.512 208.344ZM146.302 209.118C147.418 209.802 148.804 210.828 149.47 211.494L150.55 210.72C149.812 210.036 148.426 209.064 147.328 208.434L146.302 209.118ZM155.752 205.068H164.176V205.932H155.752V205.068ZM155.752 206.724H164.176V207.606H155.752V206.724ZM155.752 203.43H164.176V204.276H155.752V203.43ZM154.474 202.602V208.416H165.508V202.602H154.474ZM161.062 207.93V209.694C161.062 210.918 161.512 211.224 163.258 211.224C163.6 211.224 165.976 211.224 166.354 211.224C167.686 211.224 168.082 210.774 168.226 208.92C167.866 208.848 167.362 208.668 167.074 208.488C167.02 209.964 166.894 210.144 166.228 210.144C165.688 210.144 163.744 210.144 163.366 210.144C162.538 210.144 162.394 210.09 162.394 209.694V207.93H161.062ZM157.228 207.984C156.796 209.514 155.572 210.108 151.738 210.396C151.954 210.648 152.26 211.152 152.35 211.44C156.562 211.008 158.038 210.126 158.56 207.984H157.228ZM161.746 197.58V198.444H167.11V197.58H161.746ZM161.584 195.942V196.878H168.01V195.942H161.584ZM155.662 195.87V197.562H156.76V195.87H155.662ZM155.662 199.488V201.216H156.76V199.488H155.662ZM153.304 197.256V198.102H158.11V199.11H153.304V199.938H159.28V197.256H153.304ZM165.562 199.902H166.714V201.216H165.562V199.902ZM163.618 199.902H164.77V201.216H163.618V199.902ZM161.728 199.902H162.826V201.216H161.728V199.902ZM160.756 199.146V201.972H167.722V199.146H160.756ZM161.674 194.898C161.314 195.906 160.63 197.058 159.514 197.94C159.802 198.084 160.216 198.444 160.432 198.714C161.674 197.652 162.412 196.356 162.88 195.078L161.674 194.898ZM159.784 195.492H152.584V201.846H159.928V200.982H153.772V196.374H159.784V195.492Z" fill="#ABABAB"/>
<path d="M74.032 244.678C71.98 250.816 68.056 254.29 61.648 256.144C61.918 256.45 62.332 257.08 62.494 257.404C69.028 255.316 73.132 251.626 75.436 245.074L74.032 244.678ZM65.86 244.75L64.6 245.146C66.886 251.23 71.008 255.55 77.47 257.332C77.686 256.954 78.082 256.378 78.406 256.072C72.106 254.506 67.894 250.33 65.86 244.75ZM61.9 244.066V245.38H78.172V244.066H61.9ZM68.614 241.186C69.154 242.086 69.712 243.274 69.946 244.012L71.422 243.544C71.17 242.788 70.558 241.618 70.018 240.772L68.614 241.186ZM83.194 246.1V247.36H91.834V246.1H83.194ZM80.224 250.618V251.896H95.722V250.618H80.224ZM87.28 249.484V255.766C87.28 256.018 87.172 256.09 86.848 256.108C86.524 256.126 85.372 256.126 84.148 256.09C84.382 256.45 84.652 257.044 84.742 257.422C86.254 257.422 87.208 257.422 87.838 257.206C88.486 256.99 88.702 256.594 88.702 255.784V249.484H87.28ZM91.42 246.1V246.37C90.538 247.396 88.81 248.746 87.28 249.484C87.496 249.664 87.856 250.042 88.036 250.276C89.818 249.448 91.726 248.044 93.022 246.73L92.104 246.028L91.78 246.1H91.42ZM80.44 242.77V246.478H81.772V244.066H94.156V246.478H95.542V242.77H80.44ZM86.614 241.186C87.136 241.87 87.622 242.824 87.82 243.454L89.206 242.968C88.99 242.338 88.468 241.42 87.928 240.754L86.614 241.186ZM103.102 252.31V253.444H113.974V252.31H103.102ZM105.532 248.494H111.796V249.79H105.532V248.494ZM105.532 246.244H111.796V247.522H105.532V246.244ZM104.272 245.236V250.816H113.11V245.236H104.272ZM107.962 250.636C107.638 253.624 106.81 255.478 102.652 256.378C102.904 256.648 103.246 257.152 103.372 257.458C107.89 256.378 108.916 254.182 109.294 250.636H107.962ZM103.462 242.374V243.508H108.376V242.374H103.462ZM105.694 240.898V244.786H106.918V240.898H105.694ZM110.536 240.898V244.786H111.742V240.898H110.536ZM108.988 242.356V243.49H114.19V242.356H108.988ZM108.682 254.416C110.266 255.298 112.39 256.594 113.452 257.368L114.298 256.378C113.182 255.622 111.058 254.398 109.474 253.57L108.682 254.416ZM98.026 244.372V245.614H103.624V244.372H98.026ZM100.33 240.88V257.422H101.572V240.88H100.33ZM100.33 245.182C99.862 247.63 98.71 250.78 97.594 252.382C97.828 252.706 98.152 253.3 98.296 253.696C99.484 251.86 100.6 248.296 101.122 245.488L100.33 245.182ZM101.5 246.226L100.834 246.748C101.284 247.54 102.418 249.826 102.796 250.816L103.624 249.844C103.318 249.268 101.878 246.766 101.5 246.226ZM123.838 241.978V243.256H132.01V241.978H123.838ZM123.892 246.64V247.882H130.804V246.64H123.892ZM123.19 241.978V247.036C123.19 249.916 122.974 253.822 120.904 256.594C121.21 256.738 121.768 257.152 121.984 257.404C124.162 254.488 124.486 250.096 124.486 247.054V241.978H123.19ZM125.674 247.468L124.54 247.738C125.728 252.238 127.96 255.802 131.56 257.476C131.758 257.134 132.172 256.63 132.478 256.36C128.986 254.938 126.754 251.554 125.674 247.468ZM130.516 246.64V246.892C129.598 251.626 126.826 254.992 123.604 256.36C123.892 256.612 124.252 257.116 124.432 257.422C127.924 255.748 130.786 252.346 131.812 246.856L130.984 246.586L130.75 246.64H130.516ZM115.918 244.75V246.028H122.254V244.75H115.918ZM118.636 240.88V257.422H119.914V240.88H118.636ZM118.564 245.542C118.024 248.134 116.764 251.248 115.486 252.868C115.72 253.174 116.044 253.714 116.188 254.074C117.538 252.256 118.834 248.728 119.428 245.848L118.564 245.542ZM119.824 247.486L119.158 248.116C119.698 248.836 121.102 250.888 121.552 251.788L122.38 250.726C122.02 250.186 120.292 247.99 119.824 247.486Z" fill="white"/>
<path d="M70.414 286.88V294.494C70.414 297.734 70.036 300.56 66.994 302.558C67.3 302.774 67.75 303.188 67.966 303.458C71.224 301.262 71.638 298.094 71.638 294.494V286.88H70.414ZM73.51 286.88V303.422H74.806V286.88H73.51ZM67.462 289.958V291.2H70.954V289.958H67.462ZM74.194 289.958V291.2H77.956V289.958H74.194ZM74.266 293.738V294.944H77.776V293.738H74.266ZM74.176 297.662V298.904H78.262V297.662H74.176ZM67.588 293.738V294.944H71.008V293.738H67.588ZM66.562 298.436L67.084 299.606C68.2 299.21 69.478 298.742 70.72 298.256L70.522 297.212C69.046 297.68 67.606 298.148 66.562 298.436ZM61.486 296.222L61.846 297.536C63.376 297.05 65.356 296.402 67.228 295.754L67.048 294.512C64.996 295.178 62.89 295.826 61.486 296.222ZM61.738 290.516V291.776H67.21V290.516H61.738ZM64.006 286.898V301.874C64.006 302.144 63.898 302.198 63.682 302.198C63.466 302.216 62.782 302.216 61.99 302.198C62.17 302.576 62.332 303.134 62.386 303.458C63.52 303.458 64.222 303.422 64.636 303.206C65.086 302.99 65.266 302.63 65.266 301.874V286.898H64.006ZM90.448 295.322V302.594H91.78V295.322H90.448ZM85.948 301.784V302.99H96.19V301.784H85.948ZM86.938 298.202V299.354H95.434V298.202H86.938ZM88.378 288.968H93.922V292.352H88.378V288.968ZM87.118 287.798V293.54H95.236V287.798H87.118ZM94.66 294.188C92.788 294.728 89.368 295.088 86.56 295.25C86.704 295.556 86.848 296.006 86.884 296.312C89.782 296.168 93.31 295.826 95.56 295.196L94.66 294.188ZM82.816 288.374V303.404H84.13V288.374H82.816ZM79.864 291.956V293.234H86.398V291.956H79.864ZM82.888 292.442C82.24 294.674 80.8 297.482 79.504 298.922C79.738 299.228 80.062 299.786 80.188 300.164C81.574 298.49 83.014 295.34 83.734 292.802L82.888 292.442ZM85.534 287.15C84.202 287.762 81.808 288.266 79.756 288.608C79.918 288.914 80.098 289.364 80.17 289.652C82.276 289.364 84.814 288.86 86.488 288.194L85.534 287.15ZM84.076 294.278L83.446 294.818C84.004 295.448 85.354 297.158 85.786 297.896L86.578 296.834C86.218 296.384 84.526 294.674 84.076 294.278Z" fill="#ABABAB"/>
<path d="M109.825 159.158L106 162.975L102.175 159.158L101 160.333L106 165.333L111 160.333L109.825 159.158Z" fill="#63A7C8"/>
<path d="M47.8 452H55.234V450.596H49.474V438.806H47.8V452ZM57.4294 452H59.0674V442.226H57.4294V452ZM58.2574 440.21C58.8874 440.21 59.3554 439.796 59.3554 439.112C59.3554 438.482 58.8874 438.068 58.2574 438.068C57.6094 438.068 57.1594 438.482 57.1594 439.112C57.1594 439.796 57.6094 440.21 58.2574 440.21ZM62.3865 452H64.0245V444.908C64.9965 443.936 65.6985 443.414 66.6885 443.414C67.9845 443.414 68.5425 444.188 68.5425 446.024V452H70.1985V445.808C70.1985 443.324 69.2625 441.992 67.2105 441.992C65.8605 441.992 64.8525 442.73 63.9345 443.648H63.8805L63.7185 442.226H62.3865V452ZM77.3148 452.252C78.6468 452.252 79.6728 451.802 80.5368 451.244L79.9428 450.146C79.2228 450.632 78.4488 450.938 77.5128 450.938C75.6408 450.938 74.3808 449.588 74.2548 447.518H80.8428C80.8968 447.266 80.9148 446.924 80.9148 446.582C80.9148 443.774 79.5108 441.992 77.0268 441.992C74.7768 441.992 72.6348 443.954 72.6348 447.14C72.6348 450.344 74.7048 452.252 77.3148 452.252ZM74.2368 446.33C74.4528 444.404 75.6768 443.306 77.0448 443.306C78.5928 443.306 79.4748 444.368 79.4748 446.33H74.2368Z" fill="#8A8A8A"/>
<path d="M94.1584 440.175L97.9751 444L94.1584 447.825L95.3334 449L100.333 444L95.3334 439L94.1584 440.175Z" fill="#8A8A8A"/>
<path d="M53.83 487.978V489.274H62.668V487.978H53.83ZM59.086 493.342V501.694C59.086 502 58.978 502.072 58.618 502.09C58.294 502.108 57.088 502.108 55.81 502.072C56.008 502.468 56.188 503.026 56.242 503.404C58.006 503.404 59.032 503.386 59.644 503.188C60.256 502.972 60.454 502.558 60.454 501.712V493.342H59.086ZM53.038 492.946V494.224H63.19V492.946H53.038ZM49.438 494.332V503.494H50.788V493.234L50.626 493.162L49.438 494.332ZM51.526 490.732C50.284 492.802 48.304 494.89 46.432 496.222C46.72 496.474 47.188 497.068 47.386 497.338C49.276 495.826 51.4 493.504 52.804 491.218L51.526 490.732ZM50.788 486.88C49.87 488.176 48.124 489.796 46.63 490.804C46.864 491.074 47.224 491.596 47.422 491.884C49.024 490.732 50.878 488.986 52.084 487.402L50.788 486.88ZM79.786 487.384C79.354 488.446 78.544 489.904 77.914 490.822L79.03 491.29C79.66 490.39 80.434 489.076 81.046 487.888L79.786 487.384ZM71.848 487.996C72.604 489.058 73.342 490.462 73.612 491.398L74.782 490.804C74.494 489.886 73.702 488.5 72.946 487.474L71.848 487.996ZM79.192 492.028V501.748C79.192 501.982 79.12 502.072 78.832 502.072C78.544 502.09 77.626 502.09 76.6 502.054C76.78 502.414 76.96 502.972 77.014 503.332C78.382 503.332 79.264 503.332 79.786 503.116C80.326 502.9 80.47 502.486 80.47 501.766V492.028H79.192ZM75.718 486.898V492.82H77.014V486.898H75.718ZM72.802 492.028V493.216H79.516V492.028H72.802ZM72.298 492.028V497.014C72.298 498.796 72.208 501.064 71.272 502.72C71.578 502.864 72.1 503.278 72.316 503.512C73.396 501.712 73.558 499.012 73.558 497.014V492.028H72.298ZM73.576 498.688L74.026 499.858C75.7 499.444 77.878 498.922 79.948 498.364L79.822 497.284C77.536 497.824 75.16 498.364 73.576 498.688ZM73.882 495.322C75.34 495.646 77.14 496.276 78.094 496.78L78.652 495.808C77.68 495.304 75.844 494.728 74.422 494.458L73.882 495.322ZM65.98 491.452V492.622H70.534V491.452H65.98ZM64.882 494.584V495.772H71.164V494.584H64.882ZM65.044 496.942C65.332 498.004 65.656 499.39 65.782 500.308L66.772 500.038C66.646 499.138 66.322 497.77 65.998 496.708L65.044 496.942ZM64.666 501.586L64.99 502.81C66.736 502.432 69.094 501.892 71.344 501.388L71.29 500.344C68.806 500.83 66.268 501.316 64.666 501.586ZM70.282 496.492C70.102 497.482 69.706 498.922 69.4 499.804L70.264 500.092C70.606 499.246 71.02 497.932 71.362 496.816L70.282 496.492ZM67.654 491.956V501.694L68.842 501.496V491.956H67.654ZM67.996 486.88C67.204 488.608 65.872 490.264 64.504 491.326C64.738 491.65 65.098 492.37 65.188 492.658C66.718 491.344 68.248 489.31 69.202 487.276L67.996 486.88ZM67.726 488.5C68.824 489.454 70.318 490.822 71.038 491.632L71.812 490.588C71.074 489.832 69.58 488.536 68.464 487.6L67.726 488.5ZM94.276 489.058V499.228H95.5V489.058H94.276ZM97.174 487.438V501.694C97.174 501.982 97.102 502.072 96.814 502.072C96.49 502.09 95.518 502.09 94.492 502.054C94.672 502.432 94.87 503.044 94.924 503.404C96.238 503.404 97.192 503.368 97.732 503.152C98.272 502.936 98.47 502.54 98.47 501.694V487.438H97.174ZM84.538 490.12V491.146H92.602V490.12H84.538ZM85.582 495.43V496.402H93.07V495.43H85.582ZM88.066 488.032V489.04H92.746V488.032H88.066ZM85.474 492.532L85.582 493.378L91.108 492.766L91.018 491.938L85.474 492.532ZM87.436 486.916V490.75H88.714V486.916H87.436ZM87.796 497.446C89.92 499.138 89.866 501.748 89.11 502.27C88.894 502.486 88.624 502.504 88.282 502.504C87.994 502.504 87.58 502.486 87.076 502.432C87.274 502.72 87.382 503.152 87.4 503.422C87.796 503.44 88.192 503.458 88.498 503.458C89.092 503.44 89.434 503.368 89.866 503.008C91.036 502.162 91.054 498.886 88.57 496.978L87.796 497.446ZM83.962 490.12V494.98C83.962 497.338 83.836 500.542 82.54 502.846C82.828 502.972 83.35 503.278 83.566 503.476C84.934 501.064 85.132 497.518 85.132 494.98V490.12H83.962ZM91.864 496.888C91.288 497.536 90.244 498.472 89.47 499.012L90.154 499.552C90.946 499.048 91.918 498.274 92.746 497.536L91.864 496.888ZM92.206 490.12V490.336C92.08 491.092 91.828 492.064 91.594 492.676L92.584 492.892C92.89 492.262 93.178 491.2 93.376 490.282L92.602 490.084L92.386 490.12H92.206ZM89.416 495.826C88.66 496.636 86.896 497.41 85.474 497.824C85.618 498.004 85.834 498.328 85.942 498.544C87.508 498.058 89.308 497.14 90.28 496.132L89.416 495.826ZM88.786 498.058C88.012 498.742 86.464 499.48 85.258 499.822C85.456 500.002 85.69 500.344 85.798 500.578C87.04 500.074 88.606 499.21 89.434 498.472L88.786 498.058ZM89.434 499.444C88.408 500.506 86.302 501.658 84.592 502.144C84.79 502.342 85.024 502.702 85.15 502.936C86.896 502.306 89.02 501.028 90.136 499.894L89.434 499.444ZM91.378 498.31L90.658 498.76C91.144 499.48 92.368 501.604 92.782 502.45L93.646 501.658C93.286 501.082 91.792 498.814 91.378 498.31ZM87.508 491.02V493.288C87.508 494.314 87.742 494.71 88.858 494.71C89.164 494.71 91.072 494.71 91.486 494.71C91.972 494.71 92.494 494.71 92.746 494.638C92.71 494.404 92.674 494.08 92.656 493.792C92.368 493.864 91.774 493.882 91.432 493.882C91.072 493.882 89.416 493.882 89.056 493.882C88.66 493.882 88.588 493.738 88.588 493.306V491.02H87.508ZM101.152 490.678V492.046H116.866V490.678H101.152ZM104.068 498.706V500.074H113.896V498.706H104.068ZM108.262 486.898V503.44H109.684V486.898H108.262ZM106.966 491.128C105.724 494.53 103.294 497.878 100.666 499.498C100.99 499.768 101.422 500.254 101.656 500.596C104.374 498.706 106.822 495.268 108.19 491.506L106.966 491.128ZM110.944 491.182L109.738 491.542C111.088 495.286 113.518 498.742 116.308 500.542C116.542 500.164 117.01 499.642 117.37 499.372C114.616 497.824 112.168 494.566 110.944 491.182Z" fill="#8A8A8A"/>
<path d="M47.8 352H49.474V346.078H54.496V344.692H49.474V340.21H55.396V338.806H47.8V352ZM57.7316 352H61.9436C64.8776 352 66.9296 350.722 66.9296 348.148C66.9296 346.348 65.8316 345.286 64.2476 344.98V344.908C65.4896 344.494 66.1736 343.342 66.1736 342.046C66.1736 339.724 64.3196 338.806 61.6376 338.806H57.7316V352ZM59.4056 344.422V340.12H61.4396C63.4916 340.12 64.5356 340.696 64.5356 342.244C64.5356 343.594 63.6176 344.422 61.3496 344.422H59.4056ZM59.4056 350.686V345.7H61.7096C64.0136 345.7 65.3096 346.456 65.3096 348.094C65.3096 349.876 63.9596 350.686 61.7096 350.686H59.4056ZM71.8411 352H73.5331L75.8551 344.62C76.3411 343.144 76.7551 341.704 77.1871 340.174H77.2591C77.6911 341.704 78.1051 343.144 78.5731 344.62L80.8951 352H82.6411L78.1771 338.806H76.3051L71.8411 352ZM74.1811 347.968H80.2651V346.654H74.1811V347.968ZM87.7063 352.252C88.8943 352.252 89.9203 351.622 90.6943 350.848H90.7303L90.8743 352H92.2243V337.69H90.5863V341.434L90.6583 343.126C89.8123 342.406 89.0563 341.992 87.9223 341.992C85.6903 341.992 83.6743 343.954 83.6743 347.14C83.6743 350.398 85.2583 352.252 87.7063 352.252ZM88.0663 350.866C86.3563 350.866 85.3843 349.462 85.3843 347.122C85.3843 344.89 86.6263 343.36 88.1923 343.36C89.0023 343.36 89.7583 343.648 90.5863 344.404V349.534C89.7763 350.416 88.9843 350.866 88.0663 350.866ZM98.1124 352.252C100.416 352.252 101.658 350.938 101.658 349.336C101.658 347.482 100.11 346.906 98.6884 346.366C97.5724 345.97 96.5824 345.61 96.5824 344.674C96.5824 343.918 97.1404 343.27 98.3824 343.27C99.2464 343.27 99.9484 343.648 100.614 344.134L101.406 343.09C100.65 342.478 99.5704 341.992 98.3644 341.992C96.2404 341.992 94.9984 343.198 94.9984 344.746C94.9984 346.42 96.4924 347.068 97.8424 347.59C98.9224 347.986 100.092 348.436 100.092 349.426C100.092 350.29 99.4444 350.974 98.1484 350.974C96.9784 350.974 96.1144 350.488 95.2684 349.804L94.4584 350.902C95.3764 351.658 96.7264 352.252 98.1124 352.252Z" fill="#8A8A8A"/>
<path d="M115.158 340.175L118.975 344L115.158 347.825L116.333 349L121.333 344L116.333 339L115.158 340.175Z" fill="#8A8A8A"/>
<path d="M153 389.175L156.817 393L153 396.825L154.175 398L159.175 393L154.175 388L153 389.175Z" fill="#8A8A8A"/>
<path d="M52.984 402.252C54.766 402.252 56.206 401.604 57.07 400.722V395.178H52.732V396.564H55.522V400.02C55.018 400.488 54.1 400.776 53.146 400.776C50.32 400.776 48.754 398.706 48.754 395.376C48.754 392.082 50.464 390.03 53.128 390.03C54.46 390.03 55.306 390.588 55.972 391.272L56.89 390.192C56.116 389.4 54.91 388.572 53.092 388.572C49.6 388.572 47.044 391.164 47.044 395.412C47.044 399.696 49.528 402.252 52.984 402.252ZM63.8642 402.252C66.2582 402.252 68.3822 400.362 68.3822 397.14C68.3822 393.864 66.2582 391.992 63.8642 391.992C61.4522 391.992 59.3282 393.864 59.3282 397.14C59.3282 400.362 61.4522 402.252 63.8642 402.252ZM63.8642 400.884C62.1542 400.884 61.0202 399.372 61.0202 397.14C61.0202 394.872 62.1542 393.36 63.8642 393.36C65.5562 393.36 66.6902 394.872 66.6902 397.14C66.6902 399.372 65.5562 400.884 63.8642 400.884ZM74.7802 402.252C77.1742 402.252 79.2982 400.362 79.2982 397.14C79.2982 393.864 77.1742 391.992 74.7802 391.992C72.3682 391.992 70.2442 393.864 70.2442 397.14C70.2442 400.362 72.3682 402.252 74.7802 402.252ZM74.7802 400.884C73.0702 400.884 71.9362 399.372 71.9362 397.14C71.9362 394.872 73.0702 393.36 74.7802 393.36C76.4722 393.36 77.6062 394.872 77.6062 397.14C77.6062 399.372 76.4722 400.884 74.7802 400.884ZM85.1922 406.5C88.1982 406.5 90.1242 404.952 90.1242 403.134C90.1242 401.514 88.9902 400.812 86.7222 400.812H84.8142C83.5002 400.812 83.0862 400.362 83.0862 399.732C83.0862 399.21 83.3742 398.868 83.7162 398.58C84.1662 398.796 84.7062 398.904 85.1742 398.904C87.1722 398.904 88.7562 397.608 88.7562 395.52C88.7562 394.674 88.4322 393.954 87.9642 393.504H89.9622V392.226H86.5602C86.2182 392.1 85.7322 391.992 85.1742 391.992C83.1942 391.992 81.5022 393.324 81.5022 395.484C81.5022 396.654 82.1502 397.59 82.7982 398.112V398.184C82.2762 398.544 81.7002 399.174 81.7002 399.984C81.7002 400.758 82.0782 401.28 82.5822 401.604V401.676C81.6822 402.252 81.1422 403.062 81.1422 403.89C81.1422 405.564 82.7982 406.5 85.1922 406.5ZM85.1742 397.806C84.0402 397.806 83.0862 396.888 83.0862 395.484C83.0862 394.026 84.0222 393.18 85.1742 393.18C86.3262 393.18 87.2622 394.044 87.2622 395.484C87.2622 396.888 86.3082 397.806 85.1742 397.806ZM85.4082 405.384C83.6442 405.384 82.5822 404.718 82.5822 403.656C82.5822 403.098 82.8702 402.504 83.5722 402C84.0222 402.126 84.4722 402.162 84.8502 402.162H86.5422C87.8202 402.162 88.5222 402.468 88.5222 403.386C88.5222 404.394 87.2982 405.384 85.4082 405.384ZM93.7863 402.252C94.2363 402.252 94.4883 402.18 94.7223 402.108L94.5063 400.848C94.3083 400.884 94.2363 400.884 94.1643 400.884C93.9123 400.884 93.6963 400.686 93.6963 400.164V387.69H92.0583V400.056C92.0583 401.46 92.5443 402.252 93.7863 402.252ZM101.116 402.252C102.448 402.252 103.474 401.802 104.338 401.244L103.744 400.146C103.024 400.632 102.25 400.938 101.314 400.938C99.4416 400.938 98.1816 399.588 98.0556 397.518H104.644C104.698 397.266 104.716 396.924 104.716 396.582C104.716 393.774 103.312 391.992 100.828 391.992C98.5776 391.992 96.4356 393.954 96.4356 397.14C96.4356 400.344 98.5056 402.252 101.116 402.252ZM98.0376 396.33C98.2536 394.404 99.4776 393.306 100.846 393.306C102.394 393.306 103.276 394.368 103.276 396.33H98.0376ZM109.564 402H111.256L113.578 394.62C114.064 393.144 114.478 391.704 114.91 390.174H114.982C115.414 391.704 115.828 393.144 116.296 394.62L118.618 402H120.364L115.9 388.806H114.028L109.564 402ZM111.904 397.968H117.988V396.654H111.904V397.968ZM125.429 402.252C126.617 402.252 127.643 401.622 128.417 400.848H128.453L128.597 402H129.947V387.69H128.309V391.434L128.381 393.126C127.535 392.406 126.779 391.992 125.645 391.992C123.413 391.992 121.397 393.954 121.397 397.14C121.397 400.398 122.981 402.252 125.429 402.252ZM125.789 400.866C124.079 400.866 123.107 399.462 123.107 397.122C123.107 394.89 124.349 393.36 125.915 393.36C126.725 393.36 127.481 393.648 128.309 394.404V399.534C127.499 400.416 126.707 400.866 125.789 400.866ZM135.835 402.252C138.139 402.252 139.381 400.938 139.381 399.336C139.381 397.482 137.833 396.906 136.411 396.366C135.295 395.97 134.305 395.61 134.305 394.674C134.305 393.918 134.863 393.27 136.105 393.27C136.969 393.27 137.671 393.648 138.337 394.134L139.129 393.09C138.373 392.478 137.293 391.992 136.087 391.992C133.963 391.992 132.721 393.198 132.721 394.746C132.721 396.42 134.215 397.068 135.565 397.59C136.645 397.986 137.815 398.436 137.815 399.426C137.815 400.29 137.167 400.974 135.871 400.974C134.701 400.974 133.837 400.488 132.991 399.804L132.181 400.902C133.099 401.658 134.449 402.252 135.835 402.252Z" fill="#8A8A8A"/>
<g clip-path="url(#clip2_4041_28959)">
<path d="M24.0126 72.0002C23.4319 72.0002 22.8859 71.7742 22.4754 71.3637L16.6359 65.5239C15.7884 64.6764 15.7884 63.2973 16.6359 62.4498L24.8969 54.1893C25.3074 53.7789 25.8758 53.5461 26.4572 53.5529L32.2355 53.6141C33.4091 53.6264 34.3737 54.5916 34.386 55.7645L34.4473 61.5424C34.4534 62.123 34.2213 62.6921 33.8108 63.1026L25.5498 71.3637C25.1393 71.7742 24.5933 72.0002 24.0126 72.0002ZM23.5701 70.2691C23.6886 70.3876 23.8451 70.4522 24.0126 70.4522C24.1801 70.4522 24.3366 70.3869 24.4551 70.2691L32.7161 62.0087C32.8345 61.8902 32.9013 61.7269 32.8992 61.5594L32.838 55.7815C32.8345 55.4439 32.5568 55.1662 32.2191 55.1628L26.4409 55.1008C26.2727 55.1001 26.11 55.1655 25.9916 55.2839L17.7306 63.5444C17.4869 63.7881 17.4869 64.1849 17.7306 64.4293L23.5701 70.2691Z" fill="#8A8A8A"/>
<path d="M30.4301 59.4282C29.9495 59.4282 29.4689 59.2451 29.1033 58.8795C28.3715 58.1477 28.3715 56.9579 29.1033 56.2261C29.458 55.8714 29.9291 55.6768 30.4301 55.6768C30.9311 55.6768 31.4022 55.8721 31.7569 56.2261C32.4887 56.9579 32.4887 58.1477 31.7569 58.8795C31.3907 59.2451 30.9107 59.4282 30.4301 59.4282ZM30.4301 56.8864C30.2517 56.8864 30.0843 56.9558 29.959 57.0817C29.699 57.3418 29.699 57.7645 29.959 58.0245C30.2191 58.2846 30.6418 58.2846 30.9019 58.0245C31.1619 57.7645 31.1619 57.3418 30.9019 57.0817C30.7752 56.9558 30.6078 56.8864 30.4301 56.8864Z" fill="#8A8A8A"/>
<path d="M30.6445 57.9605C30.4899 57.9605 30.3347 57.9013 30.217 57.7835C29.9807 57.5473 29.9807 57.1647 30.217 56.9285L34.968 52.1772C35.2042 51.9409 35.5868 51.9409 35.823 52.1772C36.0592 52.4134 36.0592 52.7959 35.823 53.0321L31.072 57.7835C30.9542 57.9013 30.799 57.9605 30.6445 57.9605Z" fill="#8A8A8A"/>
</g>
<defs>
<clipPath id="clip0_4041_28959">
<rect width="20" height="20" fill="white" transform="translate(188 103)"/>
</clipPath>
<clipPath id="clip1_4041_28959">
<rect width="20" height="20" fill="white" transform="translate(16 534)"/>
</clipPath>
<clipPath id="clip2_4041_28959">
<rect width="20" height="20" fill="white" transform="translate(16 52)"/>
</clipPath>
</defs>
</svg>
