<svg width="190" height="109" viewBox="0 0 190 109" fill="none" xmlns="http://www.w3.org/2000/svg">
<rect x="107.917" y="2" width="79.6187" height="79.6187" rx="8" stroke="#71AFB6" stroke-width="4"/>
<rect x="2" y="2" width="79.6187" height="79.6187" rx="8" stroke="#71AFB6" stroke-width="4" stroke-linecap="square" stroke-dasharray="15 15"/>
<mask id="path-3-outside-1_5192_39065" maskUnits="userSpaceOnUse" x="126.47" y="45.6141" width="67.8822" height="67.8822" fill="black">
<rect fill="white" x="126.47" y="45.6141" width="67.8822" height="67.8822"/>
<path fill-rule="evenodd" clip-rule="evenodd" d="M144.674 62.0582C143.93 61.859 143.25 62.5394 143.449 63.283L151.926 94.9208C152.126 95.6644 153.055 95.9134 153.599 95.3691L159.427 89.5419L171.176 101.291C171.566 101.682 172.199 101.682 172.59 101.291L183.228 90.6534C183.618 90.2628 183.618 89.6297 183.228 89.2391L171.478 77.4901L176.76 72.2086C177.304 71.6643 177.055 70.7348 176.312 70.5356L144.674 62.0582Z"/>
</mask>
<path fill-rule="evenodd" clip-rule="evenodd" d="M144.674 62.0582C143.93 61.859 143.25 62.5394 143.449 63.283L151.926 94.9208C152.126 95.6644 153.055 95.9134 153.599 95.3691L159.427 89.5419L171.176 101.291C171.566 101.682 172.199 101.682 172.59 101.291L183.228 90.6534C183.618 90.2628 183.618 89.6297 183.228 89.2391L171.478 77.4901L176.76 72.2086C177.304 71.6643 177.055 70.7348 176.312 70.5356L144.674 62.0582Z" fill="#71AFB6"/>
<path d="M143.449 63.283L146.347 62.5065L146.347 62.5065L143.449 63.283ZM144.674 62.0582L143.897 64.956L143.897 64.956L144.674 62.0582ZM151.926 94.9208L154.824 94.1444L154.824 94.1444L151.926 94.9208ZM159.427 89.5419L161.548 87.4206L159.427 85.2993L157.305 87.4206L159.427 89.5419ZM171.478 77.4901L169.357 75.3687L167.236 77.4901L169.357 79.6114L171.478 77.4901ZM176.312 70.5356L177.088 67.6378L177.088 67.6378L176.312 70.5356ZM146.347 62.5065C146.745 63.9937 145.384 65.3545 143.897 64.956L145.45 59.1605C142.476 58.3635 139.754 61.0852 140.551 64.0594L146.347 62.5065ZM154.824 94.1444L146.347 62.5065L140.551 64.0594L149.029 95.6973L154.824 94.1444ZM151.478 93.2478C152.567 92.1591 154.426 92.6572 154.824 94.1444L149.029 95.6973C149.826 98.6716 153.543 99.6677 155.721 97.4904L151.478 93.2478ZM157.305 87.4206L151.478 93.2478L155.721 97.4904L161.548 91.6632L157.305 87.4206ZM173.297 99.1697L161.548 87.4206L157.305 91.6632L169.054 103.412L173.297 99.1697ZM170.469 99.1697C171.25 98.3886 172.516 98.3886 173.297 99.1697L169.054 103.412C170.616 104.974 173.149 104.974 174.711 103.412L170.469 99.1697ZM181.106 88.532L170.469 99.1697L174.711 103.412L185.349 92.7747L181.106 88.532ZM181.106 91.3605C180.325 90.5794 180.325 89.3131 181.106 88.532L185.349 92.7747C186.911 91.2126 186.911 88.6799 185.349 87.1178L181.106 91.3605ZM169.357 79.6114L181.106 91.3605L185.349 87.1178L173.6 75.3687L169.357 79.6114ZM174.639 70.0873L169.357 75.3687L173.6 79.6114L178.881 74.3299L174.639 70.0873ZM175.535 73.4333C174.048 73.0349 173.55 71.176 174.639 70.0873L178.881 74.3299C181.059 72.1526 180.062 68.4347 177.088 67.6378L175.535 73.4333ZM143.897 64.956L175.535 73.4333L177.088 67.6378L145.45 59.1605L143.897 64.956Z" fill="white" mask="url(#path-3-outside-1_5192_39065)"/>
</svg>
