<svg width="20" height="20" viewBox="0 0 20 20" fill="none" xmlns="http://www.w3.org/2000/svg">
<g clip-path="url(#clip0_2432_393)">
<path d="M11.1692 17.2834H8.83091C8.46576 17.2834 8.16699 16.9846 8.16699 16.6195V6.62877C8.16699 6.26361 8.46576 5.96484 8.83091 5.96484H11.1692C11.5344 5.96484 11.8332 6.26361 11.8332 6.62877V16.6188C11.8332 16.9846 11.5344 17.2834 11.1692 17.2834Z" fill="#8A8A8A"/>
<path d="M5.60016 17.2832H3.26182C2.89667 17.2832 2.5979 16.9845 2.5979 16.6193V8.99083C2.5979 8.62567 2.89667 8.3269 3.26182 8.3269H5.60016C5.96532 8.3269 6.26408 8.62567 6.26408 8.99083V16.6193C6.26408 16.9845 5.96532 17.2832 5.60016 17.2832Z" fill="#8A8A8A"/>
<path d="M16.7381 17.2833H14.3998C14.0346 17.2833 13.7358 16.9846 13.7358 16.6194V3.38145C13.7358 3.01629 14.0346 2.71753 14.3998 2.71753H16.7381C17.1033 2.71753 17.402 3.01629 17.402 3.38145V16.6194C17.402 16.9846 17.1033 17.2833 16.7381 17.2833Z" fill="#8A8A8A"/>
<path d="M18.3395 20H1.66113C0.744921 20 0 19.2551 0 18.3395V1.66113C0 0.744921 0.744921 0 1.66113 0H18.3395C19.2551 0 20.0007 0.744921 20.0007 1.66113V18.3395C20 19.2551 19.2551 20 18.3395 20ZM1.66113 1.50976C1.57947 1.50976 1.51042 1.57881 1.51042 1.66047V18.3389C1.51042 18.4205 1.57947 18.4896 1.66113 18.4896H18.3395C18.4212 18.4896 18.4902 18.4205 18.4902 18.3389V1.66113C18.4902 1.57947 18.4212 1.51042 18.3395 1.51042H1.66113V1.50976Z" fill="#8A8A8A"/>
</g>
<defs>
<clipPath id="clip0_2432_393">
<rect width="20" height="20" fill="white"/>
</clipPath>
</defs>
</svg>
