<svg width="20" height="14" viewBox="0 0 20 14" fill="none" xmlns="http://www.w3.org/2000/svg">
<path fill-rule="evenodd" clip-rule="evenodd" d="M0 12.2898C0.141048 13.2563 0.974392 14 1.9768 14H18.0022C19.105 14 20 13.1018 20 11.9986V2.12303C20.0019 0.952837 19.0719 0 17.9284 0H2.05058C1.01205 0 0.149678 0.786056 0 1.80725V12.2898ZM19.0312 11.9973V2.12303C19.0312 2.02734 19.0195 1.93575 18.9978 1.84826C18.9819 1.78401 18.9604 1.72249 18.9341 1.66234L12.4183 7.00068L18.9593 12.3582C19.004 12.2447 19.0312 12.1244 19.0312 11.9973ZM18.1633 1.01982C18.0876 1.00342 18.0099 0.993848 17.9284 0.993848H2.05058C1.97097 0.993848 1.89136 1.00342 1.81565 1.01982L8.5081 6.50171H11.4709L18.1633 1.01982ZM0.947786 11.9945C0.947786 12.1244 0.97496 12.2433 1.01963 12.3568L7.56063 7.00068L1.04486 1.6637C1.0074 1.74709 0.979822 1.83732 0.963825 1.93165C0.953301 1.99453 0.947786 2.05878 0.947786 2.12303V11.9945ZM1.80401 12.987C1.86029 12.9966 1.91856 13.0048 1.9768 13.0048H18.0022C18.0623 13.0048 18.1187 12.9966 18.175 12.987L11.4709 7.49692H8.5081L1.80401 12.987Z" fill="white"/>
</svg>
