<svg width="655" height="190" viewBox="0 0 655 190" fill="none" xmlns="http://www.w3.org/2000/svg">
<path d="M5.69054 12.0983H284.769C285.418 12.0983 286.06 12.2167 286.66 12.4465C287.26 12.6764 287.805 13.0133 288.264 13.4381C288.722 13.8628 289.087 14.367 289.335 14.922C289.583 15.4769 289.711 16.0717 289.711 16.6724V179.514C289.711 180.812 289.435 182.098 288.898 183.298C288.361 184.497 287.574 185.587 286.582 186.505C285.59 187.424 284.412 188.152 283.116 188.649C281.819 189.146 280.43 189.402 279.027 189.402H10.6844C7.85074 189.402 5.13311 188.36 3.12939 186.505C1.12568 184.651 0 182.136 0 179.514V17.3578C-6.21805e-07 16.6666 0.147248 15.9821 0.433314 15.3435C0.71938 14.705 1.13865 14.1249 1.66716 13.6364C2.19567 13.1479 2.82305 12.7607 3.51342 12.4967C4.20378 12.2328 4.94359 12.0974 5.69054 12.0983Z" fill="#263238"/>
<path d="M280.984 19.6927H8.26807V181.106H280.984V19.6927Z" fill="#455A64"/>
<path d="M280.68 21.7953H8.22607V179.459H280.68V21.7953Z" fill="white"/>
<path d="M280.681 179.451C280.681 178.23 280.62 118.541 280.53 21.7953L280.681 21.946L8.24885 21.9912L8.44475 21.7953C8.44475 77.5519 8.44475 130.905 8.44475 179.451L8.26391 179.27L280.718 179.451L8.26391 179.632H8.04541V179.451C8.04541 130.905 8.04541 77.5896 8.04541 21.7953V21.5994H8.26391H280.696H280.846V21.7576C280.741 118.541 280.681 178.238 280.681 179.451Z" fill="#263238"/>
<path d="M280.838 32.2157C280.838 32.3212 219.807 32.4116 144.46 32.4116C69.1135 32.4116 8.08252 32.3212 8.08252 32.2157C8.08252 32.1102 69.1135 32.0198 144.46 32.0198C219.807 32.0198 280.838 32.1027 280.838 32.2157Z" fill="#263238"/>
<path d="M17.0868 25.7811C17.0883 26.1305 16.9859 26.4724 16.7928 26.7635C16.5996 27.0546 16.3243 27.2817 16.0018 27.4161C15.6794 27.5505 15.3243 27.586 14.9815 27.5182C14.6388 27.4504 14.324 27.2824 14.0769 27.0353C13.8299 26.7883 13.6618 26.4735 13.5941 26.1307C13.5263 25.788 13.5618 25.4329 13.6962 25.1104C13.8306 24.788 14.0577 24.5127 14.3488 24.3195C14.6399 24.1264 14.9818 24.024 15.3312 24.0255C15.7968 24.0255 16.2433 24.2105 16.5726 24.5397C16.9018 24.869 17.0868 25.3155 17.0868 25.7811Z" fill="#263238"/>
<path d="M20.6884 27.5442C21.6621 27.5442 22.4515 26.7548 22.4515 25.7811C22.4515 24.8074 21.6621 24.018 20.6884 24.018C19.7147 24.018 18.9253 24.8074 18.9253 25.7811C18.9253 26.7548 19.7147 27.5442 20.6884 27.5442Z" fill="#263238"/>
<path d="M27.8163 25.7811C27.8177 26.1301 27.7156 26.4717 27.5228 26.7627C27.33 27.0536 27.0551 27.2808 26.7331 27.4154C26.4111 27.55 26.0563 27.586 25.7138 27.5188C25.3713 27.4516 25.0564 27.2843 24.8091 27.038C24.5618 26.7917 24.3931 26.4776 24.3245 26.1354C24.2558 25.7932 24.2903 25.4383 24.4235 25.1157C24.5567 24.7931 24.7827 24.5173 25.0728 24.3232C25.3629 24.1291 25.7041 24.0255 26.0531 24.0255C26.5194 24.0255 26.9668 24.2102 27.2972 24.5392C27.6276 24.8683 27.8143 25.3148 27.8163 25.7811Z" fill="#263238"/>
<path d="M155.669 118.34H106.599V165.817H155.669V118.34Z" fill="#71AFB6"/>
<g opacity="0.3">
<path d="M110.409 161.75L123.977 137.324L135.085 152.939L141.83 144.648L151.865 161.75H110.409Z" fill="black"/>
</g>
<g opacity="0.3">
<path d="M139.81 132.573C139.81 133.272 139.603 133.956 139.214 134.537C138.825 135.118 138.273 135.571 137.627 135.839C136.981 136.106 136.27 136.175 135.584 136.038C134.899 135.902 134.269 135.564 133.775 135.07C133.281 134.575 132.945 133.944 132.81 133.259C132.674 132.573 132.745 131.862 133.014 131.216C133.282 130.571 133.736 130.019 134.318 129.632C134.9 129.244 135.584 129.038 136.283 129.04C136.747 129.04 137.206 129.131 137.634 129.309C138.063 129.486 138.452 129.747 138.779 130.075C139.107 130.403 139.366 130.793 139.543 131.221C139.72 131.65 139.811 132.11 139.81 132.573Z" fill="black"/>
</g>
<g opacity="0.3">
<path d="M151.865 161.889C151.865 161.889 151.865 161.816 151.865 161.691C151.865 161.566 151.865 161.369 151.865 161.138C151.865 160.632 151.865 159.921 151.865 159C151.865 157.118 151.865 154.394 151.812 150.939C151.812 144.003 151.753 134.133 151.714 122.275L151.911 122.472L110.455 122.505L110.685 122.282V132.929C110.685 136.438 110.685 139.849 110.685 143.161C110.685 149.807 110.685 156.098 110.685 161.875L110.481 161.678L140.461 161.777L148.917 161.829H151.161H151.74C151.808 161.82 151.876 161.82 151.944 161.829H151.766H151.207H149.003L140.593 161.882L110.481 161.981H110.284V161.77C110.284 155.993 110.284 149.702 110.284 143.056C110.284 139.735 110.284 136.324 110.284 132.823V122.288C110.073 122.492 110.567 121.992 110.521 122.045H151.977H152.069V122.249C152.023 134.159 151.99 144.076 151.964 151.038C151.964 154.479 151.924 157.184 151.911 159.059C151.911 159.961 151.911 160.658 151.911 161.152C151.911 161.375 151.911 161.553 151.911 161.685C151.904 161.754 151.888 161.823 151.865 161.889Z" fill="black"/>
</g>
<path d="M150.036 169.858H111.65V170.868H150.036V169.858Z" fill="#C4C4C4"/>
<path d="M102.13 118.34H53.0605V165.817H102.13V118.34Z" fill="#71AFB6"/>
<g opacity="0.3">
<path d="M56.8711 161.75L70.4397 137.324L81.5473 152.939L88.2921 144.648L98.3271 161.75H56.8711Z" fill="black"/>
</g>
<g opacity="0.3">
<path d="M86.2719 132.573C86.2718 133.272 86.0644 133.956 85.6759 134.537C85.2873 135.118 84.735 135.571 84.089 135.839C83.4429 136.106 82.732 136.175 82.0464 136.038C81.3608 135.902 80.7312 135.564 80.2372 135.07C79.7433 134.575 79.4073 133.944 79.2717 133.259C79.1361 132.573 79.207 131.862 79.4755 131.216C79.7439 130.571 80.1979 130.019 80.7798 129.632C81.3618 129.244 82.0456 129.038 82.7448 129.04C83.2085 129.04 83.6677 129.131 84.0961 129.309C84.5244 129.486 84.9135 129.747 85.2411 130.075C85.5687 130.403 85.8284 130.793 86.0053 131.221C86.1821 131.65 86.2727 132.11 86.2719 132.573Z" fill="black"/>
</g>
<g opacity="0.3">
<path d="M98.3264 161.889C98.3264 161.889 98.3264 161.816 98.3264 161.691C98.3264 161.566 98.3264 161.369 98.3264 161.138C98.3264 160.632 98.3264 159.921 98.3264 159C98.3264 157.118 98.3264 154.394 98.2738 150.939C98.2738 144.003 98.2146 134.133 98.1751 122.275L98.3725 122.472L56.9165 122.505L57.1468 122.282V132.929C57.1468 136.438 57.1468 139.849 57.1468 143.161C57.1468 149.807 57.1468 156.098 57.1468 161.875L56.9428 161.678L86.9227 161.777L95.3785 161.829H97.6223H98.2014C98.2691 161.82 98.3378 161.82 98.4054 161.829H98.2277H97.6684H95.464L87.0544 161.882L56.9428 161.981H56.7454V161.77C56.7454 155.993 56.7454 149.702 56.7454 143.056C56.7454 139.735 56.7454 136.324 56.7454 132.823V122.288C56.5348 122.492 57.0284 121.992 56.9823 122.045H98.4383H98.5304V122.249C98.4844 134.159 98.4515 144.076 98.4251 151.038C98.4251 154.479 98.3857 157.184 98.3725 159.059C98.3725 159.961 98.3725 160.658 98.3725 161.152C98.3725 161.375 98.3725 161.553 98.3725 161.685C98.365 161.754 98.3496 161.823 98.3264 161.889Z" fill="black"/>
</g>
<path d="M262.745 118.34H213.675V165.817H262.745V118.34Z" fill="#71AFB6"/>
<g opacity="0.3">
<path d="M217.485 161.75L231.053 137.324L242.161 152.939L248.906 144.648L258.941 161.75H217.485Z" fill="black"/>
</g>
<g opacity="0.3">
<path d="M246.886 132.573C246.886 133.272 246.679 133.956 246.29 134.537C245.902 135.118 245.349 135.571 244.703 135.839C244.057 136.106 243.346 136.175 242.661 136.038C241.975 135.902 241.345 135.564 240.852 135.07C240.358 134.575 240.022 133.944 239.886 133.259C239.75 132.573 239.821 131.862 240.09 131.216C240.358 130.571 240.812 130.019 241.394 129.632C241.976 129.244 242.66 129.038 243.359 129.04C243.823 129.04 244.282 129.131 244.71 129.309C245.139 129.486 245.528 129.747 245.855 130.075C246.183 130.403 246.443 130.793 246.62 131.221C246.796 131.65 246.887 132.11 246.886 132.573Z" fill="black"/>
</g>
<g opacity="0.3">
<path d="M258.941 161.889C258.941 161.889 258.941 161.816 258.941 161.691C258.941 161.566 258.941 161.369 258.941 161.138C258.941 160.632 258.941 159.921 258.941 159C258.941 157.118 258.941 154.394 258.888 150.939C258.888 144.003 258.829 134.133 258.789 122.275L258.987 122.472L217.531 122.505L217.761 122.282V132.929C217.761 136.438 217.761 139.849 217.761 143.161C217.761 149.807 217.761 156.098 217.761 161.875L217.557 161.678L247.537 161.777L255.993 161.829H258.237H258.816C258.883 161.82 258.952 161.82 259.02 161.829H258.842H258.283H256.078L247.669 161.882L217.557 161.981H217.36V161.77C217.36 155.993 217.36 149.702 217.36 143.056C217.36 139.735 217.36 136.324 217.36 132.823V122.288C217.149 122.492 217.643 121.992 217.597 122.045H259.053H259.145V122.249C259.099 134.159 259.066 144.076 259.039 151.038C259.039 154.479 259 157.184 258.987 159.059C258.987 159.961 258.987 160.658 258.987 161.152C258.987 161.375 258.987 161.553 258.987 161.685C258.979 161.754 258.964 161.823 258.941 161.889Z" fill="black"/>
</g>
<path d="M257.111 169.858H218.726V170.868H257.111V169.858Z" fill="#C4C4C4"/>
<path d="M209.206 118.34H160.137V165.817H209.206V118.34Z" fill="#71AFB6"/>
<g opacity="0.3">
<path d="M163.947 161.75L177.515 137.324L188.623 152.939L195.368 144.648L205.403 161.75H163.947Z" fill="black"/>
</g>
<g opacity="0.3">
<path d="M193.348 132.573C193.348 133.272 193.14 133.956 192.752 134.537C192.363 135.118 191.811 135.571 191.165 135.839C190.519 136.106 189.808 136.175 189.122 136.038C188.436 135.902 187.807 135.564 187.313 135.07C186.819 134.575 186.483 133.944 186.347 133.259C186.212 132.573 186.283 131.862 186.551 131.216C186.82 130.571 187.274 130.019 187.856 129.632C188.437 129.244 189.121 129.038 189.82 129.04C190.284 129.04 190.743 129.131 191.172 129.309C191.6 129.486 191.989 129.747 192.317 130.075C192.644 130.403 192.904 130.793 193.081 131.221C193.258 131.65 193.348 132.11 193.348 132.573Z" fill="black"/>
</g>
<g opacity="0.3">
<path d="M205.403 161.889C205.403 161.889 205.403 161.816 205.403 161.691C205.403 161.566 205.403 161.369 205.403 161.138C205.403 160.632 205.403 159.921 205.403 159C205.403 157.118 205.403 154.394 205.35 150.939C205.35 144.003 205.291 134.133 205.251 122.275L205.449 122.472L163.993 122.505L164.223 122.282V132.929C164.223 136.438 164.223 139.849 164.223 143.161C164.223 149.807 164.223 156.098 164.223 161.875L164.019 161.678L193.999 161.777L202.455 161.829H204.699H205.278C205.345 161.82 205.414 161.82 205.482 161.829H205.304H204.745H202.54L194.131 161.882L164.019 161.981H163.822V161.77C163.822 155.993 163.822 149.702 163.822 143.056C163.822 139.735 163.822 136.324 163.822 132.823V122.288C163.611 122.492 164.105 121.992 164.058 122.045H205.514H205.607V122.249C205.561 134.159 205.528 144.076 205.501 151.038C205.501 154.479 205.462 157.184 205.449 159.059C205.449 159.961 205.449 160.658 205.449 161.152C205.449 161.375 205.449 161.553 205.449 161.685C205.441 161.754 205.426 161.823 205.403 161.889Z" fill="black"/>
</g>
<path d="M203.573 169.858H165.188V170.868H203.573V169.858Z" fill="#C4C4C4"/>
<path d="M41.9492 118.712H22.7563V120.732H41.9492V118.712Z" fill="#4F7B80"/>
<path d="M44.9796 125.783H22.7563V127.803H44.9796V125.783Z" fill="#4F7B80"/>
<path d="M39.9289 132.854H22.7563V134.874H39.9289V132.854Z" fill="#4F7B80"/>
<path d="M42.9593 139.925H22.7563V141.945H42.9593V139.925Z" fill="#4F7B80"/>
<path d="M43.9695 146.996H22.7563V149.017H43.9695V146.996Z" fill="#4F7B80"/>
<path d="M40.939 154.067H22.7563V156.088H40.939V154.067Z" fill="#4F7B80"/>
<path d="M44.9796 161.138H22.7563V163.159H44.9796V161.138Z" fill="#4F7B80"/>
<path d="M96.4975 169.858H58.1118V170.868H96.4975V169.858Z" fill="#C4C4C4"/>
<path d="M253.729 100.962C254.971 100.701 256.254 100.701 257.496 100.962C256.254 101.223 254.971 101.223 253.729 100.962Z" fill="#E0E0E0"/>
<path d="M246.194 100.962C247.436 100.701 248.719 100.701 249.961 100.962C248.719 101.223 247.436 101.223 246.194 100.962Z" fill="#E0E0E0"/>
<path d="M238.659 100.962C239.901 100.701 241.184 100.701 242.427 100.962C241.184 101.223 239.901 101.223 238.659 100.962Z" fill="#E0E0E0"/>
<path d="M231.125 100.962C232.367 100.701 233.65 100.701 234.892 100.962C233.65 101.223 232.367 101.223 231.125 100.962Z" fill="#E0E0E0"/>
<path d="M223.59 100.962C224.832 100.701 226.115 100.701 227.357 100.962C226.115 101.223 224.832 101.223 223.59 100.962Z" fill="#E0E0E0"/>
<path d="M216.056 100.962C217.298 100.701 218.581 100.701 219.823 100.962C218.581 101.223 217.298 101.223 216.056 100.962Z" fill="#E0E0E0"/>
<path d="M208.52 100.962C209.762 100.701 211.045 100.701 212.287 100.962C211.045 101.223 209.762 101.223 208.52 100.962Z" fill="#E0E0E0"/>
<path d="M200.986 100.962C202.228 100.701 203.511 100.701 204.753 100.962C203.511 101.223 202.228 101.223 200.986 100.962Z" fill="#E0E0E0"/>
<path d="M193.451 100.962C194.693 100.701 195.976 100.701 197.219 100.962C195.976 101.223 194.693 101.223 193.451 100.962Z" fill="#E0E0E0"/>
<path d="M185.917 100.962C187.159 100.701 188.442 100.701 189.684 100.962C188.442 101.223 187.159 101.223 185.917 100.962Z" fill="#E0E0E0"/>
<path d="M178.382 100.962C179.624 100.701 180.907 100.701 182.149 100.962C180.907 101.223 179.624 101.223 178.382 100.962Z" fill="#E0E0E0"/>
<path d="M170.847 100.962C172.089 100.701 173.372 100.701 174.615 100.962C173.372 101.223 172.089 101.223 170.847 100.962Z" fill="#E0E0E0"/>
<path d="M163.312 100.962C164.555 100.701 165.838 100.701 167.08 100.962C165.838 101.223 164.555 101.223 163.312 100.962Z" fill="#E0E0E0"/>
<path d="M155.778 100.962C157.021 100.701 158.303 100.701 159.546 100.962C158.303 101.223 157.021 101.223 155.778 100.962Z" fill="#E0E0E0"/>
<path d="M148.243 100.962C149.485 100.701 150.768 100.701 152.011 100.962C150.768 101.223 149.485 101.223 148.243 100.962Z" fill="#E0E0E0"/>
<path d="M140.708 100.962C141.95 100.701 143.233 100.701 144.475 100.962C143.233 101.223 141.95 101.223 140.708 100.962Z" fill="#E0E0E0"/>
<path d="M133.174 100.962C134.416 100.701 135.699 100.701 136.941 100.962C135.699 101.223 134.416 101.223 133.174 100.962Z" fill="#E0E0E0"/>
<path d="M125.639 100.962C126.881 100.701 128.164 100.701 129.407 100.962C128.164 101.223 126.881 101.223 125.639 100.962Z" fill="#E0E0E0"/>
<path d="M118.104 100.962C119.347 100.701 120.63 100.701 121.872 100.962C120.63 101.223 119.347 101.223 118.104 100.962Z" fill="#E0E0E0"/>
<path d="M110.569 100.962C111.812 100.701 113.094 100.701 114.337 100.962C113.094 101.223 111.812 101.223 110.569 100.962Z" fill="#E0E0E0"/>
<path d="M103.035 100.962C104.277 100.701 105.56 100.701 106.802 100.962C105.56 101.223 104.277 101.223 103.035 100.962Z" fill="#E0E0E0"/>
<path d="M95.5 100.962C96.7422 100.701 98.0251 100.701 99.2673 100.962C98.0251 101.223 96.7422 101.223 95.5 100.962Z" fill="#E0E0E0"/>
<path d="M87.9653 100.962C89.2075 100.701 90.4905 100.701 91.7327 100.962C90.4905 101.223 89.2075 101.223 87.9653 100.962Z" fill="#E0E0E0"/>
<path d="M80.4307 100.962C81.6729 100.701 82.9558 100.701 84.198 100.962C82.9558 101.223 81.6729 101.223 80.4307 100.962Z" fill="#E0E0E0"/>
<path d="M72.8965 100.962C74.1387 100.701 75.4216 100.701 76.6638 100.962C75.4216 101.223 74.1387 101.223 72.8965 100.962Z" fill="#E0E0E0"/>
<path d="M65.3618 100.962C66.604 100.701 67.887 100.701 69.1292 100.962C67.887 101.223 66.604 101.223 65.3618 100.962Z" fill="#E0E0E0"/>
<path d="M57.8267 100.962C59.0689 100.701 60.3518 100.701 61.594 100.962C60.3518 101.223 59.0689 101.223 57.8267 100.962Z" fill="#E0E0E0"/>
<path d="M50.292 100.962C51.5342 100.701 52.8171 100.701 54.0593 100.962C52.8171 101.223 51.5342 101.223 50.292 100.962Z" fill="#E0E0E0"/>
<path d="M42.7573 100.962C43.9995 100.701 45.2825 100.701 46.5247 100.962C45.2825 101.223 43.9995 101.223 42.7573 100.962Z" fill="#E0E0E0"/>
<path d="M35.2227 100.962C36.4649 100.701 37.7478 100.701 38.99 100.962C37.7478 101.223 36.4649 101.223 35.2227 100.962Z" fill="#E0E0E0"/>
<path d="M27.6885 100.962C28.9307 100.701 30.2136 100.701 31.4558 100.962C30.2136 101.223 28.9307 101.223 27.6885 100.962Z" fill="#E0E0E0"/>
<path d="M22.949 98.1668C23.135 98.7892 23.1914 99.4431 23.1148 100.088C23.1148 100.42 23.1148 100.736 23.1148 101L22.949 100.827C23.5292 100.864 23.921 100.925 23.921 101C23.921 101.075 23.5292 101.135 22.949 101.173H22.7833V100.992C22.7833 100.729 22.7833 100.412 22.7833 100.081C22.7033 99.4381 22.7598 98.786 22.949 98.1668Z" fill="#E0E0E0"/>
<path d="M22.9483 90.6321C23.2095 91.8743 23.2095 93.1573 22.9483 94.3995C22.6871 93.1573 22.6871 91.8743 22.9483 90.6321Z" fill="#E0E0E0"/>
<path d="M22.9483 83.0975C23.2095 84.3397 23.2095 85.6226 22.9483 86.8648C22.6871 85.6226 22.6871 84.3397 22.9483 83.0975Z" fill="#E0E0E0"/>
<path d="M22.9483 75.5628C23.2095 76.805 23.2095 78.0879 22.9483 79.3301C22.6871 78.0879 22.6871 76.805 22.9483 75.5628Z" fill="#E0E0E0"/>
<path d="M22.9483 68.0281C23.2095 69.2703 23.2095 70.5532 22.9483 71.7954C22.6871 70.5532 22.6871 69.2703 22.9483 68.0281Z" fill="#E0E0E0"/>
<path d="M22.9483 60.4934C23.2095 61.7356 23.2095 63.0186 22.9483 64.2608C22.6871 63.0186 22.6871 61.7356 22.9483 60.4934Z" fill="#E0E0E0"/>
<path d="M22.9483 52.9587C23.2095 54.2009 23.2095 55.4839 22.9483 56.7261C22.6871 55.4839 22.6871 54.2009 22.9483 52.9587Z" fill="#E0E0E0"/>
<path d="M27.718 50.201C27.1134 50.3975 26.4741 50.4643 25.8419 50.3969C25.2047 50.4633 24.5607 50.3965 23.9507 50.201C24.5616 50.0098 25.2047 49.9432 25.8419 50.0051C26.4741 49.943 27.1123 50.0096 27.718 50.201Z" fill="#E0E0E0"/>
<path d="M35.2532 50.201C34.6485 50.3975 34.0092 50.4643 33.377 50.3969C32.7399 50.4633 32.0959 50.3965 31.4858 50.201C32.0968 50.0098 32.7399 49.9432 33.377 50.0051C34.0092 49.943 34.6475 50.0096 35.2532 50.201Z" fill="#E0E0E0"/>
<path d="M42.7874 50.201C42.1827 50.3975 41.5434 50.4643 40.9112 50.3969C40.2741 50.4633 39.6301 50.3965 39.02 50.201C39.631 50.0098 40.2741 49.9432 40.9112 50.0051C41.5434 49.943 42.1816 50.0096 42.7874 50.201Z" fill="#E0E0E0"/>
<path d="M50.322 50.201C49.7174 50.3975 49.0781 50.4643 48.4459 50.3969C47.8087 50.4633 47.1647 50.3965 46.5547 50.201C47.1656 50.0098 47.8087 49.9432 48.4459 50.0051C49.0781 49.943 49.7163 50.0096 50.322 50.201Z" fill="#E0E0E0"/>
<path d="M57.8567 50.201C57.2521 50.3975 56.6128 50.4643 55.9806 50.3969C55.3434 50.4633 54.6994 50.3965 54.0894 50.201C54.7003 50.0098 55.3434 49.9432 55.9806 50.0051C56.6128 49.943 57.251 50.0096 57.8567 50.201Z" fill="#E0E0E0"/>
<path d="M65.3914 50.201C64.7867 50.3975 64.1474 50.4643 63.5152 50.3969C62.8781 50.4633 62.2341 50.3965 61.624 50.201C62.235 50.0098 62.8781 49.9432 63.5152 50.0051C64.1474 49.943 64.7856 50.0096 65.3914 50.201Z" fill="#E0E0E0"/>
<path d="M72.9265 50.201C72.3219 50.3975 71.6826 50.4643 71.0504 50.3969C70.4132 50.4633 69.7692 50.3965 69.1592 50.201C69.7701 50.0098 70.4132 49.9432 71.0504 50.0051C71.6826 49.943 72.3208 50.0096 72.9265 50.201Z" fill="#E0E0E0"/>
<path d="M80.4612 50.201C79.8565 50.3975 79.2173 50.4643 78.5851 50.3969C77.9479 50.4633 77.3039 50.3965 76.6938 50.201C77.3048 50.0098 77.9479 49.9432 78.5851 50.0051C79.2173 49.943 79.8555 50.0096 80.4612 50.201Z" fill="#E0E0E0"/>
<path d="M87.9954 50.201C87.3907 50.3975 86.7514 50.4643 86.1192 50.3969C85.4821 50.4633 84.8381 50.3965 84.228 50.201C84.839 50.0098 85.4821 49.9432 86.1192 50.0051C86.7514 49.943 87.3896 50.0096 87.9954 50.201Z" fill="#E0E0E0"/>
<path d="M95.53 50.201C94.9254 50.3975 94.2861 50.4643 93.6539 50.3969C93.0167 50.4633 92.3727 50.3965 91.7627 50.201C92.3736 50.0098 93.0167 49.9432 93.6539 50.0051C94.2861 49.943 94.9243 50.0096 95.53 50.201Z" fill="#E0E0E0"/>
<path d="M103.065 50.201C102.461 50.3975 101.821 50.4643 101.189 50.3969C100.552 50.4633 99.9079 50.3965 99.2979 50.201C99.9088 50.0098 100.552 49.9432 101.189 50.0051C101.821 49.943 102.459 50.0096 103.065 50.201Z" fill="#E0E0E0"/>
<path d="M110.6 50.201C109.995 50.3975 109.356 50.4643 108.724 50.3969C108.087 50.4633 107.443 50.3965 106.833 50.201C107.443 50.0098 108.087 49.9432 108.724 50.0051C109.356 49.943 109.994 50.0096 110.6 50.201Z" fill="#E0E0E0"/>
<path d="M118.135 50.201C117.53 50.3975 116.891 50.4643 116.258 50.3969C115.621 50.4633 114.977 50.3965 114.367 50.201C114.978 50.0098 115.621 49.9432 116.258 50.0051C116.891 49.943 117.529 50.0096 118.135 50.201Z" fill="#E0E0E0"/>
<path d="M125.669 50.201C125.065 50.3975 124.425 50.4643 123.793 50.3969C123.156 50.4633 122.512 50.3965 121.902 50.201C122.513 50.0098 123.156 49.9432 123.793 50.0051C124.425 49.943 125.063 50.0096 125.669 50.201Z" fill="#E0E0E0"/>
<path d="M133.204 50.201C132.599 50.3975 131.96 50.4643 131.328 50.3969C130.691 50.4633 130.047 50.3965 129.437 50.201C130.047 50.0098 130.691 49.9432 131.328 50.0051C131.96 49.943 132.598 50.0096 133.204 50.201Z" fill="#E0E0E0"/>
<path d="M140.739 50.201C140.134 50.3975 139.495 50.4643 138.862 50.3969C138.225 50.4633 137.581 50.3965 136.971 50.201C137.582 50.0098 138.225 49.9432 138.862 50.0051C139.495 49.943 140.133 50.0096 140.739 50.201Z" fill="#E0E0E0"/>
<path d="M148.273 50.201C147.669 50.3975 147.029 50.4643 146.397 50.3969C145.76 50.4633 145.116 50.3965 144.506 50.201C145.117 50.0098 145.76 49.9432 146.397 50.0051C147.029 49.943 147.667 50.0096 148.273 50.201Z" fill="#E0E0E0"/>
<path d="M155.808 50.201C155.203 50.3975 154.564 50.4643 153.932 50.3969C153.295 50.4633 152.651 50.3965 152.041 50.201C152.651 50.0098 153.295 49.9432 153.932 50.0051C154.564 49.943 155.202 50.0096 155.808 50.201Z" fill="#E0E0E0"/>
<path d="M163.342 50.201C162.737 50.3975 162.098 50.4643 161.466 50.3969C160.829 50.4633 160.185 50.3965 159.575 50.201C160.186 50.0098 160.829 49.9432 161.466 50.0051C162.098 49.943 162.736 50.0096 163.342 50.201Z" fill="#E0E0E0"/>
<path d="M170.878 50.201C170.273 50.3975 169.634 50.4643 169.002 50.3969C168.364 50.4633 167.72 50.3965 167.11 50.201C167.721 50.0098 168.364 49.9432 169.002 50.0051C169.634 49.943 170.272 50.0096 170.878 50.201Z" fill="#E0E0E0"/>
<path d="M178.412 50.201C177.807 50.3975 177.168 50.4643 176.536 50.3969C175.899 50.4633 175.255 50.3965 174.645 50.201C175.255 50.0098 175.899 49.9432 176.536 50.0051C177.168 49.943 177.806 50.0096 178.412 50.201Z" fill="#E0E0E0"/>
<path d="M185.947 50.201C185.342 50.3975 184.703 50.4643 184.07 50.3969C183.433 50.4633 182.789 50.3965 182.179 50.201C182.79 50.0098 183.433 49.9432 184.07 50.0051C184.703 49.943 185.341 50.0096 185.947 50.201Z" fill="#E0E0E0"/>
<path d="M193.481 50.201C192.877 50.3975 192.237 50.4643 191.605 50.3969C190.968 50.4633 190.324 50.3965 189.714 50.201C190.325 50.0098 190.968 49.9432 191.605 50.0051C192.237 49.943 192.875 50.0096 193.481 50.201Z" fill="#E0E0E0"/>
<path d="M201.015 50.201C200.411 50.3975 199.771 50.4643 199.139 50.3969C198.502 50.4633 197.858 50.3965 197.248 50.201C197.859 50.0098 198.502 49.9432 199.139 50.0051C199.771 49.943 200.41 50.0096 201.015 50.201Z" fill="#E0E0E0"/>
<path d="M208.551 50.201C207.946 50.3975 207.307 50.4643 206.674 50.3969C206.037 50.4633 205.393 50.3965 204.783 50.201C205.394 50.0098 206.037 49.9432 206.674 50.0051C207.307 49.943 207.945 50.0096 208.551 50.201Z" fill="#E0E0E0"/>
<path d="M216.086 50.201C215.481 50.3975 214.842 50.4643 214.21 50.3969C213.572 50.4633 212.928 50.3965 212.318 50.201C212.929 50.0098 213.572 49.9432 214.21 50.0051C214.842 49.943 215.48 50.0096 216.086 50.201Z" fill="#E0E0E0"/>
<path d="M223.62 50.201C223.015 50.3975 222.376 50.4643 221.744 50.3969C221.107 50.4633 220.463 50.3965 219.853 50.201C220.463 50.0098 221.107 49.9432 221.744 50.0051C222.376 49.943 223.014 50.0096 223.62 50.201Z" fill="#E0E0E0"/>
<path d="M231.155 50.201C230.55 50.3975 229.911 50.4643 229.278 50.3969C228.641 50.4633 227.997 50.3965 227.387 50.201C227.998 50.0098 228.641 49.9432 229.278 50.0051C229.911 49.943 230.549 50.0096 231.155 50.201Z" fill="#E0E0E0"/>
<path d="M238.689 50.201C238.085 50.3975 237.445 50.4643 236.813 50.3969C236.176 50.4633 235.532 50.3965 234.922 50.201C235.533 50.0098 236.176 49.9432 236.813 50.0051C237.445 49.943 238.083 50.0096 238.689 50.201Z" fill="#E0E0E0"/>
<path d="M246.224 50.201C245.619 50.3975 244.98 50.4643 244.348 50.3969C243.711 50.4633 243.067 50.3965 242.457 50.201C243.067 50.0098 243.711 49.9432 244.348 50.0051C244.98 49.943 245.618 50.0096 246.224 50.201Z" fill="#E0E0E0"/>
<path d="M253.759 50.201C253.154 50.3975 252.515 50.4643 251.882 50.3969C251.245 50.4633 250.601 50.3965 249.991 50.201C250.602 50.0098 251.245 49.9432 251.882 50.0051C252.515 49.943 253.153 50.0096 253.759 50.201Z" fill="#E0E0E0"/>
<path d="M257.496 54.0061C257.235 52.7639 257.235 51.4809 257.496 50.2387C257.757 51.4809 257.757 52.7639 257.496 54.0061Z" fill="#E0E0E0"/>
<path d="M257.496 61.5407C257.235 60.2985 257.235 59.0156 257.496 57.7734C257.757 59.0156 257.757 60.2985 257.496 61.5407Z" fill="#E0E0E0"/>
<path d="M257.496 69.0754C257.235 67.8332 257.235 66.5502 257.496 65.308C257.757 66.5502 257.757 67.8332 257.496 69.0754Z" fill="#E0E0E0"/>
<path d="M257.496 76.6101C257.235 75.3679 257.235 74.085 257.496 72.8428C257.757 74.085 257.757 75.3679 257.496 76.6101Z" fill="#E0E0E0"/>
<path d="M257.496 84.1448C257.235 82.9026 257.235 81.6196 257.496 80.3774C257.757 81.6196 257.757 82.9026 257.496 84.1448Z" fill="#E0E0E0"/>
<path d="M257.496 91.6795C257.235 90.4373 257.235 89.1543 257.496 87.9121C257.757 89.1543 257.757 90.4373 257.496 91.6795Z" fill="#E0E0E0"/>
<path d="M257.496 99.2141C257.235 97.9719 257.235 96.689 257.496 95.4468C257.757 96.689 257.757 97.9719 257.496 99.2141Z" fill="#E0E0E0"/>
<path d="M263.192 47.903H26.3545V97.6771H263.192V47.903Z" fill="#71AFB6"/>
<path d="M180.394 68.239H109.161V75.5854H180.394V68.239Z" fill="white"/>
<path d="M180.409 75.6005H109.138V68.2165H180.409V75.6005ZM109.176 75.5628H180.371V68.2541H109.176V75.5628Z" fill="#263238"/>
<path d="M204.112 82.1104C204.112 82.2159 177.545 82.3063 144.777 82.3063C112.008 82.3063 85.4336 82.2159 85.4336 82.1104C85.4336 82.0049 112.001 81.9145 144.777 81.9145C177.553 81.9145 204.112 82.0049 204.112 82.1104Z" fill="#FAFAFA"/>
<path d="M67.4639 97.3003C67.7835 97.2114 68.0846 97.0659 68.353 96.8709C68.6891 96.652 69.0021 96.3996 69.2873 96.1174C69.6828 95.7383 70.0115 95.295 70.2592 94.8064C70.4074 94.507 70.4798 94.1758 70.4702 93.8419C70.4252 93.4801 70.3261 93.1271 70.1763 92.7946C70.0214 92.4405 69.8856 92.0783 69.7695 91.7096C69.6577 91.3103 69.6294 90.8922 69.6866 90.4814C69.8993 89.5659 69.9679 88.6228 69.89 87.6861C69.6052 86.6689 69.1296 85.7152 68.4886 84.8756C67.7864 83.9774 67.3271 82.9135 67.1549 81.7864C67.0344 80.611 67.3282 79.3602 67.1549 78.0191C66.9817 76.6779 66.2432 75.5251 65.7535 74.2517C65.4859 73.6174 65.3476 72.936 65.3466 72.2475C65.3466 71.5543 65.4596 70.8385 65.4596 70.1001C65.3679 68.6022 65.0346 67.129 64.4726 65.7375C64.2315 65.0217 63.9904 64.2909 63.7191 63.5525C63.4417 62.8221 63.2421 62.0644 63.1239 61.2921C63.0277 60.5045 62.9774 59.712 62.9732 58.9186C62.9712 58.5096 62.9359 58.1014 62.8677 57.698C62.7537 57.3015 62.6178 56.9117 62.4608 56.5302C62.1489 55.7618 61.7733 55.0208 61.3382 54.315C60.9012 53.6067 60.4265 52.921 59.997 52.2052L59.9216 52.0847L59.8388 51.9415L59.7333 52.0696C59.2103 52.7325 58.8445 53.5053 58.6633 54.33C58.4923 55.1445 58.4365 55.9789 58.4976 56.8089C58.6714 58.4115 58.9891 59.9951 59.447 61.5407C59.8759 63.0068 60.0367 64.5383 59.9216 66.0615C59.8312 66.815 59.6429 67.5685 59.5223 68.2767C59.3696 69.0242 59.3851 69.7963 59.5675 70.5371C60.0121 72.0064 61.3231 72.8653 61.73 74.1538C61.9284 74.7866 61.99 75.4544 61.9108 76.1128C61.8505 76.7683 61.73 77.4163 61.6245 78.0492C61.5058 78.6779 61.4428 79.3158 61.4361 79.9555C61.4452 80.5746 61.5651 81.187 61.7902 81.7638C62.2122 82.9015 62.8526 83.8735 63.2218 84.8907C63.5567 85.8585 63.7025 86.8817 63.6513 87.9046C63.6513 88.8841 63.5157 89.8109 63.478 90.6774C63.4557 91.099 63.4557 91.5215 63.478 91.9432C63.5034 92.3351 63.5665 92.7237 63.6664 93.1035C63.853 93.7624 64.132 94.3915 64.4952 94.9721C64.98 95.7935 65.6811 96.466 66.522 96.9161C66.6474 96.9809 66.7786 97.0339 66.9138 97.0743C67.0075 97.1155 67.1063 97.1433 67.2077 97.1572L67.4563 97.2024C67.138 97.1283 66.8294 97.0171 66.5371 96.8709C65.7202 96.4121 65.0431 95.7402 64.5781 94.9269C64.2209 94.3514 63.9493 93.7271 63.7719 93.0734C63.6735 92.7015 63.6154 92.32 63.5986 91.9356C63.5764 91.519 63.5764 91.1015 63.5986 90.6849C63.6438 89.8259 63.7568 88.8992 63.7869 87.9046C63.8504 86.8522 63.7071 85.7976 63.365 84.8003C62.9883 83.7605 62.3553 82.7885 61.9485 81.6734C61.7316 81.1134 61.6192 80.5184 61.6169 79.9178C61.6211 79.2904 61.6841 78.6648 61.8053 78.0492C61.9108 77.4163 62.0389 76.7759 62.0992 76.1053C62.1827 75.4165 62.1185 74.7178 61.9108 74.0558C61.4738 72.6921 60.1552 71.7954 59.7634 70.4467C59.6048 69.7448 59.6048 69.0163 59.7634 68.3144C59.8764 67.5609 60.0648 66.8602 60.1628 66.0992C60.2859 64.5386 60.125 62.9686 59.6881 61.4654C59.2346 59.9349 58.9218 58.3662 58.7538 56.7788C58.6897 55.9717 58.743 55.1595 58.912 54.3677C59.0811 53.568 59.4317 52.8178 59.9367 52.1751H59.7483L59.8237 52.2957C60.2532 53.0491 60.7354 53.7046 61.1649 54.4054C61.592 55.1002 61.9624 55.8284 62.2725 56.5829C62.4156 56.9596 62.5663 57.3364 62.6718 57.7131C62.735 58.1043 62.7677 58.4998 62.7698 58.896C62.7745 59.6969 62.8248 60.4969 62.9204 61.2921C63.0451 62.0646 63.2496 62.8222 63.5308 63.5525L64.2842 65.7451C64.8437 67.1111 65.1771 68.5591 65.2713 70.0323C65.2713 70.7858 65.1582 71.4639 65.1582 72.1797C65.1654 72.8917 65.3112 73.5955 65.5877 74.2517C66.0925 75.5402 66.8159 76.693 66.9892 77.9663C67.1625 79.2397 66.8762 80.4754 66.9892 81.6885C67.1659 82.8439 67.6383 83.934 68.3605 84.853C68.9958 85.6716 69.4667 86.6056 69.7469 87.6032C69.8326 88.5237 69.7715 89.452 69.566 90.3534C69.5143 90.7801 69.5476 91.2129 69.664 91.6267C69.7825 92.0015 69.9234 92.3689 70.0859 92.7268C70.2306 93.048 70.3295 93.3878 70.3798 93.7364C70.3909 94.0535 70.3263 94.3686 70.1914 94.6557C69.9479 95.1389 69.6272 95.5791 69.242 95.9592C68.9634 96.2394 68.6581 96.4918 68.3304 96.7126C68.1285 96.8507 67.917 96.9741 67.6974 97.0818L67.4639 97.3003Z" fill="white"/>
<path d="M60.1095 54.2396C60.1054 54.2772 60.1054 54.3151 60.1095 54.3526L60.1773 54.6841C60.2301 54.9705 60.328 55.3924 60.426 55.9274C60.5239 56.4623 60.4787 57.148 60.539 57.9391C60.585 58.8328 60.6806 59.7233 60.8253 60.6064C60.976 61.5859 61.1945 62.6483 61.4432 63.7861C61.7489 64.982 61.8908 66.2138 61.8651 67.4479C61.8651 68.0959 61.7822 68.7665 61.8123 69.4597C61.8574 70.1687 61.989 70.8696 62.2042 71.5468C62.6513 72.9444 63.0211 74.3656 63.3118 75.8039C63.8919 78.7725 64.4344 81.598 64.9317 84.1674C65.429 86.7367 65.851 89.0574 66.2126 91.0089L67.0942 95.6201L67.3428 96.8709L67.4182 97.1949C67.4182 97.2627 67.4182 97.3003 67.4182 97.3003C67.4182 97.3003 67.4182 97.2627 67.4182 97.1873L67.3654 96.8633C67.3202 96.5544 67.2449 96.1098 67.162 95.605C66.9661 94.4899 66.6873 92.9151 66.3482 90.9787C66.0092 89.0423 65.5948 86.7066 65.1201 84.1297C64.6454 81.5528 64.0878 78.7273 63.5152 75.7587C63.2229 74.3126 62.8506 72.8838 62.4001 71.479C62.1852 70.8227 62.0561 70.1415 62.0158 69.4521C61.9781 68.774 62.0158 68.111 62.0535 67.4554C62.0775 66.2051 61.9279 64.9576 61.6089 63.7484C61.3527 62.6106 61.1192 61.5558 60.9609 60.5763C60.8108 59.7006 60.7052 58.8179 60.6445 57.9316C60.5691 57.1781 60.6068 56.4699 60.4938 55.9123C60.3808 55.3547 60.2678 54.9554 60.1999 54.6691L60.1095 54.3526C60.1321 54.2773 60.1171 54.2396 60.1095 54.2396Z" fill="white"/>
<path d="M67.999 96.9538C67.6466 97.1687 67.2588 97.3192 66.8537 97.3983C65.6973 97.691 64.4848 97.6781 63.335 97.3606C62.9352 97.2353 62.5727 97.0126 62.2801 96.7127C61.9953 96.3606 61.7619 95.97 61.5869 95.5523C61.4005 95.1088 61.1892 94.6761 60.954 94.2564C60.684 93.8223 60.3337 93.4438 59.9218 93.1412C59.093 92.4782 57.9477 91.9959 57.2168 90.926C56.5329 89.7975 56.0773 88.5457 55.8756 87.2416C55.6584 85.8452 55.0878 84.5276 54.218 83.4139C53.2611 82.3063 51.8822 81.5001 50.8425 80.2117C49.8027 78.9233 49.3732 77.2355 48.6499 75.6909C48.3028 74.9135 47.8061 74.212 47.1882 73.6264C46.5628 73.0387 45.8244 72.5338 45.1462 71.9009C43.79 70.62 42.9537 68.8871 42.057 67.252C41.6125 66.4157 41.1604 65.5793 40.7008 64.7279C40.2847 63.8616 39.7797 63.041 39.1938 62.2791C38.5633 61.5221 37.8917 60.8002 37.1821 60.1167C36.8047 59.7653 36.4639 59.3765 36.1649 58.9563C35.9061 58.5126 35.6721 58.0548 35.4642 57.585C35.0331 56.6435 34.6876 55.665 34.4319 54.6616C34.1607 53.6595 33.9497 52.6423 33.6785 51.6477L33.6408 51.5271L33.5654 51.2559H33.8442C35.9604 51.5441 37.8898 52.6204 39.2466 54.2698C40.5432 55.8012 41.7005 57.4453 42.705 59.1824C43.6681 60.8304 44.9215 62.2905 46.4045 63.4922C47.158 64.0422 47.9718 64.4943 48.7403 64.9992C49.5413 65.5025 50.2186 66.1798 50.7219 66.9808C51.6562 68.661 51.3021 70.5824 52.1384 72.029C52.544 72.7418 53.0931 73.3626 53.7509 73.8524C54.3913 74.3572 55.0845 74.7942 55.7475 75.2388C56.4185 75.6815 57.0466 76.1861 57.6237 76.7457C58.1755 77.2932 58.6269 77.9333 58.9573 78.6369C59.6053 80.0083 59.9368 81.4097 60.5471 82.6077C61.1445 83.7463 61.9584 84.7572 62.9432 85.5839C63.8549 86.3977 64.7817 87.0909 65.6029 87.8443C66.4092 88.4696 67.0958 89.2353 67.6297 90.1047C68.0555 90.8458 68.3775 91.6419 68.5867 92.4706C68.9085 93.6138 68.9085 94.8236 68.5867 95.9667C68.5024 96.2611 68.3782 96.5425 68.2174 96.8031C68.1659 96.8949 68.108 96.983 68.0442 97.0668C68.2339 96.7076 68.3903 96.3318 68.5113 95.9441C68.7888 94.8113 68.7575 93.6249 68.4209 92.5083C68.2048 91.6974 67.8751 90.9212 67.4414 90.2027C66.9117 89.3564 66.2326 88.6134 65.4372 88.0101C64.6159 87.3094 63.6816 86.6237 62.7548 85.8024C61.7425 84.9664 60.9009 83.9431 60.2759 82.7886C59.643 81.5529 59.3039 80.1439 58.6635 78.8253C57.9576 77.4673 56.8744 76.3422 55.5441 75.5854C54.8811 75.1409 54.1879 74.7038 53.5248 74.1839C52.8262 73.6714 52.2413 73.0198 51.8069 72.2701C50.9178 70.6803 51.2644 68.7439 50.3829 67.237C49.9087 66.4853 49.2697 65.8514 48.5142 65.3834C47.7608 64.8635 46.9395 64.4115 46.1634 63.8765C44.6497 62.6489 43.373 61.1551 42.3961 59.4687C41.4032 57.7522 40.2584 56.1282 38.9753 54.6164C37.6787 53.0529 35.8419 52.0337 33.8291 51.7607L34.0326 51.5045L34.0703 51.6326C34.3566 52.6498 34.5675 53.667 34.8237 54.6465C35.0775 55.6257 35.4153 56.5811 35.8334 57.5021C36.0326 57.956 36.2565 58.3987 36.504 58.8283C36.7898 59.2247 37.1127 59.5931 37.4684 59.9283C38.1895 60.6204 38.8712 61.3525 39.5103 62.1209C40.114 62.9007 40.6342 63.7417 41.0625 64.63C41.5221 65.4814 41.9666 66.3253 42.4187 67.1541C43.1725 68.8276 44.1901 70.3692 45.4326 71.7201C46.0805 72.3304 46.8189 72.8352 47.4745 73.4531C48.1117 74.0727 48.6233 74.8095 48.9814 75.6231C49.7349 77.1903 50.1342 78.8328 51.1137 80.0685C52.0932 81.3042 53.4721 82.1104 54.4666 83.2708C55.3674 84.4216 55.9518 85.7878 56.1619 87.234C56.3539 88.5056 56.7887 89.7284 57.4429 90.8356C58.1134 91.8452 59.221 92.3425 60.0725 93.0207C60.5057 93.3405 60.8718 93.7425 61.1499 94.2036C61.387 94.6327 61.5984 95.0755 61.7828 95.5297C61.942 95.934 62.1604 96.3123 62.4308 96.6524C62.7009 96.9348 63.0378 97.1447 63.4103 97.2627C64.5329 97.591 65.7207 97.6273 66.8612 97.3682C67.2526 97.2661 67.6336 97.1274 67.999 96.9538Z" fill="#FAFAFA"/>
<path d="M35.4263 53.4786L35.4941 53.5992L35.7126 53.9533C35.916 54.2547 36.1873 54.7068 36.5866 55.2794C36.986 55.852 37.6339 56.4021 38.2819 57.1329C38.9299 57.8638 39.6608 58.7077 40.3992 59.6872C41.1376 60.6667 41.9061 61.7818 42.7123 62.9798C43.5276 64.3006 44.5244 65.5003 45.6734 66.5438C46.2838 67.0862 46.9318 67.6137 47.5195 68.224C48.1071 68.8539 48.6134 69.5551 49.0264 70.3111C49.9105 71.9158 50.8788 73.4726 51.9272 74.9751L58.1132 83.5872L63.2368 90.5643L66.7103 95.2509L67.6597 96.5167L67.9158 96.8483L68.0062 96.9537C68.0062 96.9537 68.0063 96.9085 67.9309 96.8332L67.6973 96.4941L66.7781 95.1982L63.3724 90.4664L58.2865 83.4591L52.1156 74.847C51.0697 73.3496 50.1039 71.7977 49.2223 70.1981C48.809 69.4307 48.3029 68.7171 47.7153 68.0733C47.1126 67.4479 46.457 66.9205 45.8543 66.3855C44.7155 65.3561 43.7242 64.1746 42.9082 62.8744C42.0945 61.6763 41.3259 60.5612 40.5725 59.5892C39.8976 58.7069 39.1784 57.8594 38.4175 57.0501C37.7545 56.2966 37.1065 55.7767 36.6921 55.2267C36.2777 54.6766 35.9989 54.2245 35.7955 53.9232L35.5544 53.5916C35.5188 53.5465 35.4754 53.5082 35.4263 53.4786Z" fill="white"/>
<path d="M61.0058 97.6771C60.9472 97.5069 60.8994 97.3333 60.8626 97.1572C60.7471 96.6624 60.5429 96.1927 60.2599 95.7708C59.7688 95.13 59.1338 94.6138 58.4063 94.2639C57.4117 93.8293 56.4563 93.31 55.5507 92.7117C55.0455 92.3281 54.5695 91.9075 54.1266 91.4534C53.8931 91.2123 53.6595 90.9938 53.4259 90.7C53.1957 90.4223 52.9985 90.1189 52.8382 89.7958C52.1902 88.4923 52.0847 86.9251 51.2634 85.614C50.3387 84.2677 49.0614 83.2016 47.5715 82.5324C46.0645 81.7337 44.3843 81.0706 42.802 80.0911C42.017 79.6084 41.2999 79.023 40.6697 78.3506C40.0615 77.6733 39.554 76.9121 39.1627 76.0902C38.5033 74.5574 37.9569 72.9784 37.5277 71.366C37.1335 69.9291 36.5454 68.5527 35.7797 67.2746C35.0813 66.1865 34.1991 65.2279 33.1727 64.4416C31.6836 63.2952 29.9427 62.5203 28.0943 62.1812C26.7833 61.9401 26.0298 61.9928 26.0298 61.9476C26.21 61.9267 26.3921 61.9267 26.5723 61.9476C26.7906 61.9338 27.0095 61.9338 27.2278 61.9476C27.5259 61.9619 27.8228 61.9946 28.1169 62.0455C29.7214 62.2977 31.2559 62.8807 32.623 63.7576C33.9902 64.6344 35.1601 65.7859 36.0585 67.139C36.8475 68.435 37.4583 69.8314 37.8743 71.2906C38.3126 72.8831 38.8589 74.4439 39.5093 75.9621C39.875 76.7387 40.3495 77.4592 40.9183 78.102C41.5278 78.7472 42.2193 79.3096 42.9753 79.7747C44.4822 80.724 46.1775 81.3946 47.7146 82.2084C49.2611 82.9138 50.583 84.0323 51.5347 85.4407C52.4012 86.8573 52.4841 88.4546 53.0944 89.6677C53.4005 90.2593 53.8115 90.7903 54.3075 91.2349C54.7343 91.6839 55.1926 92.1019 55.6788 92.4857C56.5858 93.0838 57.538 93.6104 58.5269 94.0604C59.2732 94.4321 59.9154 94.9836 60.3955 95.6653C60.6771 96.1084 60.8691 96.6025 60.9606 97.1195C60.9606 97.2928 61.0058 97.4284 61.0133 97.5188C61.0209 97.6093 61.0133 97.6771 61.0058 97.6771Z" fill="#263238"/>
<path d="M56.335 97.677C56.335 97.677 56.2145 97.6318 56.0035 97.5188L55.0994 96.9989C54.3459 96.5468 53.2082 95.8537 51.8519 94.9646C48.3333 92.6425 44.959 90.1087 41.7479 87.3771C38.5427 84.6369 35.4986 81.7136 32.6309 78.6218C31.5384 77.4314 30.6719 76.4518 30.0917 75.7586L29.4287 74.9524C29.278 74.7641 29.2026 74.6661 29.2177 74.6586C29.2328 74.651 29.3157 74.7339 29.489 74.8997L30.2048 75.6532C30.8151 76.3162 31.7117 77.2656 32.8344 78.4259C35.0948 80.7541 38.2593 83.881 42.0041 87.0758C45.2088 89.7962 48.5484 92.3537 52.0101 94.7385C53.3362 95.6502 54.4288 96.3736 55.1822 96.8708L56.0487 97.451C56.1523 97.5155 56.2483 97.5913 56.335 97.677Z" fill="#263238"/>
<path d="M75.4281 68.4425C75.4281 68.4425 75.5938 68.337 75.9329 68.3445C76.4117 68.3633 76.8672 68.5562 77.2138 68.887C77.4616 69.1131 77.6482 69.3983 77.7563 69.7159C77.8843 70.0895 77.8843 70.495 77.7563 70.8687C77.614 71.2983 77.3387 71.6714 76.9703 71.9342C76.6018 72.197 76.1593 72.3357 75.7068 72.3304C75.2569 72.283 74.8342 72.0917 74.5016 71.7849C74.169 71.4781 73.9443 71.0722 73.8608 70.6275C73.778 70.2398 73.8312 69.8354 74.0115 69.4823C74.1698 69.1775 74.4032 68.9182 74.6897 68.7288C75.0887 68.4634 75.5713 68.3535 76.0459 68.4199C76.3774 68.4802 76.5281 68.6007 76.513 68.6158C76.498 68.6309 76.3398 68.6158 76.0308 68.5706C75.6043 68.5684 75.1888 68.706 74.8479 68.9624C74.5964 69.1309 74.4015 69.3713 74.2886 69.6522C74.1758 69.9331 74.1501 70.2414 74.215 70.5371C74.2906 70.8963 74.4764 71.223 74.7466 71.4715C75.0167 71.72 75.3577 71.878 75.7219 71.9235C76.0895 71.9223 76.4477 71.8082 76.7483 71.5966C77.0488 71.385 77.277 71.0862 77.4021 70.7406C77.503 70.4534 77.5197 70.1434 77.4503 69.8471C77.3808 69.5507 77.2282 69.2804 77.0103 69.0679C76.7155 68.76 76.3301 68.5541 75.9103 68.4802C75.6164 68.4425 75.4356 68.4802 75.4281 68.4425Z" fill="#FAFAFA"/>
<path d="M74.4786 84.6496C74.4786 84.6119 74.667 84.4839 74.9382 84.6496C74.9997 84.7075 75.0485 84.7774 75.0815 84.8551C75.1146 84.9328 75.1311 85.0164 75.1302 85.1008C75.1293 85.1853 75.1108 85.2685 75.0761 85.3454C75.0413 85.4223 74.9909 85.4912 74.9282 85.5477C74.8655 85.6042 74.7917 85.647 74.7116 85.6735C74.6314 85.7 74.5467 85.7096 74.4626 85.7017C74.3786 85.6937 74.2971 85.6685 74.2233 85.6274C74.1496 85.5864 74.0851 85.5305 74.034 85.4633C73.9826 85.3792 73.9522 85.2839 73.9457 85.1854C73.9391 85.087 73.9565 84.9885 73.9964 84.8982C74.1395 84.5969 74.3957 84.6044 74.3882 84.6496C74.3806 84.6948 74.2827 84.7928 74.2676 84.9811C74.2526 85.1695 74.358 85.388 74.6142 85.3202C74.8704 85.2524 74.8704 85.0188 74.7498 84.853C74.6293 84.6873 74.4861 84.7099 74.4786 84.6496Z" fill="#FAFAFA"/>
<path d="M52.9288 59.5063C52.9288 59.5666 52.7856 59.642 52.7329 59.8605C52.7084 59.9166 52.6993 59.9783 52.7064 60.0391C52.7135 60.1 52.7366 60.1578 52.7734 60.2068C52.8101 60.2558 52.8592 60.2942 52.9156 60.3181C52.972 60.342 53.0338 60.3504 53.0946 60.3427C53.1553 60.3411 53.2146 60.3235 53.2665 60.2917C53.3183 60.2599 53.3609 60.215 53.3899 60.1616C53.4189 60.1081 53.4333 60.048 53.4317 59.9872C53.4302 59.9264 53.4126 59.8671 53.3809 59.8153C53.2905 59.6043 53.1247 59.5515 53.1322 59.4913C53.1398 59.431 53.3809 59.3858 53.6144 59.6646C53.6819 59.7478 53.7287 59.8458 53.7509 59.9506C53.7732 60.0553 53.7703 60.1639 53.7425 60.2673C53.6977 60.3978 53.615 60.512 53.505 60.5953C53.3949 60.6785 53.2625 60.727 53.1247 60.7345C52.9867 60.7477 52.8479 60.7196 52.7258 60.6539C52.6038 60.5882 52.504 60.4877 52.439 60.3653C52.397 60.2664 52.3785 60.1591 52.3851 60.0519C52.3916 59.9447 52.423 59.8405 52.4767 59.7474C52.6651 59.4385 52.9288 59.4611 52.9288 59.5063Z" fill="#FAFAFA"/>
<path d="M210.774 54.7068C210.521 54.8342 210.31 55.03 210.163 55.2719C209.797 56.012 209.73 56.8644 209.975 57.6528C210.328 58.9316 210.81 60.1711 211.414 61.3524C212.077 62.7689 212.861 64.3663 213.878 66.1143C213.932 66.2975 213.952 66.4889 213.938 66.6794C213.932 66.7862 213.904 66.8904 213.854 66.9852C213.805 67.0801 213.736 67.1633 213.652 67.2294C213.293 67.3906 212.896 67.4455 212.507 67.3877C212.138 67.365 211.768 67.365 211.399 67.3877C211.041 67.39 210.699 67.5303 210.442 67.7795C210.337 67.9275 210.265 68.096 210.23 68.2739C210.195 68.4518 210.198 68.635 210.239 68.8117C210.34 69.188 210.534 69.5327 210.804 69.8138C211.421 70.3865 212.098 70.8916 212.823 71.3208C213.577 71.8256 214.292 72.3304 215.083 72.8277L216.229 73.7168L216.816 74.1237C216.942 74.1898 217.053 74.2817 217.141 74.3933C217.23 74.5049 217.293 74.6338 217.329 74.7717C217.342 74.8631 217.327 74.9564 217.287 75.0395C217.246 75.1227 217.182 75.192 217.103 75.2388C216.978 75.3118 216.839 75.358 216.696 75.3744L215.942 75.4799C215.455 75.543 214.972 75.6361 214.496 75.7587C214.022 75.8736 213.57 76.0617 213.155 76.3163C212.955 76.4239 212.791 76.5874 212.682 76.7867C212.574 76.9861 212.526 77.2127 212.544 77.4389C212.66 77.9196 212.923 78.3519 213.298 78.6746C213.664 79.0439 214.065 79.377 214.496 79.6692C215.394 80.2703 216.339 80.7994 217.321 81.2515C217.588 81.357 217.84 81.4936 218.075 81.6584C218.151 81.7128 218.215 81.7824 218.263 81.8628C218.311 81.9432 218.342 82.0326 218.354 82.1255C218.361 82.1729 218.361 82.2213 218.354 82.2687C218.355 82.3295 218.339 82.3894 218.308 82.442C218.239 82.5377 218.137 82.6047 218.022 82.6303C217.451 82.7197 216.874 82.7626 216.297 82.7584C215.737 82.7686 215.18 82.8291 214.631 82.9393C214.111 83.0598 213.539 83.3009 213.456 83.7605C213.457 84.022 213.517 84.2798 213.632 84.5147C213.747 84.7495 213.913 84.9554 214.119 85.1168C214.528 85.5209 214.983 85.875 215.475 86.1716C216.487 86.7816 217.567 87.2698 218.693 87.6258C219.843 88.0044 221.019 88.299 222.211 88.5074C222.807 88.6355 223.424 88.6656 224.035 88.741L225.888 88.9293L225.707 89.0122L226.823 87.5053C227.208 87.0245 227.566 86.5213 227.892 85.9983C228.542 84.9781 229.119 83.913 229.618 82.8112C230.115 81.7385 230.481 80.6103 230.71 79.4507C230.825 78.8856 230.873 78.309 230.854 77.7328C230.873 77.4722 230.833 77.2107 230.736 76.9679C230.639 76.7251 230.489 76.5075 230.296 76.3313C229.897 76.0827 229.339 76.3313 228.902 76.6478C228.448 76.9757 228.027 77.3466 227.644 77.7554C227.259 78.1853 226.838 78.5811 226.385 78.9383C226.338 78.9747 226.283 79.0009 226.225 79.0151C226.166 79.0294 226.106 79.0315 226.046 79.0212C225.989 79.0073 225.935 78.9816 225.888 78.9459L225.783 78.8479C225.665 78.6984 225.609 78.51 225.624 78.3205C225.67 78.032 225.746 77.7492 225.851 77.4766C226.187 76.4491 226.439 75.3957 226.604 74.3271C226.68 73.8135 226.708 73.2938 226.687 72.775C226.685 72.285 226.536 71.8069 226.257 71.4036C226.103 71.2363 225.903 71.1183 225.681 71.0647C225.46 71.0111 225.228 71.0241 225.014 71.1023C224.544 71.2364 224.099 71.445 223.696 71.7201C223.288 71.9895 222.896 72.2812 222.52 72.5941L221.948 73.0613C221.837 73.1553 221.709 73.227 221.571 73.2723C221.483 73.2976 221.39 73.2968 221.303 73.2701C221.216 73.2433 221.139 73.1917 221.081 73.1216C221 73.0044 220.945 72.8706 220.922 72.7299C220.898 72.5892 220.906 72.445 220.945 72.3078L221.043 71.5996C221.111 71.1324 221.172 70.6652 221.239 70.2056C221.367 69.2939 221.488 68.3973 221.616 67.5233C221.779 66.6897 221.853 65.8409 221.835 64.9916C221.81 64.6035 221.688 64.2277 221.48 63.8991C221.377 63.7512 221.244 63.6266 221.089 63.5332C220.935 63.4398 220.763 63.3796 220.584 63.3566C220.224 63.3783 219.887 63.5375 219.642 63.8012C219.374 64.0534 219.122 64.3227 218.888 64.6074C218.632 64.8711 218.444 65.2177 217.999 65.3608C217.895 65.3779 217.787 65.3726 217.685 65.3453C217.582 65.318 217.487 65.2694 217.404 65.2026C217.258 65.0843 217.133 64.9415 217.035 64.7807C216.502 63.0752 215.884 61.3979 215.181 59.755C214.72 58.5151 214.137 57.3239 213.441 56.1987C213.03 55.482 212.366 54.9446 211.58 54.6917C211.304 54.6266 211.015 54.6476 210.751 54.752C210.808 54.7043 210.875 54.6707 210.947 54.654C211.158 54.6051 211.377 54.6051 211.587 54.654C212.408 54.8854 213.107 55.4254 213.539 56.161C214.264 57.2841 214.872 58.4783 215.355 59.7249C216.078 61.3655 216.714 63.043 217.261 64.7505C217.419 65.0067 217.706 65.2704 217.977 65.2101C218.248 65.1499 218.482 64.8108 218.73 64.5471C218.961 64.2509 219.213 63.9714 219.484 63.7107C219.777 63.399 220.179 63.2128 220.606 63.1908C220.828 63.214 221.043 63.2845 221.235 63.3975C221.428 63.5106 221.593 63.6637 221.722 63.8464C221.962 64.2136 222.105 64.6364 222.136 65.0745C222.159 65.9461 222.089 66.8176 221.925 67.674C221.804 68.548 221.684 69.4446 221.563 70.3563C221.503 70.8159 221.443 71.2756 221.375 71.7427L221.277 72.451C221.263 72.556 221.263 72.6624 221.277 72.7674C221.28 72.8565 221.309 72.9428 221.36 73.0161C221.42 73.1216 221.586 73.0613 221.774 72.9106L222.332 72.4434C222.714 72.0912 223.117 71.7616 223.537 71.4564C223.97 71.1569 224.448 70.9303 224.954 70.7858C225.231 70.6936 225.528 70.6837 225.81 70.7573C226.092 70.8309 226.347 70.9847 226.544 71.2002C226.878 71.6575 227.06 72.2085 227.064 72.775C227.088 73.3186 227.062 73.8633 226.988 74.4025C226.825 75.4911 226.573 76.5646 226.235 77.6122C226.144 77.8565 226.076 78.1088 226.031 78.3657C226.024 78.4108 226.026 78.4569 226.038 78.501C226.05 78.5452 226.07 78.5864 226.099 78.6219L226.152 78.6671C226.152 78.6671 226.205 78.5842 226.107 78.75V78.7048C226.107 78.7048 226.107 78.7048 226.167 78.6671C226.59 78.3186 226.988 77.9409 227.357 77.5369C227.756 77.1116 228.192 76.7233 228.661 76.3765C228.912 76.1972 229.189 76.0574 229.482 75.9621C229.644 75.9064 229.815 75.8856 229.985 75.9012C230.156 75.9168 230.321 75.9684 230.469 76.0526C230.755 76.2354 230.965 76.5169 231.057 76.8437C231.144 77.1404 231.194 77.4465 231.208 77.7554C231.238 78.3615 231.193 78.969 231.072 79.5637C230.833 80.7536 230.456 81.9117 229.949 83.0146C229.443 84.138 228.857 85.2233 228.194 86.2621C227.864 86.7827 227.507 87.2857 227.124 87.769L226.001 89.2759L225.933 89.3663H225.828L223.967 89.178C223.349 89.1026 222.731 89.0725 222.121 88.9369C220.91 88.727 219.716 88.4273 218.549 88.0402C217.393 87.6716 216.285 87.1657 215.249 86.5333C214.728 86.2224 214.247 85.8478 213.818 85.4182C213.599 85.191 213.409 84.938 213.253 84.6647C213.074 84.377 213.005 84.0348 213.057 83.7003C213.095 83.5331 213.169 83.3761 213.273 83.2396C213.377 83.1032 213.508 82.9905 213.659 82.9091C213.929 82.7564 214.222 82.6471 214.526 82.5851C215.097 82.4732 215.677 82.4126 216.259 82.4043C216.806 82.403 217.352 82.3653 217.894 82.2913H217.962H217.999C217.999 82.2913 217.826 82.2461 217.909 82.2913V82.2536C217.916 82.2316 217.916 82.2078 217.909 82.1858C217.904 82.1408 217.888 82.0977 217.863 82.0598C217.838 82.0218 217.805 81.9902 217.766 81.9673C217.548 81.8227 217.316 81.7015 217.073 81.6056C216.073 81.145 215.113 80.6032 214.202 79.9857C213.753 79.6792 213.334 79.331 212.951 78.9459C212.568 78.544 212.318 78.0335 212.235 77.4841C212.209 77.1961 212.266 76.9066 212.399 76.6501C212.533 76.3935 212.738 76.1809 212.989 76.0375C213.434 75.7597 213.923 75.5585 214.435 75.4423C214.931 75.314 215.434 75.2183 215.942 75.1559L216.696 75.0504C216.937 75.0504 217.088 74.9374 217.058 74.8244C217.039 74.7394 216.997 74.6612 216.937 74.5984C216.859 74.5215 216.773 74.4532 216.681 74.3949L216.101 73.988C215.709 73.7243 215.347 73.4531 214.948 73.1894L212.687 71.6824C211.946 71.2227 211.257 70.6847 210.63 70.0775C210.322 69.7624 210.106 69.369 210.005 68.9398C209.958 68.7234 209.957 68.4993 210.002 68.2824C210.047 68.0655 210.138 67.8607 210.269 67.6815C210.572 67.3808 210.979 67.2082 211.407 67.1993C211.79 67.173 212.176 67.173 212.559 67.1993C212.892 67.2502 213.232 67.2138 213.546 67.0938C213.78 66.9356 213.772 66.5513 213.69 66.2575C212.792 64.7001 211.98 63.0953 211.256 61.4503C210.656 60.2479 210.186 58.985 209.854 57.683C209.616 56.8664 209.711 55.9886 210.118 55.2417C210.232 55.0575 210.39 54.9047 210.578 54.7972C210.728 54.7143 210.774 54.6993 210.774 54.7068Z" fill="#FAFAFA"/>
<path d="M212.483 58.5796C212.498 58.6036 212.511 58.6288 212.521 58.6549L212.627 58.8885C212.725 59.092 212.853 59.3933 213.026 59.7701L214.458 63.0477C215.686 65.8129 217.381 69.6179 219.242 73.8298C221.103 78.0417 222.806 81.8542 223.996 84.627C224.592 86.0059 225.066 87.1285 225.398 87.9121C225.564 88.2964 225.684 88.5978 225.775 88.8088L225.865 89.0423V89.1252L225.827 89.0499L225.722 88.8238L225.33 87.9347L223.891 84.6571C222.678 81.8919 220.983 78.0869 219.106 73.875C217.23 69.6631 215.542 65.8506 214.352 63.0778L212.988 59.7927C212.83 59.4084 212.702 59.107 212.611 58.896L212.521 58.6625C212.507 58.6358 212.494 58.6081 212.483 58.5796Z" fill="#FAFAFA"/>
<path d="M219.664 65.5642C219.605 65.839 219.532 66.1106 219.446 66.378C219.295 66.9054 219.099 67.5835 218.881 68.3295C218.662 69.0754 218.459 69.7837 218.293 70.281C218.21 70.5296 218.142 70.7255 218.09 70.8611C218.066 70.9354 218.033 71.0064 217.992 71.0721C217.992 71.0721 218.075 70.7556 218.21 70.2584L218.768 68.2993C218.986 67.5459 219.197 66.8451 219.363 66.3479C219.446 66.1067 219.521 65.9033 219.574 65.7677C219.627 65.6321 219.657 65.5567 219.664 65.5642Z" fill="#FAFAFA"/>
<path d="M217.705 71.1097C217.705 71.1474 216.273 70.6954 214.54 70.1076C212.808 69.5199 211.406 69.0151 211.414 68.9774C211.421 68.9398 212.845 69.3994 214.578 69.9871C216.311 70.5748 217.713 71.0796 217.705 71.1097Z" fill="#FAFAFA"/>
<path d="M221.367 78.3807H221.133H220.523C219.996 78.3807 219.257 78.3807 218.444 78.2828C217.63 78.1848 216.937 78.1095 216.379 78.0266L215.761 77.9136C215.683 77.9043 215.607 77.884 215.535 77.8533C215.823 77.8662 216.11 77.8964 216.394 77.9437C216.922 78.004 217.652 78.0944 218.459 78.1622C219.265 78.23 219.966 78.2677 220.531 78.2903C221.096 78.3129 221.367 78.3657 221.367 78.3807Z" fill="#FAFAFA"/>
<path d="M224.245 73.7168C224.133 73.9576 224.002 74.1894 223.854 74.41C223.597 74.8319 223.236 75.4045 222.829 76.0374C222.422 76.6704 222.075 77.243 221.782 77.6499C221.644 77.8783 221.488 78.095 221.314 78.2978C221.431 78.0589 221.561 77.8274 221.706 77.6047C221.962 77.1827 222.324 76.6025 222.731 75.9696C223.138 75.3367 223.484 74.7716 223.778 74.3647C223.919 74.1385 224.075 73.922 224.245 73.7168Z" fill="#FAFAFA"/>
<path d="M228.292 79.7445C228.26 79.8303 228.217 79.9115 228.164 79.9856L227.772 80.6185C227.433 81.1535 226.966 81.8844 226.438 82.6906C225.911 83.4968 225.429 84.1975 225.075 84.7475L224.653 85.3579C224.605 85.4361 224.549 85.5093 224.487 85.5763C224.518 85.4905 224.561 85.4094 224.615 85.3353L225.007 84.6948C225.338 84.1674 225.813 83.429 226.34 82.6228C226.868 81.8166 227.342 81.1158 227.697 80.5733L228.119 79.963C228.167 79.8836 228.226 79.8103 228.292 79.7445Z" fill="#FAFAFA"/>
<path d="M224.54 85.4182H224.246H223.44C222.769 85.3805 221.835 85.3202 220.81 85.1996C219.785 85.0791 218.866 84.9435 218.203 84.8305L217.412 84.6798C217.314 84.6651 217.218 84.6399 217.125 84.6044C217.223 84.5972 217.322 84.5972 217.419 84.6044L218.21 84.7174C218.881 84.8079 219.8 84.9359 220.825 85.049C221.85 85.162 222.777 85.2449 223.447 85.3051L224.246 85.373C224.345 85.3774 224.444 85.3925 224.54 85.4182Z" fill="#FAFAFA"/>
<path d="M255.597 86.9929L256.825 85.9079L259.236 83.768L263.23 80.2343V79.8274L259.033 83.5119L256.607 85.6517L255.379 86.7367C255.128 86.9085 254.917 87.1318 254.76 87.3916C254.603 87.6515 254.503 87.942 254.467 88.2436C254.464 88.4145 254.511 88.5825 254.604 88.7261C254.696 88.8697 254.83 88.9824 254.987 89.0499C255.266 89.1657 255.566 89.2222 255.868 89.2156L257.564 89.2533C258.7 89.2736 259.834 89.3541 260.962 89.4944C261.728 89.5968 262.484 89.7632 263.222 89.9917V89.6376C262.496 89.4168 261.753 89.258 261 89.1629C259.86 89.0156 258.713 88.9351 257.564 88.9218L255.876 88.8841C255.341 88.8841 254.753 88.7259 254.783 88.2436C254.809 87.9993 254.897 87.7657 255.04 87.5655C255.201 87.3521 255.388 87.1597 255.597 86.9929Z" fill="#263238"/>
<path d="M223.884 97.549C223.902 97.2737 223.935 96.9995 223.982 96.7277C224.067 96.102 224.381 95.53 224.864 95.1228C225.113 94.9419 225.398 94.8172 225.7 94.7574C226.002 94.6976 226.313 94.704 226.612 94.7762C227.243 94.901 227.851 95.1248 228.413 95.4393C229.501 96.0489 230.532 96.755 231.494 97.549H232.097L231.848 97.3606C230.834 96.5072 229.741 95.7504 228.586 95.1002C227.988 94.7692 227.342 94.5328 226.672 94.3995C226.321 94.3203 225.958 94.317 225.606 94.3898C225.253 94.4625 224.921 94.6097 224.63 94.8214C224.074 95.2839 223.709 95.9363 223.605 96.6524C223.551 96.9487 223.516 97.2482 223.5 97.549H223.884Z" fill="#263238"/>
<path d="M259.869 67.5685C259.794 67.982 259.794 68.4057 259.869 68.8192C259.912 69.0396 260.001 69.2484 260.131 69.4315C260.261 69.6147 260.429 69.7681 260.622 69.8816C261.026 70.0631 261.473 70.1258 261.911 70.0624C262.333 70.0624 262.755 69.9645 263.177 69.9042H263.245V69.648H263.139C262.717 69.7159 262.303 69.7761 261.888 69.8138C261.5 69.8732 261.103 69.8209 260.743 69.6631C260.072 69.2788 259.99 68.3445 260.118 67.6212C261.376 64.7128 262.378 61.9551 263.245 59.4009V58.783C262.325 61.488 261.255 64.434 259.892 67.5459L259.869 67.5685Z" fill="#263238"/>
<path d="M254.768 53.0567C253.588 57.0108 252.607 61.0218 251.83 65.0745C251.513 65.73 250.94 66.4759 250.172 66.4156C249.783 66.3502 249.421 66.172 249.132 65.9033C248.816 65.6471 248.499 65.3608 248.19 65.0745C247.558 64.4682 246.889 63.902 246.186 63.3792C245.818 63.1125 245.418 62.8923 244.996 62.7237C244.556 62.5379 244.073 62.4779 243.602 62.5504C243.124 62.6559 242.675 62.8634 242.285 63.1586C241.895 63.4538 241.573 63.8297 241.341 64.2607C240.903 65.1381 240.7 66.1144 240.754 67.0938C240.754 69.0679 241.507 70.9666 241.959 72.9332C242.411 74.8997 242.999 76.9039 243.534 78.9609L244.355 82.0803C244.491 82.6077 244.626 83.1351 244.77 83.6626C244.846 83.9073 244.894 84.1602 244.913 84.416C244.92 84.661 244.86 84.9034 244.739 85.1167C244.498 85.5312 243.911 85.3428 243.474 85.0339L242.057 84.1297C241.088 83.4976 240.081 82.924 239.043 82.4118C237.992 81.8639 236.86 81.4874 235.69 81.2967C235.077 81.2036 234.45 81.2552 233.859 81.4474C233.253 81.6504 232.735 82.0545 232.39 82.5926C231.787 83.6882 231.539 84.9442 231.682 86.1867C231.77 87.4223 231.98 88.6463 232.307 89.841C232.967 92.2686 233.826 94.6376 234.877 96.9236C234.959 97.127 235.057 97.3229 235.148 97.5188H235.592C235.479 97.2702 235.351 97.0291 235.253 96.7654C234.211 94.4975 233.355 92.149 232.691 89.743C232.369 88.5731 232.162 87.3744 232.074 86.1641C231.933 84.9964 232.159 83.8139 232.722 82.781C233.048 82.3201 233.503 81.9652 234.029 81.7603C234.556 81.5554 235.131 81.5095 235.683 81.6282C236.816 81.8147 237.912 82.181 238.93 82.7132C239.949 83.2176 240.938 83.7812 241.891 84.4009L243.323 85.3127C243.569 85.4859 243.849 85.6064 244.144 85.6668C244.313 85.7014 244.489 85.6839 244.647 85.6166C244.806 85.5494 244.941 85.4355 245.033 85.29C245.165 85.0218 245.239 84.7287 245.249 84.43C245.259 84.1313 245.206 83.8338 245.094 83.5571C244.958 83.0221 244.815 82.4947 244.679 81.9673C244.4 80.9199 244.129 79.8726 243.858 78.8479C243.308 76.7909 242.78 74.7792 242.261 72.8201C241.741 70.8611 241.085 68.9699 241.063 67.0561C241.003 66.1282 241.187 65.2008 241.597 64.3662C241.805 63.9759 242.093 63.6338 242.443 63.3624C242.792 63.0911 243.195 62.8965 243.624 62.7915C244.487 62.7294 245.342 62.9988 246.013 63.5449C246.71 64.0547 247.372 64.611 247.994 65.2101C248.311 65.4964 248.627 65.7827 248.959 66.0465C249.285 66.3449 249.691 66.5414 250.127 66.6116C250.349 66.6214 250.571 66.5834 250.778 66.5003C250.985 66.4171 251.171 66.2906 251.325 66.1293C251.618 65.8306 251.857 65.4841 252.033 65.1046C252.79 61.0523 253.753 57.0411 254.919 53.0868C255.484 51.1353 256.004 49.3194 256.569 47.7522H256.403C255.868 49.3571 255.341 51.1127 254.768 53.0567Z" fill="#263238"/>
<path d="M246.729 97.549C247.768 94.1132 248.869 90.4589 250.006 86.6689C250.692 84.3708 251.37 82.1481 252.018 79.963L252.432 79.7596C252.726 79.6014 253.148 79.3603 253.668 79.0513C254.693 78.4335 256.087 77.5444 257.616 76.5272L261.534 73.9654C262.09 73.6329 262.626 73.2681 263.139 72.8729C262.97 72.9189 262.81 72.9928 262.665 73.0914C262.363 73.2496 261.949 73.4907 261.429 73.7921C260.397 74.4024 258.988 75.2991 257.458 76.2937L253.563 78.8856C252.809 79.3979 252.237 79.7521 252.056 79.9028C254.316 72.466 256.29 65.8204 257.842 60.6742L260.246 52.808C260.517 51.8888 260.736 51.1655 260.886 50.6606C260.954 50.4271 261.007 50.2462 261.052 50.1031L261.097 49.9072C261.065 49.9666 261.039 50.0299 261.022 50.0955C260.977 50.2312 260.917 50.412 260.834 50.6456C260.668 51.1504 260.434 51.8587 260.14 52.7703C259.545 54.639 258.701 57.2912 257.654 60.614C255.574 67.2445 252.787 76.4368 249.75 86.586L246.518 97.3908C246.269 97.1497 245.915 96.8106 245.47 96.3962C244.589 95.5598 243.361 94.392 242.057 93.0583C240.754 91.7247 239.608 90.489 238.787 89.5848C238.362 89.078 237.907 88.5974 237.423 88.1457C237.504 88.3042 237.605 88.4512 237.725 88.5827C237.928 88.854 238.237 89.2458 238.636 89.7129C239.39 90.6548 240.55 91.9206 241.861 93.2542C243.172 94.5879 244.416 95.7407 245.342 96.5469C245.802 96.9462 246.186 97.3004 246.45 97.4812V97.5264L246.729 97.549Z" fill="#263238"/>
<path d="M251.415 79.6164C251.483 79.5788 249.796 76.6026 247.648 72.9708C245.501 69.3391 243.707 66.4232 243.64 66.4609C243.572 66.4985 245.26 69.4748 247.407 73.1065C249.554 76.7382 251.318 79.6541 251.415 79.6164Z" fill="#263238"/>
<path d="M257.066 94.4598C255.974 94.7612 254.474 95.2132 252.817 95.6879C251.159 96.1626 249.675 96.6524 248.597 96.999C247.844 97.2551 247.241 97.451 247 97.549H247.271C247.58 97.4812 248.025 97.3531 248.658 97.1873C249.743 96.8859 251.25 96.4338 252.9 95.9592C254.55 95.4845 256.042 94.9947 257.119 94.6481C257.711 94.489 258.288 94.2798 258.845 94.0228C258.243 94.1283 257.649 94.2743 257.066 94.4598Z" fill="#263238"/>
<path d="M61.4824 108.239H23.4473V110.152H61.4824V108.239Z" fill="#263238"/>
<path d="M315.553 112.64V113.405H319.378V112.64H315.553ZM316.121 104.377V105.13H319.181V104.377H316.121ZM315.217 109.65V113.822H316.017V110.403H318.937V113.787H319.772V109.65H315.217ZM318.868 104.377V104.528C318.114 106.95 316.063 108.816 314.012 109.604C314.186 109.766 314.418 110.067 314.522 110.264C316.724 109.325 318.845 107.425 319.737 104.574L319.181 104.342L319.018 104.377H318.868ZM316.318 103.184C315.878 104.609 315.078 105.965 314.128 106.834C314.337 106.961 314.673 107.239 314.812 107.39C315.774 106.428 316.631 104.957 317.153 103.381L316.318 103.184ZM316.087 104.852L315.519 105.327C316.226 106.996 317.755 109.094 320.142 110.125C320.258 109.905 320.502 109.569 320.687 109.407C318.311 108.503 316.759 106.509 316.087 104.852ZM310.443 108.329V112.535H311.173V108.329H310.443ZM311.219 104.435H313.398V106.475H311.219V104.435ZM310.443 103.67V107.239H314.209V103.67H310.443ZM312.077 106.857V112.153H312.865V106.857H312.077ZM309.84 112.443L310.003 113.289C311.219 112.987 312.888 112.582 314.476 112.188L314.395 111.411C312.726 111.805 310.988 112.211 309.84 112.443ZM312.355 108.92V109.696H314.313V108.92H312.355Z" fill="#F9C357"/>
<path d="M325.091 103.798V104.586H331.997V103.798H325.091ZM325.218 109.858V110.623H331.557V109.858H325.218ZM324.465 112.767V113.555H332.125V112.767H324.465ZM326.284 105.003C326.006 105.559 325.473 106.428 324.986 107.135C325.601 107.935 326.18 108.839 326.435 109.441L327.211 109.186C326.933 108.642 326.377 107.807 325.844 107.124C326.261 106.533 326.725 105.837 327.072 105.2L326.284 105.003ZM328.451 105.003C328.162 105.559 327.605 106.428 327.084 107.135C327.744 107.935 328.37 108.839 328.66 109.441L329.425 109.186C329.135 108.642 328.532 107.796 327.965 107.124C328.393 106.533 328.892 105.837 329.228 105.212L328.451 105.003ZM330.653 105.003C330.34 105.559 329.761 106.428 329.228 107.135C329.946 107.935 330.642 108.839 330.978 109.441L331.742 109.163C331.395 108.63 330.734 107.784 330.12 107.124C330.56 106.533 331.07 105.86 331.441 105.212L330.653 105.003ZM327.953 110.113V113.173H328.822V110.113H327.953ZM324.094 105.548C323.41 106.776 322.31 107.993 321.232 108.781C321.394 108.966 321.649 109.372 321.73 109.557C322.866 108.63 324.083 107.228 324.882 105.837L324.094 105.548ZM323.828 103.195C323.318 104.018 322.275 105.003 321.371 105.617C321.521 105.779 321.742 106.081 321.858 106.254C322.843 105.559 323.932 104.47 324.604 103.496L323.828 103.195ZM323.051 107.715V113.833H323.874V107.054L323.758 107.008L323.051 107.715Z" fill="#F9C357"/>
<path d="M337.896 103.184V112.871C337.896 113.08 337.826 113.15 337.618 113.161C337.409 113.161 336.714 113.173 336.019 113.15C336.135 113.347 336.274 113.671 336.32 113.88C337.293 113.88 337.896 113.868 338.267 113.752C338.626 113.625 338.777 113.416 338.777 112.871V103.184H337.896ZM333.365 104.111V104.829H343.424V104.111H333.365ZM335.404 106.127H341.384V106.961H335.404V106.127ZM334.582 105.524V107.576H342.265V105.524H334.582ZM334.246 108.387V109.036H341.569V112.605H342.439V108.387H334.246ZM333.145 109.835V110.531H343.644V109.835H333.145ZM334.13 111.411V112.083H342.021V111.411H334.13Z" fill="#F9C357"/>
<path d="M351.176 103.334V113.845H352.045V103.334H351.176ZM349.172 103.775C348.905 105.281 348.418 106.776 347.746 107.749C347.966 107.842 348.326 108.051 348.499 108.178C349.16 107.147 349.693 105.559 350.006 103.937L349.172 103.775ZM349.287 105.559L349.067 106.417H354.699V105.559H349.287ZM347.839 108.966V109.824H355.209V108.966H347.839ZM347.271 103.23C346.657 104.991 345.625 106.73 344.536 107.854C344.698 108.062 344.953 108.514 345.034 108.711C346.24 107.402 347.364 105.443 348.094 103.485L347.271 103.23ZM346.101 106.22V113.833H346.935V105.409L346.923 105.397L346.101 106.22Z" fill="#F9C357"/>
<path d="M230.61 116.394V116.394C235.36 111.928 241.634 109.441 248.153 109.441H301.3" stroke="#F9C357" stroke-linecap="round"/>
<path d="M185.415 116.394V116.394C190.001 111.936 196.144 109.441 202.54 109.441H260.74" stroke="#F9C357" stroke-linecap="round"/>
<path d="M140.22 116.394V116.394C144.806 111.936 150.95 109.441 157.345 109.441H215.545" stroke="#F9C357" stroke-linecap="round"/>
<path d="M95.0254 116.394V116.394C99.6853 111.932 105.888 109.441 112.34 109.441H171.509" stroke="#F9C357" stroke-linecap="round"/>
<rect x="374.557" y="36.6841" width="279.94" height="126.973" fill="white" stroke="#575757" stroke-width="0.5"/>
<path d="M462.634 53.8894H463.09L465.157 47.3039H464.708L462.634 53.8894Z" fill="#0978FB"/>
<path d="M503.499 53.5668L503.757 53.4495C503.361 52.8087 503.168 52.0462 503.168 51.2791C503.168 50.512 503.361 49.7495 503.757 49.1088L503.499 48.9869C503.071 49.6638 502.817 50.3947 502.817 51.2791C502.817 52.168 503.071 52.8899 503.499 53.5668Z" fill="#6C6C6C"/>
<path d="M506.093 51.5543V52.7907H506.429V51.5543H506.093ZM505.397 50.4624H507.139V50.8911H505.397V50.4624ZM505.075 50.2052V51.1528H507.484V50.2052H505.075ZM504.651 51.4145V53.0524H504.982V51.6762H507.595V53.0388H507.941V51.4145H504.651ZM504.844 52.0371V52.2853H507.719V52.0371H504.844ZM504.844 52.6598V52.9215H507.719V52.6598H504.844ZM506.07 48.8877V49.7359H506.42V48.8877H506.07ZM504.333 49.5825V50.5165H504.664V49.8803H507.881V50.5165H508.226V49.5825H504.333ZM504.715 49.0681C504.863 49.2441 505.028 49.4923 505.102 49.6502L505.425 49.5058C505.342 49.3479 505.176 49.1178 505.019 48.9463L504.715 49.0681ZM507.48 48.9283C507.388 49.1088 507.208 49.3659 507.07 49.5329L507.355 49.6367C507.498 49.4878 507.678 49.2622 507.835 49.0456L507.48 48.9283Z" fill="#6C6C6C"/>
<path d="M508.807 49.6006V49.9164H512.926V49.6006H508.807ZM509.281 51.0535V51.3197H510.571V51.0535H509.281ZM509.281 51.7754V52.0417H510.571V51.7754H509.281ZM511.341 50.3586V52.2131H511.668V50.3586H511.341ZM510.447 50.318V52.6463C510.447 52.7049 510.429 52.723 510.364 52.7275C510.3 52.732 510.088 52.732 509.857 52.723C509.903 52.8087 509.954 52.9351 509.972 53.0208C510.286 53.0208 510.489 53.0208 510.613 52.9667C510.742 52.9125 510.783 52.8223 510.783 52.6508V50.318H510.447ZM512.276 50.2233V52.6192C512.276 52.6824 512.253 52.7004 512.18 52.7049C512.101 52.7095 511.852 52.7095 511.571 52.7004C511.622 52.7907 511.677 52.9351 511.696 53.0253C512.055 53.0253 512.286 53.0163 512.428 52.9667C512.571 52.9125 512.617 52.8177 512.617 52.6192V50.2233H512.276ZM509.521 49.0005C509.696 49.1945 509.885 49.4697 509.959 49.6412L510.3 49.5194C510.212 49.3434 510.019 49.0772 509.839 48.8831L509.521 49.0005ZM511.889 48.8696C511.774 49.1133 511.567 49.4607 511.401 49.6773L511.705 49.7901C511.875 49.578 512.083 49.2667 512.258 48.9869L511.889 48.8696ZM509.115 50.318V51.3919C509.115 51.8476 509.079 52.4342 508.77 52.8584C508.848 52.8945 508.982 52.9937 509.033 53.0524C509.373 52.5967 509.429 51.9018 509.429 51.3964V50.318H509.115ZM509.314 50.318V50.5978H510.608V50.318H509.314Z" fill="#6C6C6C"/>
<path d="M514.341 50.7873H516.667V51.2024H514.341V50.7873ZM514.341 51.4641H516.667V51.8792H514.341V51.4641ZM514.341 50.1195H516.667V50.5256H514.341V50.1195ZM513.981 49.8488V52.15H517.036V49.8488H513.981ZM515.815 52.4478C516.354 52.6282 516.902 52.8674 517.229 53.0434L517.552 52.8132C517.193 52.6373 516.603 52.4026 516.059 52.2267L515.815 52.4478ZM513.543 49.1223V49.4336H517.391V49.1223H513.543ZM515.299 49.2531C515.271 49.4607 515.202 49.763 515.138 49.9616L515.465 50.0202C515.538 49.8352 515.626 49.56 515.704 49.3028L515.299 49.2531ZM514.824 52.2041C514.506 52.4117 513.875 52.6463 513.378 52.7771C513.456 52.8493 513.562 52.9667 513.617 53.0388C514.11 52.9035 514.737 52.6643 515.138 52.4252L514.824 52.2041Z" fill="#6C6C6C"/>
<path d="M519.414 50.8956V51.1753H520.676V50.8956H519.414ZM519.414 51.6807V51.9604H520.69V51.6807H519.414ZM518.464 52.4884V52.8042H521.717V52.4884H518.464ZM518.252 50.0789V53.0434H518.589V50.3947H521.556V53.0434H521.906V50.0789H518.252ZM519.252 50.2774V52.6328H519.566V50.2774H519.252ZM520.542 50.2774V52.6192H520.86V50.2774H520.542ZM519.851 49.3389C519.819 49.6006 519.727 49.9751 519.653 50.2187L519.966 50.3045C520.059 50.0789 520.155 49.7314 520.252 49.4291L519.851 49.3389ZM518.045 49.19V49.5149H522.127V49.19H518.045Z" fill="#6C6C6C"/>
<path d="M522.842 53.5668C523.265 52.8899 523.519 52.168 523.519 51.2791C523.519 50.3947 523.265 49.6638 522.842 48.9869L522.579 49.1088C522.975 49.7495 523.169 50.512 523.169 51.2791C523.169 52.0462 522.975 52.8087 522.579 53.4495L522.842 53.5668Z" fill="#6C6C6C"/>
<path d="M387.209 48.5114V49.0332H393.462V48.5114H387.209ZM387.929 50.9115V51.3513H389.888V50.9115H387.929ZM387.929 52.1041V52.5439H389.888V52.1041H387.929ZM391.056 49.7637V52.8272H391.553V49.7637H391.056ZM389.699 49.6966V53.5427C389.699 53.6396 389.671 53.6694 389.573 53.6769C389.475 53.6844 389.153 53.6844 388.804 53.6694C388.874 53.8111 388.951 54.0198 388.979 54.1614C389.454 54.1614 389.762 54.1614 389.951 54.072C390.147 53.9825 390.21 53.8334 390.21 53.5502V49.6966H389.699ZM392.476 49.54V53.498C392.476 53.6024 392.441 53.6322 392.329 53.6396C392.21 53.6471 391.833 53.6471 391.406 53.6322C391.483 53.7813 391.567 54.0198 391.595 54.1689C392.14 54.1689 392.49 54.1539 392.707 54.072C392.924 53.9825 392.994 53.826 392.994 53.498V49.54H392.476ZM388.293 47.5201C388.559 47.8406 388.846 48.2953 388.958 48.5785L389.475 48.3772C389.342 48.0865 389.048 47.6468 388.776 47.3263L388.293 47.5201ZM391.889 47.3039C391.714 47.7064 391.399 48.2803 391.147 48.6381L391.609 48.8245C391.868 48.4741 392.182 47.9598 392.448 47.4977L391.889 47.3039ZM387.677 49.6966V51.4706C387.677 52.2234 387.622 53.1924 387.153 53.8931C387.272 53.9527 387.475 54.1167 387.552 54.2136C388.069 53.4607 388.153 52.3129 388.153 51.478V49.6966H387.677ZM387.978 49.6966V50.1587H389.944V49.6966H387.978Z" fill="#71AFB6"/>
<path d="M397.694 50.345C397.331 51.165 396.68 51.9103 395.981 52.3874C396.093 52.4843 396.267 52.693 396.344 52.7974C397.051 52.2532 397.75 51.4109 398.17 50.4867L397.694 50.345ZM398.933 49.4282C399.345 49.9425 399.842 50.6507 400.066 51.0904L400.492 50.8221C400.262 50.3898 399.751 49.6966 399.338 49.2046L398.933 49.4282ZM396.68 51.165L396.246 51.329C396.995 52.8048 398.38 53.8036 400.129 54.2061C400.199 54.057 400.339 53.8409 400.45 53.7216C398.73 53.3787 397.345 52.4619 396.68 51.165ZM397.527 51.1724L397.142 51.642H399.59V51.1724H397.527ZM399.408 51.1724V51.2619C398.856 52.6036 397.345 53.4235 395.82 53.7365C395.918 53.8558 396.03 54.0794 396.079 54.2136C397.701 53.826 399.275 52.9539 399.94 51.3215L399.604 51.1501L399.513 51.1724H399.408ZM395.701 48.8543C395.316 49.6444 394.694 50.427 394.085 50.9339C394.183 51.0532 394.337 51.314 394.393 51.4333C395.043 50.837 395.729 49.9276 396.176 49.0332L395.701 48.8543ZM395.54 47.3412C395.246 47.8629 394.673 48.504 394.155 48.899C394.239 49.0034 394.379 49.1972 394.442 49.309C395.008 48.8543 395.631 48.1611 396.009 47.5275L395.54 47.3412ZM395.057 50.2407V54.221H395.554V49.8158L395.484 49.786L395.057 50.2407ZM396.393 49.4431C396.393 49.3313 396.715 49.1823 396.715 49.1823V49.1599C397.289 48.8021 397.897 48.2505 398.436 47.6617L397.918 47.4082C397.492 47.9673 396.869 48.504 396.687 48.6456C396.505 48.7797 396.358 48.8841 396.225 48.9065C396.281 49.0555 396.365 49.3239 396.393 49.4431ZM396.393 49.4431C396.526 49.391 396.743 49.3537 398.303 49.2866C398.345 49.1823 398.429 48.981 398.506 48.8468L396.666 48.9139L396.386 49.0704L396.393 49.4431ZM396.232 50.7774C396.232 50.6656 396.568 50.5314 396.568 50.5314V50.509C397.617 49.9947 398.73 49.2493 399.758 48.34L399.282 48.0567C398.415 48.8841 397.212 49.6817 396.855 49.8829C396.526 50.0916 396.274 50.2183 396.079 50.2481C396.135 50.3898 396.211 50.6656 396.232 50.7774ZM396.232 50.7774C396.435 50.6879 396.757 50.6656 399.877 50.4643C399.849 50.3525 399.821 50.1587 399.814 50.0245L396.533 50.2183L396.225 50.3823L396.232 50.7774Z" fill="#71AFB6"/>
<path d="M402.605 50.4718H406.137V51.1575H402.605V50.4718ZM402.605 51.5898H406.137V52.2756H402.605V51.5898ZM402.605 49.3686H406.137V50.0394H402.605V49.3686ZM402.059 48.9214V52.7228H406.697V48.9214H402.059ZM404.843 53.2148C405.662 53.5129 406.494 53.908 406.991 54.1987L407.481 53.8185C406.935 53.5278 406.04 53.1402 405.214 52.8495L404.843 53.2148ZM401.395 47.7213V48.2356H407.236V47.7213H401.395ZM404.06 47.9375C404.018 48.2803 403.913 48.7797 403.815 49.1077L404.312 49.2046C404.424 48.899 404.557 48.4443 404.676 48.0195L404.06 47.9375ZM403.339 52.8123C402.857 53.1551 401.898 53.5427 401.143 53.7589C401.262 53.8782 401.423 54.072 401.507 54.1912C402.255 53.9676 403.207 53.5725 403.815 53.1775L403.339 52.8123Z" fill="#71AFB6"/>
<path d="M411.531 53.416V53.908H413.839V53.416H411.531ZM411.873 48.1015V48.5859H413.72V48.1015H411.873ZM411.328 51.4929V54.1763H411.81V51.9774H413.573V54.1539H414.077V51.4929H411.328ZM413.531 48.1015V48.1984C413.077 49.7562 411.838 50.9563 410.6 51.4631C410.705 51.5675 410.845 51.7613 410.908 51.888C412.237 51.2842 413.517 50.0618 414.056 48.2282L413.72 48.0791L413.622 48.1015H413.531ZM411.992 47.3337C411.727 48.2505 411.244 49.1226 410.67 49.6817C410.796 49.7637 410.999 49.9425 411.083 50.0394C411.664 49.4208 412.181 48.4741 412.496 47.4604L411.992 47.3337ZM411.852 48.4071L411.51 48.7127C411.936 49.786 412.86 51.1352 414.301 51.7985C414.371 51.6569 414.518 51.4408 414.63 51.3364C413.196 50.755 412.258 49.473 411.852 48.4071ZM408.446 50.6432V53.3489H408.887V50.6432H408.446ZM408.915 48.1387H410.23V49.4506H408.915V48.1387ZM408.446 47.6468V49.9425H410.719V47.6468H408.446ZM409.432 49.6966V53.103H409.908V49.6966H409.432ZM408.082 53.2893L408.18 53.8334C408.915 53.6396 409.922 53.3787 410.88 53.1253L410.831 52.6259C409.824 52.8793 408.775 53.1402 408.082 53.2893ZM409.6 51.0233V51.5227H410.782V51.0233H409.6Z" fill="#71AFB6"/>
<path d="M417.288 47.7288V48.2356H421.457V47.7288H417.288ZM417.365 51.6271V52.1191H421.191V51.6271H417.365ZM416.91 53.498V54.0049H421.534V53.498H416.91ZM418.008 48.504C417.84 48.8617 417.518 49.4208 417.225 49.8755C417.595 50.3898 417.945 50.9712 418.099 51.3588L418.568 51.1948C418.4 50.8445 418.064 50.3078 417.742 49.868C417.994 49.4879 418.274 49.0406 418.484 48.6307L418.008 48.504ZM419.316 48.504C419.141 48.8617 418.806 49.4208 418.491 49.8755C418.89 50.3898 419.267 50.9712 419.442 51.3588L419.904 51.1948C419.729 50.8445 419.365 50.3003 419.022 49.868C419.281 49.4879 419.582 49.0406 419.785 48.6381L419.316 48.504ZM420.645 48.504C420.456 48.8617 420.107 49.4208 419.785 49.8755C420.219 50.3898 420.638 50.9712 420.841 51.3588L421.303 51.1799C421.093 50.837 420.694 50.2929 420.324 49.868C420.589 49.4879 420.897 49.0555 421.121 48.6381L420.645 48.504ZM419.015 51.7911V53.7589H419.54V51.7911H419.015ZM416.686 48.8543C416.273 49.6444 415.609 50.427 414.958 50.9339C415.056 51.0532 415.21 51.314 415.259 51.4333C415.945 50.837 416.679 49.9351 417.162 49.0406L416.686 48.8543ZM416.525 47.3412C416.217 47.8704 415.588 48.504 415.042 48.899C415.133 49.0034 415.266 49.1972 415.336 49.309C415.931 48.8617 416.588 48.1611 416.994 47.535L416.525 47.3412ZM416.057 50.2481V54.1838H416.553V49.8233L416.483 49.7935L416.057 50.2481Z" fill="#71AFB6"/>
<path d="M425.507 50.8817V54.1912H425.99V51.396H427.752V54.1614H428.256V50.8817H425.507ZM426.521 47.3486V51.0457H427.039V47.3486H426.521ZM426.822 48.9661V49.4879H428.536V48.9661H426.822ZM425.759 53.3266V53.8409H427.997V53.3266H425.759ZM422.765 48.0195H424.688V49.8233H422.765V48.0195ZM422.352 47.6095V50.2332H425.115V47.6095H422.352ZM422.863 48.3847C422.982 48.7499 423.073 49.2195 423.087 49.5326L423.359 49.4431C423.338 49.145 423.247 48.6754 423.129 48.3102L422.863 48.3847ZM423.122 52.693C423.198 53.103 423.233 53.6471 423.212 53.99L423.583 53.9452C423.59 53.5949 423.555 53.0582 423.471 52.6557L423.122 52.693ZM423.842 52.6855C423.982 53.0731 424.108 53.5725 424.143 53.9005L424.5 53.8185C424.458 53.4906 424.325 52.9986 424.178 52.6185L423.842 52.6855ZM424.556 52.6781C424.751 53.0433 424.94 53.5353 425.01 53.8558L425.367 53.7142C425.297 53.3862 425.101 52.9092 424.898 52.5514L424.556 52.6781ZM422.499 52.5514C422.422 53.0061 422.268 53.58 422.044 53.9303L422.429 54.1092C422.646 53.7514 422.779 53.1551 422.863 52.6855L422.499 52.5514ZM424.297 48.2878C424.234 48.6307 424.094 49.1599 423.989 49.4804L424.22 49.5773C424.339 49.2792 424.479 48.7947 424.604 48.4145L424.297 48.2878ZM422.303 50.7401V51.1948H425.164V50.7401H422.303ZM423.527 47.8033V50.0394H423.471V51.9625H423.94V50.0394H423.884V47.8033H423.527ZM422.177 51.7836V52.2309H425.248V51.7836H422.177Z" fill="#71AFB6"/>
<path d="M434.118 47.5722V48.34C434.118 48.8096 434.209 48.981 434.635 48.981C434.726 48.981 435.048 48.981 435.146 48.981C435.272 48.981 435.419 48.981 435.503 48.9437C435.482 48.8319 435.468 48.653 435.461 48.5263C435.37 48.5487 435.223 48.5561 435.132 48.5561C435.055 48.5561 434.761 48.5561 434.691 48.5561C434.593 48.5561 434.579 48.504 434.579 48.3474V47.5722H434.118ZM429.669 51.9327V52.3203H434.824V51.9327H429.669ZM429.074 52.7079V53.103H435.538V52.7079H429.074ZM432.04 51.2693V53.6322C432.04 53.7365 432.005 53.7663 431.893 53.7738C431.781 53.7813 431.376 53.7813 430.963 53.7663C431.026 53.8931 431.103 54.072 431.131 54.1987C431.704 54.1987 432.054 54.1987 432.271 54.1316C432.488 54.057 432.565 53.9378 432.565 53.6471V51.2693H432.04ZM434.579 50.9861C433.453 51.1724 431.208 51.247 429.424 51.2246C429.459 51.314 429.501 51.478 429.508 51.5749C431.334 51.6122 433.593 51.5302 434.95 51.2917L434.579 50.9861ZM429.242 47.7064V48.0418H432.257V47.7064H429.242ZM429.13 49.8233V50.1438H432.306V49.8233H429.13ZM429.844 49.0555H431.649V49.3239H429.844V49.0555ZM429.844 48.5487H431.649V48.8021H429.844V48.5487ZM429.466 48.2878V49.5848H432.033V48.2878H429.466ZM430.515 47.3412V50.8146H430.942V47.3412H430.515ZM432.593 49.1748V49.5624H434.677V49.1748H432.593ZM433.048 47.5722V47.9747H434.363V47.5722H433.048ZM434.551 49.1748V49.2344C434.202 50.0991 433.201 50.5314 432.117 50.6954C432.187 50.7848 432.271 50.9637 432.313 51.0755C433.509 50.8519 434.558 50.3525 434.992 49.2568L434.733 49.1524L434.642 49.1748H434.551ZM433.09 49.5251L432.698 49.6593C433.18 50.4419 434.146 50.9339 435.3 51.1277C435.356 51.001 435.475 50.8146 435.573 50.7177C434.461 50.5836 433.509 50.1736 433.09 49.5251ZM432.768 47.5722V47.9971C432.768 48.3027 432.656 48.5859 431.984 48.817C432.068 48.8916 432.229 49.0779 432.292 49.1823C433.041 48.8916 433.222 48.4518 433.222 48.012V47.5722H432.768ZM429.48 50.2332V50.9712H432.04V50.2332H431.642V50.6432H429.865V50.2332H429.48Z" fill="#71AFB6"/>
<rect x="440.513" y="50.2684" width="19.7632" height="1.97632" fill="#0978FB"/>
<rect x="387.054" y="72.3583" width="19.7004" height="1.15884" fill="#6C6C6C"/>
<rect x="387.054" y="87.4232" width="12.7473" height="2.31769" fill="#0978FB"/>
<rect x="387.054" y="100.171" width="20.8592" height="1.15884" fill="#0978FB"/>
<rect x="387.054" y="111.759" width="17.3827" height="2.31769" fill="#0978FB"/>
<rect x="387.054" y="123.347" width="12.7473" height="2.31769" fill="#6C6C6C"/>
<rect x="387.054" y="134.936" width="20.8592" height="2.31769" fill="#6C6C6C"/>
<rect x="387.054" y="147.683" width="17.3827" height="1.15884" fill="#6C6C6C"/>
<rect x="508.732" y="72.3583" width="11.5884" height="1.15884" fill="#6C6C6C"/>
<rect x="505.256" y="87.4232" width="19.7004" height="2.31769" fill="#6C6C6C"/>
<rect x="505.256" y="100.171" width="19.7004" height="1.15884" fill="#6C6C6C"/>
<rect x="505.256" y="134.936" width="19.7004" height="2.31769" fill="#6C6C6C"/>
<rect x="505.256" y="147.683" width="19.7004" height="1.15884" fill="#6C6C6C"/>
<rect x="505.256" y="111.759" width="19.7004" height="2.31769" fill="#6C6C6C"/>
<rect x="505.256" y="123.347" width="19.7004" height="2.31769" fill="#6C6C6C"/>
<rect x="595.646" y="87.4232" width="18.5415" height="2.31769" fill="#6C6C6C"/>
<rect x="595.646" y="100.171" width="18.5415" height="1.15884" fill="#6C6C6C"/>
<rect x="595.646" y="134.936" width="18.5415" height="2.31769" fill="#6C6C6C"/>
<rect x="595.646" y="147.683" width="18.5415" height="1.15884" fill="#6C6C6C"/>
<rect x="595.646" y="111.759" width="18.5415" height="2.31769" fill="#6C6C6C"/>
<rect x="595.646" y="123.347" width="18.5415" height="2.31769" fill="#6C6C6C"/>
<rect x="599.123" y="72.3583" width="10.4296" height="1.15884" fill="#6C6C6C"/>
<rect x="467.194" y="50.2684" width="33.5975" height="1.97632" fill="#0978FB"/>
<rect x="380.201" y="64.3463" width="268.652" height="89.0311" stroke="black" stroke-width="0.2"/>
<rect x="0.1" y="-0.1" width="62.3776" height="9.07076" rx="1.9" transform="matrix(1 0 0 -1 586.375 55.9345)" stroke="#8A8A8A" stroke-width="0.2"/>
<line x1="380.101" y1="82.6879" x2="648.953" y2="82.6879" stroke="black" stroke-width="0.2"/>
<line x1="380.101" y1="94.2763" x2="648.953" y2="94.2763" stroke="black" stroke-width="0.2"/>
<line x1="380.101" y1="107.024" x2="648.953" y2="107.024" stroke="black" stroke-width="0.2"/>
<line x1="380.101" y1="118.612" x2="648.953" y2="118.612" stroke="black" stroke-width="0.2"/>
<line x1="380.101" y1="130.201" x2="648.953" y2="130.201" stroke="black" stroke-width="0.2"/>
<line x1="380.101" y1="141.789" x2="648.953" y2="141.789" stroke="black" stroke-width="0.2"/>
<line x1="470.591" y1="82.7879" x2="470.591" y2="153.477" stroke="black" stroke-width="0.2"/>
<line x1="559.822" y1="82.7879" x2="559.822" y2="153.477" stroke="black" stroke-width="0.2"/>
<path d="M314.789 6.89513V10.0704H315.635V6.89513H314.789ZM313.039 4.09072H317.419V5.19163H313.039V4.09072ZM312.228 3.43018V5.86376H318.288V3.43018H312.228ZM311.161 6.53589V10.7425H311.996V7.20801H318.566V10.7077H319.436V6.53589H311.161ZM311.648 8.13509V8.77246H318.879V8.13509H311.648ZM311.648 9.7343V10.4064H318.879V9.7343H311.648ZM314.731 0.046354V2.22498H315.611V0.046354H314.731ZM310.362 1.83097V4.22978H311.196V2.59581H319.285V4.22978H320.154V1.83097H310.362ZM311.324 0.509892C311.694 0.961842 312.112 1.59921 312.297 2.0048L313.108 1.63397C312.9 1.22838 312.483 0.637365 312.088 0.197004L311.324 0.509892ZM318.277 0.15065C318.045 0.614188 317.593 1.27473 317.245 1.7035L317.964 1.97004C318.323 1.58762 318.775 1.0082 319.169 0.451949L318.277 0.15065Z" fill="#F9C357"/>
<path d="M321.614 1.87733V2.68852H331.974V1.87733H321.614ZM322.808 5.60881V6.29253H326.053V5.60881H322.808ZM322.808 7.46296V8.14668H326.053V7.46296H322.808ZM327.988 3.82419V8.58704H328.811V3.82419H327.988ZM325.74 3.71989V9.69953C325.74 9.85018 325.693 9.89653 325.531 9.90812C325.369 9.91971 324.836 9.91971 324.256 9.89654C324.372 10.1167 324.5 10.4412 324.546 10.6614C325.334 10.6614 325.844 10.6614 326.157 10.5223C326.481 10.3833 326.586 10.1515 326.586 9.71112V3.71989H325.74ZM330.34 3.47653V9.63C330.34 9.79224 330.282 9.83859 330.097 9.85018C329.9 9.86177 329.274 9.86177 328.567 9.83859C328.695 10.0704 328.834 10.4412 328.88 10.673C329.784 10.673 330.363 10.6498 330.723 10.5223C331.082 10.3833 331.198 10.1399 331.198 9.63V3.47653H330.34ZM323.41 0.336065C323.851 0.834369 324.326 1.54126 324.511 1.98162L325.369 1.66874C325.149 1.21679 324.662 0.533069 324.21 0.0347656L323.41 0.336065ZM329.367 0C329.077 0.625776 328.556 1.51809 328.138 2.07433L328.903 2.36404C329.332 1.81939 329.854 1.01978 330.294 0.3013L329.367 0ZM322.391 3.71989V6.47794C322.391 7.64838 322.298 9.15487 321.521 10.2442C321.718 10.3369 322.055 10.5918 322.182 10.7425C323.04 9.57206 323.179 7.78744 323.179 6.48953V3.71989H322.391ZM322.889 3.71989V4.43838H326.145V3.71989H322.889Z" fill="#F9C357"/>
<path d="M335.532 4.92509H341.384V5.99123H335.532V4.92509ZM335.532 6.66336H341.384V7.7295H335.532V6.66336ZM335.532 3.21H341.384V4.25296H335.532V3.21ZM334.628 2.51469V8.4248H342.311V2.51469H334.628ZM339.24 9.18964C340.596 9.65318 341.975 10.2674 342.798 10.7193L343.609 10.1283C342.705 9.67636 341.222 9.07376 339.854 8.62181L339.24 9.18964ZM333.527 0.648953V1.44856H343.203V0.648953H333.527ZM337.942 0.985018C337.873 1.51809 337.699 2.29451 337.537 2.8044L338.36 2.95505C338.545 2.47993 338.765 1.77303 338.962 1.11249L337.942 0.985018ZM336.749 8.56386C335.949 9.09693 334.361 9.69953 333.11 10.0356C333.307 10.221 333.573 10.5223 333.713 10.7077C334.953 10.3601 336.529 9.74588 337.537 9.1317L336.749 8.56386Z" fill="#F9C357"/>
<path d="M348.291 5.20321V5.9217H351.466V5.20321H348.291ZM348.291 7.2196V7.93809H351.501V7.2196H348.291ZM345.904 9.29394V10.1051H354.085V9.29394H345.904ZM345.371 3.1057V10.7193H346.216V3.9169H353.679V10.7193H354.56V3.1057H345.371ZM347.885 3.6156V9.66477H348.673V3.6156H347.885ZM351.13 3.6156V9.63H351.93V3.6156H351.13ZM349.392 1.2052C349.311 1.87733 349.079 2.83917 348.893 3.46495L349.681 3.68513C349.913 3.1057 350.157 2.21339 350.4 1.43697L349.392 1.2052ZM344.849 0.82278V1.65715H355.116V0.82278H344.849Z" fill="#F9C357"/>
<path d="M478.829 42.5819C479.024 42.7771 479.341 42.7771 479.536 42.5819C479.731 42.3866 479.731 42.07 479.536 41.8748L478.829 42.5819ZM479.536 41.8748L457.085 19.4237L456.378 20.1308L478.829 42.5819L479.536 41.8748ZM424.205 5.80409H364.457V6.80409H424.205V5.80409ZM457.085 19.4237C448.365 10.7032 436.537 5.80409 424.205 5.80409V6.80409C436.272 6.80409 447.845 11.5979 456.378 20.1308L457.085 19.4237Z" fill="#F9C357"/>
<path d="M600.599 42.3544C600.795 42.5492 601.112 42.5485 601.307 42.3528C601.501 42.1571 601.501 41.8405 601.305 41.6457L600.599 42.3544ZM601.305 41.6457L590.654 31.0438L589.948 31.7525L600.599 42.3544L601.305 41.6457ZM557.849 17.5001H511.452V18.5001H557.849V17.5001ZM590.654 31.0438C581.94 22.3697 570.145 17.5001 557.849 17.5001V18.5001C569.88 18.5001 581.422 23.265 589.948 31.7525L590.654 31.0438Z" fill="#F9C357"/>
<path d="M249.496 39.1142C249.296 39.3044 248.979 39.2964 248.789 39.0962C248.599 38.8961 248.607 38.5796 248.807 38.3893L249.496 39.1142ZM248.807 38.3893L271.367 16.9478L272.056 17.6727L249.496 39.1142L248.807 38.3893ZM299.268 5.80412H302.458V6.80412H299.268V5.80412ZM271.367 16.9478C278.894 9.79346 288.883 5.80412 299.268 5.80412V6.80412C289.139 6.80412 279.398 10.695 272.056 17.6727L271.367 16.9478Z" fill="#F9C357"/>
<path d="M517.803 5.62006V11.3101H518.513V5.62006H517.803ZM515.313 10.9901V11.6301H520.283V10.9901H515.313ZM518.953 7.97006V8.60006H520.623V7.97006H518.953ZM515.783 7.97006V8.60006H517.383V7.97006H515.783ZM515.423 9.59006V10.2301H517.443V9.59006H515.423ZM515.423 6.59006V10.0301H516.103V6.81006L515.423 6.59006ZM517.013 5.89006C516.613 6.11006 515.903 6.43006 515.423 6.59006L515.773 7.03006C516.263 6.90006 516.933 6.68006 517.483 6.43006L517.013 5.89006ZM520.093 10.9901V11.1001C519.283 12.8801 517.073 13.8201 514.743 14.1501C514.873 14.3201 515.033 14.6201 515.093 14.8101C517.563 14.3801 519.883 13.3501 520.853 11.1801L520.373 10.9601L520.243 10.9901H520.093ZM516.653 11.5001L516.013 11.7401C517.023 13.3301 518.893 14.3901 521.133 14.8001C521.243 14.6101 521.443 14.3001 521.613 14.1401C519.413 13.8101 517.543 12.8701 516.653 11.5001ZM518.883 6.34006V6.98006H520.313V9.60006H518.883V10.2401H520.973V6.34006H518.883ZM512.333 10.9101L512.543 11.6301C513.313 11.3401 514.293 10.9701 515.213 10.6101L515.083 9.93006C514.073 10.3101 513.033 10.6901 512.333 10.9101ZM512.433 7.62006V8.32006H515.113V7.62006H512.433ZM513.553 5.62006V13.8501C513.553 13.9801 513.513 14.0101 513.393 14.0201C513.273 14.0201 512.913 14.0201 512.503 14.0101C512.603 14.2101 512.693 14.5201 512.713 14.7201C513.313 14.7201 513.683 14.7001 513.923 14.5701C514.153 14.4501 514.253 14.2401 514.253 13.8501V5.62006H513.553Z" fill="#F9C357"/>
<path d="M523.813 6.10006V6.64006H529.373V8.42006H523.763V8.95006H530.113V6.10006H523.813ZM527.863 10.0001H530.163V10.9801H527.863V10.0001ZM527.153 9.47006V11.5101H530.893V9.47006H527.153ZM522.513 7.26006V7.79006H529.743V7.26006H522.513ZM529.723 7.22006V7.82006H531.443V7.22006H529.723ZM522.803 9.47006V10.0301H526.463V9.47006H522.803ZM522.413 12.1201V12.7501H531.493V12.1201H522.413ZM528.683 11.4201V14.0101C528.683 14.1601 528.643 14.1901 528.463 14.2101C528.303 14.2101 527.693 14.2201 527.033 14.1901C527.133 14.3801 527.243 14.6301 527.283 14.8101C528.143 14.8101 528.673 14.8101 529.003 14.7101C529.323 14.6101 529.423 14.4301 529.423 14.0301V11.4201H528.683ZM524.263 9.68006V11.1501H524.963V9.68006H524.263ZM522.603 11.1001L522.663 11.7101C523.723 11.6301 525.223 11.5101 526.663 11.3901V10.8301C525.163 10.9401 523.623 11.0501 522.603 11.1001ZM524.073 13.1301C524.663 13.4701 525.333 13.9901 525.643 14.3701L526.183 13.8901C525.853 13.5101 525.153 13.0101 524.583 12.6901L524.073 13.1301Z" fill="#F9C357"/>
<path d="M532.993 6.73006V7.51006H540.953V6.73006H532.993ZM532.463 13.2901V14.0401H541.453V13.2901H532.463ZM536.503 7.12006V13.6001H537.343V7.12006H536.503Z" fill="#F9C357"/>
<path d="M548.003 13.1601C549.103 13.6801 550.273 14.3301 550.963 14.8201L551.563 14.2501C550.823 13.7801 549.603 13.1401 548.483 12.6301L548.003 13.1601ZM542.463 11.9101V12.6001H551.453V11.9101H542.463ZM544.343 7.57006V8.14006H549.553V7.57006H544.343ZM544.343 8.99006V9.56006H549.553V8.99006H544.343ZM544.343 10.4301V11.0001H549.553V10.4301H544.343ZM545.223 12.6701C544.603 13.2201 543.363 13.8801 542.353 14.2601C542.523 14.4101 542.773 14.6601 542.903 14.8101C543.913 14.4101 545.143 13.7501 545.933 13.1301L545.223 12.6701ZM544.063 6.09006V12.2401H544.783V6.71006H549.213V12.2401H549.963V6.09006H544.063Z" fill="#F9C357"/>
<path d="M382.419 88.5821H375.036C369.513 88.5821 365.036 93.0593 365.036 98.5821V100.171M382.419 147.683H375.036C369.513 147.683 365.036 143.206 365.036 137.683V136.674M365.036 100.171C367.261 100.171 377.552 100.171 382.419 100.171M365.036 100.171V111.759M365.036 111.759H382.419M365.036 111.759V124.506M365.036 124.506H382.419M365.036 124.506V136.674M365.036 136.674H382.419" stroke="#F9C357" stroke-linecap="round"/>
<path d="M593.165 52.0967H592.956L592.881 52.0252C593.141 51.723 593.297 51.3308 593.297 50.9041C593.297 49.9526 592.526 49.1814 591.575 49.1814C590.623 49.1814 589.852 49.9526 589.852 50.9041C589.852 51.8556 590.623 52.6268 591.575 52.6268C592.001 52.6268 592.394 52.4704 592.696 52.2107L592.767 52.2849V52.4943L594.093 53.8168L594.487 53.4219L593.165 52.0967ZM591.575 52.0967C590.915 52.0967 590.382 51.564 590.382 50.9041C590.382 50.2442 590.915 49.7115 591.575 49.7115C592.235 49.7115 592.767 50.2442 592.767 50.9041C592.767 51.564 592.235 52.0967 591.575 52.0967Z" fill="#575757"/>
</svg>
