<svg width="20" height="14" viewBox="0 0 20 14" fill="none" xmlns="http://www.w3.org/2000/svg">
<path d="M10 1.84615C13.4455 1.84615 16.5182 3.81231 18.0182 6.92308C16.5182 10.0338 13.4455 12 10 12C6.55455 12 3.48182 10.0338 1.98182 6.92308C3.48182 3.81231 6.55455 1.84615 10 1.84615ZM10 0C5.45455 0 1.57273 2.87077 0 6.92308C1.57273 10.9754 5.45455 13.8462 10 13.8462C14.5455 13.8462 18.4273 10.9754 20 6.92308C18.4273 2.87077 14.5455 0 10 0ZM10 4.61538C11.2545 4.61538 12.2727 5.64923 12.2727 6.92308C12.2727 8.19692 11.2545 9.23077 10 9.23077C8.74545 9.23077 7.72727 8.19692 7.72727 6.92308C7.72727 5.64923 8.74545 4.61538 10 4.61538ZM10 2.76923C7.74545 2.76923 5.90909 4.63385 5.90909 6.92308C5.90909 9.21231 7.74545 11.0769 10 11.0769C12.2545 11.0769 14.0909 9.21231 14.0909 6.92308C14.0909 4.63385 12.2545 2.76923 10 2.76923Z" fill="#575757"/>
</svg>
