<svg width="15" height="16" viewBox="0 0 15 16" fill="none" xmlns="http://www.w3.org/2000/svg">
<path d="M14.1667 0H0.833333C0.61232 0 0.400358 0.0877974 0.244078 0.244078C0.0877975 0.400358 0 0.61232 0 0.833333V2.99167C0 3.4275 0.1775 3.85583 0.485833 4.16417L5 8.67833V15C5.00016 15.142 5.03656 15.2816 5.10575 15.4055C5.17494 15.5295 5.27462 15.6338 5.39537 15.7085C5.51612 15.7832 5.65393 15.8258 5.79575 15.8323C5.93758 15.8389 6.07873 15.8091 6.20583 15.7458L9.53917 14.0792C9.82167 13.9375 10 13.6492 10 13.3333V8.67833L14.5142 4.16417C14.8225 3.85583 15 3.4275 15 2.99167V0.833333C15 0.61232 14.9122 0.400358 14.7559 0.244078C14.5996 0.0877974 14.3877 0 14.1667 0ZM8.5775 7.74417C8.49996 7.82142 8.43847 7.91325 8.39657 8.01436C8.35467 8.11548 8.33317 8.22388 8.33333 8.33333V12.8183L6.66667 13.6517V8.33333C6.66683 8.22388 6.64533 8.11548 6.60343 8.01436C6.56152 7.91325 6.50004 7.82142 6.4225 7.74417L1.66667 2.99167V1.66667H13.3342L13.3358 2.98583L8.5775 7.74417Z" fill="#575757"/>
</svg>
