<svg width="100" height="100" viewBox="0 0 100 100" fill="none" xmlns="http://www.w3.org/2000/svg">
<circle cx="50" cy="50" r="50" fill="#EAF3F4"/>
<mask id="mask0_2841_34487" style="mask-type:alpha" maskUnits="userSpaceOnUse" x="0" y="0" width="100" height="100">
<circle cx="50" cy="50" r="50" fill="#EAF3F4"/>
</mask>
<g mask="url(#mask0_2841_34487)">
<path d="M49.6543 74.1136C52.6751 74.216 56.2463 74.088 60.2015 73.4608C67.3568 72.3344 73.0784 69.992 77.0848 67.944C75.6255 61.544 74.1535 55.144 72.6943 48.744C72.9632 46.7472 73.2704 43.9184 73.3856 40.5136C73.5008 36.7376 73.5775 34.3568 73.1551 31.7456C72.1951 25.6656 66.576 16.872 59.9711 14.2864C58.6912 13.7872 57.5648 13.5824 56.8223 13.48C55.4143 13.2496 53.8527 13.0704 52.1503 13.0192C51.2927 12.9936 50.4735 12.9936 49.6927 13.0192H50.3071C49.5263 12.9936 48.7071 12.9936 47.8495 13.0192C46.1471 13.0832 44.5727 13.2496 43.1775 13.48C42.4351 13.5696 41.3087 13.7872 40.0287 14.2864C33.4111 16.872 27.8047 25.6656 26.8447 31.7456C26.4351 34.3568 26.4991 36.7376 26.6143 40.5136C26.7167 43.9184 27.0239 46.7472 27.3055 48.744C25.8463 55.144 24.3743 61.544 22.9151 67.944C26.9215 69.992 32.6431 72.3344 39.7983 73.4608C43.7407 74.088 47.3119 74.216 50.3455 74.1136" fill="#578F91"/>
<path d="M89.4752 97.1405C88.7584 92.3661 85.8784 88.1805 81.6672 85.7998L59.4336 73.2302C57.6416 72.155 56.5408 70.2222 56.5408 68.1358V57.8062H43.4464V68.1358C43.4464 70.2222 42.3456 72.155 40.5536 73.2302L18.3328 85.7998C14.1216 88.1805 11.2416 92.3661 10.5248 97.1405L10 100.558H50H90L89.4752 97.1405Z" fill="#F5C2B6"/>
<path d="M50.7554 67.6751C53.0466 66.8815 54.9794 65.8831 56.541 64.9359V57.8191H43.4466V68.1487C43.4466 68.5199 43.4082 68.8783 43.3442 69.2367C45.405 69.0575 47.9522 68.6351 50.7554 67.6751Z" fill="#ECA494"/>
<path d="M34.7168 48.2065L33.3984 48.3473C31.4656 48.5521 29.7248 47.1441 29.52 45.2113L29.2 42.2289C28.9952 40.2961 30.4032 38.5553 32.336 38.3505L33.6544 38.2097L34.7168 48.2065Z" fill="#ECA494"/>
<path d="M34.6659 46.402L33.8595 46.4916C32.6691 46.6196 31.6067 45.7492 31.4787 44.5716L31.2867 42.7412C31.1587 41.5508 32.0291 40.4884 33.2067 40.3604L34.0131 40.2708L34.6659 46.402Z" fill="#DF827A"/>
<path d="M65.2707 48.2065L66.5891 48.3473C68.5219 48.5521 70.2627 47.1441 70.4675 45.2113L70.7747 42.2289C70.9795 40.2961 69.5715 38.5553 67.6387 38.3505L66.3203 38.2097L65.2707 48.2065Z" fill="#ECA494"/>
<path d="M65.3343 46.402L66.1407 46.4916C67.3311 46.6196 68.3935 45.7492 68.5215 44.5716L68.7135 42.7412C68.8415 41.5508 67.9711 40.4884 66.7935 40.3604L65.9871 40.2708L65.3343 46.402Z" fill="#DF827A"/>
<path d="M50 63.7838C50.2048 63.7966 50.4992 63.7966 50.8704 63.7838C55.504 63.6046 58.8448 60.571 59.9712 59.5342C65.0784 54.8878 66.6912 47.2846 66.6912 40.8206C66.6912 37.5054 66.6912 32.5774 66.6912 26.8558C66.6912 26.4846 66.6912 25.4222 66.6912 24.0398C66.6912 21.2878 63.9904 19.6878 63.6448 19.4318C61.2256 17.6014 58.1152 17.5502 51.92 17.4478C51.1008 17.435 50.4352 17.435 50 17.4478C49.5648 17.4478 48.8864 17.435 48.08 17.4478C41.872 17.5502 38.7744 17.5886 36.3552 19.4318C36.0096 19.7006 33.3088 21.2878 33.3088 24.0398C33.3088 25.4222 33.3088 26.4846 33.3088 26.8558C33.3088 32.5902 33.3088 37.5054 33.3088 40.8206C33.3088 47.2846 34.9216 54.8878 40.0288 59.5342C41.168 60.571 44.496 63.6046 49.1296 63.7838C49.488 63.7966 49.7952 63.7966 50 63.7838Z" fill="#F2C2B5"/>
<path d="M49.9999 48.462C49.1167 48.462 48.3871 47.6172 48.3871 46.5804L48.7071 43.7388C48.7071 42.9068 49.1039 41.8572 49.9999 41.8572C50.8831 41.8572 51.2927 42.9068 51.2927 43.7388L51.6127 46.5804C51.6127 47.6172 50.8831 48.462 49.9999 48.462Z" fill="#ECA494"/>
<path d="M51.28 43.7518C51.28 43.035 50.9728 42.1518 50.32 41.9214C50.5888 42.3054 50.704 42.8302 50.704 43.291L51.024 46.1326C51.024 47.1694 50.2944 48.0142 49.4112 48.0142C49.1936 48.0142 49.0016 47.963 48.8096 47.8734C49.104 48.2318 49.5136 48.4622 49.9744 48.4622C50.8576 48.4622 51.5872 47.6174 51.5872 46.5806L51.28 43.7518Z" fill="#DD8F88"/>
<path d="M43.1646 44.0591C44.2108 44.0591 45.059 43.2109 45.059 42.1647C45.059 41.1184 44.2108 40.2703 43.1646 40.2703C42.1183 40.2703 41.2702 41.1184 41.2702 42.1647C41.2702 43.2109 42.1183 44.0591 43.1646 44.0591Z" fill="#426767"/>
<path d="M56.8222 44.0591C57.8684 44.0591 58.7166 43.2109 58.7166 42.1647C58.7166 41.1184 57.8684 40.2703 56.8222 40.2703C55.776 40.2703 54.9278 41.1184 54.9278 42.1647C54.9278 43.2109 55.776 44.0591 56.8222 44.0591Z" fill="#426767"/>
<path d="M50.6527 56.6291H49.3215C46.6079 56.6291 45.4431 55.0163 45.1615 54.5171C45.0079 54.2611 45.0975 53.9411 45.3535 53.7875C45.6095 53.6339 45.9295 53.7235 46.0831 53.9795C46.3647 54.4531 47.2351 55.5667 49.3343 55.5667H50.6655C52.7519 55.5667 53.6351 54.4531 53.9167 53.9795C54.0703 53.7235 54.3903 53.6339 54.6463 53.7875C54.9023 53.9411 54.9791 54.2611 54.8383 54.5171C54.5311 55.0163 53.3663 56.6291 50.6527 56.6291Z" fill="#DF827A"/>
<path d="M42.8832 49.448H39.4656C38.3776 49.448 37.4816 48.552 37.4816 47.464C37.4816 46.376 38.3776 45.48 39.4656 45.48H42.8832C43.9712 45.48 44.8672 46.376 44.8672 47.464C44.8672 48.5648 43.9712 49.448 42.8832 49.448Z" fill="#ECA494"/>
<path d="M60.5214 49.448H57.1038C56.0158 49.448 55.1198 48.552 55.1198 47.464C55.1198 46.376 56.0158 45.48 57.1038 45.48H60.5214C61.6094 45.48 62.5054 46.376 62.5054 47.464C62.5054 48.5648 61.6094 49.448 60.5214 49.448Z" fill="#ECA494"/>
<path d="M40.08 38.6703C39.8112 38.6703 39.568 38.5167 39.44 38.2735C39.2736 37.9151 39.4144 37.5055 39.7728 37.3263C40.5152 36.9679 41.296 36.7247 42.1152 36.5711C43.0112 36.4175 43.9328 36.3919 44.8288 36.5071C45.2128 36.5583 45.4944 36.9167 45.4432 37.3007C45.392 37.6847 45.0336 37.9663 44.6496 37.9151C43.8944 37.8127 43.1136 37.8383 42.3584 37.9663C41.68 38.0815 41.0144 38.2991 40.3872 38.5935C40.2848 38.6447 40.1824 38.6703 40.08 38.6703Z" fill="#426767"/>
<path d="M59.9073 38.6705C59.8049 38.6705 59.7025 38.6449 59.6001 38.6065C58.9729 38.3121 58.3073 38.0945 57.6289 37.9793C56.8737 37.8513 56.1057 37.8257 55.3377 37.9281C54.9537 37.9793 54.5953 37.7105 54.5441 37.3137C54.4929 36.9297 54.7617 36.5713 55.1585 36.5201C56.0545 36.4049 56.9761 36.4305 57.8721 36.5841C58.6785 36.7249 59.4721 36.9809 60.2145 37.3393C60.5729 37.5057 60.7137 37.9281 60.5473 38.2865C60.4321 38.5169 60.1761 38.6705 59.9073 38.6705Z" fill="#426767"/>
<path d="M32.3488 49.7041C33.1335 49.7041 33.7696 49.068 33.7696 48.2833C33.7696 47.4987 33.1335 46.8625 32.3488 46.8625C31.5641 46.8625 30.928 47.4987 30.928 48.2833C30.928 49.068 31.5641 49.7041 32.3488 49.7041Z" fill="white"/>
<path d="M67.6386 49.7041C68.4233 49.7041 69.0594 49.068 69.0594 48.2833C69.0594 47.4987 68.4233 46.8625 67.6386 46.8625C66.8539 46.8625 66.2178 47.4987 66.2178 48.2833C66.2178 49.068 66.8539 49.7041 67.6386 49.7041Z" fill="white"/>
<path d="M68.893 37.0579C69.1106 35.5731 73.949 29.8131 68.2402 21.9667C62.173 13.6211 52.5218 13.5315 50.397 13.5315C50.2562 13.5315 50.1538 13.5315 50.077 13.5315C50.0514 13.5315 50.013 13.5315 50.0002 13.5315C49.9746 13.5315 49.949 13.5315 49.9106 13.5315C49.821 13.5315 49.7186 13.5315 49.5906 13.5315C47.4658 13.5315 37.8146 13.6211 31.7474 21.9667C26.0386 29.8259 30.8898 35.5731 31.0946 37.0579C31.6706 37.8131 32.6946 39.3491 33.1042 41.5635C33.4626 43.4707 33.2066 45.0579 32.989 45.9539C33.6162 44.9171 34.3586 43.4451 34.8578 41.5635C35.5234 39.0547 35.4594 36.8915 35.3058 35.4963C36.2018 34.3187 37.213 32.7571 38.109 30.8115C38.8514 29.1859 39.3378 27.6755 39.6706 26.3443C39.8882 25.4739 40.669 24.8723 41.5522 24.8723L49.9234 24.8595H50.0898L58.461 24.8723C59.357 24.8723 60.1378 25.4867 60.3426 26.3443C60.6626 27.6627 61.1618 29.1859 61.9042 30.8115C62.8002 32.7571 63.8114 34.3187 64.7074 35.4963C64.5538 36.8915 64.4898 39.0547 65.1554 41.5635C65.6546 43.4451 66.397 44.9171 67.0242 45.9539C66.8066 45.0579 66.5506 43.4835 66.909 41.5635C67.293 39.3491 68.317 37.8131 68.893 37.0579Z" fill="#578F91"/>
<path d="M51.1903 24.7953C50.9215 26.4977 50.2815 28.7505 48.6303 30.7729C45.1999 35.0097 38.8255 36.5457 32.3487 34.8817C32.3487 34.3697 32.3871 28.2001 37.4943 24.7057C41.5007 21.9665 46.9407 21.9921 51.1903 24.7953Z" fill="#578F91"/>
<path d="M75.8557 90.331C76.1373 87.6558 76.6493 85.3006 77.1997 83.3166C73.0909 80.987 68.9693 78.6702 64.8605 76.3406C63.4909 76.9422 61.9933 77.531 60.3549 78.0686C60.3165 78.0814 60.2781 78.0942 60.2397 78.107C53.5453 80.2702 46.3133 80.2702 39.6061 78.107C39.5677 78.0942 39.5293 78.0814 39.4909 78.0686C37.8525 77.5438 36.3549 76.955 34.9853 76.3406C30.8765 78.6702 26.7549 80.987 22.6461 83.3166C23.2093 85.3006 23.7085 87.6558 23.9901 90.331C24.4125 94.3374 24.1821 97.8318 23.8109 100.558H49.9229H76.0349C75.6637 97.8446 75.4461 94.3502 75.8557 90.331Z" fill="#6DA9AF"/>
</g>
</svg>
