<svg width="12" height="12" viewBox="0 0 12 12" fill="none" xmlns="http://www.w3.org/2000/svg">
<path d="M0.33546 0.313096C0.550319 0.112621 0.841693 0 1.1455 0C1.44932 0 1.74069 0.112621 1.95555 0.313096L6.00692 4.09437L10.0583 0.313096C10.2744 0.118302 10.5638 0.0105161 10.8642 0.0129526C11.1646 0.015389 11.452 0.127853 11.6644 0.326122C11.8768 0.524391 11.9973 0.792602 12 1.07299C12.0026 1.35337 11.8871 1.62349 11.6784 1.82518L7.62701 5.60646L11.6784 9.38773C11.8871 9.58942 12.0026 9.85954 12 10.1399C11.9973 10.4203 11.8768 10.6885 11.6644 10.8868C11.452 11.0851 11.1646 11.1975 10.8642 11.2C10.5638 11.2024 10.2744 11.0946 10.0583 10.8998L6.00692 7.11854L1.95555 10.8998C1.73946 11.0946 1.45004 11.2024 1.14963 11.2C0.849216 11.1975 0.561848 11.0851 0.349417 10.8868C0.136985 10.6885 0.0164882 10.4203 0.0138777 10.1399C0.0112672 9.85954 0.126752 9.58942 0.33546 9.38773L4.38683 5.60646L0.33546 1.82518C0.120665 1.62464 0 1.35269 0 1.06914C0 0.78558 0.120665 0.513631 0.33546 0.313096Z" fill="#C4C4C4"/>
</svg>
