<svg width="10" height="10" viewBox="0 0 10 10" fill="none" xmlns="http://www.w3.org/2000/svg">
<path d="M0.27955 0.254136C0.458599 0.0914128 0.701411 0 0.954587 0C1.20776 0 1.45057 0.0914128 1.62962 0.254136L5.00576 3.32335L8.38191 0.254136C8.56198 0.0960244 8.80316 0.0085358 9.05351 0.0105134C9.30385 0.0124911 9.54332 0.103777 9.72035 0.26471C9.89737 0.425642 9.99779 0.643346 9.99996 0.87093C10.0021 1.09851 9.9059 1.31777 9.73198 1.48148L6.35584 4.55069L9.73198 7.61991C9.9059 7.78362 10.0021 8.00288 9.99996 8.23046C9.99779 8.45804 9.89737 8.67575 9.72035 8.83668C9.54332 8.99761 9.30385 9.0889 9.05351 9.09088C8.80316 9.09285 8.56198 9.00537 8.38191 8.84725L5.00576 5.77804L1.62962 8.84725C1.44955 9.00537 1.20837 9.09285 0.958023 9.09088C0.70768 9.0889 0.468207 8.99761 0.291181 8.83668C0.114155 8.67575 0.0137402 8.45804 0.0115648 8.23046C0.00938938 8.00288 0.105627 7.78362 0.27955 7.61991L3.65569 4.55069L0.27955 1.48148C0.100554 1.3187 0 1.09797 0 0.867806C0 0.637646 0.100554 0.416909 0.27955 0.254136Z" fill="#71AFB6"/>
</svg>
