<svg width="100" height="100" viewBox="0 0 100 100" fill="none" xmlns="http://www.w3.org/2000/svg">
<circle cx="50" cy="50" r="50" fill="#EAF3F4"/>
<mask id="mask0_2465_3146" style="mask-type:alpha" maskUnits="userSpaceOnUse" x="0" y="0" width="100" height="100">
<circle cx="50" cy="50" r="50" fill="#EAF3F4"/>
</mask>
<g mask="url(#mask0_2465_3146)">
<path d="M49.6542 74.1136C52.675 74.216 56.2462 74.088 60.2014 73.4608C67.3566 72.3344 73.0782 69.992 77.0846 67.944C75.6254 61.544 74.1534 55.144 72.6942 48.744C72.963 46.7472 73.2702 43.9184 73.3854 40.5136C73.5006 36.7376 73.5774 34.3568 73.155 31.7456C72.195 25.6656 66.5758 16.872 59.971 14.2864C58.691 13.7872 57.5646 13.5824 56.8222 13.48C55.4142 13.2496 53.8526 13.0704 52.1502 13.0192C51.2926 12.9936 50.4734 12.9936 49.6926 13.0192H50.307C49.5262 12.9936 48.707 12.9936 47.8494 13.0192C46.147 13.0832 44.5726 13.2496 43.1774 13.48C42.435 13.5696 41.3086 13.7872 40.0286 14.2864C33.411 16.872 27.8046 25.6656 26.8446 31.7456C26.435 34.3568 26.499 36.7376 26.6142 40.5136C26.7166 43.9184 27.0238 46.7472 27.3054 48.744C25.8462 55.144 24.3742 61.544 22.915 67.944C26.9214 69.992 32.643 72.3344 39.7982 73.4608C43.7406 74.088 47.3118 74.216 50.3454 74.1136" fill="#578F91"/>
<path d="M89.4752 97.1405C88.7584 92.3661 85.8784 88.1805 81.6672 85.7998L59.4336 73.2302C57.6416 72.155 56.5408 70.2222 56.5408 68.1358V57.8062H43.4464V68.1358C43.4464 70.2222 42.3456 72.155 40.5536 73.2302L18.3328 85.7998C14.1216 88.1805 11.2416 92.3661 10.5248 97.1405L10 100.558H50H90L89.4752 97.1405Z" fill="#F5C2B6"/>
<path d="M50.7554 67.6751C53.0466 66.8815 54.9794 65.8831 56.541 64.9359V57.8191H43.4466V68.1487C43.4466 68.5199 43.4082 68.8783 43.3442 69.2367C45.405 69.0575 47.9522 68.6351 50.7554 67.6751Z" fill="#ECA494"/>
<path d="M34.7168 48.2065L33.3984 48.3473C31.4656 48.5521 29.7248 47.1441 29.52 45.2113L29.2 42.2289C28.9952 40.2961 30.4032 38.5553 32.336 38.3505L33.6544 38.2097L34.7168 48.2065Z" fill="#ECA494"/>
<path d="M34.6659 46.402L33.8595 46.4916C32.6691 46.6196 31.6067 45.7492 31.4787 44.5716L31.2867 42.7412C31.1587 41.5508 32.0291 40.4884 33.2067 40.3604L34.0131 40.2708L34.6659 46.402Z" fill="#DF827A"/>
<path d="M65.2705 48.2065L66.5889 48.3473C68.5217 48.5521 70.2625 47.1441 70.4673 45.2113L70.7745 42.2289C70.9793 40.2961 69.5713 38.5553 67.6385 38.3505L66.3201 38.2097L65.2705 48.2065Z" fill="#ECA494"/>
<path d="M65.3342 46.402L66.1406 46.4916C67.331 46.6196 68.3934 45.7492 68.5214 44.5716L68.7134 42.7412C68.8414 41.5508 67.971 40.4884 66.7934 40.3604L65.987 40.2708L65.3342 46.402Z" fill="#DF827A"/>
<path d="M50 63.7838C50.2048 63.7966 50.4992 63.7966 50.8704 63.7838C55.504 63.6046 58.8448 60.571 59.9712 59.5342C65.0784 54.8878 66.6912 47.2846 66.6912 40.8206C66.6912 37.5054 66.6912 32.5774 66.6912 26.8558C66.6912 26.4846 66.6912 25.4222 66.6912 24.0398C66.6912 21.2878 63.9904 19.6878 63.6448 19.4318C61.2256 17.6014 58.1152 17.5502 51.92 17.4478C51.1008 17.435 50.4352 17.435 50 17.4478C49.5648 17.4478 48.8864 17.435 48.08 17.4478C41.872 17.5502 38.7744 17.5886 36.3552 19.4318C36.0096 19.7006 33.3088 21.2878 33.3088 24.0398C33.3088 25.4222 33.3088 26.4846 33.3088 26.8558C33.3088 32.5902 33.3088 37.5054 33.3088 40.8206C33.3088 47.2846 34.9216 54.8878 40.0288 59.5342C41.168 60.571 44.496 63.6046 49.1296 63.7838C49.488 63.7966 49.7952 63.7966 50 63.7838Z" fill="#F2C2B5"/>
<path d="M50 48.462C49.1168 48.462 48.3872 47.6172 48.3872 46.5804L48.7072 43.7388C48.7072 42.9068 49.104 41.8572 50 41.8572C50.8832 41.8572 51.2928 42.9068 51.2928 43.7388L51.6128 46.5804C51.6128 47.6172 50.8832 48.462 50 48.462Z" fill="#ECA494"/>
<path d="M51.28 43.7518C51.28 43.035 50.9728 42.1518 50.32 41.9214C50.5888 42.3054 50.704 42.8302 50.704 43.291L51.024 46.1326C51.024 47.1694 50.2944 48.0142 49.4112 48.0142C49.1936 48.0142 49.0016 47.963 48.8096 47.8734C49.104 48.2318 49.5136 48.4622 49.9744 48.4622C50.8576 48.4622 51.5872 47.6174 51.5872 46.5806L51.28 43.7518Z" fill="#DD8F88"/>
<path d="M43.1647 44.0591C44.2109 44.0591 45.0591 43.2109 45.0591 42.1647C45.0591 41.1184 44.2109 40.2703 43.1647 40.2703C42.1184 40.2703 41.2703 41.1184 41.2703 42.1647C41.2703 43.2109 42.1184 44.0591 43.1647 44.0591Z" fill="#426767"/>
<path d="M56.8224 44.0591C57.8686 44.0591 58.7168 43.2109 58.7168 42.1647C58.7168 41.1184 57.8686 40.2703 56.8224 40.2703C55.7761 40.2703 54.928 41.1184 54.928 42.1647C54.928 43.2109 55.7761 44.0591 56.8224 44.0591Z" fill="#426767"/>
<path d="M50.6528 56.6291H49.3216C46.608 56.6291 45.4432 55.0163 45.1616 54.5171C45.008 54.2611 45.0976 53.9411 45.3536 53.7875C45.6096 53.6339 45.9296 53.7235 46.0832 53.9795C46.3648 54.4531 47.2352 55.5667 49.3344 55.5667H50.6656C52.752 55.5667 53.6352 54.4531 53.9168 53.9795C54.0704 53.7235 54.3904 53.6339 54.6464 53.7875C54.9024 53.9411 54.9792 54.2611 54.8384 54.5171C54.5312 55.0163 53.3664 56.6291 50.6528 56.6291Z" fill="#DF827A"/>
<path d="M42.883 49.448H39.4654C38.3774 49.448 37.4814 48.552 37.4814 47.464C37.4814 46.376 38.3774 45.48 39.4654 45.48H42.883C43.971 45.48 44.867 46.376 44.867 47.464C44.867 48.5648 43.971 49.448 42.883 49.448Z" fill="#ECA494"/>
<path d="M60.5212 49.448H57.1036C56.0156 49.448 55.1196 48.552 55.1196 47.464C55.1196 46.376 56.0156 45.48 57.1036 45.48H60.5212C61.6092 45.48 62.5052 46.376 62.5052 47.464C62.5052 48.5648 61.6092 49.448 60.5212 49.448Z" fill="#ECA494"/>
<path d="M40.0801 38.6703C39.8113 38.6703 39.5681 38.5167 39.4401 38.2735C39.2737 37.9151 39.4145 37.5055 39.7729 37.3263C40.5153 36.9679 41.2961 36.7247 42.1153 36.5711C43.0113 36.4175 43.9329 36.3919 44.8289 36.5071C45.2129 36.5583 45.4945 36.9167 45.4433 37.3007C45.3921 37.6847 45.0337 37.9663 44.6497 37.9151C43.8945 37.8127 43.1137 37.8383 42.3585 37.9663C41.6801 38.0815 41.0145 38.2991 40.3873 38.5935C40.2849 38.6447 40.1825 38.6703 40.0801 38.6703Z" fill="#426767"/>
<path d="M59.9073 38.6705C59.8049 38.6705 59.7025 38.6449 59.6001 38.6065C58.9729 38.3121 58.3073 38.0945 57.6289 37.9793C56.8737 37.8513 56.1057 37.8257 55.3377 37.9281C54.9537 37.9793 54.5953 37.7105 54.5441 37.3137C54.4929 36.9297 54.7617 36.5713 55.1585 36.5201C56.0545 36.4049 56.9761 36.4305 57.8721 36.5841C58.6785 36.7249 59.4721 36.9809 60.2145 37.3393C60.5729 37.5057 60.7137 37.9281 60.5473 38.2865C60.4321 38.5169 60.1761 38.6705 59.9073 38.6705Z" fill="#426767"/>
<path d="M32.3488 49.7041C33.1335 49.7041 33.7696 49.068 33.7696 48.2833C33.7696 47.4987 33.1335 46.8625 32.3488 46.8625C31.5641 46.8625 30.928 47.4987 30.928 48.2833C30.928 49.068 31.5641 49.7041 32.3488 49.7041Z" fill="white"/>
<path d="M67.6386 49.7041C68.4233 49.7041 69.0594 49.068 69.0594 48.2833C69.0594 47.4987 68.4233 46.8625 67.6386 46.8625C66.8539 46.8625 66.2178 47.4987 66.2178 48.2833C66.2178 49.068 66.8539 49.7041 67.6386 49.7041Z" fill="white"/>
<path d="M68.893 37.0579C69.1106 35.5731 73.949 29.8131 68.2402 21.9667C62.173 13.6211 52.5218 13.5315 50.397 13.5315C50.2562 13.5315 50.1538 13.5315 50.077 13.5315C50.0514 13.5315 50.013 13.5315 50.0002 13.5315C49.9746 13.5315 49.949 13.5315 49.9106 13.5315C49.821 13.5315 49.7186 13.5315 49.5906 13.5315C47.4658 13.5315 37.8146 13.6211 31.7474 21.9667C26.0386 29.8259 30.8898 35.5731 31.0946 37.0579C31.6706 37.8131 32.6946 39.3491 33.1042 41.5635C33.4626 43.4707 33.2066 45.0579 32.989 45.9539C33.6162 44.9171 34.3586 43.4451 34.8578 41.5635C35.5234 39.0547 35.4594 36.8915 35.3058 35.4963C36.2018 34.3187 37.213 32.7571 38.109 30.8115C38.8514 29.1859 39.3378 27.6755 39.6706 26.3443C39.8882 25.4739 40.669 24.8723 41.5522 24.8723L49.9234 24.8595H50.0898L58.461 24.8723C59.357 24.8723 60.1378 25.4867 60.3426 26.3443C60.6626 27.6627 61.1618 29.1859 61.9042 30.8115C62.8002 32.7571 63.8114 34.3187 64.7074 35.4963C64.5538 36.8915 64.4898 39.0547 65.1554 41.5635C65.6546 43.4451 66.397 44.9171 67.0242 45.9539C66.8066 45.0579 66.5506 43.4835 66.909 41.5635C67.293 39.3491 68.317 37.8131 68.893 37.0579Z" fill="#578F91"/>
<path d="M51.1902 24.7953C50.9214 26.4977 50.2814 28.7505 48.6302 30.7729C45.1998 35.0097 38.8254 36.5457 32.3486 34.8817C32.3486 34.3697 32.387 28.2001 37.4942 24.7057C41.5006 21.9665 46.9406 21.9921 51.1902 24.7953Z" fill="#578F91"/>
<path d="M75.8556 90.331C76.1372 87.6558 76.6492 85.3006 77.1996 83.3166C73.0908 80.987 68.9692 78.6702 64.8604 76.3406C63.4908 76.9422 61.9932 77.531 60.3548 78.0686C60.3164 78.0814 60.278 78.0942 60.2396 78.107C53.5452 80.2702 46.3132 80.2702 39.606 78.107C39.5676 78.0942 39.5292 78.0814 39.4908 78.0686C37.8524 77.5438 36.3548 76.955 34.9852 76.3406C30.8764 78.6702 26.7548 80.987 22.646 83.3166C23.2092 85.3006 23.7084 87.6558 23.99 90.331C24.4124 94.3374 24.182 97.8318 23.8108 100.558H49.9228H76.0348C75.6636 97.8446 75.446 94.3502 75.8556 90.331Z" fill="#6DA9AF"/>
</g>
</svg>
