<svg width="100" height="100" viewBox="0 0 100 100" fill="none" xmlns="http://www.w3.org/2000/svg">
<circle cx="50" cy="50" r="50" fill="#EAF3F4"/>
<mask id="mask0_2465_3241" style="mask-type:alpha" maskUnits="userSpaceOnUse" x="0" y="0" width="100" height="100">
<circle cx="50" cy="50" r="50" fill="#EAF3F4"/>
</mask>
<g mask="url(#mask0_2465_3241)">
<path d="M89.4624 96.9411C88.7456 92.1667 85.8656 87.9811 81.6544 85.6003L59.4208 73.0307C57.6288 71.9555 56.528 70.0227 56.528 67.9363V57.6067H43.4464V67.9363C43.4464 70.0227 42.3456 71.9555 40.5536 73.0307L18.32 85.6003C14.1088 87.9811 11.2288 92.1667 10.512 96.9411L10 100.359H50H90L89.4624 96.9411Z" fill="#F5C2B6"/>
<path d="M50.7425 67.4627C53.0337 66.6691 54.9665 65.6707 56.5281 64.7235V57.6067H43.4337V67.9363C43.4337 68.3075 43.3953 68.6659 43.3313 69.0243C45.4049 68.8579 47.9521 68.4355 50.7425 67.4627Z" fill="#ECA494"/>
<path d="M34.704 48.0066L33.3856 48.1474C31.4528 48.3522 29.712 46.9442 29.5072 45.0114L29.2 42.029C28.9952 40.0962 30.4032 38.3554 32.336 38.1506L33.6544 38.0098L34.704 48.0066Z" fill="#ECA494"/>
<path d="M34.6529 46.1891L33.8465 46.2787C32.6561 46.4067 31.5937 45.5363 31.4657 44.3587L31.2737 42.5283C31.1457 41.3379 32.0161 40.2755 33.1937 40.1475L34.0001 40.0579L34.6529 46.1891Z" fill="#DF827A"/>
<path d="M65.2704 48.0066L66.5888 48.1474C68.5216 48.3522 70.2624 46.9442 70.4672 45.0114L70.7744 42.029C70.9792 40.0962 69.5712 38.3554 67.6384 38.1506L66.32 38.0098L65.2704 48.0066Z" fill="#ECA494"/>
<path d="M65.3215 46.1891L66.1279 46.2787C67.3183 46.4067 68.3807 45.5363 68.5087 44.3587L68.7007 42.5283C68.8287 41.3379 67.9583 40.2755 66.7807 40.1475L65.9743 40.0579L65.3215 46.1891Z" fill="#DF827A"/>
<path d="M49.9872 63.5708C50.192 63.5836 50.4864 63.5836 50.8576 63.5708C55.4912 63.3916 58.832 60.358 59.9584 59.3212C65.0656 54.6748 66.6784 47.0716 66.6784 40.6076C66.6784 37.2924 66.6784 39.3148 66.6784 33.5804C66.6784 33.2092 66.6784 32.1468 66.6784 30.7644C66.6784 28.0124 63.9776 26.4124 63.632 26.1564C61.2128 24.326 58.1024 24.2748 51.9072 24.1724C51.088 24.1596 50.4224 24.1596 49.9872 24.1724C49.552 24.1724 48.8736 24.1596 48.0672 24.1724C41.8592 24.2748 38.7616 24.3132 36.3424 26.1564C35.9968 26.4252 33.296 28.0124 33.296 30.7644C33.296 32.1468 33.296 33.2092 33.296 33.5804C33.296 39.3148 33.296 37.2796 33.296 40.6076C33.296 47.0716 34.9088 54.6748 40.016 59.3212C41.1552 60.358 44.4832 63.3916 49.1168 63.5708C49.488 63.5964 49.7952 63.5836 49.9872 63.5708Z" fill="#F2C2B5"/>
<path d="M49.9872 48.7617C48.8992 48.7617 48.0032 47.8529 48.0032 46.7393L48.4 43.6801C48.4 42.7841 48.8992 41.6577 49.9872 41.6577C51.0752 41.6577 51.5744 42.7969 51.5744 43.6801L51.9712 46.7393C51.9712 47.8529 51.0752 48.7617 49.9872 48.7617Z" fill="#ECA494"/>
<path d="M51.5745 43.6803C51.5745 42.9123 51.2033 41.9523 50.3969 41.7219C50.7169 42.1315 50.8705 42.6947 50.8705 43.1939L51.2673 46.2531C51.2673 47.3667 50.3713 48.2755 49.2833 48.2755C49.0273 48.2755 48.7713 48.2243 48.5409 48.1219C48.8993 48.5187 49.4113 48.7619 49.9745 48.7619C51.0625 48.7619 51.9585 47.8531 51.9585 46.7395L51.5745 43.6803Z" fill="#DD8F88"/>
<path d="M43.1649 43.8462C44.2112 43.8462 45.0593 42.998 45.0593 41.9518C45.0593 40.9055 44.2112 40.0574 43.1649 40.0574C42.1187 40.0574 41.2705 40.9055 41.2705 41.9518C41.2705 42.998 42.1187 43.8462 43.1649 43.8462Z" fill="#426767"/>
<path d="M56.8227 43.8462C57.869 43.8462 58.7171 42.998 58.7171 41.9518C58.7171 40.9055 57.869 40.0574 56.8227 40.0574C55.7765 40.0574 54.9283 40.9055 54.9283 41.9518C54.9283 42.998 55.7765 43.8462 56.8227 43.8462Z" fill="#426767"/>
<path d="M42.8832 49.2478H39.4656C38.3776 49.2478 37.4816 48.3518 37.4816 47.2638C37.4816 46.1758 38.3776 45.2798 39.4656 45.2798H42.8832C43.9712 45.2798 44.8672 46.1758 44.8672 47.2638C44.8544 48.3518 43.9712 49.2478 42.8832 49.2478Z" fill="#ECA494"/>
<path d="M60.5216 49.2478H57.104C56.016 49.2478 55.12 48.3518 55.12 47.2638C55.12 46.1758 56.016 45.2798 57.104 45.2798H60.5216C61.6096 45.2798 62.5056 46.1758 62.5056 47.2638C62.4928 48.3518 61.6096 49.2478 60.5216 49.2478Z" fill="#ECA494"/>
<path d="M40.0801 38.4575C39.8113 38.4575 39.5681 38.3038 39.4401 38.0606C39.2737 37.7022 39.4145 37.2798 39.7729 37.1134C40.5153 36.755 41.3089 36.499 42.1153 36.3582C43.0113 36.2046 43.9201 36.179 44.8289 36.2942C45.2129 36.3454 45.4945 36.7038 45.4433 37.0878C45.3921 37.4718 45.0337 37.7534 44.6497 37.7022C43.8817 37.5998 43.1137 37.6254 42.3585 37.7534C41.6801 37.8686 41.0145 38.0862 40.3873 38.3806C40.2849 38.4318 40.1825 38.4575 40.0801 38.4575Z" fill="#426767"/>
<path d="M59.9073 38.4576C59.8049 38.4576 59.7025 38.432 59.6001 38.3936C58.9729 38.0992 58.3073 37.8816 57.6289 37.7664C56.8737 37.6384 56.1057 37.6128 55.3377 37.7152C54.9537 37.7664 54.5953 37.4976 54.5441 37.1008C54.4929 36.7168 54.7745 36.3584 55.1585 36.3072C56.0673 36.192 56.9761 36.2176 57.8721 36.3712C58.6785 36.512 59.4721 36.768 60.2145 37.1264C60.5729 37.2928 60.7137 37.7152 60.5473 38.0736C60.4193 38.304 60.1633 38.4576 59.9073 38.4576Z" fill="#426767"/>
<path d="M89.4624 96.9407C88.7456 92.1663 85.8656 87.9807 81.6544 85.5999L59.4208 73.0303C58.2944 72.3647 57.4496 71.3535 56.976 70.1887C54.7616 70.6239 52.4192 70.8543 49.9872 70.8543C47.5552 70.8543 45.2128 70.6239 42.9984 70.1887C42.5248 71.3535 41.6672 72.3647 40.5536 73.0303L18.32 85.5999C14.1088 87.9807 11.2288 92.1663 10.512 96.9407L10 100.358H50H90L89.4624 96.9407Z" fill="#6DA9AF"/>
<path d="M36.2018 28.8192C34.9986 31.0976 36.637 32.5184 35.7154 35.4496C35.1266 37.3184 34.1666 37.6896 33.6162 40.1984C33.4114 41.12 33.3602 41.9136 33.3474 42.4256C32.4386 41.0688 31.1074 38.6752 30.6978 35.4496C30.5058 33.888 30.1986 31.2256 31.5042 28.3328C32.0546 27.1168 32.733 26.2208 33.2322 25.632C33.245 24.992 33.3218 23.9296 33.6034 22.6624C34.6914 18.0032 38.3138 12.832 41.693 13.1264C42.461 13.1904 42.3714 13.472 43.3058 13.6128C46.2498 14.0608 47.2482 11.3472 50.1026 11.0272C52.9442 10.7072 53.0338 13.2928 58.1922 14.2656C59.7666 14.56 60.9954 14.56 61.7506 15.5584C62.5698 16.6464 61.789 17.5296 62.557 19.1168C63.4146 20.896 64.925 20.8832 65.309 22.3552C65.501 23.0848 65.373 24.032 64.541 25.2864C65.373 25.696 66.589 26.4768 67.4082 27.8464C68.3426 29.4208 68.2914 31.0208 68.061 33.504C67.8306 35.8848 67.4466 38.9568 66.7426 42.5408C64.6434 39.584 63.9394 37.0112 63.6962 35.1168C63.3122 32.1088 64.0034 29.728 62.4034 28C61.5074 27.0272 60.2914 26.6816 59.3826 26.5408C45.2898 26.7968 39.197 26.8736 38.4546 26.8608C38.4418 26.8608 38.3906 26.8608 38.3266 26.8608C37.1874 26.9376 36.4194 28.4096 36.2018 28.8192Z" fill="#578F91"/>
<path d="M52.6625 59.0017H47.3121C45.4817 59.0017 43.9201 60.1793 43.3185 61.8177C44.8673 62.7137 46.8257 63.4945 49.1041 63.5841C49.4753 63.5969 49.7825 63.5969 49.9745 63.5841C50.1793 63.5969 50.4737 63.5969 50.8449 63.5841C53.1233 63.4945 55.0945 62.7137 56.6305 61.8177C56.0545 60.1793 54.4929 59.0017 52.6625 59.0017Z" fill="#578F91"/>
<path d="M55.3761 55.4428H44.5857C43.9329 55.4428 43.5745 54.6876 43.9713 54.1756L45.5457 52.1916C45.6993 51.9996 45.9169 51.8972 46.1601 51.8972H53.8145C54.0577 51.8972 54.2753 52.0124 54.4289 52.1916L56.0033 54.1756C56.4001 54.7004 56.0289 55.4428 55.3761 55.4428Z" fill="#578F91"/>
</g>
</svg>
