<svg width="100" height="100" viewBox="0 0 100 100" fill="none" xmlns="http://www.w3.org/2000/svg">
<circle cx="50" cy="50" r="50" fill="#EAF3F4"/>
<mask id="mask0_2465_3385" style="mask-type:alpha" maskUnits="userSpaceOnUse" x="0" y="0" width="100" height="100">
<circle cx="50" cy="50" r="50" fill="#EAF3F4"/>
</mask>
<g mask="url(#mask0_2465_3385)">
<path d="M26.9855 86.8228C25.3983 85.21 21.5967 81.3828 20.6239 75.5844C19.5999 69.4532 22.7487 67.29 25.0015 56.3204C26.3071 49.9588 26.6399 43.8916 26.9087 39.0404C27.3695 30.6948 26.9471 25.8692 30.4543 22.234C32.2847 20.3396 34.4735 19.482 35.9327 19.0596C36.8671 17.7796 38.4543 15.962 40.8735 14.49C49.1679 9.43401 58.8063 13.5556 59.9711 14.0804C68.2527 17.7796 71.5295 25.4468 72.4383 27.5332C75.3055 34.1636 72.5023 34.9572 75.0239 48.2948C75.1775 49.1396 76.3935 54.81 78.8255 66.1508C79.8111 70.7588 80.3231 73.1524 79.8111 76.4036C78.4927 81.8948 76.0863 85.4148 74.0255 87.642C62.6975 99.8916 38.3903 98.3428 26.9855 86.8228Z" fill="#578F91"/>
<path d="M89.4752 97.6388C88.7584 92.8644 85.8784 88.6788 81.6672 86.298L59.4336 73.7284C57.6416 72.6532 56.5408 70.7204 56.5408 68.634V58.3044H43.4464V68.634C43.4464 70.7204 42.3456 72.6532 40.5536 73.7284L18.32 86.298C14.1088 88.6788 11.2288 92.8644 10.512 97.6388L10 101.056H50H90L89.4752 97.6388Z" fill="#F5C2B6"/>
<path d="M50.7554 68.1604C53.0466 67.3668 54.9794 66.3684 56.541 65.4212V58.3044H43.4466V68.634C43.4466 69.0052 43.4082 69.3636 43.3442 69.722C45.405 69.5556 47.9522 69.1332 50.7554 68.1604Z" fill="#ECA494"/>
<path d="M34.7163 48.7046L33.3979 48.8454C31.4651 49.0502 29.7243 47.6422 29.5195 45.7094L29.1995 42.727C28.9947 40.7942 30.4027 39.0534 32.3355 38.8486L33.6539 38.7078L34.7163 48.7046Z" fill="#ECA494"/>
<path d="M34.6654 46.8866L33.859 46.9762C32.6686 47.1042 31.6062 46.2338 31.4782 45.0562L31.2862 43.2258C31.1582 42.0354 32.0286 40.973 33.2062 40.845L34.0126 40.7554L34.6654 46.8866Z" fill="#DF827A"/>
<path d="M65.2703 48.7046L66.5887 48.8454C68.5215 49.0502 70.2623 47.6422 70.4671 45.7094L70.7743 42.727C70.9791 40.7942 69.5711 39.0534 67.6383 38.8486L66.3199 38.7078L65.2703 48.7046Z" fill="#ECA494"/>
<path d="M65.3342 46.8866L66.1406 46.9762C67.331 47.1042 68.3934 46.2338 68.5214 45.0562L68.7134 43.2258C68.8414 42.0354 67.971 40.973 66.7934 40.845L65.987 40.7554L65.3342 46.8866Z" fill="#DF827A"/>
<path d="M50 64.2821C50.2048 64.2949 50.4992 64.2949 50.8704 64.2821C55.504 64.1029 58.8448 61.0693 59.9712 60.0325C65.0784 55.3861 66.6912 47.7829 66.6912 41.3189C66.6912 38.0037 66.6912 33.0757 66.6912 27.3541C66.6912 26.9829 66.6912 25.9205 66.6912 24.5381C66.6912 21.7861 63.9904 20.1861 63.6448 19.9301C61.2256 18.0997 58.1152 18.0485 51.92 17.9461C51.1008 17.9333 50.4352 17.9333 50 17.9461C49.5648 17.9461 48.8864 17.9333 48.08 17.9461C41.872 18.0485 38.7744 18.0869 36.3552 19.9301C36.0096 20.1989 33.3088 21.7861 33.3088 24.5381C33.3088 25.9205 33.3088 26.9829 33.3088 27.3541C33.3088 33.0885 33.3088 38.0037 33.3088 41.3189C33.3088 47.7829 34.9216 55.3861 40.0288 60.0325C41.168 61.0693 44.496 64.1029 49.1296 64.2821C49.488 64.2949 49.7952 64.2821 50 64.2821Z" fill="#F2C2B5"/>
<path d="M50 48.9603C49.1168 48.9603 48.3872 48.1155 48.3872 47.0787L48.7072 44.2371C48.7072 43.4051 49.104 42.3555 50 42.3555C50.8832 42.3555 51.2928 43.4051 51.2928 44.2371L51.6128 47.0787C51.6128 48.1027 50.8832 48.9603 50 48.9603Z" fill="#ECA494"/>
<path d="M51.28 44.2376C51.28 43.5208 50.9728 42.6376 50.32 42.4072C50.5888 42.7912 50.704 43.316 50.704 43.7768L51.024 46.6184C51.024 47.6552 50.2944 48.5 49.4112 48.5C49.1936 48.5 49.0016 48.4488 48.8096 48.3592C49.104 48.7176 49.5136 48.948 49.9744 48.948C50.8576 48.948 51.5872 48.1032 51.5872 47.0664L51.28 44.2376Z" fill="#DD8F88"/>
<path d="M43.1644 44.5442C44.2107 44.5442 45.0588 43.696 45.0588 42.6498C45.0588 41.6035 44.2107 40.7554 43.1644 40.7554C42.1182 40.7554 41.27 41.6035 41.27 42.6498C41.27 43.696 42.1182 44.5442 43.1644 44.5442Z" fill="#426767"/>
<path d="M56.8221 44.5442C57.8684 44.5442 58.7165 43.696 58.7165 42.6498C58.7165 41.6035 57.8684 40.7554 56.8221 40.7554C55.7759 40.7554 54.9277 41.6035 54.9277 42.6498C54.9277 43.696 55.7759 44.5442 56.8221 44.5442Z" fill="#426767"/>
<path d="M50.6528 57.114H49.3216C46.608 57.114 45.4432 55.5012 45.1616 55.002C45.008 54.746 45.0976 54.426 45.3536 54.2724C45.6096 54.1188 45.9296 54.2084 46.0832 54.4644C46.3648 54.938 47.2352 56.0516 49.3344 56.0516H50.6656C52.752 56.0516 53.6352 54.938 53.9168 54.4644C54.0704 54.2084 54.3904 54.1188 54.6464 54.2724C54.9024 54.426 54.9792 54.746 54.8384 55.002C54.5312 55.5012 53.3664 57.114 50.6528 57.114Z" fill="#DF827A"/>
<path d="M42.8833 49.946H39.4657C38.3777 49.946 37.4817 49.05 37.4817 47.962C37.4817 46.874 38.3777 45.978 39.4657 45.978H42.8833C43.9713 45.978 44.8673 46.874 44.8673 47.962C44.8673 49.05 43.9713 49.946 42.8833 49.946Z" fill="#ECA494"/>
<path d="M60.5215 49.946H57.1039C56.0159 49.946 55.1199 49.05 55.1199 47.962C55.1199 46.874 56.0159 45.978 57.1039 45.978H60.5215C61.6095 45.978 62.5055 46.874 62.5055 47.962C62.5055 49.05 61.6095 49.946 60.5215 49.946Z" fill="#ECA494"/>
<path d="M40.0801 39.1554C39.8113 39.1554 39.5681 39.0018 39.4401 38.7458C39.2737 38.3874 39.4273 37.9778 39.7729 37.7986C40.5153 37.4402 41.3089 37.197 42.1153 37.0562C43.0113 36.9026 43.9201 36.877 44.8289 36.9922C45.2129 37.0434 45.4945 37.389 45.4433 37.7858C45.3921 38.1698 45.0337 38.4386 44.6497 38.4002C43.8817 38.2978 43.1137 38.3234 42.3585 38.4514C41.6801 38.5666 41.0145 38.7842 40.3873 39.0914C40.2849 39.1298 40.1825 39.1554 40.0801 39.1554Z" fill="#426767"/>
<path d="M59.9073 39.1554C59.8049 39.1554 59.7025 39.1298 59.6001 39.0914C58.9729 38.7842 58.3073 38.5794 57.6289 38.4514C56.8737 38.3234 56.1057 38.2978 55.3377 38.4002C54.9537 38.4514 54.5953 38.1698 54.5441 37.7858C54.4929 37.4018 54.7745 37.0434 55.1585 36.9922C56.0673 36.877 56.9761 36.9026 57.8721 37.0562C58.6785 37.197 59.4593 37.453 60.2145 37.7986C60.5729 37.965 60.7137 38.3874 60.5473 38.7458C60.4321 39.0018 60.1761 39.1554 59.9073 39.1554Z" fill="#426767"/>
<path d="M37.6353 27.3543C40.9249 28.5447 43.6385 29.6199 45.5969 30.4263C47.7857 31.3223 55.0817 34.3815 64.5153 39.4119C67.3441 40.9223 69.6609 42.2279 71.2481 43.1495C71.4273 42.4583 74.6785 29.1207 65.8081 20.3399C57.2193 11.8279 42.1281 12.4167 35.0113 19.7255C30.9665 23.8727 27.5361 32.0135 30.6465 37.4279C31.4145 38.7719 32.4513 39.6935 33.2961 40.2951C34.1665 39.1303 35.1649 37.5687 35.9841 35.5975C37.3665 32.2951 37.6353 29.2999 37.6353 27.3543Z" fill="#578F91"/>
<path d="M58.3967 38.3237C55.1839 38.3237 52.4959 40.2821 51.8815 42.8677C51.2671 42.6885 50.6399 42.5733 49.9999 42.5733C49.9871 42.5733 49.9743 42.5733 49.9615 42.5733C49.2959 42.5733 48.6303 42.6885 47.9775 42.8805C47.3759 40.2821 44.6879 38.3237 41.4623 38.3237C37.8015 38.3237 34.8191 40.8581 34.8191 43.9813C34.8191 47.1045 37.8015 49.6389 41.4623 49.6389C45.1231 49.6389 48.1055 47.1045 48.1055 43.9813C48.1055 43.7765 48.0543 43.5717 48.0287 43.3669C48.6687 43.1621 49.3087 43.0469 49.9871 43.0597C50.6143 43.0597 51.2287 43.1621 51.8175 43.3541C51.7919 43.5589 51.7407 43.7637 51.7407 43.9813C51.7407 47.0917 54.7231 49.6389 58.3839 49.6389C62.0447 49.6389 65.0271 47.1045 65.0271 43.9813C65.0271 40.8581 62.0703 38.3237 58.3967 38.3237ZM41.4751 49.1397C38.0831 49.1397 35.3183 46.8229 35.3183 43.9685C35.3183 41.1141 38.0831 38.7973 41.4751 38.7973C44.8671 38.7973 47.6319 41.1141 47.6319 43.9685C47.6319 46.8229 44.8671 49.1397 41.4751 49.1397ZM58.3967 49.1397C55.0047 49.1397 52.2399 46.8229 52.2399 43.9685C52.2399 41.1141 55.0047 38.7973 58.3967 38.7973C61.7887 38.7973 64.5535 41.1141 64.5535 43.9685C64.5663 46.8229 61.8015 49.1397 58.3967 49.1397Z" fill="#578F91"/>
<path d="M89.4752 97.6388C88.7584 92.8644 85.8784 88.6788 81.6672 86.298L62.0448 75.2004L52.3552 84.378C51.0368 85.6324 48.9632 85.6324 47.6448 84.378L37.9552 75.2004L18.3328 86.298C14.1216 88.6788 11.2416 92.8644 10.5248 97.6388L10 101.056H50H90L89.4752 97.6388Z" fill="#6DA9AF"/>
</g>
</svg>
