<svg width="100" height="100" viewBox="0 0 100 100" fill="none" xmlns="http://www.w3.org/2000/svg">
<circle cx="50" cy="50" r="50" fill="#EAF3F4"/>
<mask id="mask0_2465_3333" style="mask-type:alpha" maskUnits="userSpaceOnUse" x="0" y="0" width="100" height="100">
<circle cx="50" cy="50" r="50" fill="#EAF3F4"/>
</mask>
<g mask="url(#mask0_2465_3333)">
<path d="M89.4624 97.3441C88.7456 92.5697 85.8657 88.3841 81.6545 86.0033L59.4209 73.4338C57.6289 72.3586 56.5281 70.4257 56.5281 68.3393V58.0098H43.4465V68.3393C43.4465 70.4257 42.3457 72.3586 40.5537 73.4338L18.3201 86.0033C14.1089 88.3841 11.2289 92.5697 10.5121 97.3441L10.0001 100.762H50.0001H90L89.4624 97.3441Z" fill="#F5C2B6"/>
<path d="M50.7425 67.8658C53.0337 67.0722 54.9665 66.0738 56.5281 65.1266V58.0098H43.4337V68.3393C43.4337 68.7105 43.3953 69.069 43.3313 69.4274C45.4049 69.261 47.9521 68.8386 50.7425 67.8658Z" fill="#ECA494"/>
<path d="M34.7042 48.4096L33.3858 48.5504C31.453 48.7552 29.7122 47.3472 29.5074 45.4144L29.2002 42.432C28.9954 40.4992 30.4034 38.7584 32.3362 38.5536L33.6546 38.4128L34.7042 48.4096Z" fill="#ECA494"/>
<path d="M34.653 46.5919L33.8466 46.6815C32.6562 46.8095 31.5938 45.9391 31.4658 44.7615L31.2738 42.9311C31.1458 41.7407 32.0162 40.6783 33.1938 40.5503L34.0002 40.4607L34.653 46.5919Z" fill="#DF827A"/>
<path d="M65.2709 48.4096L66.5893 48.5504C68.5221 48.7552 70.2629 47.3472 70.4677 45.4144L70.7749 42.432C70.9797 40.4992 69.5717 38.7584 67.6389 38.5536L66.3205 38.4128L65.2709 48.4096Z" fill="#ECA494"/>
<path d="M65.322 46.5919L66.1284 46.6815C67.3188 46.8095 68.3812 45.9391 68.5092 44.7615L68.7012 42.9311C68.8292 41.7407 67.9588 40.6783 66.7812 40.5503L65.9748 40.4607L65.322 46.5919Z" fill="#DF827A"/>
<path d="M49.9872 63.987C50.192 63.9998 50.4864 63.9998 50.8576 63.987C55.4912 63.8078 58.832 60.7742 59.9584 59.7374C65.0656 55.091 66.6784 47.4879 66.6784 41.0239C66.6784 37.7087 66.6784 37.1071 66.6784 31.3727C66.6784 31.0015 66.6784 29.9391 66.6784 28.5567C66.6784 25.8047 63.9776 24.2047 63.632 23.9487C61.2128 22.1183 58.1024 22.0671 51.9072 21.9647C51.088 21.9519 50.4224 21.9519 49.9872 21.9647C49.552 21.9647 48.8736 21.9519 48.0672 21.9647C41.8592 22.0671 38.7616 22.1055 36.3424 23.9487C35.9968 24.2175 33.296 25.8047 33.296 28.5567C33.296 29.9391 33.296 31.0015 33.296 31.3727C33.296 37.1071 33.296 37.6959 33.296 41.0239C33.296 47.4879 34.9088 55.091 40.016 59.7374C41.1552 60.7742 44.4832 63.8078 49.1168 63.987C49.488 63.9998 49.7952 63.987 49.9872 63.987Z" fill="#F2C2B5"/>
<path d="M49.9869 49.165C48.8989 49.165 48.0029 48.2562 48.0029 47.1426L48.3997 44.0834C48.3997 43.1874 48.8989 42.061 49.9869 42.061C51.0749 42.061 51.5741 43.2002 51.5741 44.0834L51.9709 47.1426C51.9709 48.2562 51.0749 49.165 49.9869 49.165Z" fill="#ECA494"/>
<path d="M51.5741 44.0834C51.5741 43.3154 51.2029 42.3554 50.3965 42.125C50.7165 42.5346 50.8701 43.0978 50.8701 43.597L51.2669 46.6562C51.2669 47.7698 50.3709 48.6786 49.2829 48.6786C49.0269 48.6786 48.7709 48.6274 48.5405 48.525C48.8989 48.9218 49.4109 49.165 49.9741 49.165C51.0621 49.165 51.9581 48.2562 51.9581 47.1426L51.5741 44.0834Z" fill="#DD8F88"/>
<path d="M43.1644 44.2624C44.2107 44.2624 45.0588 43.4143 45.0588 42.368C45.0588 41.3218 44.2107 40.4736 43.1644 40.4736C42.1182 40.4736 41.27 41.3218 41.27 42.368C41.27 43.4143 42.1182 44.2624 43.1644 44.2624Z" fill="#426767"/>
<path d="M56.8221 44.2624C57.8684 44.2624 58.7165 43.4143 58.7165 42.368C58.7165 41.3218 57.8684 40.4736 56.8221 40.4736C55.7759 40.4736 54.9277 41.3218 54.9277 42.368C54.9277 43.4143 55.7759 44.2624 56.8221 44.2624Z" fill="#426767"/>
<path d="M50.6529 56.8195H49.3217C46.6081 56.8195 45.4561 55.2067 45.1617 54.7075C45.0081 54.4515 45.0977 54.1315 45.3537 53.9779C45.6097 53.8371 45.9297 53.9139 46.0833 54.1699C46.3649 54.6435 47.2353 55.7571 49.3345 55.7571H50.6657C52.7521 55.7571 53.6353 54.6435 53.9169 54.1699C54.0705 53.9139 54.3905 53.8371 54.6465 53.9779C54.9025 54.1315 54.9793 54.4515 54.8385 54.7075C54.5185 55.2067 53.3665 56.8195 50.6529 56.8195Z" fill="#DF827A"/>
<path d="M42.8835 49.6511H39.4659C38.3779 49.6511 37.4819 48.7551 37.4819 47.6671C37.4819 46.5791 38.3779 45.6831 39.4659 45.6831H42.8835C43.9715 45.6831 44.8675 46.5791 44.8675 47.6671C44.8547 48.7551 43.9715 49.6511 42.8835 49.6511Z" fill="#ECA494"/>
<path d="M60.522 49.6511H57.1044C56.0164 49.6511 55.1204 48.7551 55.1204 47.6671C55.1204 46.5791 56.0164 45.6831 57.1044 45.6831H60.522C61.61 45.6831 62.506 46.5791 62.506 47.6671C62.4932 48.7551 61.61 49.6511 60.522 49.6511Z" fill="#ECA494"/>
<path d="M40.0801 38.861C39.8113 38.861 39.5681 38.7074 39.4401 38.4642C39.2737 38.1058 39.4145 37.6834 39.7729 37.517C40.5153 37.1586 41.3089 36.9026 42.1153 36.7618C43.0113 36.6082 43.9201 36.5826 44.8289 36.6978C45.2129 36.749 45.4945 37.1074 45.4433 37.4914C45.3921 37.8754 45.0337 38.1442 44.6497 38.1058C43.8817 38.0034 43.1137 38.029 42.3585 38.157C41.6801 38.2722 41.0145 38.4898 40.3873 38.7842C40.2849 38.8354 40.1825 38.861 40.0801 38.861Z" fill="#426767"/>
<path d="M59.9072 38.8616C59.8048 38.8616 59.7024 38.836 59.6 38.7976C58.9728 38.5032 58.3072 38.2856 57.6288 38.1704C56.8736 38.0424 56.1056 38.0168 55.3376 38.1192C54.9536 38.1704 54.5952 37.8888 54.544 37.5048C54.4928 37.1208 54.7744 36.7624 55.1584 36.7112C56.0672 36.596 56.976 36.6216 57.872 36.7752C58.6784 36.916 59.472 37.172 60.2144 37.5304C60.5728 37.6968 60.7136 38.1192 60.5472 38.4776C60.4192 38.708 60.1632 38.8616 59.9072 38.8616Z" fill="#426767"/>
<path d="M89.4623 97.344C88.7455 92.5696 85.8655 88.384 81.6543 86.0032L59.4208 73.4336C58.2944 72.768 57.4496 71.7568 56.976 70.592C54.7616 71.0272 52.4192 71.2576 49.9872 71.2576C47.5552 71.2576 45.2128 71.0272 42.9984 70.592C42.5248 71.7568 41.6672 72.768 40.5536 73.4336L18.32 86.0032C14.1088 88.384 11.2288 92.5696 10.512 97.344L10 100.762H50H89.9999L89.4623 97.344Z" fill="#6DA9AF"/>
<path d="M35.8687 31.2193C35.6255 33.6897 35.3055 36.2625 34.8959 38.9377C34.4991 41.5105 34.0511 43.9681 33.5775 46.3105C31.9519 41.5233 31.0688 37.4529 30.544 34.5089C29.392 27.9297 29.9296 26.0865 30.4416 24.9729C31.5936 22.4129 33.6031 21.2098 37.2255 19.0594C40.0543 17.3698 44.5983 14.7202 51.0751 14.2082C55.1199 13.8882 58.8319 13.5938 61.0975 16.1154C63.2351 18.4962 62.8255 22.0034 62.6335 23.2066C63.6703 23.0786 67.5487 22.733 69.6863 25.1522C70.2111 25.7538 71.3503 27.3281 70.5823 33.6385C70.2239 36.5185 69.4303 40.7553 67.4079 45.7601C67.2287 43.4945 66.7167 40.0641 65.1039 36.1857C63.9135 33.3185 63.2735 31.7825 61.6607 30.6305C57.2959 27.4818 50.3839 30.3873 49.6287 30.7073C45.5199 32.4993 44.7647 34.8801 41.9103 34.7905C39.3119 34.6881 37.2383 32.8321 35.8687 31.2193Z" fill="#578F91"/>
<path d="M49.9871 73.9716C53.1999 73.9716 56.2335 73.6644 58.9471 73.1012C58.0639 72.4484 57.3855 71.578 56.9759 70.5796C54.7615 71.0148 52.4191 71.2452 49.9871 71.2452C47.5551 71.2452 45.2127 71.0148 42.9983 70.5796C42.5887 71.578 41.9103 72.4484 41.0271 73.1012C43.7407 73.6644 46.7743 73.9716 49.9871 73.9716Z" fill="#578F91"/>
</g>
</svg>
