<svg width="685" height="358" viewBox="0 0 685 358" fill="none" xmlns="http://www.w3.org/2000/svg">
<g clip-path="url(#clip0_4073_34578)">
<path d="M621.649 120.213L571.701 95.8408L537.123 166.791L587.071 191.162L621.649 120.213Z" fill="#F1C0B4"/>
<path d="M559.58 145.572L549.771 140.787L571.719 95.7607L621.67 120.126L619.303 124.985C608.475 147.176 581.745 156.382 559.58 145.572Z" fill="#EBA393"/>
<path d="M638.191 115.792L641.651 117.747C646.725 120.614 653.159 118.828 656.024 113.751L660.43 105.941C663.295 100.864 661.51 94.4265 656.436 91.56L652.977 89.6045L638.191 115.792Z" fill="#EBA393"/>
<path d="M640.498 110.872L642.622 112.075C645.73 113.836 649.687 112.743 651.447 109.621L654.154 104.836C655.915 101.726 654.822 97.7664 651.702 96.0052L649.578 94.8027L640.498 110.872Z" fill="#DE8079"/>
<path d="M575.19 56.0446L571.937 54.1984C567.166 51.5019 561.121 53.1781 558.426 57.9516L554.287 65.2879C551.592 70.0614 553.267 76.1102 558.037 78.8066L561.291 80.6529L575.19 56.0446Z" fill="#EBA393"/>
<path d="M573.018 60.6726L571.027 59.543C568.101 57.8911 564.387 58.9235 562.736 61.8508L560.199 66.357C558.548 69.2842 559.58 73.001 562.505 74.6529L564.496 75.7825L573.018 60.6726Z" fill="#DE8079"/>
<path d="M581.016 137.691C581.489 137.934 582.23 138.299 583.14 138.687C594.672 143.534 606.289 139.902 610.246 138.663C628.006 133.112 640.618 116.363 647.986 100.548C651.774 92.4223 652.453 90.9526 658.984 76.948C659.409 76.0371 660.623 73.4378 662.189 70.0611C665.321 63.3321 660.55 56.3481 660.004 55.3156C656.168 48.0644 648.642 44.4083 633.59 37.0963C631.611 36.1368 629.972 35.3837 628.892 34.8979C627.824 34.3877 626.197 33.6104 624.194 32.7115C608.923 25.8732 601.276 22.4601 593.264 24.1849C592.111 24.4278 583.699 25.2659 580.567 31.9949C579.001 35.3716 577.787 37.9708 577.362 38.8818C570.831 52.8985 570.151 54.3682 566.364 62.4819C558.996 78.2963 554.286 98.7262 561.472 115.901C563.074 119.727 567.76 130.95 578.892 136.683C579.766 137.157 580.518 137.485 581.016 137.691Z" fill="#F1C0B4"/>
<path d="M585.289 32.1409C582.194 37.971 578.807 44.0199 575.092 50.2144C571.524 56.1661 567.955 61.7776 564.41 67.0612C565.236 53.6275 567.141 42.6716 568.841 34.8738C572.616 17.4925 575.821 13.4964 578.212 11.2251C583.638 6.07509 589.805 5.13983 600.888 3.46365C609.555 2.15186 623.454 0.208468 639.939 5.45563C650.257 8.74726 659.701 11.7595 662.736 20.2619C665.588 28.2905 661.073 36.5256 659.373 39.3193C662.044 40.0602 671.985 43.1089 674.826 51.2226C675.53 53.2267 676.744 58.2674 668.477 73.0493C664.702 79.7905 658.463 89.4588 648.436 99.7467C650.269 93.9772 652.478 84.9769 652.393 73.8024C652.333 65.5429 652.308 61.1096 649.504 56.6155C641.917 44.445 621.949 44.6393 619.752 44.6879C607.819 44.9551 603.558 50.0687 596.59 46.9714C590.278 44.1899 587.049 37.4852 585.289 32.1409Z" fill="#575757"/>
<path d="M598.825 99.8677C595.851 98.9081 594.224 95.6408 595.195 92.6164L598.958 84.6363C599.735 82.2071 602.078 79.5592 605.052 80.5066C608.026 81.4662 608.378 84.9885 607.601 87.4178L606.011 96.0902C605.028 99.1146 601.799 100.815 598.825 99.8677Z" fill="#EBA393"/>
<path d="M607.601 87.4055C608.281 85.3042 608.099 82.3891 606.108 81.0166C606.63 82.4134 606.557 84.1017 606.12 85.45L604.53 94.1224C603.559 97.1589 600.33 98.8594 597.356 97.8998C596.652 97.6691 596.021 97.3047 595.475 96.8553C596.118 98.2399 597.295 99.3574 598.837 99.8554C601.811 100.815 605.04 99.1145 606.011 96.0779L607.601 87.4055Z" fill="#DC8F87"/>
<path d="M586.176 80.7377C589.166 80.7377 591.59 78.3124 591.59 75.3205C591.59 72.3287 589.166 69.9033 586.176 69.9033C583.186 69.9033 580.762 72.3287 580.762 75.3205C580.762 78.3124 583.186 80.7377 586.176 80.7377Z" fill="#575757"/>
<path d="M623.406 92.7143C626.396 92.7143 628.82 90.2889 628.82 87.2971C628.82 84.3052 626.396 81.8799 623.406 81.8799C620.416 81.8799 617.992 84.3052 617.992 87.2971C617.992 90.2889 620.416 92.7143 623.406 92.7143Z" fill="#575757"/>
<path d="M611.181 114.128C609.736 116.594 606.41 119.436 600.571 119.436H598.666H596.76C590.933 119.436 587.595 116.594 586.15 114.128" stroke="#DE8079" stroke-width="2.5012" stroke-miterlimit="10" stroke-linecap="round"/>
<path d="M579.026 94.9488L569.716 91.9487C566.741 90.9891 565.103 87.7825 566.05 84.8067C567.009 81.8309 570.213 80.1912 573.187 81.1386L582.498 84.1387C585.472 85.0982 587.111 88.3048 586.164 91.2806C585.205 94.2565 581.988 95.8962 579.026 94.9488Z" fill="#EBA393"/>
<path d="M627.096 110.411L617.786 107.411C614.812 106.451 613.173 103.244 614.12 100.269C615.079 97.2928 618.284 95.6531 621.258 96.6005L630.568 99.6006C633.542 100.56 635.181 103.767 634.234 106.743C633.275 109.718 630.058 111.37 627.096 110.411Z" fill="#EBA393"/>
<path d="M594.806 63.1864C593.216 62.4334 590.873 61.5588 587.935 61.1459C585.325 60.7815 583.092 60.9151 581.453 61.1459" stroke="#575757" stroke-width="3.3534" stroke-miterlimit="10" stroke-linecap="round"/>
<path d="M623.467 72.4053C625.203 72.7332 627.606 73.377 630.228 74.7616C632.559 75.9884 634.295 77.4095 635.496 78.5391" stroke="#575757" stroke-width="3.3534" stroke-miterlimit="10" stroke-linecap="round"/>
<path d="M583.105 173.885C583.105 173.885 616.014 177.881 619.741 179.581C619.741 179.581 632.657 188.57 640.705 202.088C658.051 231.263 692.162 287.428 683.664 313.36C679.294 326.721 667.641 356.345 605.708 322.044L614.254 288.472L574.924 226.66L583.105 173.885Z" fill="#578F91"/>
<path d="M600.974 162.942L596.835 165.262C574.548 177.481 551.714 164.922 549.408 140.119L531.564 130.402L516.681 118.754L469.777 179.849L417.834 286.87L522.472 347.576L574.111 290.416L618.867 232.467L635.327 194.413C630.46 189.36 625.191 184.173 619.498 178.926C613.186 173.108 606.971 167.788 600.974 162.942Z" fill="#578F91"/>
<path d="M529.33 340.033C529.33 340.033 529.33 339.924 529.549 339.741L530.24 338.915L532.96 335.83C535.351 333.134 538.738 329.296 543.023 324.546L558.063 307.87L566.937 298.019L571.634 292.821L574.026 290.16L576.344 287.403C589.066 272.609 600.306 259.018 608.039 248.876L617.192 236.839C618.284 235.418 619.134 234.324 619.729 233.596L620.396 232.757C620.554 232.575 620.639 232.478 620.651 232.49C620.663 232.502 620.591 232.6 620.457 232.794L619.826 233.656L617.398 236.972C615.274 239.839 612.239 244.029 608.403 249.143C600.731 259.358 589.515 273.01 576.805 287.804L574.487 290.561L572.083 293.221L567.386 298.42L558.488 308.234C552.807 314.489 547.708 320.113 543.448 324.85L533.239 336.012L530.435 339.025L529.694 339.802L529.33 340.033Z" fill="#575757"/>
<path d="M413.464 31.5312L431.333 112.474L516.645 118.729L503.924 160.305L483.494 180.699C483.494 180.699 395.05 177.091 385.448 155.714C375.834 134.337 378.613 38.321 378.613 38.321L413.464 31.5312Z" fill="#578F91"/>
<path d="M485.812 168.832C485.787 169.196 485.727 169.561 485.642 169.913C485.472 170.703 485.265 171.699 484.986 172.937C484.391 175.561 483.566 179.363 482.583 184.063C480.628 193.465 478.225 206.51 476.319 221.036C474.425 235.563 473.418 248.815 472.92 258.398C472.665 263.196 472.495 267.083 472.398 269.767C472.398 271.03 472.289 272.087 472.265 272.852C472.265 273.217 472.228 273.581 472.143 273.933C472.095 273.569 472.07 273.204 472.07 272.84C472.07 272.038 472.07 271.018 472.07 269.755C472.07 267.071 472.07 263.184 472.301 258.362C472.653 248.754 473.563 235.49 475.445 220.915C477.326 206.34 479.851 193.295 481.976 183.869C483.044 179.241 483.966 175.391 484.658 172.804C484.998 171.65 485.277 170.593 485.484 169.816C485.557 169.476 485.666 169.148 485.812 168.832Z" fill="#575757"/>
<path d="M523.448 18.4258H1V357.305H523.448V18.4258Z" fill="white" stroke="#575757" stroke-miterlimit="10"/>
<path d="M70.38 192.49C70.16 191.72 69.654 190.51 69.214 189.608L67.498 190.114C67.894 191.06 68.378 192.314 68.554 193.106L70.38 192.49ZM72.624 193.172H65.034V194.8H72.624V193.172ZM72.008 196.032H65.562V197.616H72.008V196.032ZM70.226 203.666V206.856H67.366V203.666H70.226ZM71.986 202.038H65.628V209.43H67.366V208.506H71.986V202.038ZM65.584 200.586H72.03V199.002H65.584V200.586ZM75.77 204.898C75.814 204.436 75.836 203.952 75.836 203.534H82.018V204.898H75.77ZM82.018 200.784V202.126H75.836V200.784H82.018ZM83.932 199.222H73.988V203.182C73.988 204.898 73.856 207.054 72.558 208.638C72.954 208.858 73.702 209.584 73.988 209.958C74.868 208.946 75.352 207.626 75.572 206.284H82.018V207.736C82.018 207.978 81.93 208.066 81.644 208.066C81.38 208.088 80.478 208.088 79.554 208.044C79.796 208.506 80.038 209.21 80.126 209.694C81.49 209.716 82.48 209.694 83.096 209.408C83.734 209.144 83.932 208.66 83.932 207.758V199.222ZM79.818 196.56V195.328H84.438V193.876H79.818V192.754H84.856V191.258H79.818V189.564H77.838V191.258H73.108V192.754H77.838V193.876H73.636V195.328H77.838V196.56H72.822V198.1H85.098V196.56H79.818ZM101.664 207.472C100.916 207.472 100.784 207.362 100.784 206.68V200.74H106.658V198.76H98.056V194.712H105.03V192.754H98.056V189.542H95.988V192.754H92.556C92.842 191.94 93.084 191.126 93.304 190.378L91.214 189.982C90.73 192.204 89.652 195.152 88.178 196.956C88.684 197.154 89.498 197.594 89.982 197.924C90.664 197.022 91.258 195.9 91.786 194.712H95.988V198.76H87.408V200.74H92.864C92.49 204.018 91.588 206.68 87.078 208.066C87.54 208.506 88.112 209.32 88.354 209.87C93.348 208.044 94.536 204.81 95.02 200.74H98.716V206.68C98.716 208.748 99.244 209.408 101.422 209.408H104.282C106.152 209.408 106.702 208.506 106.9 205.14C106.372 204.986 105.492 204.656 105.052 204.304C104.964 207.032 104.832 207.472 104.106 207.472H101.664ZM128.152 198.298C126.986 196.78 124.5 194.624 122.542 193.172L120.914 194.25C121.706 194.866 122.564 195.592 123.378 196.34L114.16 196.648C115.37 195.504 116.646 194.096 117.79 192.578H128.108V190.686H109.76V192.578H115.15C113.962 194.14 112.686 195.482 112.18 195.878C111.608 196.45 111.124 196.802 110.684 196.89C110.904 197.44 111.234 198.474 111.344 198.892C112.246 198.562 113.544 198.54 125.094 198.034C125.622 198.584 126.04 199.09 126.37 199.53L128.152 198.298ZM120.012 207.032V203.424H126.92V201.532H120.012V198.98H117.878V201.532H111.19V203.424H117.878V207.032H109.232V208.946H128.834V207.032H120.012ZM203.742 201.532L200.442 202.412V193.964H203.434V192.028H195.36V193.964H198.418V202.94C197.164 203.27 195.998 203.556 195.074 203.732L195.58 205.866C197.912 205.206 201.058 204.326 204.006 203.468L203.742 201.532ZM214.83 194.382H209.11C209.154 192.93 209.176 191.434 209.176 189.894H207.108C207.108 191.456 207.108 192.93 207.064 194.382H203.676V196.34H206.976C206.668 201.532 205.524 205.712 201.036 208.132C201.542 208.506 202.202 209.232 202.488 209.782C207.394 206.966 208.67 202.17 209.022 196.34H212.784C212.52 203.688 212.212 206.57 211.618 207.23C211.376 207.516 211.134 207.582 210.738 207.582C210.232 207.582 209.066 207.56 207.812 207.472C208.186 208.022 208.428 208.902 208.472 209.474C209.682 209.54 210.914 209.54 211.64 209.452C212.41 209.364 212.916 209.144 213.422 208.484C214.258 207.472 214.5 204.282 214.83 195.35V194.382ZM234.938 199.046C235.73 199.046 236.566 199.024 236.984 198.892C236.896 198.452 236.83 197.682 236.786 197.154C236.324 197.242 235.444 197.286 234.894 197.286H231.198C230.494 197.286 230.34 197 230.34 196.208V194.184H236.016V192.424H230.34V189.586H228.316V196.164C228.316 198.276 228.91 199.046 231.154 199.046H234.938ZM220.484 199.046H224.576V202.148C223.828 201.554 222.53 200.652 221.54 200.036L220.484 201.004C221.518 201.708 222.904 202.72 223.608 203.358L224.576 202.39V203.204C222.992 203.996 221.452 204.788 220.308 205.294C220.44 204.326 220.484 203.38 220.484 202.522V199.046ZM226.512 197.33H218.592V202.5C218.592 204.37 218.482 206.702 217.25 208.396C217.646 208.638 218.416 209.386 218.68 209.782C219.56 208.638 220 207.164 220.242 205.668L220.814 207.12C221.958 206.438 223.256 205.602 224.576 204.766V207.692C224.576 207.956 224.488 208.044 224.202 208.044C223.916 208.066 223.014 208.066 222.09 208.022C222.354 208.462 222.64 209.188 222.728 209.65C224.092 209.65 225.06 209.628 225.698 209.364C226.314 209.078 226.512 208.616 226.512 207.692V197.33ZM223.52 191.764C223.894 192.358 224.29 193.062 224.686 193.744L220.748 194.03C221.76 192.908 222.816 191.544 223.674 190.18L221.584 189.564C220.704 191.302 219.296 193.04 218.878 193.502C218.438 193.964 218.064 194.294 217.712 194.382C217.932 194.888 218.24 195.834 218.35 196.252C218.922 196.032 219.758 195.9 225.522 195.372C225.808 195.9 226.028 196.406 226.16 196.802L227.92 196.054C227.392 194.756 226.182 192.688 225.17 191.148L223.52 191.764ZM231.484 207.78C230.516 207.78 230.34 207.648 230.34 206.9V203.996H236.214V202.17H230.34V199.75H228.316V206.922C228.316 208.968 228.91 209.562 231.22 209.562H234.784C236.698 209.562 237.248 208.792 237.49 205.91C236.918 205.822 236.104 205.492 235.686 205.162C235.598 207.384 235.422 207.78 234.608 207.78H231.484ZM252.186 196.648H248.754V194.734H252.186V196.648ZM252.186 200.146H248.754V198.232H252.186V200.146ZM252.186 203.732H248.754V201.73H252.186V203.732ZM246.928 205.426H258.984V203.732H253.99V201.73H257.884V200.146H253.99V198.232H257.862V196.648H253.99V194.734H258.566V193.084H254.87C254.584 192.182 253.946 190.862 253.374 189.85L251.658 190.356C252.142 191.192 252.626 192.226 252.912 193.084H249.062C249.524 192.138 249.942 191.148 250.294 190.18L248.578 189.674C247.632 192.468 246.07 195.218 244.332 197.022C244.684 197.418 245.234 198.298 245.41 198.65C245.938 198.1 246.422 197.462 246.928 196.78V205.426ZM244.398 192.864C243.782 191.984 242.572 190.598 241.56 189.542L240.02 190.488C241.01 191.566 242.242 193.084 242.836 193.986L244.398 192.864ZM244.222 199.926L243.892 199.97H241.802C243.012 198.474 244.53 196.318 245.388 195.086L244.112 194.492L243.848 194.602H239.338V196.252H242.55C241.67 197.528 240.526 199.046 240.064 199.486C239.69 199.926 239.316 200.08 238.986 200.168C239.184 200.542 239.58 201.444 239.69 201.906C239.866 201.73 240.46 201.576 241.01 201.576H243.166C242.418 204.81 240.944 207.12 238.854 208.396C239.272 208.682 239.932 209.386 240.196 209.782C241.296 209.034 242.264 208.044 243.078 206.702C244.772 208.968 247.39 209.408 251.548 209.408C254.012 209.408 256.784 209.342 258.918 209.21C259.006 208.66 259.27 207.736 259.578 207.296C257.246 207.516 253.88 207.626 251.57 207.626C247.83 207.626 245.278 207.296 243.87 205.14C244.464 203.754 244.926 202.148 245.234 200.3L244.222 199.926ZM280.588 190.818H269.918V192.776H280.588V190.818ZM266.046 189.52C264.968 191.104 262.856 193.062 261.03 194.25C261.404 194.646 261.954 195.438 262.196 195.9C264.22 194.47 266.508 192.292 268.004 190.334L266.046 189.52ZM266.904 194.228C265.43 196.714 263.054 199.222 260.81 200.828C261.228 201.224 261.954 202.126 262.218 202.566C262.922 201.994 263.67 201.312 264.396 200.586V209.782H266.442V198.32C267.344 197.22 268.158 196.076 268.84 194.954L266.904 194.228ZM281.204 196.824H268.994V198.782H275.946V207.23C275.946 207.538 275.814 207.648 275.396 207.648C275 207.67 273.526 207.67 272.118 207.626C272.404 208.22 272.69 209.078 272.778 209.672C274.824 209.672 276.122 209.65 276.936 209.342C277.772 209.012 278.036 208.418 278.036 207.252V198.782H281.204V196.824ZM299.64 193.392H295.9V191.698H299.64V193.392ZM301.576 190.378H294.052V194.69H301.576V190.378ZM290.554 193.392H286.88V191.698H290.554V193.392ZM292.512 190.378H285.054V194.69H292.512V190.378ZM287.716 201.95V200.366H292.116V201.95H287.716ZM287.716 197.308H292.116V198.848H287.716V197.308ZM298.892 198.848H294.206V197.308H298.892V198.848ZM298.892 201.95H294.206V200.366H298.892V201.95ZM302.962 205.008H294.206V203.578H300.982V195.68H285.714V203.578H292.116V205.008H283.58V206.79H292.116V209.716H294.206V206.79H302.962V205.008ZM305.272 198.298V200.542H325.292V198.298H305.272ZM338.492 192.204H341.88V195.218C341.88 197.088 342.254 197.814 344.058 197.814H345.708C346.192 197.814 346.676 197.792 346.984 197.682C346.918 197.22 346.852 196.494 346.83 195.966C346.522 196.054 346.016 196.098 345.686 196.098H344.234C343.86 196.098 343.816 195.856 343.816 195.24V190.312H336.578V192.688C336.578 194.228 336.226 195.922 333.718 197.176C334.092 197.462 334.818 198.276 335.06 198.672C337.876 197.198 338.492 194.8 338.492 192.754V192.204ZM333.982 199.068L332.112 199.574V195.746H334.664V193.854H332.112V189.564H330.132V193.854H327.316V195.746H330.132V200.102C328.966 200.41 327.91 200.674 327.03 200.872L327.58 202.83L330.132 202.126V207.296C330.132 207.626 330 207.714 329.692 207.736C329.428 207.736 328.504 207.736 327.536 207.714C327.778 208.22 328.064 209.056 328.13 209.562C329.648 209.562 330.616 209.518 331.254 209.188C331.892 208.902 332.112 208.374 332.112 207.318V201.554C332.816 201.378 333.542 201.158 334.246 200.938L333.982 199.068ZM343.2 201.004C342.43 202.478 341.396 203.71 340.164 204.722C338.866 203.666 337.832 202.434 337.084 201.004H343.2ZM344.586 199.024L344.234 199.09H334.554V201.004H335.654L335.082 201.202C335.962 203.006 337.062 204.568 338.448 205.888C336.798 206.856 334.906 207.516 332.882 207.912C333.278 208.352 333.74 209.21 333.894 209.782C336.16 209.21 338.272 208.396 340.12 207.208C341.792 208.374 343.772 209.232 346.038 209.782C346.324 209.21 346.896 208.33 347.336 207.89C345.268 207.494 343.42 206.812 341.858 205.888C343.64 204.304 345.07 202.258 345.906 199.574L344.586 199.024ZM355.63 192.402C355.432 191.61 354.948 190.4 354.508 189.476L352.704 189.96C353.1 190.884 353.562 192.16 353.76 192.952L355.63 192.402ZM362.142 195.46H365.728C365.354 197.924 364.804 200.014 363.946 201.84C363.11 199.992 362.516 197.902 362.076 195.614L362.142 195.46ZM369.358 195.46V193.568H362.736C363.044 192.38 363.33 191.126 363.572 189.872L361.482 189.542C360.866 193.216 359.744 196.758 358.028 199.002L358.05 198.342C358.072 198.078 358.072 197.462 358.072 197.462H353.584V194.888H358.908V192.974H349.272V194.888H351.67V199.288C351.67 202.258 351.34 205.58 348.81 208.352C349.316 208.704 349.976 209.254 350.328 209.694C353.144 206.636 353.584 202.918 353.584 199.332H356.092C355.982 204.964 355.828 206.988 355.476 207.45C355.344 207.692 355.146 207.758 354.838 207.758C354.486 207.758 353.76 207.758 352.968 207.67C353.232 208.198 353.43 208.99 353.496 209.54C354.398 209.584 355.322 209.584 355.85 209.496C356.466 209.408 356.84 209.21 357.214 208.704C357.742 207.978 357.896 205.668 358.028 199.354C358.512 199.772 359.15 200.454 359.436 200.828C359.942 200.146 360.426 199.376 360.844 198.518C361.35 200.498 361.966 202.324 362.78 203.908C361.57 205.668 359.92 207.032 357.764 208.022C358.16 208.418 358.732 209.342 358.93 209.804C360.976 208.748 362.604 207.428 363.902 205.8C365.024 207.428 366.41 208.748 368.192 209.672C368.478 209.1 369.138 208.308 369.578 207.912C367.73 207.054 366.256 205.668 365.112 203.93C366.388 201.62 367.224 198.848 367.774 195.46H369.358ZM380.116 202.082C379.852 200.938 379.148 199.09 378.466 197.682L376.926 198.232C377.19 198.804 377.41 199.42 377.652 200.058L374.55 200.454C376.31 198.518 378.07 196.164 379.434 193.766L377.696 192.688C377.234 193.656 376.64 194.646 376.068 195.548L373.956 195.724C375.166 194.118 376.354 192.138 377.278 190.202L375.43 189.41C374.528 191.786 372.966 194.272 372.482 194.91C372.02 195.548 371.602 196.01 371.228 196.076C371.448 196.582 371.734 197.506 371.844 197.902C372.174 197.748 372.658 197.616 374.814 197.374C374.066 198.408 373.428 199.2 373.098 199.552C372.372 200.344 371.866 200.872 371.338 200.982C371.558 201.488 371.888 202.478 371.998 202.874C372.46 202.61 373.23 202.456 378.18 201.642C378.312 202.06 378.422 202.456 378.488 202.764L380.116 202.082ZM372.284 203.688C372.064 205.47 371.712 207.406 371.184 208.726C371.624 208.858 372.46 209.122 372.834 209.32C373.34 207.978 373.78 205.91 374.022 203.996L372.284 203.688ZM374.792 203.908C375.056 205.47 375.298 207.494 375.342 208.836L377.08 208.396C376.992 207.054 376.728 205.074 376.442 203.534L374.792 203.908ZM377.344 203.446C377.806 204.788 378.356 206.57 378.554 207.714L380.204 207.12C379.94 205.998 379.39 204.282 378.884 202.94L377.344 203.446ZM384.406 207.494C383.306 207.494 383.108 207.34 383.108 206.46V199.662H387.97V200.784H390.06V190.642H380.49V192.754H387.97V197.66H380.974V206.46C380.974 208.792 381.722 209.386 384.164 209.386H388.256C390.544 209.386 391.094 208.396 391.358 204.964C390.786 204.81 389.906 204.458 389.422 204.106C389.29 206.944 389.114 207.494 388.102 207.494H384.406ZM404.932 203.996C403.502 204.986 402.05 205.976 401.016 206.614L400.972 205.932L398.2 206.394V200.608H400.84V198.87H398.2V196.78H399.938V195.064H395.296C396.066 194.184 396.836 193.194 397.474 192.16C398.684 193.37 400.004 194.734 400.752 195.614L401.918 194.294C401.126 193.37 399.564 191.918 398.288 190.708C398.398 190.51 398.486 190.29 398.596 190.092L397.034 189.498C396.066 191.566 394.416 193.524 392.766 194.822C393.03 195.306 393.426 196.362 393.514 196.78C393.866 196.472 394.262 196.142 394.636 195.746V196.78H396.528V198.87H393.426V200.608H396.528V206.658C395.208 206.878 393.998 207.076 393.052 207.208L393.514 209.056C395.604 208.66 398.398 208.11 401.06 207.56L401.038 207.186L401.808 208.308C402.952 207.494 404.316 206.482 405.548 205.47L404.932 203.996ZM393.558 201.796C393.866 203.05 394.196 204.678 394.306 205.756L395.78 205.36C395.626 204.304 395.274 202.698 394.944 201.466L393.558 201.796ZM400.048 205.47C400.378 204.48 400.73 202.94 401.104 201.642L399.718 201.268C399.564 202.412 399.212 204.106 398.948 205.14L400.048 205.47ZM401.61 201.004C402.446 201.862 403.458 203.094 403.92 203.842L405.35 202.742C404.844 202.016 403.81 200.85 402.974 200.036L401.61 201.004ZM404.712 194.69C404.866 194.162 405.02 193.568 405.174 192.996H409.288C409.2 193.502 409.09 194.096 408.958 194.69H404.712ZM413.248 199.42V197.638H410.256C410.718 195.68 411.18 193.37 411.466 191.522L410.058 191.324L409.728 191.412H405.57C405.702 190.84 405.834 190.268 405.944 189.74L404.052 189.52C403.59 191.676 402.864 194.514 402.314 196.274H408.628C408.54 196.758 408.452 197.198 408.342 197.638H401.17V199.42H406.186V207.692C406.186 207.912 406.12 207.978 405.856 208C405.636 208 404.822 208 404.03 207.978C404.272 208.462 404.536 209.232 404.58 209.738C405.834 209.738 406.692 209.694 407.308 209.408C407.924 209.144 408.078 208.638 408.078 207.714V199.42H413.248ZM410.014 203.908C410.872 203.204 411.994 202.126 412.918 201.136L411.532 199.97C410.872 200.894 409.706 202.126 408.892 202.874L410.014 203.908ZM408.43 205.14C409.706 206.064 411.444 207.45 412.236 208.308L413.38 206.9C412.544 206.086 410.806 204.788 409.53 203.908L408.43 205.14ZM421.938 196.076C422.312 195.262 422.73 193.92 423.148 192.842L422.026 192.424C421.85 193.392 421.432 194.866 421.124 195.768L421.938 196.076ZM417.67 192.732C418 193.766 418.264 195.108 418.308 195.988L419.298 195.68C419.232 194.844 418.924 193.502 418.594 192.49L417.67 192.732ZM417.494 191.72H419.628V196.78H417.494V191.72ZM423.192 196.78H420.948V191.72H423.192V196.78ZM425.172 202.478H421.212V201.048H424.864V199.442H421.212V198.21H424.798V190.29H415.932V198.21H419.408V199.442H415.866V201.048H419.408V202.478H415.47V204.084H425.172V202.478ZM416.46 209.452C417.098 208.396 417.538 206.702 417.78 205.338L416.416 204.832C416.174 206.152 415.668 207.824 415.008 208.858L416.46 209.452ZM418.418 205.36C418.638 206.548 418.748 208.132 418.682 209.166L420.046 208.99C420.068 207.978 419.958 206.394 419.716 205.206L418.418 205.36ZM420.64 205.338C421.058 206.46 421.432 207.934 421.52 208.924L422.84 208.616C422.73 207.67 422.312 206.218 421.894 205.096L420.64 205.338ZM422.84 205.294C423.478 206.372 424.05 207.824 424.27 208.77L425.612 208.264C425.37 207.318 424.776 205.888 424.116 204.832L422.84 205.294ZM432.586 206.9H427.702V201.73H432.586V206.9ZM435.336 196.098V194.206H430.87V189.564H428.89V199.882H425.854V209.716H427.702V208.77H432.586V209.628H434.522V199.882H430.87V196.098H435.336ZM454.74 191.676V192.93H452.078V191.676H454.74ZM455.356 197C455.972 197 456.588 196.978 456.918 196.868C456.874 196.494 456.808 195.878 456.764 195.438C456.412 195.526 455.73 195.57 455.312 195.57H452.65C452.166 195.57 452.078 195.35 452.078 194.756V194.272H456.478V190.356H450.45V194.712C450.45 196.362 450.868 197 452.562 197H455.356ZM447.722 191.654V192.908H445.148V191.654H447.722ZM445.148 195.658V194.25H449.46V190.334H443.542V194.712C443.542 195.526 443.212 195.878 442.926 196.01C443.146 196.384 443.498 197.154 443.608 197.572C443.982 197.374 444.686 197.22 449.35 196.428C449.372 196.076 449.46 195.438 449.57 194.976L445.148 195.658ZM448.47 200.278H451.44V202.016H448.47V200.278ZM457.05 203.556V202.016H453.332V200.278H456.28V198.738H453.332V197.352H451.44V198.738H448.47V197.352H446.6V198.738H443.718V200.278H446.6V202.016H442.86V203.556H457.05ZM456.654 206.02C455.62 205.25 453.86 204.26 452.298 203.556L450.956 204.458C452.43 205.184 453.948 206.174 454.828 206.9L456.654 206.02ZM447.304 203.578C446.358 204.414 444.752 205.206 443.212 205.756C443.696 206.02 444.4 206.636 444.774 206.988C446.226 206.328 448.008 205.272 449.13 204.216L447.304 203.578ZM442.046 192.93C441.452 192.072 440.22 190.686 439.208 189.63L437.69 190.576C438.658 191.654 439.89 193.15 440.506 194.074L442.046 192.93ZM441.804 199.926L441.474 199.97H439.736C440.748 198.474 442.002 196.252 442.75 195.02L441.452 194.514L441.188 194.624H437.36V196.274H440.088C439.362 197.572 438.46 199.09 438.086 199.508C437.734 199.948 437.404 200.08 437.074 200.19C437.294 200.542 437.646 201.444 437.756 201.906C437.932 201.73 438.548 201.576 439.032 201.576H440.77C440.11 204.766 438.79 207.076 436.92 208.396C437.338 208.682 437.976 209.364 438.262 209.782C439.274 208.99 440.176 207.956 440.902 206.592C442.618 208.968 445.28 209.408 449.548 209.408C452.012 209.408 454.784 209.342 456.94 209.21C457.05 208.66 457.292 207.736 457.6 207.296C455.268 207.516 451.902 207.626 449.57 207.626C445.654 207.626 442.992 207.274 441.672 204.898C442.156 203.556 442.552 202.016 442.794 200.278L441.804 199.926Z" fill="#575757"/>
<path d="M149.414 198.738L147.412 199.332V195.702H149.612V193.81H147.412V189.564H145.542V193.81H142.99V195.702H145.542V199.882C144.464 200.19 143.474 200.476 142.682 200.674L143.144 202.654C143.87 202.412 144.684 202.17 145.542 201.906V207.472C145.542 207.78 145.432 207.846 145.146 207.846C144.904 207.868 144.09 207.868 143.21 207.846C143.474 208.374 143.716 209.254 143.76 209.738C145.168 209.738 146.026 209.672 146.62 209.364C147.214 209.034 147.412 208.484 147.412 207.472V201.334C148.16 201.092 148.93 200.85 149.678 200.608L149.414 198.738ZM153.352 193.194H149.92V195.042H153.352V197.748H150.096V199.574H153.352C153.33 200.432 153.264 201.268 153.154 202.082C151.526 202.61 149.964 203.094 148.798 203.402L149.59 205.162C150.558 204.81 151.636 204.414 152.714 203.996C152.164 205.668 151.152 207.164 149.348 208.374C149.788 208.682 150.47 209.342 150.8 209.738C154.694 207.054 155.178 203.094 155.178 198.738V189.52H153.352V193.194ZM163.098 202.478H159.072V199.574H162.482V197.748H159.072V195.042H162.724V193.194H159.072V189.52H157.136V209.694H159.072V204.348H163.098V202.478ZM181.908 196.01H175.836V192.314H181.908V196.01ZM183.888 190.576H173.944V197.748H183.888V190.576ZM173.372 201.576C172.976 201.07 171.106 199.156 170.468 198.606V197.594H173.042V195.658H170.468V192.248C171.48 192.006 172.448 191.72 173.284 191.39L171.876 189.828C170.204 190.554 167.388 191.192 164.924 191.588C165.144 192.028 165.43 192.732 165.518 193.172C166.464 193.04 167.476 192.886 168.488 192.688V195.658H165.1V197.594H168.224C167.388 199.926 165.98 202.544 164.682 204.04C164.99 204.524 165.474 205.36 165.672 205.932C166.662 204.7 167.674 202.808 168.488 200.806V209.694H170.468V200.63C171.128 201.532 171.854 202.566 172.184 203.182L173.372 201.576ZM179.862 207.406V204.876H184.064V203.116H179.862V200.652C181.49 200.454 183.052 200.19 184.306 199.86L183.052 198.342C180.72 198.958 176.65 199.376 173.24 199.596C173.438 200.014 173.68 200.718 173.724 201.136C175.022 201.092 176.43 201.004 177.838 200.872V203.116H173.746V204.876H177.838V207.406H172.58V209.232H184.966V207.406H179.862Z" fill="#71AFB6"/>
<path d="M522.376 19.0088H1.21484V70.278H522.376V19.0088Z" fill="#71AFB6"/>
<path opacity="0.3" d="M414.072 17.94C403.935 15.2436 391.347 17.1019 381.224 14.4055C379.755 13.8346 378.128 13.786 376.623 14.2719C374.911 15.0492 374.195 17.0776 373.904 18.9482C373.345 24.2075 375.033 29.4546 378.553 33.39C382.085 37.2768 386.686 40.0218 391.784 41.2729C395.827 42.3418 400.282 42.609 404.105 40.9692C410.818 38.0784 415.115 25.1792 414.072 17.94Z" fill="black"/>
<path opacity="0.3" d="M526.587 343.033L523.055 346.944V123.758L526.587 126.515V343.033Z" fill="black"/>
<path d="M605.708 322.032C605.696 321.935 605.696 321.838 605.708 321.741C605.708 321.522 605.818 321.267 605.89 320.927C606.072 320.15 606.315 319.129 606.619 317.842C607.299 315.109 608.27 311.234 609.447 306.473C611.911 296.853 615.225 283.65 619 269.051L619.085 268.735L619.17 268.419L619.474 268.528C626.648 270.848 633.239 273.63 639.212 276.193C645.184 278.755 650.501 281.209 654.968 283.237L665.529 288.084L668.394 289.42L669.134 289.772L669.377 289.906C669.377 289.906 669.28 289.906 669.11 289.821L668.345 289.517C667.678 289.25 666.682 288.849 665.42 288.302C662.895 287.221 659.265 285.618 654.786 283.675C650.307 281.731 644.954 279.302 638.981 276.727C633.009 274.152 626.417 271.419 619.316 269.136L619.692 268.917L619.607 269.233C615.808 283.808 612.373 297.011 609.884 306.619L606.861 317.927L606.012 321C605.903 321.328 605.842 321.583 605.769 321.802L605.708 322.032Z" fill="#575757"/>
<path d="M374.037 31.8105C371.913 31.8105 370.189 30.0857 370.189 27.9601V9.80152C370.189 7.67593 371.913 5.95117 374.037 5.95117C376.162 5.95117 377.885 7.67593 377.885 9.80152V27.9601C377.873 30.0857 376.162 31.8105 374.037 31.8105Z" fill="#F1C0B4"/>
<path d="M382.752 34.7989C380.058 34.7989 377.885 32.6126 377.885 29.9283V6.92337C377.885 4.22691 380.07 2.05273 382.752 2.05273C385.447 2.05273 387.62 4.23905 387.62 6.92337V29.9283C387.62 32.6248 385.447 34.7989 382.752 34.7989Z" fill="#F1C0B4"/>
<path d="M392.501 38.212C389.806 38.212 387.633 36.0257 387.633 33.3414V4.87063C387.633 2.17417 389.818 0 392.501 0C395.195 0 397.368 2.18632 397.368 4.87063V33.3292C397.368 36.0257 395.195 38.212 392.501 38.212Z" fill="#F1C0B4"/>
<path d="M402.249 34.7989C399.554 34.7989 397.381 32.6126 397.381 29.9283V6.92337C397.381 4.22691 399.566 2.05273 402.249 2.05273C404.943 2.05273 407.116 4.23905 407.116 6.92337V29.9283C407.116 32.6248 404.931 34.7989 402.249 34.7989Z" fill="#F1C0B4"/>
<path d="M416.863 17.8311H407.115V9.54739C407.115 6.85093 409.3 4.67676 411.983 4.67676C414.678 4.67676 416.851 6.86308 416.851 9.54739V17.8311H416.863Z" fill="#F1C0B4"/>
<path d="M378.03 9.58301H377.727V28.4339H378.03V9.58301Z" fill="#EBA393"/>
<path d="M387.778 6.79004H387.475V29.9893H387.778V6.79004Z" fill="#EBA393"/>
<path d="M397.598 6.79004H397.295V29.9893H397.598V6.79004Z" fill="#EBA393"/>
<path d="M605.344 268.954C605.344 268.954 578.444 247.686 573.516 244.054C568.587 240.423 536.723 227.317 535.569 226.503C535.569 226.503 525.506 222.434 524.256 225.118C523.006 227.803 526.283 230.876 526.574 231.191C526.829 231.471 546.895 243.653 551.083 246.192L548.145 249.241C541.262 258.022 547.66 273.533 557.856 278.088H557.869C564.266 281.307 583.749 288.728 583.749 288.728L606.849 317.66L617.738 276.084C617.811 275.987 605.344 268.954 605.344 268.954Z" fill="#F1C0B4"/>
</g>
<defs>
<clipPath id="clip0_4073_34578">
<rect width="685" height="357.913" fill="white"/>
</clipPath>
</defs>
</svg>
