<svg width="39" height="48" viewBox="0 0 39 48" fill="none" xmlns="http://www.w3.org/2000/svg">
<path d="M37.4209 45.7843H33.9705V36.0998C33.9705 35.2125 33.6278 34.3816 32.9988 33.7573L24.1593 24.9131C23.9762 24.73 23.8776 24.4859 23.8776 24.2277C23.8776 23.9695 23.9762 23.7254 24.1593 23.5423L32.6185 15.083C33.2429 14.4587 33.5903 13.6231 33.5903 12.7405V2.21105H37.4209C38.0311 2.21105 38.5288 1.71345 38.5288 1.10318C38.5288 0.49291 38.0311 0 37.4209 0H1.90792C1.29765 0 0.800049 0.497604 0.800049 1.10787C0.800049 1.71814 1.29765 2.21575 1.90792 2.21575H5.73853V12.7452C5.73853 13.6325 6.08122 14.4634 6.71027 15.0877L15.1695 23.547C15.5451 23.9225 15.5451 24.5375 15.1695 24.9178L6.32533 33.7573C5.70098 34.3816 5.35359 35.2172 5.35359 36.0998V45.7843H1.90792C1.29765 45.7843 0.800049 46.2819 0.800049 46.8921C0.800049 47.5024 1.29765 48 1.90792 48H37.4209C38.0311 48 38.5288 47.5024 38.5288 46.8921C38.5288 46.2819 38.0311 45.7843 37.4209 45.7843ZM7.70548 36.0998C7.70548 35.8416 7.80406 35.5975 7.98714 35.4144L16.8266 26.5749C18.1176 25.2839 18.1176 23.1808 16.8266 21.8852L8.36738 13.4259C8.189 13.2475 8.08572 12.994 8.08572 12.7405V2.21105H31.2431V12.7405C31.2431 12.9987 31.1445 13.2428 30.9614 13.4259L22.4975 21.8852C21.8731 22.5095 21.5257 23.3451 21.5257 24.2277C21.5257 25.1149 21.8684 25.9458 22.4975 26.5702L31.337 35.4097C31.52 35.5928 31.6186 35.8369 31.6186 36.0951V45.7796H7.70548V36.0998Z" fill="white"/>
<path d="M20.5766 28.5504C20.0556 28.0293 19.2106 28.0293 18.6942 28.5551L10.0378 37.2584C9.78897 37.5072 9.65283 37.8452 9.65283 38.1973V42.5631C9.65283 43.3001 10.249 43.8916 10.9813 43.8916H28.3411C29.0782 43.8916 29.6697 43.2954 29.6697 42.5631V38.1973C29.6697 37.8452 29.5288 37.5072 29.28 37.2584L20.5766 28.5504Z" fill="white"/>
</svg>
