<svg width="15" height="18" viewBox="0 0 15 18" fill="none" xmlns="http://www.w3.org/2000/svg">
<path fill-rule="evenodd" clip-rule="evenodd" d="M13 1.5H2C1.72386 1.5 1.5 1.72386 1.5 2V16C1.5 16.2761 1.72386 16.5 2 16.5H13C13.2761 16.5 13.5 16.2761 13.5 16V2C13.5 1.72386 13.2761 1.5 13 1.5ZM2 0C0.895431 0 0 0.89543 0 2V16C0 17.1046 0.89543 18 2 18H13C14.1046 18 15 17.1046 15 16V2C15 0.895431 14.1046 0 13 0H2Z" fill="white"/>
<path fill-rule="evenodd" clip-rule="evenodd" d="M3.25 5C3.25 4.58579 3.58579 4.25 4 4.25H11C11.4142 4.25 11.75 4.58579 11.75 5C11.75 5.41421 11.4142 5.75 11 5.75H4C3.58579 5.75 3.25 5.41421 3.25 5ZM3.25 9C3.25 8.58579 3.58579 8.25 4 8.25H9.83333C10.2475 8.25 10.5833 8.58579 10.5833 9C10.5833 9.41421 10.2475 9.75 9.83333 9.75H4C3.58579 9.75 3.25 9.41421 3.25 9ZM3.25 13C3.25 12.5858 3.58579 12.25 4 12.25H7.88889C8.3031 12.25 8.63889 12.5858 8.63889 13C8.63889 13.4142 8.3031 13.75 7.88889 13.75H4C3.58579 13.75 3.25 13.4142 3.25 13Z" fill="white"/>
</svg>
