<svg width="15" height="12" viewBox="0 0 15 12" fill="none" xmlns="http://www.w3.org/2000/svg">
<path d="M13.6364 0H1.36364C0.613636 0 0 0.635294 0 1.41176V10.5882C0 11.3647 0.613636 12 1.36364 12H13.6364C14.3864 12 15 11.3647 15 10.5882V1.41176C15 0.635294 14.3864 0 13.6364 0ZM1.36364 10.5882V1.41176H6.81818V10.5882H1.36364ZM13.6364 10.5882H8.18182V1.41176H13.6364V10.5882ZM8.86364 3.88235H12.9545V4.94118H8.86364V3.88235ZM8.86364 5.64706H12.9545V6.70588H8.86364V5.64706ZM8.86364 7.41177H12.9545V8.47059H8.86364V7.41177Z" fill="#C4C4C4"/>
</svg>
