<svg width="172" height="58" viewBox="0 0 172 58" fill="none" xmlns="http://www.w3.org/2000/svg">
<path d="M68.4395 4.73242V11.0312H67.5312V3.7168H68.3613L68.4395 4.73242ZM71.999 6.31445V6.41699C71.999 6.80111 71.9535 7.15755 71.8623 7.48633C71.7712 7.81185 71.6377 8.09505 71.4619 8.33594C71.2894 8.57682 71.0762 8.764 70.8223 8.89746C70.5684 9.03092 70.277 9.09766 69.9482 9.09766C69.613 9.09766 69.3167 9.04232 69.0596 8.93164C68.8024 8.82096 68.5843 8.65983 68.4053 8.44824C68.2262 8.23665 68.083 7.98275 67.9756 7.68652C67.8714 7.3903 67.7998 7.05664 67.7607 6.68555V6.13867C67.7998 5.74805 67.873 5.39811 67.9805 5.08887C68.0879 4.77962 68.2295 4.51595 68.4053 4.29785C68.5843 4.0765 68.8008 3.90885 69.0547 3.79492C69.3086 3.67773 69.6016 3.61914 69.9336 3.61914C70.2656 3.61914 70.5602 3.68424 70.8174 3.81445C71.0745 3.94141 71.291 4.1237 71.4668 4.36133C71.6426 4.59896 71.7744 4.88379 71.8623 5.21582C71.9535 5.5446 71.999 5.91081 71.999 6.31445ZM71.0908 6.41699V6.31445C71.0908 6.05078 71.0632 5.80339 71.0078 5.57227C70.9525 5.33789 70.8662 5.13281 70.749 4.95703C70.6351 4.77799 70.4886 4.63802 70.3096 4.53711C70.1305 4.43294 69.9173 4.38086 69.6699 4.38086C69.4421 4.38086 69.2435 4.41992 69.0742 4.49805C68.9082 4.57617 68.7666 4.68197 68.6494 4.81543C68.5322 4.94564 68.4362 5.09538 68.3613 5.26465C68.2897 5.43066 68.236 5.60319 68.2002 5.78223V7.04688C68.2653 7.27474 68.3564 7.48958 68.4736 7.69141C68.5908 7.88997 68.7471 8.05111 68.9424 8.1748C69.1377 8.29525 69.3835 8.35547 69.6797 8.35547C69.9238 8.35547 70.1338 8.30501 70.3096 8.2041C70.4886 8.09993 70.6351 7.95833 70.749 7.7793C70.8662 7.60026 70.9525 7.39518 71.0078 7.16406C71.0632 6.92969 71.0908 6.68066 71.0908 6.41699ZM72.9121 6.41699V6.30469C72.9121 5.92383 72.9674 5.57064 73.0781 5.24512C73.1888 4.91634 73.3483 4.63151 73.5566 4.39062C73.765 4.14648 74.0173 3.95768 74.3135 3.82422C74.6097 3.6875 74.9417 3.61914 75.3096 3.61914C75.6807 3.61914 76.0143 3.6875 76.3105 3.82422C76.61 3.95768 76.8639 4.14648 77.0723 4.39062C77.2839 4.63151 77.445 4.91634 77.5557 5.24512C77.6663 5.57064 77.7217 5.92383 77.7217 6.30469V6.41699C77.7217 6.79785 77.6663 7.15104 77.5557 7.47656C77.445 7.80208 77.2839 8.08691 77.0723 8.33105C76.8639 8.57194 76.6117 8.76074 76.3154 8.89746C76.0225 9.03092 75.6904 9.09766 75.3193 9.09766C74.9482 9.09766 74.6146 9.03092 74.3184 8.89746C74.0221 8.76074 73.7682 8.57194 73.5566 8.33105C73.3483 8.08691 73.1888 7.80208 73.0781 7.47656C72.9674 7.15104 72.9121 6.79785 72.9121 6.41699ZM73.8154 6.30469V6.41699C73.8154 6.68066 73.8464 6.92969 73.9082 7.16406C73.9701 7.39518 74.0628 7.60026 74.1865 7.7793C74.3135 7.95833 74.4714 8.09993 74.6602 8.2041C74.849 8.30501 75.0687 8.35547 75.3193 8.35547C75.5667 8.35547 75.7832 8.30501 75.9688 8.2041C76.1576 8.09993 76.3138 7.95833 76.4375 7.7793C76.5612 7.60026 76.654 7.39518 76.7158 7.16406C76.7809 6.92969 76.8135 6.68066 76.8135 6.41699V6.30469C76.8135 6.04427 76.7809 5.7985 76.7158 5.56738C76.654 5.33301 76.5596 5.1263 76.4326 4.94727C76.3089 4.76497 76.1527 4.62174 75.9639 4.51758C75.7783 4.41341 75.5602 4.36133 75.3096 4.36133C75.0622 4.36133 74.8441 4.41341 74.6553 4.51758C74.4697 4.62174 74.3135 4.76497 74.1865 4.94727C74.0628 5.1263 73.9701 5.33301 73.9082 5.56738C73.8464 5.7985 73.8154 6.04427 73.8154 6.30469ZM80.1924 8.0625L81.5498 3.7168H82.1455L82.0283 4.58105L80.6465 9H80.0654L80.1924 8.0625ZM79.2793 3.7168L80.4365 8.11133L80.5195 9H79.9092L78.376 3.7168H79.2793ZM83.4443 8.07715L84.5479 3.7168H85.4463L83.9131 9H83.3076L83.4443 8.07715ZM82.2773 3.7168L83.6055 7.98926L83.7568 9H83.1807L81.7598 4.57129L81.6426 3.7168H82.2773ZM88.5664 9.09766C88.1986 9.09766 87.8649 9.03581 87.5654 8.91211C87.2692 8.78516 87.0137 8.60775 86.7988 8.37988C86.5872 8.15202 86.4245 7.88184 86.3105 7.56934C86.1966 7.25684 86.1396 6.91504 86.1396 6.54395V6.33887C86.1396 5.90918 86.2031 5.52669 86.3301 5.19141C86.457 4.85286 86.6296 4.56641 86.8477 4.33203C87.0658 4.09766 87.3132 3.92025 87.5898 3.7998C87.8665 3.67936 88.153 3.61914 88.4492 3.61914C88.8268 3.61914 89.1523 3.68424 89.4258 3.81445C89.7025 3.94466 89.9287 4.12695 90.1045 4.36133C90.2803 4.59245 90.4105 4.86589 90.4951 5.18164C90.5798 5.49414 90.6221 5.83594 90.6221 6.20703V6.6123H86.6768V5.875H89.7188V5.80664C89.7057 5.57227 89.6569 5.3444 89.5723 5.12305C89.4909 4.90169 89.3607 4.7194 89.1816 4.57617C89.0026 4.43294 88.7585 4.36133 88.4492 4.36133C88.2441 4.36133 88.0553 4.40527 87.8828 4.49316C87.7103 4.5778 87.5622 4.70475 87.4385 4.87402C87.3148 5.04329 87.2188 5.25 87.1504 5.49414C87.082 5.73828 87.0479 6.01986 87.0479 6.33887V6.54395C87.0479 6.7946 87.082 7.0306 87.1504 7.25195C87.222 7.47005 87.3245 7.66211 87.458 7.82812C87.5947 7.99414 87.7591 8.12435 87.9512 8.21875C88.1465 8.31315 88.3678 8.36035 88.6152 8.36035C88.9342 8.36035 89.2044 8.29525 89.4258 8.16504C89.6471 8.03483 89.8408 7.86068 90.0068 7.64258L90.5537 8.07715C90.4398 8.24967 90.2949 8.41406 90.1191 8.57031C89.9434 8.72656 89.7269 8.85352 89.4697 8.95117C89.2158 9.04883 88.9147 9.09766 88.5664 9.09766ZM92.5801 4.54688V9H91.6768V3.7168H92.5557L92.5801 4.54688ZM94.2305 3.6875L94.2256 4.52734C94.1507 4.51107 94.0791 4.5013 94.0107 4.49805C93.9456 4.49154 93.8708 4.48828 93.7861 4.48828C93.5778 4.48828 93.3939 4.52083 93.2344 4.58594C93.0749 4.65104 92.9398 4.74219 92.8291 4.85938C92.7184 4.97656 92.6305 5.11654 92.5654 5.2793C92.5036 5.4388 92.4629 5.61458 92.4434 5.80664L92.1895 5.95312C92.1895 5.63411 92.2204 5.33464 92.2822 5.05469C92.3473 4.77474 92.4466 4.52734 92.5801 4.3125C92.7135 4.0944 92.8828 3.92513 93.0879 3.80469C93.2962 3.68099 93.5436 3.61914 93.8301 3.61914C93.8952 3.61914 93.9701 3.62728 94.0547 3.64355C94.1393 3.65658 94.1979 3.67122 94.2305 3.6875ZM97.1602 9.09766C96.7923 9.09766 96.4587 9.03581 96.1592 8.91211C95.863 8.78516 95.6074 8.60775 95.3926 8.37988C95.181 8.15202 95.0182 7.88184 94.9043 7.56934C94.7904 7.25684 94.7334 6.91504 94.7334 6.54395V6.33887C94.7334 5.90918 94.7969 5.52669 94.9238 5.19141C95.0508 4.85286 95.2233 4.56641 95.4414 4.33203C95.6595 4.09766 95.9069 3.92025 96.1836 3.7998C96.4603 3.67936 96.7467 3.61914 97.043 3.61914C97.4206 3.61914 97.7461 3.68424 98.0195 3.81445C98.2962 3.94466 98.5225 4.12695 98.6982 4.36133C98.874 4.59245 99.0042 4.86589 99.0889 5.18164C99.1735 5.49414 99.2158 5.83594 99.2158 6.20703V6.6123H95.2705V5.875H98.3125V5.80664C98.2995 5.57227 98.2507 5.3444 98.166 5.12305C98.0846 4.90169 97.9544 4.7194 97.7754 4.57617C97.5964 4.43294 97.3522 4.36133 97.043 4.36133C96.8379 4.36133 96.6491 4.40527 96.4766 4.49316C96.304 4.5778 96.1559 4.70475 96.0322 4.87402C95.9085 5.04329 95.8125 5.25 95.7441 5.49414C95.6758 5.73828 95.6416 6.01986 95.6416 6.33887V6.54395C95.6416 6.7946 95.6758 7.0306 95.7441 7.25195C95.8158 7.47005 95.9183 7.66211 96.0518 7.82812C96.1885 7.99414 96.3529 8.12435 96.5449 8.21875C96.7402 8.31315 96.9616 8.36035 97.209 8.36035C97.528 8.36035 97.7982 8.29525 98.0195 8.16504C98.2409 8.03483 98.4346 7.86068 98.6006 7.64258L99.1475 8.07715C99.0335 8.24967 98.8887 8.41406 98.7129 8.57031C98.5371 8.72656 98.3206 8.85352 98.0635 8.95117C97.8096 9.04883 97.5085 9.09766 97.1602 9.09766ZM103.601 7.97461V1.5H104.509V9H103.679L103.601 7.97461ZM100.046 6.41699V6.31445C100.046 5.91081 100.095 5.5446 100.192 5.21582C100.293 4.88379 100.435 4.59896 100.617 4.36133C100.803 4.1237 101.022 3.94141 101.276 3.81445C101.534 3.68424 101.82 3.61914 102.136 3.61914C102.468 3.61914 102.757 3.67773 103.005 3.79492C103.256 3.90885 103.467 4.0765 103.64 4.29785C103.815 4.51595 103.954 4.77962 104.055 5.08887C104.156 5.39811 104.226 5.74805 104.265 6.13867V6.58789C104.229 6.97526 104.159 7.32357 104.055 7.63281C103.954 7.94206 103.815 8.20573 103.64 8.42383C103.467 8.64193 103.256 8.80957 103.005 8.92676C102.754 9.04069 102.461 9.09766 102.126 9.09766C101.817 9.09766 101.534 9.03092 101.276 8.89746C101.022 8.764 100.803 8.57682 100.617 8.33594C100.435 8.09505 100.293 7.81185 100.192 7.48633C100.095 7.15755 100.046 6.80111 100.046 6.41699ZM100.954 6.31445V6.41699C100.954 6.68066 100.98 6.92806 101.032 7.15918C101.088 7.3903 101.172 7.59375 101.286 7.76953C101.4 7.94531 101.545 8.08366 101.721 8.18457C101.896 8.28223 102.106 8.33105 102.351 8.33105C102.65 8.33105 102.896 8.26758 103.088 8.14062C103.283 8.01367 103.439 7.84603 103.557 7.6377C103.674 7.42936 103.765 7.20312 103.83 6.95898V5.78223C103.791 5.60319 103.734 5.43066 103.659 5.26465C103.588 5.09538 103.493 4.94564 103.376 4.81543C103.262 4.68197 103.12 4.57617 102.951 4.49805C102.785 4.41992 102.588 4.38086 102.36 4.38086C102.113 4.38086 101.9 4.43294 101.721 4.53711C101.545 4.63802 101.4 4.77799 101.286 4.95703C101.172 5.13281 101.088 5.33789 101.032 5.57227C100.98 5.80339 100.954 6.05078 100.954 6.31445ZM108.391 1.5H109.299V7.97461L109.221 9H108.391V1.5ZM112.868 6.31445V6.41699C112.868 6.80111 112.823 7.15755 112.731 7.48633C112.64 7.81185 112.507 8.09505 112.331 8.33594C112.155 8.57682 111.94 8.764 111.687 8.89746C111.433 9.03092 111.141 9.09766 110.812 9.09766C110.477 9.09766 110.183 9.04069 109.929 8.92676C109.678 8.80957 109.466 8.64193 109.294 8.42383C109.121 8.20573 108.983 7.94206 108.879 7.63281C108.778 7.32357 108.708 6.97526 108.669 6.58789V6.13867C108.708 5.74805 108.778 5.39811 108.879 5.08887C108.983 4.77962 109.121 4.51595 109.294 4.29785C109.466 4.0765 109.678 3.90885 109.929 3.79492C110.179 3.67773 110.471 3.61914 110.803 3.61914C111.135 3.61914 111.429 3.68424 111.687 3.81445C111.944 3.94141 112.159 4.1237 112.331 4.36133C112.507 4.59896 112.64 4.88379 112.731 5.21582C112.823 5.5446 112.868 5.91081 112.868 6.31445ZM111.96 6.41699V6.31445C111.96 6.05078 111.936 5.80339 111.887 5.57227C111.838 5.33789 111.76 5.13281 111.652 4.95703C111.545 4.77799 111.403 4.63802 111.228 4.53711C111.052 4.43294 110.835 4.38086 110.578 4.38086C110.35 4.38086 110.152 4.41992 109.982 4.49805C109.816 4.57617 109.675 4.68197 109.558 4.81543C109.44 4.94564 109.344 5.09538 109.27 5.26465C109.198 5.43066 109.144 5.60319 109.108 5.78223V6.95898C109.16 7.18685 109.245 7.40658 109.362 7.61816C109.483 7.8265 109.642 7.9974 109.841 8.13086C110.043 8.26432 110.292 8.33105 110.588 8.33105C110.832 8.33105 111.04 8.28223 111.213 8.18457C111.389 8.08366 111.53 7.94531 111.638 7.76953C111.748 7.59375 111.83 7.3903 111.882 7.15918C111.934 6.92806 111.96 6.68066 111.96 6.41699ZM115.437 8.45312L116.906 3.7168H117.873L115.754 9.81543C115.705 9.94564 115.64 10.0856 115.559 10.2354C115.48 10.3883 115.38 10.5332 115.256 10.6699C115.132 10.8066 114.982 10.9173 114.807 11.002C114.634 11.0898 114.427 11.1338 114.187 11.1338C114.115 11.1338 114.024 11.124 113.913 11.1045C113.802 11.085 113.724 11.0687 113.679 11.0557L113.674 10.3232C113.7 10.3265 113.741 10.3298 113.796 10.333C113.854 10.3395 113.895 10.3428 113.918 10.3428C114.123 10.3428 114.297 10.3151 114.44 10.2598C114.584 10.2077 114.704 10.1182 114.802 9.99121C114.903 9.86751 114.989 9.69661 115.061 9.47852L115.437 8.45312ZM114.357 3.7168L115.729 7.81836L115.964 8.77051L115.314 9.10254L113.371 3.7168H114.357Z" fill="#8A8A8A"/>
<path d="M20.5609 17.7082L27.41 21.652V13.7644L20.5609 17.7082Z" fill="#E7ECB7"/>
<path d="M13.7053 29.5462L20.5612 25.5957V33.49L13.7053 29.5462Z" fill="#63A7C8"/>
<path d="M20.5612 33.4833L13.7053 37.4339V29.5396L20.5612 33.4833Z" fill="#4197B9"/>
<path d="M15.3784 33.8466L22.2275 29.9028V37.7972L15.3784 33.8466Z" fill="#F4D560"/>
<path d="M20.5612 25.5952L13.7053 29.5457V21.6514L20.5612 25.5952Z" fill="#7EBCDD"/>
<path d="M27.41 29.5462L20.5609 33.49V25.5957L27.41 29.5462Z" fill="#C6E0C9"/>
<path d="M32.282 21.0117L25.4261 24.9622V17.0679L32.282 21.0117Z" fill="#F4D560"/>
<path d="M27.41 45.3269L20.5609 49.2707V41.3831L27.41 45.3269Z" fill="#A8D3C7"/>
<path d="M6.85571 33.4895L13.7048 37.4332V29.5457L6.85571 33.4895Z" fill="#A8D3C7"/>
<path d="M47.9708 25.5952L41.115 29.5457V21.6514L47.9708 25.5952Z" fill="#FBEEB6"/>
<path d="M20.5612 17.7082L13.7053 21.652V13.7644L20.5612 17.7082Z" fill="#E9EFCC"/>
<path d="M15.4729 25.2924L22.3287 21.3486V29.2362L15.4729 25.2924Z" fill="#F4D560"/>
<path d="M0 29.5462L6.85585 25.5957V33.49L0 29.5462Z" fill="#4197B9"/>
<path d="M27.41 37.4335L20.5609 41.3841V33.4897L27.41 37.4335Z" fill="#A8D3C7"/>
<path d="M8.99459 37.3927L5.64089 35.4612L2.29395 33.5364V37.3927V41.249L5.64089 39.3175L8.99459 37.3927Z" fill="#6EB3C8"/>
<path d="M7.98257 47.2793L11.3363 49.2041V45.3478V41.4915L7.98257 43.423L4.63562 45.3478L7.98257 47.2793Z" fill="#4197B9"/>
<path d="M6.85571 25.5952L13.7048 29.5457V21.6514L6.85571 25.5952Z" fill="#A8D3C7"/>
<path d="M13.7053 13.7642L20.5612 9.81372V17.708L13.7053 13.7642Z" fill="#FBEEB6"/>
<path d="M20.5612 9.81367L13.7053 13.7642V5.86987L20.5612 9.81367Z" fill="#7EBCDD"/>
<path d="M34.2654 49.2724L41.1145 53.2229V45.3286L34.2654 49.2724Z" fill="#4197B9"/>
<path d="M41.1145 45.3269L34.2654 49.2707V41.3831L41.1145 45.3269Z" fill="#6EB3C8"/>
<path d="M27.41 45.3269L34.2659 41.3831V49.2707L27.41 45.3269Z" fill="#A8D3C7"/>
<path d="M34.2654 41.3834L41.1145 45.3272V37.4329L34.2654 41.3834Z" fill="#A8D3C7"/>
<path d="M34.2654 33.4895L41.1145 37.4332V29.5457L34.2654 33.4895Z" fill="#A8D3C7"/>
<path d="M41.1145 29.5462L34.2654 33.49V25.5957L41.1145 29.5462Z" fill="#C6E0C9"/>
<path d="M34.2654 17.7082L41.1145 21.652V13.7644L34.2654 17.7082Z" fill="#E7ECB7"/>
<path d="M34.2654 9.81367L41.1145 13.7642V5.86987L34.2654 9.81367Z" fill="#F4D560"/>
<path d="M47.9708 33.4895L41.115 37.4332V29.5457L47.9708 33.4895Z" fill="#E9EFCC"/>
<path d="M54.8267 29.5462L47.9708 33.49V25.5957L54.8267 29.5462Z" fill="#7EBCDD"/>
<path d="M22.7811 29.5736L22.8156 29.6011V29.553L22.7811 29.5736Z" fill="white" stroke="#221714" stroke-width="0.0598" stroke-miterlimit="10"/>
<path d="M46.7968 11.7994L43.4431 9.86792V13.7242V17.5805L46.7968 15.6557L50.1438 13.7242L46.7968 11.7994Z" fill="#F7DA8E"/>
<path d="M33.078 3.93152L29.7311 2V5.85631V9.71261L33.078 7.78783L36.425 5.85631L33.078 3.93152Z" fill="#F7DA8E"/>
<path d="M36.425 53.2356L33.078 51.3041L29.7311 49.3726V53.2356V57.0919L33.078 55.1604L36.425 53.2356Z" fill="#6EB3C8"/>
<path d="M5.64089 19.6938L2.29395 17.769V21.6253V25.4817L5.64089 23.5501L8.99459 21.6253L5.64089 19.6938Z" fill="#6EB3C8"/>
<path d="M46.7968 43.423L43.4431 41.4915V45.3478V49.2041L46.7968 47.2793L50.1438 45.3478L46.7968 43.423Z" fill="#A8D3C7"/>
<path d="M4.63562 13.7567L7.98257 15.6815L11.3363 17.613V13.7567V9.90039L7.98257 11.8252L4.63562 13.7567Z" fill="#E9EFCC"/>
<path d="M18.3542 5.85631L21.7012 7.78783L25.0481 9.71261V5.85631V2L21.7012 3.93152L18.3542 5.85631Z" fill="#FBEEB6"/>
<path d="M21.7012 55.1604L25.0481 57.0919V53.2356V49.3726L21.7012 51.3041L18.3542 53.2356L21.7012 55.1604Z" fill="#4197B9"/>
<path d="M49.1382 23.5501L52.4852 25.4817V21.6253V17.769L49.1382 19.6938L45.7845 21.6253L49.1382 23.5501Z" fill="#FBEEB6"/>
<path d="M49.1382 39.3175L52.4852 41.249V37.3927V33.5364L49.1382 35.4612L45.7845 37.3927L49.1382 39.3175Z" fill="#E9EFCC"/>
<path d="M27.41 21.6513L20.5609 25.5951V17.7075L27.41 21.6513Z" fill="#C6E0C9"/>
<path d="M20.5609 25.5952L27.41 29.5457V21.6514L20.5609 25.5952Z" fill="#7EBCDD"/>
<path d="M27.41 13.7642L20.5609 17.708V9.81372L27.41 13.7642Z" fill="#C6E0C9"/>
<path d="M41.115 29.5462L47.9708 25.5957V33.49L41.115 29.5462Z" fill="#C6E0C9"/>
<path d="M38.8339 34.1892L31.978 38.1397V30.2454L38.8339 34.1892Z" fill="#F4D560"/>
<path d="M20.5612 41.3834L13.7053 45.3272V37.4329L20.5612 41.3834Z" fill="#A8D3C7"/>
<path d="M27.41 13.7642L34.2659 9.81372V17.708L27.41 13.7642Z" fill="#E7ECB7"/>
<path d="M41.1145 13.7642L34.2654 17.708V9.81372L41.1145 13.7642Z" fill="#FBEEB6"/>
<path d="M13.7053 45.3269L20.5612 41.3831V49.2707L13.7053 45.3269Z" fill="#4197B9"/>
<path d="M13.7048 29.5462L6.85571 33.49V25.5957L13.7048 29.5462Z" fill="#6EB3C8"/>
<path d="M22.8416 38.0728L29.6974 42.0166V34.1223L22.8416 38.0728Z" fill="#F4D560"/>
<path d="M20.5612 49.2724L13.7053 53.2229V45.3286L20.5612 49.2724Z" fill="#6EB3C8"/>
<path d="M30.3115 26.0662L37.1606 30.01V22.1157L30.3115 26.0662Z" fill="#F4D560"/>
<path d="M41.1145 21.6513L34.2654 25.5951V17.7075L41.1145 21.6513Z" fill="#FBEEB6"/>
<path d="M34.2659 25.5952L27.41 29.5457V21.6514L34.2659 25.5952Z" fill="#FBEEB6"/>
<path d="M27.41 29.5462L34.2659 25.5957V33.49L27.41 29.5462Z" fill="#7EBCDD"/>
<path d="M20.5609 33.4895L27.41 37.4332V29.5457L20.5609 33.4895Z" fill="#4197B9"/>
<path d="M27.41 37.4335L34.2659 33.4897V41.3841L27.41 37.4335Z" fill="#63A7C8"/>
<path d="M34.2659 41.3834L27.41 45.3272V37.4329L34.2659 41.3834Z" fill="#4197B9"/>
<path d="M34.2659 33.4895L27.41 37.4332V29.5457L34.2659 33.4895Z" fill="#C6E0C9"/>
<path d="M27.41 21.6513L34.2659 17.7075V25.5951L27.41 21.6513Z" fill="#C6E0C9"/>
<path d="M71.5011 50.506V50.982H73.7201V50.506H71.5011ZM71.7391 49.12C71.5291 50.303 71.1791 51.493 70.6891 52.263C70.7941 52.333 70.9831 52.501 71.0601 52.585C71.5571 51.745 71.9491 50.478 72.1871 49.211L71.7391 49.12ZM72.7331 50.793C72.5091 53.019 71.9141 54.412 70.3111 55.175C70.3951 55.266 70.5351 55.469 70.5841 55.574C72.2711 54.692 72.9291 53.236 73.2021 50.835L72.7331 50.793ZM71.7041 50.996L71.3191 51.052C71.6131 53.096 72.1801 54.755 73.4331 55.532C73.5101 55.399 73.6641 55.217 73.7761 55.126C72.5581 54.461 71.9701 52.865 71.7041 50.996ZM68.9461 49.12V52.795H69.3661V49.12H68.9461ZM68.1971 49.946H70.1641V51.136H68.1971V49.946ZM67.7841 49.575V51.5H70.5981V49.575H67.7841ZM68.0711 52.144H70.2761V52.613H68.0711V52.144ZM67.6231 51.808V52.949H70.7381V51.808H67.6231ZM67.3011 50.303V50.709H67.9591V50.688H70.2971V50.709H70.9971V50.303H70.2971V50.324H67.9591V50.303H67.3011ZM67.7841 54.405L68.2391 54.489C68.5331 54.083 68.9391 53.425 69.1841 52.858L68.7431 52.76C68.5191 53.306 68.1131 53.971 67.7841 54.405ZM67.7841 54.405C68.6171 54.622 69.6321 55.049 70.1781 55.378L70.5211 55.063C69.9541 54.748 68.9461 54.328 68.1341 54.111L67.7841 54.405ZM69.8001 53.117V53.348C69.8001 53.908 69.6041 54.741 67.2521 55.203C67.3361 55.294 67.4411 55.455 67.4831 55.553C69.9751 55.042 70.2341 54.083 70.2341 53.362V53.117H69.8001ZM67.3081 53.397V53.782H70.9411V53.397H67.3081ZM78.3611 49.561V49.953H80.2791V49.561H78.3611ZM76.7091 50.338V50.737H80.2651V50.338H76.7091ZM77.1851 52.396V52.774H80.6291V52.396H77.1851ZM78.1161 49.134V50.541H78.6201V49.134H78.1161ZM80.1671 50.338V50.408C80.1041 50.695 79.9991 51.059 79.9081 51.283L80.3071 51.374C80.4191 51.129 80.5521 50.737 80.6431 50.394L80.3211 50.317L80.2441 50.338H80.1671ZM76.5271 50.338V52.326C76.5271 53.236 76.4571 54.433 75.8341 55.287C75.9391 55.336 76.1351 55.483 76.2191 55.56C76.8841 54.657 76.9891 53.313 76.9891 52.333V50.338H76.5271ZM77.1501 51.262L77.1991 51.661L78.3471 51.542L78.3051 51.15L77.1501 51.262ZM78.1791 53.194C78.9771 53.81 78.9631 54.881 78.7181 55.098C78.6481 55.189 78.5571 55.196 78.4521 55.196C78.3471 55.196 78.2071 55.189 78.0461 55.175C78.1091 55.28 78.1441 55.455 78.1511 55.56C78.2911 55.567 78.4241 55.567 78.5291 55.567C78.7461 55.567 78.8791 55.525 79.0261 55.385C79.4181 55.035 79.4181 53.705 78.4801 53.005L78.1791 53.194ZM78.5781 53.425C78.2351 53.726 77.5281 54.048 76.9821 54.188C77.0591 54.258 77.1431 54.398 77.1851 54.482C77.7521 54.286 78.4591 53.915 78.8301 53.586L78.5781 53.425ZM78.8021 53.943C78.3821 54.377 77.5491 54.846 76.8841 55.049C76.9611 55.126 77.0521 55.273 77.1011 55.364C77.7801 55.098 78.6271 54.58 79.0681 54.125L78.8021 53.943ZM80.3001 52.977C79.9361 53.201 79.2921 53.523 78.8371 53.705L79.0891 53.929C79.5511 53.761 80.1671 53.495 80.6081 53.229L80.3001 52.977ZM79.7611 53.495L79.4251 53.586C79.5931 54.335 79.9501 55.035 80.4891 55.371C80.5521 55.259 80.6921 55.105 80.7901 55.028C80.2721 54.762 79.9221 54.146 79.7611 53.495ZM78.8651 52.55C78.5221 52.907 77.7381 53.243 77.0941 53.418C77.1501 53.488 77.2271 53.628 77.2691 53.705C77.9621 53.495 78.7741 53.11 79.2081 52.669L78.8651 52.55ZM74.1891 52.739L74.3221 53.25C74.9101 53.061 75.6661 52.809 76.3871 52.571L76.3171 52.088C75.5261 52.34 74.7211 52.585 74.1891 52.739ZM74.2871 50.534V51.024H76.2681V50.534H74.2871ZM75.1481 49.127V54.965C75.1481 55.063 75.1061 55.091 75.0221 55.091C74.9381 55.091 74.6721 55.091 74.3641 55.084C74.4341 55.224 74.4971 55.441 74.5181 55.567C74.9521 55.567 75.2251 55.553 75.3861 55.469C75.5611 55.385 75.6241 55.245 75.6241 54.965V49.127H75.1481ZM78.0671 50.646V51.542C78.0671 51.948 78.1651 52.123 78.6271 52.123C78.7531 52.123 79.5231 52.123 79.7051 52.123C79.9011 52.123 80.1111 52.123 80.2161 52.088C80.2021 51.99 80.1881 51.864 80.1741 51.745C80.0621 51.773 79.8101 51.773 79.6771 51.773C79.5231 51.773 78.8441 51.773 78.7041 51.773C78.5291 51.773 78.5081 51.724 78.5081 51.549V50.646H78.0671ZM78.2771 51.15L78.3191 51.479L79.6771 51.353L79.6491 51.024L78.2771 51.15ZM81.7281 49.596V50.114H87.2441V49.596H81.7281ZM81.3641 52.571V53.096H87.6431V52.571H81.3641ZM82.2181 50.597C82.4841 51.115 82.7571 51.794 82.8551 52.207L83.3591 52.039C83.2611 51.626 82.9741 50.961 82.6871 50.45L82.2181 50.597ZM86.2781 50.422C86.1101 50.926 85.7811 51.647 85.5221 52.088L85.9701 52.235C86.2431 51.815 86.5721 51.143 86.8381 50.576L86.2781 50.422ZM84.2131 49.799V55.56H84.7521V49.799H84.2131ZM89.5191 54.664V55.175H93.4531V54.664H89.5191ZM89.2531 52.613V55.56H89.7851V53.11H93.1871V55.539H93.7401V52.613H89.2531ZM92.1931 50.191C92.8791 50.814 93.6771 51.696 94.0201 52.291L94.4751 51.962C94.1111 51.381 93.2851 50.513 92.5991 49.918L92.1931 50.191ZM88.8751 52.018C88.8751 51.913 89.2251 51.752 89.2251 51.752V51.738C89.9671 51.122 90.7511 50.254 91.4231 49.323L90.8981 49.099C90.3521 49.967 89.5331 50.856 89.2741 51.087C89.0431 51.318 88.8611 51.472 88.7001 51.5C88.7631 51.64 88.8541 51.906 88.8751 52.018ZM88.8751 52.018C89.1551 51.92 89.5751 51.906 93.7961 51.668C93.7681 51.556 93.7471 51.346 93.7401 51.199L89.2601 51.409L88.8681 51.605L88.8751 52.018ZM99.6131 49.477V49.939H100.908V49.477H99.6131ZM97.9891 49.82V50.268H99.3541V49.82H97.9891ZM99.6761 50.821V51.269H100.887V50.821H99.6761ZM99.6341 52.137V52.585H100.824V52.137H99.6341ZM96.1761 50.8V51.248H97.3661V50.8H96.1761ZM96.2111 52.109V52.557H97.3871V52.109H96.2111ZM100.621 49.477C100.628 50.772 100.565 52.592 100.495 53.621H100.985C101.055 52.606 101.097 50.8 101.111 49.477H100.621ZM97.2051 49.162C96.8621 49.337 96.3371 49.547 95.8961 49.701C95.9521 49.813 96.0151 49.974 96.0361 50.079C96.4841 49.946 97.0301 49.771 97.4571 49.589L97.2051 49.162ZM97.7371 49.169V51.444H99.1161V51.017H98.1921V49.169H97.7371ZM95.3221 53.425V53.915H101.678V53.425H95.3221ZM99.1721 54.363C99.9071 54.72 100.684 55.189 101.16 55.532L101.51 55.133C101.02 54.797 100.208 54.349 99.4591 53.999L99.1721 54.363ZM97.3801 54.027C96.9321 54.405 96.0851 54.881 95.4131 55.154C95.5181 55.266 95.6511 55.441 95.7211 55.553C96.4071 55.252 97.2541 54.783 97.8281 54.342L97.3801 54.027ZM95.8961 49.701L96.0361 53.593H96.5121L96.3861 49.841L95.8961 49.701ZM97.9611 51.752C97.8981 52.179 97.7931 52.606 97.5761 52.907C97.6741 52.956 97.8631 53.068 97.9331 53.131C98.1501 52.802 98.2971 52.312 98.3741 51.822L97.9611 51.752ZM98.8571 51.024V52.886C98.8571 52.949 98.8361 52.97 98.7661 52.97C98.6961 52.977 98.4861 52.977 98.2341 52.97C98.2901 53.075 98.3461 53.215 98.3671 53.327C98.7101 53.327 98.9551 53.327 99.1091 53.264C99.2631 53.201 99.3051 53.103 99.3051 52.886V51.024H98.8571ZM102.021 55H102.679L103.582 52.13C103.771 51.556 103.932 50.996 104.1 50.401H104.128C104.296 50.996 104.457 51.556 104.639 52.13L105.542 55H106.221L104.485 49.869H103.757L102.021 55ZM102.931 53.432H105.297V52.921H102.931V53.432ZM106.959 55H107.61V49.869H106.959V55ZM110.949 50.226V50.716H114.806V50.226H110.949ZM111.096 51.766V52.249H114.183V51.766H111.096ZM112.601 49.12V52.039H113.119V49.12H112.601ZM111.775 52.123L111.299 52.263C111.908 53.908 113.042 55.07 114.722 55.567C114.799 55.434 114.946 55.224 115.065 55.119C113.427 54.685 112.3 53.593 111.775 52.123ZM114.141 51.766V51.857C113.63 53.586 112.153 54.671 110.55 55.084C110.648 55.196 110.781 55.42 110.83 55.56C112.545 55.042 114.071 53.901 114.666 51.892L114.337 51.745L114.239 51.766H114.141ZM108.562 52.83L108.716 53.334C109.339 53.152 110.151 52.914 110.914 52.683L110.851 52.207C110.018 52.445 109.15 52.683 108.562 52.83ZM108.653 50.534V51.031H110.851V50.534H108.653ZM109.556 49.127V54.93C109.556 55.028 109.514 55.063 109.423 55.063C109.332 55.07 109.024 55.07 108.695 55.063C108.765 55.203 108.842 55.413 108.856 55.546C109.339 55.546 109.633 55.532 109.815 55.448C110.004 55.371 110.074 55.224 110.074 54.93V49.127H109.556ZM117.424 50.828V51.318H120.098V50.828H117.424ZM118.467 49.183V55.546H118.929V49.183H118.467ZM120.252 49.68V50.156H121.925V49.68H120.252ZM120.084 51.318V51.801H122.023V51.318H120.084ZM119.181 49.701C119.426 49.988 119.692 50.387 119.804 50.639L120.154 50.429C120.035 50.17 119.769 49.792 119.517 49.512L119.181 49.701ZM120.896 51.563V54.867C120.896 54.958 120.868 54.979 120.763 54.986C120.665 54.986 120.336 54.986 119.979 54.979C120.049 55.126 120.112 55.343 120.133 55.49C120.623 55.49 120.945 55.483 121.141 55.399C121.337 55.308 121.393 55.161 121.393 54.867V51.563H120.896ZM116.787 49.127C116.535 49.603 116.031 50.184 115.562 50.541C115.646 50.639 115.786 50.828 115.849 50.933C116.374 50.52 116.934 49.876 117.277 49.295L116.787 49.127ZM116.353 51.913V55.567H116.843V51.514L116.78 51.493L116.353 51.913ZM116.969 50.534C116.619 51.311 116.031 52.06 115.429 52.557C115.534 52.662 115.688 52.907 115.744 53.012C116.388 52.445 117.032 51.563 117.445 50.688L116.969 50.534ZM117.69 51.773C117.676 53.012 117.62 53.81 117.172 54.286C117.27 54.356 117.396 54.503 117.452 54.601C117.998 54.048 118.075 53.138 118.089 51.773H117.69ZM119.335 51.773V53.74C119.335 54.216 119.405 54.37 119.811 54.37C119.867 54.37 120.007 54.37 120.063 54.37C120.168 54.37 120.266 54.363 120.336 54.342C120.322 54.244 120.301 54.062 120.294 53.957C120.224 53.971 120.133 53.978 120.07 53.978C120.014 53.978 119.86 53.978 119.804 53.978C119.741 53.978 119.734 53.936 119.734 53.754V51.773H119.335ZM123.353 52.536V53.047H128.239V52.536H123.353ZM123.353 54.608V55.126H128.218V54.608H123.353ZM123.108 50.485V55.56H123.626V51.01H127.98V55.532H128.519V50.485H123.108ZM125.516 49.127V54.881H126.055V49.127H125.516ZM129.73 49.253V49.652H133.125V49.253H129.73ZM130.514 50.037V50.38H132.383V50.037H130.514ZM130.514 50.751V51.087H132.383V50.751H130.514ZM133.16 49.54V49.981H135.4V49.54H133.16ZM132.145 49.414V52.158H132.628V49.414H132.145ZM135.239 49.54V49.631C134.847 50.597 133.783 51.339 132.782 51.654C132.88 51.752 133.013 51.92 133.083 52.039C134.175 51.647 135.274 50.863 135.75 49.68L135.421 49.519L135.33 49.54H135.239ZM129.597 51.64L129.66 52.046C130.409 51.962 131.431 51.85 132.425 51.738V51.36C131.382 51.472 130.311 51.584 129.597 51.64ZM133.02 50.45C133.902 50.891 134.987 51.577 135.512 52.053L135.876 51.682C135.33 51.206 134.224 50.548 133.363 50.128L133.02 50.45ZM134.812 52.074C133.65 52.298 131.648 52.466 130.115 52.48C130.213 52.592 130.346 52.844 130.409 52.956C131.9 52.886 133.93 52.697 135.211 52.431L134.812 52.074ZM130.276 49.414V51.794L130.752 51.738V49.414H130.276ZM132.544 52.76V55.553H133.069V52.585L132.81 52.494L132.544 52.76ZM130.801 53.859C131.158 54.167 131.599 54.615 131.816 54.895L132.117 54.58C131.907 54.314 131.452 53.894 131.088 53.593L130.801 53.859ZM131.046 53.103C130.808 53.782 130.304 54.3 129.737 54.622C129.814 54.734 129.912 54.993 129.947 55.105C130.605 54.699 131.165 54.034 131.445 53.215L131.046 53.103ZM134.602 52.823C134.364 53.593 133.86 54.188 133.272 54.552C133.342 54.664 133.447 54.923 133.482 55.035C134.161 54.58 134.714 53.852 135.001 52.935L134.602 52.823ZM134.749 53.383L134.371 53.516C134.63 54.069 135.12 54.643 135.617 54.93C135.694 54.811 135.841 54.643 135.953 54.559C135.47 54.328 134.987 53.845 134.749 53.383ZM140.461 54.37C141.196 54.741 141.959 55.203 142.421 55.539L142.883 55.182C142.4 54.846 141.574 54.384 140.832 54.027L140.461 54.37ZM136.583 53.418V53.915H143.03V53.418H136.583ZM137.556 51.633V52.13H142.071V51.633H137.556ZM138.795 49.113V53.649H139.285V49.113H138.795ZM140.314 49.106V53.656H140.818V49.106H140.314ZM137.29 49.967V53.621H137.801V50.457H141.854V53.621H142.386V49.967H137.29ZM138.683 54.041C138.249 54.44 137.381 54.916 136.653 55.189C136.772 55.287 136.954 55.455 137.045 55.567C137.766 55.28 138.634 54.804 139.18 54.342L138.683 54.041ZM145.081 52.781H148.609V53.257H145.081V52.781ZM145.081 53.6H148.609V54.09H145.081V53.6ZM145.081 51.962H148.609V52.438H145.081V51.962ZM144.57 51.612V54.44H149.134V51.612H144.57ZM147.475 54.769C148.231 55.014 148.987 55.315 149.435 55.539L149.904 55.238C149.407 55.014 148.588 54.706 147.825 54.475L147.475 54.769ZM145.746 54.482C145.242 54.762 144.402 55.007 143.681 55.161C143.8 55.252 143.982 55.455 144.066 55.553C144.766 55.364 145.655 55.042 146.222 54.706L145.746 54.482ZM146.551 49.596V50.009H149.435V49.596H146.551ZM146.663 49.106C146.502 49.61 146.208 50.107 145.844 50.443C145.963 50.506 146.159 50.632 146.243 50.709C146.607 50.352 146.943 49.785 147.132 49.211L146.663 49.106ZM147.496 49.855V50.079C147.496 50.436 147.321 50.919 145.501 51.157C145.592 51.255 145.732 51.437 145.781 51.563C147.755 51.255 147.979 50.625 147.979 50.093V49.855H147.496ZM147.909 50.268L147.538 50.359C147.923 50.982 148.728 51.381 149.736 51.528C149.799 51.395 149.932 51.206 150.037 51.101C149.064 51.017 148.266 50.723 147.909 50.268ZM143.8 49.54V49.953H145.487V49.54H143.8ZM143.646 50.632V51.059H145.662V50.632H143.646ZM149.26 49.596V49.673C149.134 49.974 148.938 50.331 148.777 50.562L149.19 50.709C149.386 50.457 149.61 50.051 149.785 49.694L149.428 49.575L149.351 49.596H149.26ZM150.919 51.241V51.661H152.907V51.241H150.919ZM150.919 52.158V52.578H152.914V52.158H150.919ZM150.639 50.31V50.751H153.173V50.31H150.639ZM151.129 53.096V53.537H152.48V54.699H151.129V55.14H152.907V53.096H151.129ZM150.919 53.096V55.469H151.339V53.096H150.919ZM151.381 49.302C151.563 49.589 151.78 49.988 151.871 50.247L152.277 49.995C152.165 49.75 151.955 49.379 151.759 49.092L151.381 49.302ZM153.166 52.102V52.599H155.539V52.102H153.166ZM155.784 49.519C155.784 52.648 155.714 55.203 156.442 55.434C156.771 55.567 157.002 55.343 157.079 54.356C157.002 54.279 156.855 54.097 156.771 53.971C156.743 54.475 156.694 54.923 156.652 54.909C156.253 54.811 156.274 52.368 156.309 49.519H155.784ZM154.118 49.841V55.56H154.608V49.841H154.118ZM153.243 49.519V50.023H156.022V49.519H153.243ZM160.656 50.681H162.994V51.241H160.656V50.681ZM160.656 49.75H162.994V50.31H160.656V49.75ZM160.173 49.351V51.647H163.498V49.351H160.173ZM159.851 52.151V52.592H163.883V52.151H159.851ZM161.573 52.368V55.028L162.063 55.231V52.368H161.573ZM160.635 53.656L160.313 53.775C160.74 55.203 161.545 55.455 162.714 55.455H163.946C163.96 55.322 164.03 55.098 164.1 54.986C163.855 54.993 162.91 54.993 162.735 54.993C161.762 54.993 160.992 54.818 160.635 53.656ZM161.909 53.411V53.845H163.533V53.411H161.909ZM160.313 52.921C160.201 53.957 159.886 54.748 159.263 55.245C159.368 55.322 159.571 55.476 159.655 55.56C160.285 55 160.649 54.132 160.789 52.977L160.313 52.921ZM157.506 52.844L157.639 53.355C158.234 53.166 158.997 52.914 159.725 52.676L159.648 52.193C158.864 52.445 158.052 52.697 157.506 52.844ZM157.583 50.534V51.024H159.718V50.534H157.583ZM158.451 49.127V54.902C158.451 55.007 158.423 55.035 158.332 55.035C158.248 55.035 157.982 55.035 157.674 55.028C157.744 55.175 157.807 55.392 157.828 55.518C158.269 55.518 158.542 55.504 158.703 55.42C158.878 55.336 158.941 55.196 158.941 54.909V49.127H158.451ZM166.186 49.141C165.794 50.205 165.136 51.255 164.45 51.934C164.548 52.053 164.695 52.333 164.751 52.452C165.507 51.668 166.228 50.478 166.683 49.295L166.186 49.141ZM165.444 50.954V55.553H165.962V50.45L165.955 50.443L165.444 50.954ZM166.648 50.618V51.122H170.946V50.618H166.648ZM166.473 52.851V53.369H171.03V52.851H166.473ZM167.551 49.197V53.131H168.069V49.197H167.551ZM169.434 49.19V53.138H169.945V49.19H169.434ZM167.698 53.761C167.397 54.3 166.914 54.853 166.431 55.217C166.55 55.287 166.753 55.455 166.851 55.546C167.32 55.147 167.852 54.524 168.195 53.915L167.698 53.761ZM169.287 54.013C169.756 54.482 170.274 55.133 170.512 55.567L170.953 55.287C170.701 54.86 170.183 54.237 169.7 53.775L169.287 54.013Z" fill="#8A8A8A"/>
<g clip-path="url(#clip0_3482_166419)">
<path d="M67.4175 27.4845V20.554H70.5745C71.3948 20.554 71.9861 20.7488 72.3581 21.1477C72.7301 21.5467 72.9113 22.0477 72.9113 22.66C72.9113 23.0868 72.7873 23.495 72.5393 23.8661C72.2818 24.2465 71.9194 24.5063 71.4425 24.6362L72.8636 27.4752H71.4997L70.1262 24.7661H68.6383V27.4752H67.4175V27.4845ZM68.6383 23.6435H70.5936C70.956 23.6435 71.2231 23.5507 71.3948 23.3651C71.5665 23.1796 71.6523 22.9476 71.6523 22.66C71.6523 22.3817 71.5665 22.1497 71.4043 21.9642C71.2422 21.7786 70.9751 21.6858 70.5936 21.6858H68.6383V23.6435Z" fill="#575757"/>
<path d="M75.6106 27.4845V20.554H80.246V21.6766H76.8314V23.3466H78.9393V24.4692H76.8314V26.3711H80.4749V27.4937H75.6106V27.4845Z" fill="#575757"/>
<path d="M85.8542 21.6951V27.4845H84.6334V21.6951H82.6113V20.554H87.8858V21.6951H85.8542Z" fill="#575757"/>
<path d="M90.7567 28.2545V19.9231H92.712V20.3963H91.3004V27.7814H92.712V28.2545H90.7567Z" fill="#575757"/>
<path d="M99.1501 27.4845L98.5874 25.9722H95.7737L95.211 27.4845H93.9233L96.5749 20.554H97.7862L100.428 27.4845H99.1501ZM98.2059 24.896L97.4238 22.8177C97.3188 22.5672 97.2425 22.3353 97.1853 22.1126C97.1281 22.3075 97.0518 22.5394 96.9469 22.8177L96.1552 24.896H98.2059Z" fill="#575757"/>
<path d="M102.794 27.4845V20.554H104.015V27.4845H102.794Z" fill="#575757"/>
<path d="M107.725 28.2545H105.769V27.7814H107.181V20.3963H105.769V19.9231H107.725V28.2545Z" fill="#575757"/>
<path d="M111.053 27.4845V20.554H112.274V26.3433H115.737V27.4845H111.053Z" fill="#575757"/>
<path d="M118.073 27.4845V20.554H119.294V27.4845H118.073Z" fill="#575757"/>
<path d="M127.831 27.4845H126.724L123.777 23.1146C123.682 22.9755 123.586 22.8085 123.481 22.6043C123.5 22.7621 123.51 22.9383 123.51 23.1146V27.4845H122.299V20.554H123.481L126.362 24.8588C126.429 24.9609 126.524 25.1279 126.658 25.3877C126.638 25.2114 126.629 25.0351 126.629 24.8588V20.554H127.84V27.4845H127.831Z" fill="#575757"/>
<path d="M133.649 27.5958C133.124 27.5958 132.647 27.4937 132.237 27.2896C131.827 27.0855 131.503 26.8165 131.255 26.4732C131.007 26.1299 130.826 25.7495 130.702 25.332C130.578 24.9145 130.52 24.4785 130.52 24.0053C130.52 23.662 130.559 23.3187 130.635 22.9847C130.711 22.6507 130.835 22.326 131.007 22.0198C131.178 21.7137 131.379 21.4353 131.617 21.2034C131.856 20.9715 132.151 20.7859 132.495 20.6375C132.848 20.4983 133.229 20.4241 133.639 20.4241C134.259 20.4241 134.765 20.5447 135.146 20.7952C135.528 21.0457 135.852 21.3797 136.129 21.8157L135.041 22.4188C134.65 21.8528 134.183 21.5652 133.639 21.5652C133.296 21.5652 133 21.6395 132.752 21.7879C132.495 21.9363 132.304 22.1312 132.17 22.3817C132.037 22.6322 131.932 22.892 131.875 23.161C131.818 23.4301 131.779 23.7084 131.779 24.0053C131.779 24.6918 131.932 25.2671 132.247 25.7402C132.561 26.2134 133.019 26.4453 133.639 26.4453C134.03 26.4453 134.355 26.3155 134.622 26.065C134.879 25.8145 135.013 25.5083 135.013 25.1465V25.0444H133.763V23.9311H136.253V24.8867C136.253 25.7402 136.005 26.399 135.518 26.8814C135.041 27.3638 134.412 27.5958 133.649 27.5958Z" fill="#575757"/>
<path d="M142.653 20.554H144.846C145.323 20.554 145.762 20.6189 146.163 20.7488C146.554 20.8787 146.878 21.055 147.136 21.2776C147.393 21.491 147.612 21.7508 147.784 22.057C147.956 22.3538 148.08 22.6693 148.156 22.994C148.232 23.3187 148.271 23.662 148.271 24.0146C148.271 24.3486 148.232 24.664 148.166 24.9887C148.089 25.3042 147.975 25.6196 147.803 25.9258C147.631 26.232 147.422 26.4917 147.155 26.7237C146.897 26.9556 146.563 27.1319 146.163 27.2711C145.762 27.4102 145.304 27.4752 144.808 27.4752H142.653V20.554ZM144.98 26.3618C145.342 26.3618 145.657 26.2969 145.934 26.1577C146.21 26.0186 146.42 25.833 146.573 25.6011C146.725 25.3691 146.84 25.1186 146.907 24.8496C146.983 24.5898 147.012 24.3115 147.012 24.0146C147.012 23.3651 146.849 22.8177 146.525 22.3538C146.201 21.8992 145.724 21.6673 145.094 21.6673H143.874V26.3618H144.98Z" fill="#575757"/>
<path d="M155.281 27.4845L154.718 25.9722H151.904L151.342 27.4845H150.054L152.705 20.554H153.917L156.559 27.4845H155.281ZM154.327 24.896L153.545 22.8177C153.44 22.5672 153.364 22.3353 153.306 22.1126C153.259 22.3075 153.182 22.5394 153.077 22.8177L152.286 24.896H154.327Z" fill="#575757"/>
<path d="M160.841 21.6951V27.4845H159.621V21.6951H157.599V20.554H162.873V21.6951H160.841Z" fill="#575757"/>
<path d="M169.139 27.4845L168.577 25.9722H165.763L165.2 27.4845H163.913L166.564 20.554H167.775L170.417 27.4845H169.139ZM168.186 24.896L167.403 22.8177C167.299 22.5672 167.222 22.3353 167.165 22.1126C167.108 22.3075 167.032 22.5394 166.927 22.8177L166.135 24.896H168.186Z" fill="#575757"/>
<path d="M67.4175 41.2157V34.2852H72.0529V35.4078H68.6383V37.0778H70.7462V38.2004H68.6383V40.1023H72.2818V41.2249H67.4175V41.2157Z" fill="#575757"/>
<path d="M80.4176 41.2157H79.3112L76.364 36.8458C76.2686 36.7067 76.1732 36.5397 76.0683 36.3355C76.0874 36.4933 76.0969 36.6695 76.0969 36.8458V41.2157H74.8856V34.2852H76.0683L78.9488 38.59C79.0155 38.6921 79.1109 38.8591 79.2444 39.1189C79.2254 38.9426 79.2158 38.7663 79.2158 38.59V34.2852H80.4271V41.2157H80.4176Z" fill="#575757"/>
<path d="M86.1499 35.4263V41.2157H84.929V35.4263H82.907V34.2852H88.1815V35.4263H86.1499Z" fill="#575757"/>
<path d="M90.6709 41.2157V34.2852H95.3063V35.4078H91.8918V37.0778H93.9996V38.2004H91.8918V40.1023H95.5352V41.2249H90.6709V41.2157Z" fill="#575757"/>
<path d="M98.1296 41.2157V34.2852H101.287C102.107 34.2852 102.698 34.48 103.07 34.8789C103.442 35.2779 103.623 35.7789 103.623 36.3912C103.623 36.818 103.499 37.2262 103.252 37.5973C103.004 37.9684 102.641 38.2282 102.164 38.3674L103.585 41.2064H102.212L100.838 38.4973H99.3505V41.2064H98.1296V41.2157ZM99.3505 37.3747H101.306C101.668 37.3747 101.935 37.2819 102.107 37.0963C102.279 36.9108 102.364 36.6788 102.364 36.3912C102.364 36.1129 102.279 35.8809 102.116 35.6954C101.954 35.5098 101.678 35.417 101.306 35.417H99.3505V37.3747Z" fill="#575757"/>
<path d="M106.313 41.2157V34.2852H109.27C110.09 34.2852 110.691 34.4893 111.082 34.9068C111.464 35.3243 111.664 35.8345 111.664 36.4283C111.664 36.9943 111.464 37.4953 111.063 37.9313C110.662 38.3674 110.062 38.5808 109.279 38.5808H107.544V41.2064H106.313V41.2157ZM109.337 37.4674C109.699 37.4674 109.966 37.3654 110.138 37.1613C110.31 36.9572 110.405 36.7159 110.405 36.4376C110.405 36.1778 110.319 35.9366 110.157 35.7325C109.995 35.5284 109.718 35.417 109.337 35.417H107.534V37.4674H109.337Z" fill="#575757"/>
<path d="M114.01 41.2157V34.2852H117.167C117.988 34.2852 118.579 34.48 118.951 34.8789C119.323 35.2779 119.504 35.7789 119.504 36.3912C119.504 36.818 119.38 37.2262 119.132 37.5973C118.884 37.9684 118.522 38.2282 118.045 38.3674L119.466 41.2064H118.092L116.719 38.4973H115.231V41.2064H114.01V41.2157ZM115.231 37.3747H117.186C117.549 37.3747 117.816 37.2819 117.988 37.0963C118.159 36.9108 118.245 36.6788 118.245 36.3912C118.245 36.1129 118.159 35.8809 117.997 35.6954C117.835 35.5098 117.558 35.417 117.186 35.417H115.231V37.3747Z" fill="#575757"/>
<path d="M122.251 41.2157V34.2852H123.472V41.2157H122.251Z" fill="#575757"/>
<path d="M128.746 41.3363C128.098 41.3363 127.535 41.1786 127.058 40.8538C126.591 40.5384 126.257 40.0931 126.057 39.5457L127.182 39.1374C127.335 39.4622 127.544 39.7219 127.821 39.9168C128.098 40.1116 128.422 40.2044 128.775 40.2044C129.147 40.2044 129.442 40.1209 129.662 39.9539C129.881 39.7869 129.996 39.5549 129.996 39.2395C129.996 39.1189 129.967 38.9983 129.9 38.8869C129.843 38.7756 129.767 38.6828 129.69 38.6179C129.614 38.5437 129.5 38.4694 129.338 38.4045C129.185 38.3303 129.051 38.2746 128.937 38.2282C128.832 38.1818 128.67 38.1354 128.46 38.0612C128.193 37.9684 127.983 37.8942 127.831 37.8478C127.688 37.7922 127.497 37.7087 127.268 37.5881C127.039 37.4674 126.867 37.3376 126.753 37.2169C126.638 37.0963 126.524 36.9293 126.438 36.7159C126.343 36.5118 126.305 36.2799 126.305 36.0294C126.305 35.5006 126.514 35.0552 126.934 34.7027C127.354 34.3501 127.926 34.1646 128.641 34.1646C129.242 34.1646 129.738 34.3037 130.129 34.5728C130.52 34.8511 130.787 35.2037 130.921 35.649L129.824 36.0016C129.605 35.5284 129.185 35.2872 128.565 35.2872C128.25 35.2872 127.993 35.3521 127.821 35.482C127.64 35.6119 127.554 35.7974 127.554 36.0294C127.554 36.1871 127.621 36.3263 127.764 36.4562C127.907 36.5861 128.05 36.6788 128.212 36.7345C128.374 36.7994 128.603 36.8737 128.918 36.9757C129.118 37.0499 129.271 37.1056 129.385 37.1427C129.49 37.1798 129.633 37.2448 129.824 37.3283C130.015 37.4118 130.167 37.4953 130.272 37.5602C130.377 37.6252 130.501 37.7272 130.644 37.8386C130.787 37.9592 130.892 38.0798 130.969 38.2097C131.045 38.3396 131.112 38.488 131.159 38.6643C131.217 38.8406 131.245 39.0261 131.245 39.2302C131.245 39.8797 131.007 40.3899 130.539 40.7611C130.072 41.1507 129.471 41.3363 128.746 41.3363Z" fill="#575757"/>
<path d="M133.897 41.2157V34.2852H138.532V35.4078H135.118V37.0778H137.225V38.2004H135.118V40.1023H138.761V41.2249H133.897V41.2157Z" fill="#575757"/>
</g>
<defs>
<clipPath id="clip0_3482_166419">
<rect width="103" height="25" fill="white" transform="translate(67.0001 18)"/>
</clipPath>
</defs>
</svg>
