<svg width="21" height="15" viewBox="0 0 21 15" fill="none" xmlns="http://www.w3.org/2000/svg">
<path d="M7.36421 7.36415C9.39776 7.36415 11.0463 5.71563 11.0463 3.68208C11.0463 1.64852 9.39776 0 7.36421 0C5.33065 0 3.68213 1.64852 3.68213 3.68208C3.68213 5.71563 5.33065 7.36415 7.36421 7.36415Z" fill="#8A8A8A"/>
<path fill-rule="evenodd" clip-rule="evenodd" d="M9.89546 8.95047C9.10492 8.71736 8.25266 8.59033 7.36415 8.59033C3.73856 8.59033 0.716461 10.7043 0.0287288 13.5123C-0.122434 14.1304 0.342593 14.7271 0.962244 14.7271H13.7661C13.8674 14.7271 13.9646 14.7112 14.0557 14.6818C11.6626 14.3538 9.81904 12.3012 9.81904 9.81805C9.81904 9.52201 9.84524 9.23208 9.89546 8.95047Z" fill="#8A8A8A"/>
<path fill-rule="evenodd" clip-rule="evenodd" d="M18.5377 9.20889C18.5377 9.34683 18.5252 9.47665 18.5085 9.60648L19.3885 10.2759C19.4678 10.3367 19.4886 10.4463 19.4386 10.5355L18.6044 11.9393C18.5669 12.0042 18.496 12.0407 18.4251 12.0407C18.4 12.0407 18.375 12.0366 18.35 12.0285L17.3115 11.6228C17.0946 11.781 16.861 11.919 16.6066 12.0204L16.4481 13.0955C16.4356 13.1929 16.348 13.2659 16.2437 13.2659L14.5754 13.2659C14.4711 13.2659 14.3835 13.1929 14.371 13.0955L14.2125 12.0204C13.9581 11.919 13.7245 11.7851 13.5077 11.6228L12.4691 12.0285C12.4483 12.0366 12.4232 12.0407 12.3982 12.0407C12.3231 12.0407 12.2522 12.0042 12.2147 11.9393L11.3805 10.5355C11.3305 10.4463 11.3513 10.3367 11.4306 10.2759L12.3106 9.60648C12.2939 9.47665 12.2814 9.34277 12.2814 9.20889C12.2814 9.07501 12.2939 8.94112 12.3106 8.8113L11.4306 8.14189C11.3513 8.08103 11.3263 7.97149 11.3805 7.88224L12.2147 6.47851C12.2522 6.4136 12.3231 6.37708 12.394 6.37708C12.4191 6.37708 12.4441 6.38114 12.4691 6.38925L13.5077 6.79496C13.7245 6.63673 13.9581 6.49879 14.2125 6.39737L14.371 5.32225C14.3835 5.22489 14.4711 5.15186 14.5754 5.15186L16.2437 5.15186C16.348 5.15186 16.4356 5.22489 16.4481 5.32225L16.6066 6.39737C16.861 6.49879 17.0946 6.63267 17.3115 6.79496L18.35 6.38925C18.3709 6.38114 18.3959 6.37708 18.4209 6.37708C18.496 6.37708 18.5669 6.41359 18.6044 6.47851L19.4386 7.88224C19.4886 7.97149 19.4678 8.08103 19.3885 8.14189L18.5085 8.8113C18.5252 8.94112 18.5377 9.07095 18.5377 9.20889ZM16.2195 10.5429C16.9472 10.1228 17.1965 9.19234 16.7764 8.46467C16.3563 7.737 15.4258 7.48769 14.6981 7.9078C13.9705 8.32792 13.7212 9.25839 14.1413 9.98606C14.5614 10.7137 15.4919 10.963 16.2195 10.5429Z" fill="#8A8A8A"/>
</svg>
