<svg width="30" height="28" viewBox="0 0 30 28" fill="none" xmlns="http://www.w3.org/2000/svg">
<path d="M15 0C23.2706 0 30 5.34834 30 11.9236C30 14.5555 28.9594 16.9248 26.7844 19.2592C23.6381 22.8076 16.6012 27.1293 15 27.7904C13.4438 28.4333 13.6237 27.4286 13.695 27.0319L13.7006 26.9989L13.9144 25.7407C13.965 25.3661 14.0175 24.7838 13.8656 24.4128C13.6969 24.0033 13.0331 23.7902 12.5456 23.6874C5.33625 22.7562 0 17.8174 0 11.9236C0 5.34834 6.73125 0 15 0ZM9.41625 14.1165H6.55687V9.03268C6.55688 8.95701 6.52632 8.8844 6.47187 8.83072C6.41742 8.77704 6.3435 8.74664 6.26625 8.74616H5.2125C5.17409 8.74616 5.13605 8.75357 5.10056 8.76797C5.06508 8.78237 5.03283 8.80347 5.00567 8.83008C4.97851 8.85668 4.95696 8.88827 4.94227 8.92303C4.92757 8.95779 4.92 8.99505 4.92 9.03268V15.4353C4.92 15.5106 4.95188 15.5822 5.0025 15.6318V15.6336L5.00625 15.6373L5.01 15.641C5.06438 15.6922 5.13706 15.7205 5.2125 15.7199H9.41625C9.5775 15.7199 9.70688 15.5914 9.70688 15.4334V14.4049C9.70712 14.3673 9.6998 14.33 9.68533 14.2951C9.67086 14.2603 9.64952 14.2285 9.62253 14.2018C9.59554 14.175 9.56344 14.1537 9.52804 14.1391C9.49265 14.1244 9.45466 14.1168 9.41625 14.1165ZM10.8994 8.74616C10.8218 8.74616 10.7474 8.77635 10.6925 8.83008C10.6377 8.88381 10.6069 8.95669 10.6069 9.03268V15.4353C10.6069 15.5932 10.7381 15.7199 10.8994 15.7199H11.9531C12.1144 15.7199 12.2438 15.5914 12.2438 15.4353V9.03268C12.2438 8.95701 12.2132 8.8844 12.1587 8.83072C12.1043 8.77704 12.0304 8.74664 11.9531 8.74616H10.8994ZM18.1425 8.74616C18.0649 8.74616 17.9905 8.77635 17.9357 8.83008C17.8808 8.88381 17.85 8.95669 17.85 9.03268V12.8346L14.8556 8.87472C14.8481 8.86508 14.8399 8.85589 14.8313 8.84717V8.84534C14.8253 8.83891 14.8191 8.83278 14.8125 8.82697L14.8069 8.82146C14.8004 8.81544 14.7936 8.80991 14.7863 8.80493H14.7844L14.775 8.79758L14.7694 8.79391C14.7664 8.79177 14.7633 8.78993 14.76 8.7884L14.745 8.77922H14.7413L14.7356 8.77555L14.7169 8.7682L14.7094 8.76453C14.7032 8.76235 14.697 8.76051 14.6906 8.75902H14.6869L14.6812 8.75718L14.6644 8.7535H14.6531L14.6475 8.75167H14.64L14.6363 8.74983H13.56C13.4827 8.74983 13.4086 8.77976 13.3538 8.8331C13.299 8.88644 13.268 8.95884 13.2675 9.03451V15.4371C13.2675 15.5951 13.3987 15.7218 13.56 15.7218H14.61C14.7731 15.7218 14.9044 15.5932 14.9044 15.4371V11.6352L17.9044 15.6024C17.9243 15.6297 17.9491 15.6534 17.9775 15.6722L17.9794 15.674L17.9981 15.685L18.0056 15.6887C18.0104 15.6915 18.0155 15.694 18.0206 15.6961L18.0338 15.7016L18.0431 15.7052C18.0493 15.7073 18.0556 15.7091 18.0619 15.7108H18.0675C18.0919 15.7176 18.1171 15.7213 18.1425 15.7218H19.1925C19.3556 15.7218 19.4869 15.5932 19.4869 15.4371V9.03268C19.4869 8.95669 19.4561 8.88381 19.4012 8.83008C19.3464 8.77635 19.272 8.74616 19.1944 8.74616H18.1425ZM25.2956 10.063V9.03451C25.2959 8.99689 25.2886 8.95958 25.2741 8.92473C25.2596 8.88987 25.2383 8.85815 25.2113 8.83137C25.1843 8.8046 25.1522 8.78329 25.1168 8.76867C25.0814 8.75405 25.0434 8.7464 25.005 8.74616H20.8013C20.7256 8.74625 20.6529 8.77524 20.5988 8.82697H20.5969L20.595 8.83064L20.5913 8.83615C20.5389 8.88878 20.5093 8.9592 20.5087 9.03268V15.4353C20.5087 15.5106 20.5406 15.5822 20.5913 15.6318L20.595 15.6373L20.5988 15.641C20.6532 15.692 20.7258 15.7203 20.8013 15.7199H25.005C25.1663 15.7199 25.2956 15.5914 25.2956 15.4334V14.4049C25.2959 14.3673 25.2886 14.33 25.2741 14.2951C25.2596 14.2603 25.2383 14.2285 25.2113 14.2018C25.1843 14.175 25.1522 14.1537 25.1168 14.1391C25.0814 14.1244 25.0434 14.1168 25.005 14.1165H22.1438V13.0348H25.0031C25.1644 13.0348 25.2938 12.9062 25.2938 12.7482V11.7197C25.294 11.6821 25.2867 11.6448 25.2722 11.6099C25.2577 11.5751 25.2364 11.5433 25.2094 11.5166C25.1824 11.4898 25.1503 11.4685 25.1149 11.4539C25.0795 11.4392 25.0415 11.4316 25.0031 11.4314H22.1438V10.3496H25.0031C25.1644 10.3496 25.2938 10.221 25.2938 10.063H25.2956Z" fill="white"/>
</svg>
