<svg width="150" height="28" viewBox="0 0 150 28" fill="none" xmlns="http://www.w3.org/2000/svg">
<path d="M0 27.5824V2.62695H16.7093V7.34503H5.61888V12.5663H15.486V17.2844H5.61888V27.5824H0V27.5824Z" fill="#231815"/>
<path d="M26.1788 3.16948C26.1788 4.15369 25.8618 4.92938 25.2251 5.49099C24.5885 6.05538 23.8378 6.33618 22.9731 6.33618C22.1085 6.33618 21.3578 6.05538 20.7211 5.49099C20.0845 4.9266 19.7675 4.15369 19.7675 3.16948C19.7675 2.18527 20.0845 1.41237 20.7211 0.847975C21.3606 0.283585 22.1113 0 22.9731 0C23.835 0 24.5885 0.283585 25.2251 0.845195C25.8618 1.40959 26.1788 2.18527 26.1788 3.16948ZM25.6755 27.5828H20.3097V8.64379H25.6755V27.5828Z" fill="#231815"/>
<path d="M42.1316 13.3951C41.6506 13.2756 41.0862 13.1504 40.4384 13.017C39.7906 12.8863 39.0928 12.8196 38.3504 12.8196C38.014 12.8196 37.6109 12.8502 37.1438 12.9086C36.6767 12.9697 36.3209 13.0337 36.0818 13.106V27.5827H30.7159V9.65012C31.6751 9.31371 32.8094 8.99676 34.1189 8.69649C35.4256 8.39623 36.8852 8.24609 38.495 8.24609C38.7842 8.24609 39.1317 8.26556 39.5404 8.29892C39.9491 8.33506 40.355 8.38233 40.7637 8.44349C41.1724 8.50466 41.5783 8.57694 41.987 8.66035C42.3957 8.74376 42.7432 8.84663 43.0324 8.96618L42.1316 13.3951Z" fill="#231815"/>
<path d="M51.3484 23.2264C52.3326 23.2264 53.0305 23.1291 53.4392 22.9372C53.8479 22.7454 54.0508 22.3729 54.0508 21.8224C54.0508 21.3914 53.7867 21.0133 53.2585 20.688C52.7302 20.3627 51.9267 19.9985 50.8452 19.5898C50.0028 19.2784 49.241 18.9532 48.5571 18.6167C47.8731 18.2803 47.292 17.8772 46.8111 17.4101C46.3301 16.943 45.9575 16.3842 45.6934 15.7364C45.4293 15.0886 45.2986 14.3074 45.2986 13.3954C45.2986 11.6189 45.9575 10.2148 47.2781 9.18336C48.5988 8.15189 50.4115 7.63477 52.7163 7.63477C53.8701 7.63477 54.9739 7.73763 56.0304 7.94059C57.0869 8.14355 57.9265 8.36597 58.5493 8.60785L57.6123 12.7866C56.9895 12.5697 56.3112 12.3779 55.5772 12.2111C54.846 12.0442 54.023 11.9581 53.1111 11.9581C51.4291 11.9581 50.5894 12.4251 50.5894 13.3621C50.5894 13.5789 50.6256 13.7708 50.6978 13.9376C50.7701 14.1072 50.9147 14.2684 51.1316 14.4241C51.3456 14.5798 51.6404 14.7494 52.0129 14.9301C52.3855 15.1109 52.8581 15.311 53.4364 15.5279C54.6124 15.9644 55.5827 16.3925 56.3529 16.8179C57.1202 17.2405 57.7263 17.6993 58.1711 18.1886C58.616 18.6807 58.9274 19.2256 59.1081 19.8234C59.2888 20.4211 59.3778 21.1162 59.3778 21.9058C59.3778 23.7741 58.6744 25.1892 57.2704 26.1457C55.8663 27.1021 53.8784 27.583 51.3123 27.583C49.6302 27.583 48.2318 27.4385 47.1169 27.1521C45.9992 26.863 45.2263 26.6239 44.7954 26.432L45.6962 22.0754C46.6081 22.434 47.545 22.7176 48.5042 22.9206C49.4662 23.1235 50.4143 23.2264 51.3484 23.2264Z" fill="#231815"/>
<path d="M63.1978 3.49161L68.5637 2.62695V8.20969H75.0083V12.6748H68.5609V19.3362C68.5609 20.465 68.7583 21.3658 69.1559 22.0359C69.5507 22.7087 70.3514 23.0451 71.5497 23.0451C72.1252 23.0451 72.7202 22.9895 73.3319 22.8838C73.9435 22.7754 74.5023 22.6253 75.0056 22.4334L75.7618 26.6121C75.114 26.8763 74.3939 27.1043 73.6015 27.2961C72.8092 27.4879 71.8361 27.5852 70.6851 27.5852C69.2199 27.5852 68.0077 27.3878 67.0485 26.9903C66.0865 26.5955 65.3192 26.0422 64.7437 25.3332C64.1682 24.6243 63.765 23.768 63.537 22.7587C63.3091 21.7495 63.1951 20.6346 63.1951 19.4085V3.49161H63.1978Z" fill="#231815"/>
<path d="M97.4366 5.82462H103.926V0H97.4366C89.8188 0 83.6438 6.17493 83.6438 13.7928C83.6438 21.4107 89.8188 27.5856 97.4366 27.5856H103.926V21.7582H97.4366C93.0355 21.7582 89.4712 18.1912 89.4712 13.7928C89.4712 9.39168 93.0383 5.82462 97.4366 5.82462Z" fill="#6DB2C6"/>
<path d="M141.362 0H129.732V5.82462H141.362C142.916 5.82462 144.178 7.08407 144.178 8.64101C144.178 10.1952 142.919 11.4574 141.362 11.4574H138.365C133.663 11.4574 129.846 15.2163 129.735 19.8899H129.724V27.5828H135.548V19.8899H135.568C135.676 18.433 136.877 17.282 138.362 17.282H141.359C146.13 17.282 150 13.4147 150 8.64101C150 3.86732 146.133 0 141.362 0Z" fill="#F6D98C"/>
<path d="M113.173 0H106.684V5.82462H113.173C117.574 5.82462 121.138 9.39168 121.138 13.79C121.138 18.1912 117.571 21.7554 113.173 21.7554H112.511V11.4574H106.686V21.7582V27.5828H112.511H113.173C120.791 27.5828 126.965 21.4079 126.965 13.79C126.963 6.17493 120.788 0 113.173 0Z" fill="#A6D2C5"/>
</svg>
