<svg width="21" height="15" viewBox="0 0 21 15" fill="none" xmlns="http://www.w3.org/2000/svg">
<path d="M7.36433 7.36415C9.39788 7.36415 11.0464 5.71563 11.0464 3.68208C11.0464 1.64852 9.39788 0 7.36433 0C5.33077 0 3.68225 1.64852 3.68225 3.68208C3.68225 5.71563 5.33077 7.36415 7.36433 7.36415Z" fill="#63A7C8"/>
<path fill-rule="evenodd" clip-rule="evenodd" d="M9.89546 8.95047C9.10492 8.71736 8.25266 8.59033 7.36415 8.59033C3.73856 8.59033 0.716461 10.7043 0.0287288 13.5123C-0.122434 14.1304 0.342593 14.7271 0.962244 14.7271H13.7661C13.8674 14.7271 13.9646 14.7112 14.0557 14.6818C11.6626 14.3538 9.81904 12.3012 9.81904 9.81805C9.81904 9.52201 9.84524 9.23208 9.89546 8.95047Z" fill="#63A7C8"/>
<path fill-rule="evenodd" clip-rule="evenodd" d="M18.5376 9.20889C18.5376 9.34683 18.5251 9.47665 18.5084 9.60648L19.3884 10.2759C19.4677 10.3367 19.4885 10.4463 19.4385 10.5355L18.6043 11.9393C18.5668 12.0042 18.4959 12.0407 18.425 12.0407C18.3999 12.0407 18.3749 12.0366 18.3499 12.0285L17.3113 11.6228C17.0945 11.781 16.8609 11.919 16.6065 12.0204L16.448 13.0955C16.4355 13.1929 16.3479 13.2659 16.2436 13.2659L14.5753 13.2659C14.471 13.2659 14.3834 13.1929 14.3709 13.0955L14.2124 12.0204C13.958 11.919 13.7244 11.7851 13.5075 11.6228L12.469 12.0285C12.4481 12.0366 12.4231 12.0407 12.3981 12.0407C12.323 12.0407 12.2521 12.0042 12.2146 11.9393L11.3804 10.5355C11.3304 10.4463 11.3512 10.3367 11.4305 10.2759L12.3105 9.60648C12.2938 9.47665 12.2813 9.34277 12.2813 9.20889C12.2813 9.07501 12.2938 8.94112 12.3105 8.8113L11.4305 8.14189C11.3512 8.08103 11.3262 7.97149 11.3804 7.88224L12.2146 6.47851C12.2521 6.4136 12.323 6.37708 12.3939 6.37708C12.4189 6.37708 12.444 6.38114 12.469 6.38925L13.5075 6.79496C13.7244 6.63673 13.958 6.49879 14.2124 6.39737L14.3709 5.32225C14.3834 5.22489 14.471 5.15186 14.5753 5.15186L16.2436 5.15186C16.3479 5.15186 16.4355 5.22489 16.448 5.32225L16.6065 6.39737C16.8609 6.49879 17.0945 6.63267 17.3113 6.79496L18.3499 6.38925C18.3707 6.38114 18.3958 6.37708 18.4208 6.37708C18.4959 6.37708 18.5668 6.4136 18.6043 6.47851L19.4385 7.88224C19.4885 7.97149 19.4677 8.08103 19.3884 8.14189L18.5084 8.8113C18.5251 8.94112 18.5376 9.07095 18.5376 9.20889ZM16.2194 10.5429C16.9471 10.1228 17.1964 9.19234 16.7763 8.46467C16.3562 7.737 15.4257 7.48769 14.698 7.9078C13.9704 8.32792 13.721 9.25839 14.1412 9.98606C14.5613 10.7137 15.4917 10.963 16.2194 10.5429Z" fill="#63A7C8"/>
</svg>
