<svg width="281" height="185" viewBox="0 0 281 185" fill="none" xmlns="http://www.w3.org/2000/svg">
<path d="M74.6383 32.9494L79.5445 116.612C79.6278 118.048 80.256 119.397 81.3009 120.385C82.3458 121.373 83.7285 121.925 85.1665 121.928L235.758 122.387C236.499 122.39 237.234 122.246 237.92 121.965C238.607 121.683 239.23 121.269 239.756 120.746C240.283 120.224 240.7 119.602 240.986 118.918C241.272 118.234 241.42 117.5 241.422 116.758L241.623 51.6152C241.625 50.8704 241.479 50.1325 241.195 49.4441C240.911 48.7556 240.493 48.1302 239.966 47.6039C239.439 47.0775 238.813 46.6605 238.124 46.3769C237.435 46.0934 236.697 45.9488 235.952 45.9516L143.339 46.2643C142.598 46.2671 141.864 46.1237 141.178 45.8423C140.492 45.5608 139.869 45.1469 139.343 44.6242L123.297 28.7243C122.242 27.6803 120.82 27.0915 119.336 27.0842L80.2951 26.9661C79.5239 26.9648 78.7606 27.1212 78.0521 27.4257C77.3437 27.7302 76.7049 28.1763 76.1751 28.7367C75.6453 29.297 75.2357 29.9598 74.9714 30.6842C74.7072 31.4087 74.5938 32.1796 74.6383 32.9494Z" fill="#63A7C8"/>
<path opacity="0.3" d="M74.6383 32.9494L79.5445 116.612C79.6278 118.048 80.256 119.397 81.3009 120.385C82.3458 121.373 83.7285 121.925 85.1665 121.928L235.758 122.387C236.499 122.39 237.234 122.246 237.92 121.965C238.607 121.683 239.23 121.269 239.756 120.746C240.283 120.224 240.7 119.602 240.986 118.918C241.272 118.234 241.42 117.5 241.422 116.758L241.623 51.6152C241.625 50.8704 241.479 50.1325 241.195 49.4441C240.911 48.7556 240.493 48.1302 239.966 47.6039C239.439 47.0775 238.813 46.6605 238.124 46.3769C237.435 46.0934 236.697 45.9488 235.952 45.9516L143.339 46.2643C142.598 46.2671 141.864 46.1237 141.178 45.8423C140.492 45.5608 139.869 45.1469 139.343 44.6242L123.297 28.7243C122.242 27.6803 120.82 27.0915 119.336 27.0842L80.2951 26.9661C79.5239 26.9648 78.7606 27.1212 78.0521 27.4257C77.3437 27.7302 76.7049 28.1763 76.1751 28.7367C75.6453 29.297 75.2357 29.9598 74.9714 30.6842C74.7072 31.4087 74.5938 32.1796 74.6383 32.9494Z" fill="black"/>
<path d="M255.995 38.5298L102.054 59.7251L118.357 172.471L271.033 150.962L255.995 38.5298Z" fill="#EBEBEB"/>
<path d="M256.585 24.4644L104.423 56.0003L128.301 167.391L279.177 135.625L256.585 24.4644Z" fill="#E0E0E0"/>
<path d="M243.145 11.9626C243.548 13.1162 257.884 54.1796 280.525 119.065L280.574 119.204L280.435 119.253L135.194 170.914L135.021 170.976L134.965 170.803L134.68 170.024C120.969 131.852 107.967 95.6669 96.4589 63.5959L96.4033 63.4361L96.5562 63.3875L243.186 11.9626L96.6187 63.6932L96.716 63.4847L134.986 169.899L135.271 170.685L135.034 170.573L280.337 118.975L280.247 119.163C257.773 54.2144 243.548 13.1162 243.145 11.9626Z" fill="#263238"/>
<path d="M243.145 11.9626L96.5635 63.5403L135.097 170.747L280.386 119.114L243.145 11.9626Z" fill="white"/>
<path d="M243.145 11.9626L96.5635 63.5403L135.097 170.747L280.386 119.114L243.145 11.9626Z" fill="white"/>
<path d="M247.28 114.792C246.995 114.896 239.955 96.6123 231.554 73.9576C223.152 51.3029 216.557 32.8525 216.842 32.7482C217.127 32.644 224.16 50.9207 232.568 73.5823C240.977 96.244 247.558 114.674 247.28 114.792Z" fill="#263238"/>
<path d="M234.757 120.511C234.479 120.615 227.432 102.332 219.031 79.6838C210.629 57.036 204.041 38.5717 204.319 38.4675C204.597 38.3632 211.644 56.6469 220.052 79.3016C228.461 101.956 235.042 120.407 234.757 120.511Z" fill="#263238"/>
<path d="M195.89 136.793C195.612 136.897 188.565 118.614 180.164 95.9588C171.762 73.3041 165.174 54.8537 165.452 54.7495C165.73 54.6452 172.776 72.9219 181.178 95.5835C189.58 118.245 196.168 136.689 195.89 136.793Z" fill="#263238"/>
<path d="M208.281 131.804C207.996 131.908 200.956 113.624 192.555 90.9696C184.153 68.3148 177.558 49.8644 177.843 49.7602C178.128 49.656 185.16 67.9326 193.569 90.5943C201.978 113.256 208.566 131.699 208.281 131.804Z" fill="#263238"/>
<path d="M220.664 126.814C220.386 126.918 213.347 108.635 204.938 85.9867C196.529 63.339 189.948 44.8747 190.226 44.7705C190.504 44.6662 197.551 62.9498 205.959 85.6045C214.368 108.259 220.949 126.71 220.664 126.814Z" fill="#263238"/>
<path d="M181.539 140.921C181.261 141.025 174.215 122.741 165.813 100.087C157.411 77.432 150.823 58.9816 151.101 58.8774C151.379 58.7732 158.426 77.0498 166.834 99.7115C175.243 122.373 181.824 140.817 181.539 140.921Z" fill="#263238"/>
<path d="M167.815 145.945C167.537 146.05 160.497 127.766 152.088 105.118C143.68 82.4704 137.099 64.0131 137.377 63.9436C137.655 63.8741 144.701 82.1229 153.11 104.778C161.519 127.432 168.099 145.848 167.815 145.945Z" fill="#263238"/>
<path d="M154.097 150.983C153.812 151.088 146.773 132.804 138.364 110.156C129.955 87.5084 123.374 69.0441 123.659 68.9399C123.944 68.8357 130.977 87.1193 139.386 109.774C147.794 132.429 154.361 150.879 154.097 150.983Z" fill="#263238"/>
<path d="M71.5598 78.7453L83.8114 181.31C83.9165 182.19 84.3397 183.002 85.0014 183.592C85.6631 184.182 86.5177 184.51 87.4042 184.514L247.752 185C248.667 185.005 249.55 184.664 250.224 184.045C250.898 183.427 251.313 182.576 251.387 181.664L259.775 79.1622C259.815 78.6624 259.751 78.1597 259.588 77.6855C259.425 77.2113 259.166 76.776 258.826 76.4067C258.487 76.0375 258.075 75.7423 257.617 75.5396C257.158 75.3369 256.662 75.2312 256.161 75.229L75.1804 74.68C74.6658 74.6783 74.1566 74.7859 73.6867 74.9958C73.2168 75.2056 72.7968 75.5129 72.4545 75.8972C72.1122 76.2815 71.8555 76.7342 71.7012 77.2251C71.547 77.7161 71.4988 78.2343 71.5598 78.7453Z" fill="#63A7C8"/>
<path d="M138.327 25.5966C131.141 16.6965 121.477 10.1264 110.558 6.71694C99.6391 3.30743 87.9542 3.21147 76.9806 6.44118C66.0069 9.67089 56.237 16.0813 48.9057 24.8622C41.5744 33.6431 37.0107 44.4003 35.7915 55.7742C34.8077 65.021 36.0693 74.3686 39.4692 83.0238C42.869 91.679 48.3069 99.3862 55.3211 105.491L4.69141 164.914L11.9537 171.107L62.9857 111.183C70.3133 115.708 78.5639 118.529 87.1278 119.437C89.2074 119.66 91.2975 119.771 93.3891 119.77C104.295 119.734 114.968 116.619 124.181 110.783C133.394 104.947 140.772 96.6276 145.464 86.7831C150.157 76.9386 151.974 65.969 150.706 55.1372C149.438 44.3054 145.137 34.052 138.297 25.5573L138.327 25.5966ZM141.33 67.0503C140.141 78.1574 135.138 88.5088 127.173 96.3408C119.208 104.173 108.774 109.001 97.6481 110.002C86.5225 111.003 75.3939 108.116 66.1583 101.832C56.9228 95.5486 50.1517 86.2569 46.9988 75.5405C43.8459 64.8242 44.5062 53.3461 48.8672 43.062C53.2282 32.7779 61.0201 24.324 70.9153 19.1407C80.8105 13.9574 92.1968 12.3654 103.134 14.636C114.072 16.9065 123.883 22.8992 130.898 31.5928C134.894 36.5198 137.874 42.1905 139.665 48.2767C141.456 54.363 142.021 60.7439 141.33 67.0503Z" fill="#263238"/>
<path d="M134.254 21.5239C127.07 12.6193 117.407 6.04498 106.486 2.63262C95.5658 -0.77975 83.8786 -0.876918 72.903 2.35338C61.9273 5.58368 52.1561 11.9964 44.8253 20.7804C37.4944 29.5643 32.9331 40.3251 31.7184 51.7016C30.7329 60.9485 31.9937 70.2967 35.3937 78.9521C38.7937 87.6076 44.2324 95.3146 51.248 101.419L0 161.283L7.76277 167.495L58.942 107.071C66.2715 111.592 74.5211 114.412 83.0841 115.325C85.1641 115.543 87.254 115.655 89.3454 115.658C100.251 115.622 110.925 112.507 120.138 106.671C129.35 100.835 136.728 92.5158 141.42 82.6712C146.113 72.8267 147.93 61.8571 146.662 51.0253C145.394 40.1936 141.093 29.9401 134.254 21.4454V21.5239ZM137.257 62.9777C136.069 74.0902 131.065 84.4472 123.098 92.2839C115.13 100.12 104.691 104.952 93.5604 105.955C82.4296 106.957 71.2956 104.069 62.0554 97.7831C52.8153 91.4968 46.0408 82.2009 42.8864 71.4795C39.732 60.7581 40.3929 49.2746 44.7564 38.9858C49.1199 28.6971 56.916 20.2397 66.8163 15.0548C76.7165 9.86992 88.1084 8.27839 99.0506 10.5514C109.993 12.8244 119.808 18.8213 126.825 27.5202C130.82 32.448 133.799 38.1188 135.589 44.2048C137.38 50.2908 137.947 56.6714 137.257 62.9777Z" fill="#455A64"/>
<path d="M62.9852 89.1809C62.84 89.0573 62.7114 88.9154 62.6025 88.7589C62.3669 88.4645 62.0038 88.0425 61.6211 87.4635C60.4278 85.8461 59.3489 84.1475 58.3923 82.3799C55.1948 76.5393 53.2524 70.0952 52.6896 63.4604C52.1269 56.8256 52.9561 50.1464 55.1243 43.8507C55.7656 41.9505 56.5395 40.0976 57.4404 38.3058C57.7446 37.6581 58.0292 37.1871 58.2157 36.8632C58.2913 36.688 58.394 36.5257 58.5199 36.3823C58.4634 36.5649 58.3912 36.7422 58.304 36.9123C58.1568 37.2558 57.9016 37.7366 57.617 38.3844C56.7931 40.2037 56.0723 42.068 55.458 43.9684C53.4046 50.2403 52.6349 56.8612 53.1947 63.4368C53.7545 70.0124 55.6322 76.408 58.7162 82.2425C59.6362 84.0114 60.6586 85.7252 61.7781 87.3751C62.1608 87.9738 62.4945 88.3565 62.7006 88.7196C62.8107 88.8634 62.9061 89.018 62.9852 89.1809Z" fill="#263238"/>
<path d="M65.3902 29.7874C65.4785 29.9051 64.8897 30.4547 64.3009 31.23C63.712 32.0053 63.3195 32.7021 63.1821 32.653C63.0447 32.6039 63.241 31.7501 63.8887 30.916C64.5364 30.0818 65.3215 29.6696 65.3902 29.7874Z" fill="#263238"/>
</svg>
