<svg width="100" height="100" viewBox="0 0 100 100" fill="none" xmlns="http://www.w3.org/2000/svg">
<circle cx="50" cy="50" r="50" fill="#EAF3F4"/>
<mask id="mask0_9837_50198" style="mask-type:alpha" maskUnits="userSpaceOnUse" x="0" y="0" width="100" height="100">
<circle cx="50" cy="50" r="50" fill="#EAF3F4"/>
</mask>
<g mask="url(#mask0_9837_50198)">
<path d="M49.6542 74.1136C52.675 74.216 56.2462 74.088 60.2014 73.4608C67.3566 72.3344 73.0782 69.992 77.0846 67.944C75.6254 61.544 74.1534 55.144 72.6942 48.744C72.963 46.7472 73.2702 43.9184 73.3854 40.5136C73.5006 36.7376 73.5774 34.3568 73.155 31.7456C72.195 25.6656 66.5758 16.872 59.971 14.2864C58.691 13.7872 57.5646 13.5824 56.8222 13.48C55.4142 13.2496 53.8526 13.0704 52.1502 13.0192C51.2926 12.9936 50.4734 12.9936 49.6926 13.0192H50.307C49.5262 12.9936 48.707 12.9936 47.8494 13.0192C46.147 13.0832 44.5726 13.2496 43.1774 13.48C42.435 13.5696 41.3086 13.7872 40.0286 14.2864C33.411 16.872 27.8046 25.6656 26.8446 31.7456C26.435 34.3568 26.499 36.7376 26.6142 40.5136C26.7166 43.9184 27.0238 46.7472 27.3054 48.744C25.8462 55.144 24.3742 61.544 22.915 67.944C26.9214 69.992 32.643 72.3344 39.7982 73.4608C43.7406 74.088 47.3118 74.216 50.3454 74.1136" fill="#578F91"/>
<path d="M89.4752 97.1405C88.7584 92.3661 85.8784 88.1805 81.6672 85.7998L59.4336 73.2302C57.6416 72.155 56.5408 70.2222 56.5408 68.1358V57.8062H43.4464V68.1358C43.4464 70.2222 42.3456 72.155 40.5536 73.2302L18.3328 85.7998C14.1216 88.1805 11.2416 92.3661 10.5248 97.1405L10 100.558H50H90L89.4752 97.1405Z" fill="#F5C2B6"/>
<path d="M50.755 67.675C53.0462 66.8814 54.979 65.883 56.5406 64.9358V57.819H43.4461V68.1486C43.4461 68.5198 43.4078 68.8782 43.3438 69.2366C45.4046 69.0574 47.9518 68.635 50.755 67.675Z" fill="#ECA494"/>
<path d="M34.7173 48.2064L33.3989 48.3472C31.4661 48.552 29.7253 47.144 29.5205 45.2112L29.2005 42.2288C28.9957 40.296 30.4037 38.5552 32.3365 38.3504L33.6549 38.2096L34.7173 48.2064Z" fill="#ECA494"/>
<path d="M34.6661 46.402L33.8597 46.4916C32.6693 46.6196 31.6069 45.7492 31.4789 44.5716L31.2869 42.7412C31.1589 41.5508 32.0293 40.4884 33.2069 40.3604L34.0133 40.2708L34.6661 46.402Z" fill="#DF827A"/>
<path d="M65.2715 48.2063L66.5899 48.3471C68.5227 48.5519 70.2635 47.1439 70.4683 45.2111L70.7755 42.2287C70.9803 40.2959 69.5723 38.5551 67.6395 38.3503L66.3211 38.2095L65.2715 48.2063Z" fill="#ECA494"/>
<path d="M65.335 46.402L66.1414 46.4916C67.3318 46.6196 68.3942 45.7492 68.5222 44.5716L68.7142 42.7412C68.8422 41.5508 67.9718 40.4884 66.7942 40.3604L65.9878 40.2708L65.335 46.402Z" fill="#DF827A"/>
<path d="M49.9998 63.7838C50.2046 63.7966 50.499 63.7966 50.8702 63.7838C55.5038 63.6046 58.8446 60.571 59.971 59.5342C65.0782 54.8878 66.691 47.2846 66.691 40.8206C66.691 37.5054 66.691 32.5774 66.691 26.8558C66.691 26.4846 66.691 25.4222 66.691 24.0398C66.691 21.2878 63.9902 19.6878 63.6446 19.4318C61.2254 17.6014 58.115 17.5502 51.9198 17.4478C51.1006 17.435 50.435 17.435 49.9998 17.4478C49.5646 17.4478 48.8862 17.435 48.0798 17.4478C41.8718 17.5502 38.7742 17.5886 36.355 19.4318C36.0094 19.7006 33.3086 21.2878 33.3086 24.0398C33.3086 25.4222 33.3086 26.4846 33.3086 26.8558C33.3086 32.5902 33.3086 37.5054 33.3086 40.8206C33.3086 47.2846 34.9214 54.8878 40.0286 59.5342C41.1678 60.571 44.4958 63.6046 49.1294 63.7838C49.4878 63.7966 49.795 63.7966 49.9998 63.7838Z" fill="#F2C2B5"/>
<path d="M49.9995 48.462C49.1163 48.462 48.3867 47.6172 48.3867 46.5804L48.7067 43.7388C48.7067 42.9068 49.1035 41.8572 49.9995 41.8572C50.8827 41.8572 51.2923 42.9068 51.2923 43.7388L51.6123 46.5804C51.6123 47.6172 50.8827 48.462 49.9995 48.462Z" fill="#ECA494"/>
<path d="M51.28 43.7518C51.28 43.035 50.9728 42.1518 50.32 41.9214C50.5888 42.3054 50.704 42.8302 50.704 43.291L51.024 46.1326C51.024 47.1694 50.2944 48.0142 49.4112 48.0142C49.1936 48.0142 49.0016 47.963 48.8096 47.8734C49.104 48.2318 49.5136 48.4622 49.9744 48.4622C50.8576 48.4622 51.5872 47.6174 51.5872 46.5806L51.28 43.7518Z" fill="#DD8F88"/>
<path d="M43.1649 44.0589C44.2112 44.0589 45.0593 43.2108 45.0593 42.1645C45.0593 41.1183 44.2112 40.2701 43.1649 40.2701C42.1187 40.2701 41.2705 41.1183 41.2705 42.1645C41.2705 43.2108 42.1187 44.0589 43.1649 44.0589Z" fill="#426767"/>
<path d="M56.8221 44.0589C57.8684 44.0589 58.7165 43.2108 58.7165 42.1645C58.7165 41.1183 57.8684 40.2701 56.8221 40.2701C55.7759 40.2701 54.9277 41.1183 54.9277 42.1645C54.9277 43.2108 55.7759 44.0589 56.8221 44.0589Z" fill="#426767"/>
<path d="M50.6525 56.6291H49.3213C46.6077 56.6291 45.4429 55.0163 45.1613 54.5171C45.0077 54.2611 45.0973 53.9411 45.3533 53.7875C45.6093 53.6339 45.9293 53.7235 46.0829 53.9795C46.3645 54.4531 47.2349 55.5667 49.3341 55.5667H50.6653C52.7517 55.5667 53.6349 54.4531 53.9165 53.9795C54.0701 53.7235 54.3901 53.6339 54.6461 53.7875C54.9021 53.9411 54.9789 54.2611 54.8381 54.5171C54.5309 55.0163 53.3661 56.6291 50.6525 56.6291Z" fill="#DF827A"/>
<path d="M42.883 49.448H39.4654C38.3774 49.448 37.4814 48.552 37.4814 47.464C37.4814 46.376 38.3774 45.48 39.4654 45.48H42.883C43.971 45.48 44.867 46.376 44.867 47.464C44.867 48.5648 43.971 49.448 42.883 49.448Z" fill="#ECA494"/>
<path d="M60.5217 49.448H57.1041C56.0161 49.448 55.1201 48.552 55.1201 47.464C55.1201 46.376 56.0161 45.48 57.1041 45.48H60.5217C61.6097 45.48 62.5057 46.376 62.5057 47.464C62.5057 48.5648 61.6097 49.448 60.5217 49.448Z" fill="#ECA494"/>
<path d="M40.0796 38.6703C39.8108 38.6703 39.5676 38.5167 39.4396 38.2735C39.2732 37.9151 39.414 37.5055 39.7724 37.3263C40.5148 36.9679 41.2956 36.7247 42.1148 36.5711C43.0108 36.4175 43.9324 36.3919 44.8284 36.5071C45.2124 36.5583 45.494 36.9167 45.4428 37.3007C45.3916 37.6847 45.0332 37.9663 44.6492 37.9151C43.894 37.8127 43.1132 37.8383 42.358 37.9663C41.6796 38.0815 41.014 38.2991 40.3868 38.5935C40.2844 38.6447 40.182 38.6703 40.0796 38.6703Z" fill="#426767"/>
<path d="M59.9066 38.6705C59.8042 38.6705 59.7018 38.6449 59.5994 38.6065C58.9722 38.3121 58.3066 38.0945 57.6282 37.9793C56.873 37.8513 56.105 37.8257 55.337 37.9281C54.953 37.9793 54.5946 37.7105 54.5434 37.3137C54.4922 36.9297 54.761 36.5713 55.1578 36.5201C56.0538 36.4049 56.9754 36.4305 57.8714 36.5841C58.6778 36.7249 59.4714 36.9809 60.2138 37.3393C60.5722 37.5057 60.713 37.9281 60.5466 38.2865C60.4314 38.5169 60.1754 38.6705 59.9066 38.6705Z" fill="#426767"/>
<path d="M32.3485 49.7043C33.1332 49.7043 33.7693 49.0682 33.7693 48.2835C33.7693 47.4988 33.1332 46.8627 32.3485 46.8627C31.5638 46.8627 30.9277 47.4988 30.9277 48.2835C30.9277 49.0682 31.5638 49.7043 32.3485 49.7043Z" fill="white"/>
<path d="M67.6386 49.7043C68.4233 49.7043 69.0594 49.0682 69.0594 48.2835C69.0594 47.4988 68.4233 46.8627 67.6386 46.8627C66.8539 46.8627 66.2178 47.4988 66.2178 48.2835C66.2178 49.0682 66.8539 49.7043 67.6386 49.7043Z" fill="white"/>
<path d="M68.8932 37.0579C69.1108 35.5731 73.9492 29.8131 68.2405 21.9667C62.1733 13.6211 52.5221 13.5315 50.3973 13.5315C50.2565 13.5315 50.1541 13.5315 50.0773 13.5315C50.0517 13.5315 50.0133 13.5315 50.0005 13.5315C49.9749 13.5315 49.9493 13.5315 49.9109 13.5315C49.8213 13.5315 49.7189 13.5315 49.5909 13.5315C47.4661 13.5315 37.8149 13.6211 31.7477 21.9667C26.0389 29.8259 30.8901 35.5731 31.0949 37.0579C31.6709 37.8131 32.6949 39.3491 33.1045 41.5635C33.4629 43.4707 33.2069 45.0579 32.9893 45.9539C33.6165 44.9171 34.3589 43.4451 34.8581 41.5635C35.5237 39.0547 35.4597 36.8915 35.3061 35.4963C36.2021 34.3187 37.2133 32.7571 38.1093 30.8115C38.8517 29.1859 39.3381 27.6755 39.6709 26.3443C39.8885 25.4739 40.6693 24.8723 41.5525 24.8723L49.9237 24.8595H50.0901L58.4613 24.8723C59.3573 24.8723 60.1381 25.4867 60.3429 26.3443C60.6629 27.6627 61.162 29.1859 61.9044 30.8115C62.8004 32.7571 63.8117 34.3187 64.7077 35.4963C64.5541 36.8915 64.4901 39.0547 65.1557 41.5635C65.6549 43.4451 66.3973 44.9171 67.0244 45.9539C66.8069 45.0579 66.5508 43.4835 66.9092 41.5635C67.2933 39.3491 68.3172 37.8131 68.8932 37.0579Z" fill="#578F91"/>
<path d="M51.1902 24.7953C50.9214 26.4977 50.2814 28.7505 48.6302 30.7729C45.1998 35.0097 38.8254 36.5457 32.3486 34.8817C32.3486 34.3697 32.387 28.2001 37.4942 24.7057C41.5006 21.9665 46.9406 21.9921 51.1902 24.7953Z" fill="#578F91"/>
<path d="M75.8561 90.331C76.1377 87.6558 76.6497 85.3006 77.2001 83.3166C73.0913 80.987 68.9697 78.6702 64.8609 76.3406C63.4913 76.9422 61.9937 77.531 60.3553 78.0686C60.3169 78.0814 60.2785 78.0942 60.2401 78.107C53.5457 80.2702 46.3137 80.2702 39.6065 78.107C39.5681 78.0942 39.5297 78.0814 39.4913 78.0686C37.8529 77.5438 36.3553 76.955 34.9857 76.3406C30.8769 78.6702 26.7553 80.987 22.6465 83.3166C23.2097 85.3006 23.7089 87.6558 23.9905 90.331C24.4129 94.3374 24.1825 97.8318 23.8113 100.558H49.9233H76.0353C75.6641 97.8446 75.4465 94.3502 75.8561 90.331Z" fill="#6DA9AF"/>
</g>
</svg>
