<svg width="20" height="20" viewBox="0 0 20 20" fill="none" xmlns="http://www.w3.org/2000/svg">
<path d="M9.9952 6.71955C11.184 6.71955 12.1476 5.75587 12.1476 4.56711C12.1476 3.37835 11.184 2.41467 9.9952 2.41467C8.80645 2.41467 7.84277 3.37835 7.84277 4.56711C7.84277 5.75587 8.80645 6.71955 9.9952 6.71955Z" fill="white"/>
<path d="M13.6783 10.7482C14.0349 10.7482 14.3024 10.4142 14.2154 10.0683C13.8197 8.4975 12.0809 7.31372 9.99489 7.31372C7.90885 7.31372 6.17004 8.49683 5.77434 10.0683C5.68737 10.4142 5.95493 10.7482 6.31145 10.7482H13.6783Z" fill="white"/>
<path d="M18.3395 20H1.66113C0.744921 20 0 19.2551 0 18.3395V1.66113C0 0.744921 0.744921 0 1.66113 0H18.3395C19.2551 0 20.0007 0.744921 20.0007 1.66113V18.3395C20 19.2551 19.2551 20 18.3395 20ZM1.66113 1.50976C1.57947 1.50976 1.51042 1.57881 1.51042 1.66047V18.3389C1.51042 18.4205 1.57947 18.4896 1.66113 18.4896H18.3395C18.4212 18.4896 18.4902 18.4205 18.4902 18.3389V1.66113C18.4902 1.57947 18.4212 1.51042 18.3395 1.51042H1.66113V1.50976Z" fill="white"/>
<path d="M5.17744 14.1289H3.78785C3.36825 14.1289 3.02832 13.789 3.02832 13.3694C3.02832 12.9498 3.36825 12.6099 3.78785 12.6099H5.17677C5.59637 12.6099 5.9363 12.9498 5.9363 13.3694C5.9363 13.789 5.59637 14.1289 5.17744 14.1289Z" fill="white"/>
<path d="M16.2913 14.1289H8.04273C7.62313 14.1289 7.2832 13.789 7.2832 13.3694C7.2832 12.9498 7.62313 12.6099 8.04273 12.6099H16.2913C16.7109 12.6099 17.0508 12.9498 17.0508 13.3694C17.0508 13.789 16.7109 14.1289 16.2913 14.1289Z" fill="white"/>
<path d="M5.17744 17.017H3.78785C3.36825 17.017 3.02832 16.6771 3.02832 16.2575C3.02832 15.8379 3.36825 15.4979 3.78785 15.4979H5.17677C5.59637 15.4979 5.9363 15.8379 5.9363 16.2575C5.9363 16.6771 5.59637 17.017 5.17744 17.017Z" fill="white"/>
<path d="M16.2913 17.017H8.04273C7.62313 17.017 7.2832 16.6771 7.2832 16.2575C7.2832 15.8379 7.62313 15.4979 8.04273 15.4979H16.2913C16.7109 15.4979 17.0508 15.8379 17.0508 16.2575C17.0508 16.6771 16.7109 17.017 16.2913 17.017Z" fill="white"/>
</svg>
