<svg width="15" height="16" viewBox="0 0 15 16" fill="none" xmlns="http://www.w3.org/2000/svg">
<path d="M9.97487 16H0.731207C0.327877 16 0 15.6685 0 15.2607V2.31207C0 1.03745 1.02616 0 2.28691 0H12.3427V0.693481H2.28691C1.4048 0.693481 0.685935 1.42025 0.685935 2.31207V15.2594C0.685935 15.2843 0.706513 15.3051 0.731207 15.3051H9.9735C9.99819 15.3051 10.0188 15.2843 10.0188 15.2594V7.24549H10.7047V15.2607C10.7061 15.6685 10.3782 16 9.97487 16Z" fill="#C4C4C4"/>
<path d="M13.9354 8.55756H10.7527C10.3494 8.55756 10.0215 8.22607 10.0215 7.81831V2.34813C10.0201 1.05409 11.0627 0 12.3441 0C13.6254 0 14.668 1.05409 14.668 2.34813V7.81692C14.6666 8.22469 14.3388 8.55756 13.9354 8.55756ZM12.3441 0.693481C11.4414 0.693481 10.7074 1.43551 10.7074 2.34813V7.81692C10.7074 7.84189 10.728 7.86269 10.7527 7.86269H13.9354C13.9601 7.86269 13.9807 7.84189 13.9807 7.81692V2.34813C13.9807 1.43551 13.2468 0.693481 12.3441 0.693481Z" fill="#C4C4C4"/>
<path d="M5.32571 7.62995C3.89348 7.62995 2.72876 6.45242 2.72876 5.00443C2.72876 3.55644 3.89348 2.37891 5.32571 2.37891C6.75794 2.37891 7.92266 3.55644 7.92266 5.00443C7.92266 6.45242 6.75794 7.62995 5.32571 7.62995ZM5.32571 3.071C4.27211 3.071 3.41469 3.93785 3.41469 5.00304C3.41469 6.06823 4.27211 6.93508 5.32571 6.93508C6.37931 6.93508 7.23673 6.06823 7.23673 5.00304C7.23673 3.93785 6.37931 3.071 5.32571 3.071Z" fill="#C4C4C4"/>
<path d="M5.55481 6.01937C5.36686 6.01937 5.18028 5.94725 5.03761 5.80301L4.36951 5.12756C4.23507 4.99163 4.23507 4.77249 4.36951 4.63657C4.50395 4.50065 4.72071 4.50065 4.85515 4.63657L5.52325 5.31202C5.54109 5.33005 5.5699 5.33005 5.58773 5.31202L7.80605 3.07069C7.94049 2.93477 8.15724 2.93477 8.29169 3.07069C8.42613 3.20661 8.42613 3.42575 8.29169 3.56168L6.072 5.80301C5.92933 5.94725 5.74275 6.01937 5.55481 6.01937Z" fill="#C4C4C4"/>
<path d="M2.12247 10.0325C2.34901 10.0325 2.53266 9.84686 2.53266 9.61783C2.53266 9.38879 2.34901 9.20312 2.12247 9.20312C1.89593 9.20312 1.71228 9.38879 1.71228 9.61783C1.71228 9.84686 1.89593 10.0325 2.12247 10.0325Z" fill="#C4C4C4"/>
<path d="M8.65114 9.96692H3.96894C3.77963 9.96692 3.62598 9.81158 3.62598 9.62018C3.62598 9.42878 3.77963 9.27344 3.96894 9.27344H8.65114C8.84046 9.27344 8.9941 9.42878 8.9941 9.62018C8.9941 9.81158 8.84046 9.96692 8.65114 9.96692Z" fill="#C4C4C4"/>
<path d="M2.12247 11.9036C2.34901 11.9036 2.53266 11.718 2.53266 11.4889C2.53266 11.2599 2.34901 11.0742 2.12247 11.0742C1.89593 11.0742 1.71228 11.2599 1.71228 11.4889C1.71228 11.718 1.89593 11.9036 2.12247 11.9036Z" fill="#C4C4C4"/>
<path d="M8.65114 11.8341H3.96894C3.77963 11.8341 3.62598 11.6788 3.62598 11.4874C3.62598 11.296 3.77963 11.1406 3.96894 11.1406H8.65114C8.84046 11.1406 8.9941 11.296 8.9941 11.4874C8.9941 11.6788 8.84046 11.8341 8.65114 11.8341Z" fill="#C4C4C4"/>
<path d="M2.12247 13.7591C2.34901 13.7591 2.53266 13.5734 2.53266 13.3444C2.53266 13.1154 2.34901 12.9297 2.12247 12.9297C1.89593 12.9297 1.71228 13.1154 1.71228 13.3444C1.71228 13.5734 1.89593 13.7591 2.12247 13.7591Z" fill="#C4C4C4"/>
<path d="M8.65114 13.6935H3.96894C3.77963 13.6935 3.62598 13.5381 3.62598 13.3467C3.62598 13.1553 3.77963 13 3.96894 13H8.65114C8.84046 13 8.9941 13.1553 8.9941 13.3467C8.9941 13.5381 8.84046 13.6935 8.65114 13.6935Z" fill="#C4C4C4"/>
</svg>
