<svg width="45" height="48" viewBox="0 0 45 48" fill="none" xmlns="http://www.w3.org/2000/svg">
<g clip-path="url(#clip0_9646_48498)">
<path d="M30.3246 48H2.59365C1.38366 48 0.400024 47.0055 0.400024 45.7822V6.9362C0.400024 3.11234 3.4785 0 7.26075 0H37.4282V2.08044H7.26075C4.61441 2.08044 2.45783 4.26075 2.45783 6.9362V45.7781C2.45783 45.853 2.51956 45.9154 2.59365 45.9154H30.3205C30.3946 45.9154 30.4563 45.853 30.4563 45.7781V21.7365H32.5141V45.7822C32.5183 47.0055 31.5346 48 30.3246 48Z" fill="white"/>
<path d="M42.2064 25.6727H32.6582C31.4482 25.6727 30.4646 24.6782 30.4646 23.4549V7.04438C30.4605 3.16228 33.5884 0 37.4323 0C41.2763 0 44.4042 3.16228 44.4042 7.04438V23.4508C44.4001 24.6741 43.4164 25.6727 42.2064 25.6727ZM37.4323 2.08044C34.7243 2.08044 32.5224 4.30652 32.5224 7.04438V23.4508C32.5224 23.5257 32.5841 23.5881 32.6582 23.5881H42.2064C42.2805 23.5881 42.3423 23.5257 42.3423 23.4508V7.04438C42.3423 4.30652 40.1404 2.08044 37.4323 2.08044Z" fill="white"/>
<path d="M16.3768 22.8801C12.0801 22.8801 8.58594 19.3475 8.58594 15.0035C8.58594 10.6595 12.0801 7.12695 16.3768 7.12695C20.6735 7.12695 24.1676 10.6595 24.1676 15.0035C24.1676 19.3475 20.6735 22.8801 16.3768 22.8801ZM16.3768 9.20324C13.216 9.20324 10.6437 11.8038 10.6437 14.9994C10.6437 18.1949 13.216 20.7955 16.3768 20.7955C19.5376 20.7955 22.1098 18.1949 22.1098 14.9994C22.1098 11.8038 19.5376 9.20324 16.3768 9.20324Z" fill="white"/>
<path d="M17.0641 18.0484C16.5002 18.0484 15.9405 17.832 15.5125 17.3993L13.5082 15.3729C13.1049 14.9651 13.1049 14.3077 13.5082 13.9C13.9115 13.4922 14.5618 13.4922 14.9651 13.9L16.9694 15.9263C17.0229 15.9804 17.1093 15.9804 17.1628 15.9263L23.8178 9.20231C24.2211 8.79454 24.8714 8.79454 25.2747 9.20231C25.678 9.61008 25.678 10.2675 25.2747 10.6753L18.6157 17.3993C18.1876 17.832 17.6279 18.0484 17.0641 18.0484Z" fill="white"/>
<path d="M6.76682 30.1034C7.44645 30.1034 7.99739 29.5464 7.99739 28.8593C7.99739 28.1722 7.44645 27.6152 6.76682 27.6152C6.0872 27.6152 5.53625 28.1722 5.53625 28.8593C5.53625 29.5464 6.0872 30.1034 6.76682 30.1034Z" fill="white"/>
<path d="M26.3531 29.8988H12.3065C11.7385 29.8988 11.2776 29.4328 11.2776 28.8586C11.2776 28.2844 11.7385 27.8184 12.3065 27.8184H26.3531C26.921 27.8184 27.382 28.2844 27.382 28.8586C27.382 29.4328 26.921 29.8988 26.3531 29.8988Z" fill="white"/>
<path d="M6.76682 35.7128C7.44645 35.7128 7.99739 35.1558 7.99739 34.4687C7.99739 33.7816 7.44645 33.2246 6.76682 33.2246C6.0872 33.2246 5.53625 33.7816 5.53625 34.4687C5.53625 35.1558 6.0872 35.7128 6.76682 35.7128Z" fill="white"/>
<path d="M26.3531 35.5082H12.3065C11.7385 35.5082 11.2776 35.0422 11.2776 34.468C11.2776 33.8938 11.7385 33.4277 12.3065 33.4277H26.3531C26.921 33.4277 27.382 33.8938 27.382 34.468C27.382 35.0422 26.921 35.5082 26.3531 35.5082Z" fill="white"/>
<path d="M6.76682 41.2831C7.44645 41.2831 7.99739 40.7261 7.99739 40.039C7.99739 39.3519 7.44645 38.7949 6.76682 38.7949C6.0872 38.7949 5.53625 39.3519 5.53625 40.039C5.53625 40.7261 6.0872 41.2831 6.76682 41.2831Z" fill="white"/>
<path d="M26.3531 41.0804H12.3065C11.7385 41.0804 11.2776 40.6144 11.2776 40.0402C11.2776 39.466 11.7385 39 12.3065 39H26.3531C26.921 39 27.382 39.466 27.382 40.0402C27.382 40.6144 26.921 41.0804 26.3531 41.0804Z" fill="white"/>
</g>
<defs>
<clipPath id="clip0_9646_48498">
<rect width="44" height="48" fill="white" transform="translate(0.400024)"/>
</clipPath>
</defs>
</svg>
