<svg width="85" height="85" viewBox="0 0 85 85" fill="none" xmlns="http://www.w3.org/2000/svg">
<circle cx="42.5" cy="42.5" r="42.5" fill="#FFF6F0"/>
<mask id="mask0_2356_1082" style="mask-type:alpha" maskUnits="userSpaceOnUse" x="0" y="0" width="85" height="85">
<circle cx="42.5" cy="42.5" r="42.5" fill="#C4C4C4"/>
</mask>
<g mask="url(#mask0_2356_1082)">
<path d="M6.22015 88.1102C6.19985 85.1098 6.63643 82.2079 8.12894 79.5474C9.1984 77.6411 10.5928 76.0883 12.532 74.9975C20.2518 70.6618 27.9411 66.275 35.6439 61.9053C36.0331 62.0956 36.4189 62.296 36.8149 62.4693C41.086 64.3314 45.286 64.5557 49.3574 61.9087C55.06 65.1367 60.7627 68.3647 66.462 71.5928C68.2997 72.6326 70.107 73.7335 71.9785 74.7053C75.4678 76.5096 77.3123 79.51 78.2768 83.1797C78.6999 84.7938 78.7845 86.452 78.7845 88.1135C54.5964 88.1101 30.4083 88.1102 6.22015 88.1102Z" fill="#FC9F66"/>
<path d="M57.7913 37.814C57.7304 35.7208 57.7744 33.6243 57.4969 31.5448C57.199 29.3089 56.1905 27.5046 54.4238 26.0877C52.2782 24.3649 50.657 22.265 50.0817 19.4889C49.9125 18.67 49.8008 17.8443 49.8211 16.8657C48.1289 18.2079 46.1761 18.0992 44.3181 18.3268C42.5582 18.5443 41.1774 19.2375 40.3652 20.9058C40.0098 21.6364 39.5461 22.3126 39.1265 23.0126C37.7998 25.228 35.8504 26.3188 33.2715 26.3391C32.1648 26.3493 31.048 26.244 29.9514 26.4921C28.2626 26.876 27.3658 27.9973 27.3252 29.7065C27.2609 32.3943 27.3184 35.0922 26.8446 37.7596C26.5095 37.6407 26.5569 37.3213 26.5129 37.0698C26.2726 35.7378 26.0459 34.4024 25.8157 33.0671C25.7379 32.7273 25.6939 32.3739 25.5822 32.0477C25.0712 30.5628 24.7632 30.4574 23.4771 31.2797C23.1658 28.4832 22.9356 26.0265 22.763 23.9946C22.4821 20.7258 22.4449 19.6248 22.8341 18.1365C23.0439 17.338 23.5854 15.3536 25.2404 13.6513C25.9037 12.9683 26.5941 12.4858 27.0341 12.1833C28.2288 11.3509 29.1426 10.9703 30.053 10.5455C32.9602 9.18976 32.9263 8.74124 34.9502 7.86457C36.0027 7.41264 37.5967 6.84859 39.7289 6.55976C39.7289 6.55976 45.1947 5.55737 50.3829 6.9947C52.4101 7.55536 53.2359 8.23154 53.5642 8.92812C53.6488 9.10821 53.791 9.48538 54.1193 9.9475C54.4543 10.4198 54.8672 10.8072 55.3681 11.181C59.206 14.0488 61.1486 17.9496 61.5513 22.7101C61.7984 25.6188 61.8932 28.5172 61.6529 31.4259C61.46 31.2831 61.2637 31.1404 61.0741 30.9943C60.8237 30.8006 60.6646 30.8278 60.3262 30.9841C59.1721 31.5108 59.074 32.5064 58.9589 33.536C58.7186 34.8374 58.7322 36.1796 58.2685 37.4402C58.1128 37.5659 57.9504 37.6917 57.7913 37.814Z" fill="#575757"/>
<path d="M49.3574 61.909C45.286 64.5559 41.086 64.3317 36.8149 62.4696C36.4189 62.2963 36.0331 62.0924 35.6439 61.9056C36.0467 61.1512 36.3073 60.3459 36.5036 59.5134C39.3498 59.4319 41.9862 58.5076 44.6057 57.495C45.814 57.0295 46.8902 56.265 48.1458 55.9082C48.1898 57.1824 48.2406 58.4533 48.5282 59.7003C48.7076 60.4784 49.0122 61.1988 49.3574 61.909Z" fill="#F7C4B7"/>
<path d="M48.1458 55.9114C46.8902 56.2682 45.8173 57.0293 44.6057 57.4983C41.9862 58.5108 39.3498 59.4317 36.5035 59.5166C36.8115 57.6818 36.9029 55.8367 36.7574 53.9814C37.9521 54.1581 39.052 54.695 40.2602 54.8411C42.6157 55.1231 44.9137 54.9974 47.1542 54.1649C47.5298 54.0256 47.8818 53.8081 48.3015 53.8319C48.2507 54.5217 48.1966 55.2148 48.1458 55.9114Z" fill="#F3A897"/>
<path d="M57.7913 37.8139C58.2786 34.6674 58.9047 32.3942 59.3278 31.7452C59.4699 31.5277 59.8151 31.1471 60.228 30.9535C60.492 30.8311 60.6714 30.8311 60.8 30.8617C60.8744 30.8787 60.9455 30.8957 61.0741 30.9942C61.2636 31.1403 61.4599 31.2831 61.6528 31.4258C62.8881 33.9301 62.8137 36.4207 61.5581 38.8944C61.1147 39.7711 60.4649 40.4269 59.5139 40.7395C58.6238 40.8618 58.0383 40.3454 57.4731 39.7745C57.4867 39.1051 57.8759 38.4969 57.7913 37.8139Z" fill="#F3A897"/>
<path d="M23.4771 31.2865C24.7632 30.4608 25.0711 30.5696 25.5822 32.0545C25.6939 32.3807 26.8446 37.9635 26.8716 37.9567C26.9461 38.6533 27.2947 39.3057 27.2168 40.0294C26.8073 40.5629 26.2523 40.7668 25.5991 40.7532C23.6565 40.1484 23.0778 38.497 22.675 36.7776C22.2249 34.8612 22.4415 33.0025 23.4771 31.2865Z" fill="#F3A897"/>
<path d="M57.4766 39.771C58.0384 40.3418 58.6273 40.8617 59.5174 40.736C58.2144 44.2835 56.2311 47.3688 53.3443 49.8289C53.1209 50.0192 52.9111 50.2434 52.5963 50.291C55.0128 47.1581 56.4647 43.5699 57.4766 39.771Z" fill="#575757"/>
<path d="M25.5991 40.7496C26.2523 40.7632 26.8073 40.5594 27.2169 40.0259C27.8159 41.2118 28.0122 42.537 28.5131 43.7602C29.1798 45.3946 29.9142 46.9883 30.8652 48.4766C31.0141 48.7076 31.1698 48.9285 31.1123 49.2241C28.5469 46.8761 26.8073 43.9845 25.5991 40.7496Z" fill="#575757"/>
<path d="M57.7912 37.814C57.7303 35.7209 57.7743 33.6243 57.4968 31.5448C57.1989 29.309 56.1904 27.5047 54.4237 26.0877C52.2781 24.365 50.6569 22.265 50.0816 19.4889C49.9124 18.67 49.8007 17.8443 49.821 16.8657C48.1288 18.2079 46.176 18.0992 44.318 18.3268C42.5581 18.5443 41.1773 19.2375 40.3651 20.9059C40.0097 21.6364 39.546 22.3126 39.1264 23.0126C37.7997 25.228 35.8503 26.3188 33.2714 26.3392C32.1647 26.3494 31.0479 26.244 29.9513 26.4921C28.2625 26.876 27.3657 27.9974 27.3251 29.7065C27.2608 32.3943 27.3183 35.0922 26.8445 37.7596C26.8513 37.8242 26.8614 37.8887 26.8682 37.9533C26.9426 38.6499 27.2912 39.3023 27.2134 40.026C27.8124 41.2119 28.0087 42.5371 28.5096 43.7604C29.1763 45.3948 29.9107 46.9884 30.8617 48.4767C31.0106 48.7078 31.1663 48.9286 31.1088 49.2243C31.2645 49.3704 31.4337 49.5063 31.5758 49.666C32.7604 50.9946 33.9212 52.3504 35.5152 53.2304C35.9383 53.4649 36.4155 53.611 36.7539 53.9814C37.9486 54.1581 39.0485 54.6949 40.2568 54.841C42.6123 55.1231 44.9103 54.9974 47.1507 54.1649C47.5264 54.0255 47.8784 53.8081 48.298 53.8319C48.474 53.5294 48.7989 53.4411 49.0798 53.2882C50.4573 52.5406 51.5504 51.4499 52.5894 50.298C55.0092 47.1617 56.4611 43.5735 57.4731 39.778C57.4866 39.1052 57.8758 38.497 57.7912 37.814ZM32.6351 29.309C33.84 28.7755 35.1024 28.5003 36.5678 28.4833C36.7709 28.5003 37.133 28.4833 37.468 28.5648C37.952 28.6837 38.1855 29.0405 38.1144 29.5468C38.0468 30.0429 37.6982 30.2468 37.2447 30.206C35.8638 30.0769 34.5507 30.3215 33.2782 30.8482C32.7773 31.0555 32.3373 30.9773 32.1343 30.4439C31.9481 29.9478 32.1309 29.5332 32.6351 29.309ZM52.5759 30.4473C52.3254 31.0861 51.8245 31.0045 51.2898 30.7905C50.0985 30.3113 48.8632 30.0837 47.5738 30.206C47.0357 30.257 46.6532 30.0497 46.5855 29.4958C46.5212 28.9488 46.8461 28.626 47.3606 28.5376C47.7024 28.4799 48.0577 28.4969 48.3386 28.4867C49.6078 28.5206 50.7585 28.7687 51.8685 29.2172C52.4405 29.4449 52.8297 29.7983 52.5759 30.4473Z" fill="#F7C4B7"/>
<path d="M36.5678 28.4834C36.7709 28.5004 37.133 28.4834 37.4681 28.565C37.9521 28.6839 38.1856 29.0407 38.1145 29.547C38.0468 30.0431 37.6982 30.2469 37.2447 30.2062C35.8639 30.077 34.5508 30.3217 33.2782 30.8484C32.7773 31.0556 32.3374 30.9775 32.1343 30.444C31.9448 29.9479 32.1309 29.53 32.6352 29.3057C33.84 28.7756 35.1024 28.5004 36.5678 28.4834Z" fill="#575757"/>
<path d="M48.3421 28.4834C49.6112 28.5174 50.7619 28.7654 51.872 29.214C52.4405 29.445 52.8297 29.7984 52.5725 30.4474C52.3221 31.0862 51.8212 31.0047 51.2865 30.7906C50.0952 30.3115 48.8599 30.0838 47.5704 30.2061C47.0323 30.2571 46.6499 30.0498 46.5822 29.496C46.5179 28.9489 46.8428 28.6261 47.3572 28.5378C47.7058 28.4766 48.0612 28.497 48.3421 28.4834Z" fill="#575757"/>
<path d="M34.1311 42.4451C36.4339 42.4451 38.3006 41.4563 38.3006 40.2365C38.3006 39.0167 36.4339 38.0278 34.1311 38.0278C31.8283 38.0278 29.9615 39.0167 29.9615 40.2365C29.9615 41.4563 31.8283 42.4451 34.1311 42.4451Z" fill="#F3A897"/>
<path d="M50.9277 42.4451C53.2305 42.4451 55.0973 41.4563 55.0973 40.2365C55.0973 39.0167 53.2305 38.0278 50.9277 38.0278C48.625 38.0278 46.7582 39.0167 46.7582 40.2365C46.7582 41.4563 48.625 42.4451 50.9277 42.4451Z" fill="#F3A897"/>
<path d="M35.6541 36.6144C36.3382 36.6144 36.8928 35.5251 36.8928 34.1815C36.8928 32.8378 36.3382 31.7485 35.6541 31.7485C34.97 31.7485 34.4154 32.8378 34.4154 34.1815C34.4154 35.5251 34.97 36.6144 35.6541 36.6144Z" fill="#575757"/>
<path d="M48.7312 36.6144C49.4153 36.6144 49.9699 35.5251 49.9699 34.1815C49.9699 32.8378 49.4153 31.7485 48.7312 31.7485C48.0471 31.7485 47.4926 32.8378 47.4926 34.1815C47.4926 35.5251 48.0471 36.6144 48.7312 36.6144Z" fill="#575757"/>
<path d="M40.8491 38.538C40.7475 38.538 40.646 38.5006 40.5648 38.4225C40.4057 38.2662 40.4057 38.0079 40.5614 37.8516C40.7645 37.6443 41.5158 36.9681 42.653 37.0123C43.648 37.0497 44.3011 37.6138 44.538 37.8516C44.6937 38.0113 44.6903 38.2662 44.5347 38.4225C44.3756 38.5788 44.1218 38.5754 43.9661 38.4157C43.8003 38.2458 43.3332 37.8448 42.6259 37.8176C41.817 37.787 41.2823 38.2696 41.1368 38.4157C41.0555 38.4972 40.9506 38.538 40.8491 38.538Z" fill="#E9857D"/>
<path d="M42.3586 48.1608C42.2875 48.1608 42.2198 48.1608 42.1487 48.1574C40.1147 48.0792 38.7779 46.9307 38.2973 46.438C38.0807 46.2137 38.0841 45.857 38.3041 45.6361C38.5275 45.4186 38.8828 45.422 39.1028 45.6429C39.4886 46.0371 40.5615 46.9613 42.1927 47.0225C44.0508 47.0938 45.2928 45.9827 45.6279 45.6429C45.8479 45.422 46.2032 45.4186 46.4232 45.6361C46.6466 45.857 46.6466 46.2137 46.43 46.438C46.0238 46.8526 44.5618 48.1608 42.3586 48.1608Z" fill="#E9857D"/>
</g>
</svg>
