<svg width="29" height="20" viewBox="0 0 29 20" fill="none" xmlns="http://www.w3.org/2000/svg">
<path d="M10.15 12.5C6.757 12.5 0 14.1714 0 17.5V20H20.3V17.5C20.3 14.1714 13.543 12.5 10.15 12.5ZM3.393 17.1429C4.611 16.3143 7.5545 15.3571 10.15 15.3571C12.7455 15.3571 15.689 16.3143 16.907 17.1429H3.393ZM10.15 10C12.9485 10 15.225 7.75714 15.225 5C15.225 2.24286 12.9485 0 10.15 0C7.3515 0 5.075 2.24286 5.075 5C5.075 7.75714 7.3515 10 10.15 10ZM10.15 2.85714C11.3535 2.85714 12.325 3.81429 12.325 5C12.325 6.18571 11.3535 7.14286 10.15 7.14286C8.9465 7.14286 7.975 6.18571 7.975 5C7.975 3.81429 8.9465 2.85714 10.15 2.85714ZM20.358 12.5857C22.04 13.7857 23.2 15.3857 23.2 17.5V20H29V17.5C29 14.6143 23.925 12.9714 20.358 12.5857ZM18.85 10C21.6485 10 23.925 7.75714 23.925 5C23.925 2.24286 21.6485 0 18.85 0C18.067 0 17.342 0.185714 16.675 0.5C17.5885 1.77143 18.125 3.32857 18.125 5C18.125 6.67143 17.5885 8.22857 16.675 9.5C17.342 9.81429 18.067 10 18.85 10Z" fill="#575757"/>
</svg>
