<svg width="20" height="20" viewBox="0 0 20 20" fill="none" xmlns="http://www.w3.org/2000/svg">
<circle cx="10" cy="10" r="10" fill="#71AFB6"/>
<path d="M10.8843 14.9997H9.27903C9.02834 14.9997 8.82324 14.7946 8.82324 14.5439V7.68528C8.82324 7.4346 9.02834 7.22949 9.27903 7.22949H10.8843C11.135 7.22949 11.3401 7.4346 11.3401 7.68528V14.5435C11.3401 14.7946 11.135 14.9997 10.8843 14.9997Z" fill="white"/>
<path d="M7.06106 14.9991H5.45578C5.2051 14.9991 5 14.794 5 14.5433V9.30637C5 9.05569 5.2051 8.85059 5.45578 8.85059H7.06106C7.31174 8.85059 7.51684 9.05569 7.51684 9.30637V14.5433C7.51684 14.794 7.31174 14.9991 7.06106 14.9991Z" fill="white"/>
<path d="M14.7073 14.9995H13.102C12.8513 14.9995 12.6462 14.7943 12.6462 14.5437V5.45578C12.6462 5.2051 12.8513 5 13.102 5H14.7073C14.958 5 15.1631 5.2051 15.1631 5.45578V14.5437C15.1631 14.7943 14.958 14.9995 14.7073 14.9995Z" fill="white"/>
</svg>
