<svg width="15" height="19" viewBox="0 0 15 19" fill="none" xmlns="http://www.w3.org/2000/svg">
<path d="M7.5 0L0 3.33333V8.33333C0 12.9583 3.2 17.2833 7.5 18.3333C11.8 17.2833 15 12.9583 15 8.33333V3.33333L7.5 0ZM13.3333 8.33333C13.3333 9.875 12.9083 11.375 12.1833 12.675L10.975 11.4667C12.05 9.85 11.8667 7.65 10.4417 6.225C8.81667 4.6 6.175 4.6 4.55 6.225C2.925 7.85 2.925 10.4917 4.55 12.1167C5.975 13.5417 8.175 13.7167 9.79167 12.65L11.225 14.0833C10.2333 15.2667 8.95 16.175 7.5 16.6167C4.15 15.575 1.66667 12.1 1.66667 8.33333V4.41667L7.5 1.825L13.3333 4.41667V8.33333ZM7.5 11.6667C6.11667 11.6667 5 10.55 5 9.16667C5 7.78333 6.11667 6.66667 7.5 6.66667C8.88333 6.66667 10 7.78333 10 9.16667C10 10.55 8.88333 11.6667 7.5 11.6667Z" fill="#C4C4C4"/>
</svg>
