<svg width="16" height="18" viewBox="0 0 16 18" fill="none" xmlns="http://www.w3.org/2000/svg">
<path d="M1.95334 10.255C1.95334 8.99285 2.35475 7.82056 3.04027 6.86014C3.35437 6.42007 3.36235 5.80402 2.98004 5.42171C2.59679 5.03846 1.96952 5.03633 1.63802 5.46512C0.614513 6.78896 0 8.4503 0 10.255C0 13.8491 2.42337 16.8712 5.72931 17.7804C6.30789 17.9395 6.83668 17.4704 6.83668 16.8703C6.83668 16.3834 6.48157 15.9763 6.01826 15.8267C3.66516 15.0666 1.95334 12.8619 1.95334 10.255ZM15.6267 10.255C15.6267 5.93814 12.1302 2.44167 7.81335 2.44167C7.75475 2.44167 7.69615 2.45144 7.63755 2.45144L8.01356 2.07543C8.39423 1.69475 8.39532 1.0779 8.016 0.695885C7.63477 0.311957 7.01415 0.31086 6.63157 0.693439L4.61378 2.71123C4.22326 3.10176 4.22326 3.73492 4.61378 4.12545L6.63646 6.14813C7.01674 6.5284 7.63329 6.5284 8.01357 6.14813C8.39384 5.76785 8.39384 5.1513 8.01357 4.77103L7.64731 4.40478C7.70591 4.40478 7.76451 4.39501 7.81335 4.39501C11.0461 4.39501 13.6734 7.02225 13.6734 10.255C13.6734 12.8619 11.9615 15.0666 9.60844 15.8267C9.14512 15.9763 8.79002 16.3834 8.79002 16.8703C8.79002 17.4704 9.31881 17.9395 9.89738 17.7804C13.2033 16.8712 15.6267 13.8491 15.6267 10.255Z" fill="#71AFB6" fill-opacity="0.5"/>
</svg>
