<svg width="18" height="18" viewBox="0 0 18 18" fill="none" xmlns="http://www.w3.org/2000/svg">
<circle cx="9" cy="9" r="9" fill="#FF614D"/>
<g clip-path="url(#clip0_5391_40604)">
<path d="M10.2278 5.51378C10.2278 5.19773 10.2505 4.87896 10.2235 4.56562C10.1651 3.89549 9.63047 3.42096 8.98087 3.43182C8.32255 3.4436 7.7818 3.92084 7.7757 4.60094C7.76786 5.5337 7.81837 6.46827 7.8741 7.40103C7.93767 8.45333 8.03171 9.50382 8.12053 10.5543C8.13708 10.7481 8.17887 10.941 8.2259 11.1294C8.32778 11.5378 8.55418 11.775 8.99393 11.7759C9.43106 11.7759 9.69752 11.5541 9.76109 11.1366C9.87429 10.3949 9.95876 9.646 10.0188 8.89707C10.1085 7.77051 10.1669 6.64124 10.2383 5.51378C10.2357 5.51378 10.2313 5.51378 10.2278 5.51378Z" fill="white"/>
<path d="M7.71385 14.1036C7.72169 14.8144 8.31818 15.4312 8.99739 15.4321C9.69053 15.433 10.3097 14.7728 10.2844 14.0601C10.2592 13.3483 9.64874 12.7379 8.97736 12.7542C8.29467 12.7705 7.70601 13.399 7.71385 14.1036Z" fill="white"/>
</g>
<defs>
<clipPath id="clip0_5391_40604">
<rect width="2.57143" height="12" fill="white" transform="matrix(-1 0 0 1 10.2852 3.43164)"/>
</clipPath>
</defs>
</svg>
