<svg width="16" height="16" viewBox="0 0 16 16" fill="none" xmlns="http://www.w3.org/2000/svg">
<path d="M15.6683 0.685806C15.7047 0.594942 15.7136 0.495402 15.6939 0.399526C15.6742 0.303649 15.6269 0.215653 15.5576 0.146447C15.4884 0.0772403 15.4004 0.0298668 15.3046 0.0101994C15.2087 -0.0094681 15.1092 -0.000564594 15.0183 0.0358061L0.471288 5.85481C0.343177 5.90609 0.231698 5.99172 0.149119 6.10227C0.0665401 6.21283 0.0160632 6.34402 0.00324374 6.48142C-0.00957573 6.61882 0.0157593 6.75709 0.0764603 6.88101C0.137161 7.00494 0.230875 7.10971 0.347288 7.18381L5.34229 10.3618L6.87329 12.7678C6.9456 12.877 7.05785 12.9534 7.18592 12.9807C7.31399 13.008 7.44766 12.984 7.55819 12.9138C7.66873 12.8436 7.74732 12.7328 7.77707 12.6053C7.80682 12.4778 7.78535 12.3437 7.71729 12.2318L6.34129 10.0698L13.8353 2.57581L11.9403 7.31381C11.9143 7.37504 11.9007 7.44085 11.9004 7.50738C11.9001 7.57392 11.9132 7.63984 11.9387 7.70128C11.9642 7.76273 12.0017 7.81846 12.0491 7.86521C12.0964 7.91196 12.1526 7.9488 12.2144 7.97355C12.2761 7.99831 12.3422 8.01049 12.4087 8.00938C12.4753 8.00828 12.5409 7.9939 12.6018 7.9671C12.6627 7.9403 12.7176 7.90162 12.7634 7.85332C12.8092 7.80502 12.8448 7.74807 12.8683 7.68581L15.6683 0.685806ZM13.1283 1.86881L5.63429 9.36281L1.29529 6.60181L13.1283 1.86881Z" fill="#FF8B8B"/>
<path d="M14.6793 10.0252C14.3543 9.70016 13.9684 9.44234 13.5437 9.26643C13.1191 9.09053 12.6639 9 12.2043 9C11.7446 9 11.2895 9.09053 10.8648 9.26643C10.4402 9.44234 10.0543 9.70016 9.72928 10.0252C9.40426 10.3502 9.14644 10.7361 8.97054 11.1607C8.79464 11.5854 8.7041 12.0405 8.7041 12.5002C8.7041 12.9598 8.79464 13.415 8.97054 13.8396C9.14644 14.2643 9.40426 14.6502 9.72928 14.9752C10.3857 15.6316 11.276 16.0004 12.2043 16.0004C13.1326 16.0004 14.0229 15.6316 14.6793 14.9752C15.3357 14.3188 15.7045 13.4285 15.7045 12.5002C15.7045 11.5719 15.3357 10.6816 14.6793 10.0252ZM10.4363 10.7322C10.8439 10.3247 11.3797 10.0705 11.9531 10.0125C12.5266 9.95457 13.1024 10.0965 13.5833 10.4142L10.1183 13.8792C9.80056 13.3983 9.65867 12.8225 9.71661 12.249C9.77456 11.6756 10.0288 11.1398 10.4363 10.7322ZM10.8263 14.5862L14.2903 11.1212C14.6077 11.6021 14.7492 12.1778 14.6911 12.751C14.633 13.3243 14.3788 13.8598 13.9714 14.2673C13.564 14.6747 13.0284 14.9289 12.4551 14.987C11.8819 15.0451 11.3062 14.9036 10.8253 14.5862H10.8263Z" fill="#FF8B8B"/>
</svg>
