<svg width="27" height="7" viewBox="0 0 27 7" fill="none" xmlns="http://www.w3.org/2000/svg">
<g clip-path="url(#clip0_2038_3343)">
<path d="M1.9791 0C2.99311 0 3.76946 0.184861 4.30953 0.554582C4.84891 0.924303 5.11894 1.49864 5.11894 2.27689C5.11894 2.76303 5.0101 3.15745 4.79242 3.46014C4.57474 3.76353 4.26131 4.00131 3.85143 4.17418C3.98783 4.34704 4.13111 4.54531 4.2806 4.76827C4.43008 4.99123 4.57819 5.22407 4.72422 5.4675C4.87026 5.71092 5.01217 5.96352 5.14856 6.22669C5.28496 6.48987 5.41171 6.74811 5.52882 7.00071H3.82801C3.70402 6.77422 3.57796 6.54491 3.45121 6.31207C3.32377 6.07923 3.19357 5.85274 3.05993 5.63331C2.92629 5.41317 2.79403 5.20573 2.66383 5.00887C2.53295 4.81272 2.40276 4.63421 2.27256 4.47475H1.5217V7.00142H0V0.179921C0.331343 0.113597 0.674397 0.0670296 1.02847 0.0402177C1.38255 0.0134059 1.69943 0 1.9791 0ZM2.06659 1.32789C1.95568 1.32789 1.85718 1.33142 1.769 1.33777C1.68152 1.34482 1.59816 1.35118 1.52032 1.35753V3.23506H1.94948C2.52124 3.23506 2.93111 3.16168 3.17773 3.01563C3.42434 2.86957 3.54833 2.6198 3.54833 2.2663C3.54833 1.92692 3.42296 1.68562 3.1729 1.54239C2.92354 1.39986 2.55431 1.32789 2.06659 1.32789Z" fill="#8A8A8A"/>
<path d="M5.9187 4.27433C5.9187 3.80865 5.98828 3.40083 6.12812 3.05086C6.26795 2.7016 6.45119 2.4102 6.67921 2.17736C6.90653 1.94452 7.1683 1.76813 7.46382 1.64818C7.75934 1.52824 8.06313 1.46826 8.37519 1.46826C9.10332 1.46826 9.67852 1.69616 10.1008 2.15267C10.5231 2.60847 10.7345 3.27947 10.7345 4.16496C10.7345 4.25175 10.7311 4.3463 10.7249 4.44931C10.718 4.55232 10.7118 4.64405 10.7056 4.72378H7.41009C7.44247 5.03 7.58231 5.27272 7.82961 5.45264C8.07622 5.63256 8.40825 5.72217 8.82433 5.72217C9.09092 5.72217 9.352 5.69747 9.60894 5.64738C9.86589 5.59728 10.0753 5.53589 10.2379 5.46251L10.4328 6.67116C10.355 6.71138 10.251 6.75089 10.1208 6.79111C9.99057 6.83133 9.84591 6.8659 9.68678 6.89624C9.52766 6.92587 9.35682 6.95128 9.17496 6.97103C8.9931 6.99149 8.81124 7.00137 8.62869 7.00137C8.16715 7.00137 7.76554 6.93152 7.42456 6.79182C7.08357 6.65211 6.80045 6.4609 6.57657 6.21748C6.352 5.97476 6.18667 5.68689 6.07921 5.35386C5.97243 5.01941 5.9187 4.66028 5.9187 4.27433ZM9.33064 3.70493C9.32375 3.57863 9.30309 3.45516 9.26727 3.33521C9.23145 3.21526 9.17634 3.10872 9.10125 3.01559C9.02616 2.92245 8.93248 2.84554 8.81813 2.78557C8.70446 2.72559 8.56325 2.69596 8.39379 2.69596C8.23122 2.69596 8.09138 2.72418 7.97427 2.78063C7.85716 2.83707 7.76003 2.91187 7.6815 3.005C7.60366 3.09814 7.54304 3.2068 7.50102 3.32957C7.45831 3.45304 7.428 3.57793 7.40802 3.70423H9.33064V3.70493Z" fill="#8A8A8A"/>
<path d="M27 2.57323C27 1.1522 25.8758 0 24.4877 0H23.4186H21.9755V7H23.4186V1.47818H24.4877C25.0781 1.47818 25.5569 1.96855 25.5569 2.57323V4.04717H24.1137V5.52535H25.5569V6.99929H27V2.57323Z" fill="#F6D98C"/>
<path d="M15.1998 0H14.1307V0.00141115H12.6875V6.99859H14.1307V1.47818H15.1998C15.7901 1.47818 16.2689 1.96855 16.2689 2.57323V6.99929H17.7121V2.57252C17.7114 1.1522 16.5865 0 15.1998 0Z" fill="#6DB2C6"/>
<path d="M21.2921 2.57252C21.2921 1.1522 20.1672 0 18.7805 0H16.5837C17.1589 0.32527 17.6129 0.847394 17.8602 1.47818H18.1998C18.1998 1.47888 18.2005 1.47888 18.2005 1.47959H18.7805C19.3709 1.47959 19.8496 1.96996 19.8496 2.57464V7.00071H21.2928V6.99929V2.57252H21.2921Z" fill="#6DB2C6"/>
</g>
<defs>
<clipPath id="clip0_2038_3343">
<rect width="27" height="7" fill="white"/>
</clipPath>
</defs>
</svg>
