<svg width="18" height="20" viewBox="0 0 18 20" fill="none" xmlns="http://www.w3.org/2000/svg">
<path d="M2.17037 11.3945C2.17037 9.60391 2.89745 7.97613 4.0803 6.79327L2.53934 5.25231C0.976669 6.82583 0 8.9962 0 11.3945C0 15.822 3.30982 19.4683 7.59631 20V17.8079C4.52523 17.287 2.17037 14.6175 2.17037 11.3945ZM17.363 11.3945C17.363 6.59794 13.478 2.71297 8.6815 2.71297C8.61639 2.71297 8.55128 2.72382 8.48616 2.72382L9.66902 1.54097L8.1389 0L4.34075 3.79816L8.1389 7.59631L9.66902 6.0662L8.49702 4.89419C8.56213 4.89419 8.62724 4.88334 8.6815 4.88334C12.2735 4.88334 15.1926 7.8025 15.1926 11.3945C15.1926 14.6175 12.8378 17.287 9.76668 17.8079V20C14.0532 19.4683 17.363 15.822 17.363 11.3945Z" fill="white"/>
</svg>
