<svg width="60" height="60" viewBox="0 0 60 60" fill="none" xmlns="http://www.w3.org/2000/svg">
<mask id="mask0_9305_53203" style="mask-type:alpha" maskUnits="userSpaceOnUse" x="0" y="0" width="60" height="60">
<circle cx="30" cy="30" r="30" fill="#EAF3F4"/>
</mask>
<g mask="url(#mask0_9305_53203)">
<path d="M53.6774 58.1647C53.2474 55.3001 51.5194 52.7887 48.9926 51.3602L35.6525 43.8185C34.5773 43.1733 33.9168 42.0137 33.9168 40.7618V34.5641H26.0678V40.7618C26.0678 42.0137 25.4074 43.1733 24.3322 43.8185L10.992 51.3602C8.46528 52.7887 6.73728 55.3001 6.3072 58.1647L6 60.2153H30H54L53.6774 58.1647Z" fill="#F5C2B6"/>
<path d="M30.4448 40.4777C31.8195 40.0015 32.9792 39.4025 33.9161 38.8341V34.5641H26.0595V40.7618C26.0595 40.9845 26.0364 41.1996 25.998 41.4146C27.2422 41.3148 28.7705 41.0613 30.4448 40.4777Z" fill="#ECA494"/>
<path d="M20.8221 28.804L20.031 28.8884C18.8714 29.0113 17.8269 28.1665 17.704 27.0068L17.5197 25.2174C17.3968 24.0577 18.2416 23.0132 19.4013 22.8904L20.1923 22.8059L20.8221 28.804Z" fill="#ECA494"/>
<path d="M20.7909 27.7134L20.307 27.7671C19.5928 27.8439 18.9554 27.3217 18.8786 26.6151L18.7634 25.5169C18.6866 24.8027 19.2088 24.1652 19.9154 24.0884L20.3992 24.0347L20.7909 27.7134Z" fill="#DF827A"/>
<path d="M39.1621 28.8039L39.9531 28.8883C41.1128 29.0112 42.1573 28.1664 42.2802 27.0067L42.4645 25.2173C42.5874 24.0576 41.7426 23.0131 40.5829 22.8903L39.7919 22.8058L39.1621 28.8039Z" fill="#ECA494"/>
<path d="M39.1924 27.7134L39.6762 27.7671C40.3905 27.8439 41.0279 27.3217 41.1047 26.6151L41.2199 25.5169C41.2967 24.8027 40.7745 24.1652 40.0679 24.0884L39.5841 24.0347L39.1924 27.7134Z" fill="#DF827A"/>
<path d="M29.9923 38.1425C30.1151 38.1502 30.2918 38.1502 30.5145 38.1425C33.2947 38.035 35.2991 36.2149 35.975 35.5928C39.0393 32.8049 40.007 28.243 40.007 24.3646C40.007 22.3755 40.007 23.5889 40.007 20.1483C40.007 19.9256 40.007 19.2881 40.007 18.4587C40.007 16.8075 38.3865 15.8475 38.1791 15.6939C36.7276 14.5957 34.8614 14.5649 31.1443 14.5035C30.6527 14.4958 30.2534 14.4958 29.9923 14.5035C29.7311 14.5035 29.3241 14.4958 28.8403 14.5035C25.1155 14.5649 23.2569 14.588 21.8054 15.6939C21.598 15.8552 19.9775 16.8075 19.9775 18.4587C19.9775 19.2881 19.9775 19.9256 19.9775 20.1483C19.9775 23.5889 19.9775 22.3678 19.9775 24.3646C19.9775 28.243 20.9452 32.8049 24.0095 35.5928C24.6931 36.2149 26.6899 38.035 29.47 38.1425C29.6927 38.1579 29.8771 38.1502 29.9923 38.1425Z" fill="#F2C2B5"/>
<path d="M29.9922 29.257C29.3394 29.257 28.8018 28.7117 28.8018 28.0435L29.0398 26.208C29.0398 25.6704 29.3394 24.9946 29.9922 24.9946C30.645 24.9946 30.9445 25.6781 30.9445 26.208L31.1826 28.0435C31.1826 28.7117 30.645 29.257 29.9922 29.257Z" fill="#ECA494"/>
<path d="M30.9442 26.208C30.9442 25.7472 30.7215 25.1712 30.2376 25.033C30.4296 25.2787 30.5218 25.6167 30.5218 25.9162L30.7599 27.7517C30.7599 28.4199 30.2223 28.9652 29.5695 28.9652C29.4159 28.9652 29.2623 28.9344 29.124 28.873C29.3391 29.1111 29.6463 29.257 29.9842 29.257C30.637 29.257 31.1746 28.7117 31.1746 28.0435L30.9442 26.208Z" fill="#DD8F88"/>
<path d="M25.8984 26.3078C26.5261 26.3078 27.035 25.7989 27.035 25.1712C27.035 24.5434 26.5261 24.0345 25.8984 24.0345C25.2706 24.0345 24.7617 24.5434 24.7617 25.1712C24.7617 25.7989 25.2706 26.3078 25.8984 26.3078Z" fill="#5A504C"/>
<path d="M34.0927 26.3079C34.7204 26.3079 35.2293 25.799 35.2293 25.1712C35.2293 24.5435 34.7204 24.0346 34.0927 24.0346C33.4649 24.0346 32.9561 24.5435 32.9561 25.1712C32.9561 25.799 33.4649 26.3079 34.0927 26.3079Z" fill="#5A504C"/>
<path d="M25.7292 29.5488H23.6787C23.0259 29.5488 22.4883 29.0112 22.4883 28.3584C22.4883 27.7056 23.0259 27.168 23.6787 27.168H25.7292C26.382 27.168 26.9196 27.7056 26.9196 28.3584C26.912 29.0112 26.382 29.5488 25.7292 29.5488Z" fill="#ECA494"/>
<path d="M36.3123 29.5487H34.2617C33.6089 29.5487 33.0713 29.0111 33.0713 28.3583C33.0713 27.7055 33.6089 27.1679 34.2617 27.1679H36.3123C36.9651 27.1679 37.5026 27.7055 37.5026 28.3583C37.495 29.0111 36.9651 29.5487 36.3123 29.5487Z" fill="#ECA494"/>
<path d="M24.0478 23.0745C23.8865 23.0745 23.7406 22.9823 23.6638 22.8364C23.5639 22.6214 23.6484 22.3679 23.8634 22.2681C24.3089 22.053 24.785 21.8994 25.2689 21.815C25.8065 21.7228 26.3518 21.7074 26.897 21.7766C27.1274 21.8073 27.2964 22.0223 27.2657 22.2527C27.235 22.4831 27.0199 22.6521 26.7895 22.6214C26.3287 22.5599 25.8679 22.5753 25.4148 22.6521C25.0078 22.7212 24.6084 22.8518 24.2321 23.0284C24.1706 23.0591 24.1092 23.0745 24.0478 23.0745Z" fill="#5A504C"/>
<path d="M35.9442 23.0746C35.8827 23.0746 35.8213 23.0592 35.7599 23.0362C35.3835 22.8595 34.9842 22.729 34.5771 22.6599C34.124 22.5831 33.6632 22.5677 33.2024 22.6292C32.972 22.6599 32.757 22.4986 32.7263 22.2605C32.6955 22.0301 32.8645 21.8151 33.0949 21.7843C33.6402 21.7152 34.1855 21.7306 34.7231 21.8227C35.2069 21.9072 35.6831 22.0608 36.1285 22.2759C36.3435 22.3757 36.428 22.6291 36.3282 22.8442C36.2514 22.9824 36.0978 23.0746 35.9442 23.0746Z" fill="#5A504C"/>
<path d="M53.6774 58.1644C53.2474 55.2997 51.5194 52.7884 48.9926 51.3599L35.6525 43.8181C34.9766 43.4188 34.4698 42.8121 34.1856 42.1132C32.857 42.3743 31.4515 42.5125 29.9923 42.5125C28.5331 42.5125 27.1277 42.3743 25.799 42.1132C25.5149 42.8121 25.0003 43.4188 24.3322 43.8181L10.992 51.3599C8.46528 52.7884 6.73728 55.2997 6.3072 58.1644L6 60.2149H30H54L53.6774 58.1644Z" fill="#806F6F"/>
<path d="M21.721 17.2915C20.9991 18.6586 21.9821 19.511 21.4291 21.2698C21.0759 22.391 20.4999 22.6138 20.1696 24.119C20.0467 24.672 20.016 25.1482 20.0083 25.4554C19.4631 24.6413 18.6643 23.2051 18.4186 21.2698C18.3034 20.3328 18.1191 18.7354 18.9024 16.9997C19.2327 16.2701 19.6397 15.7325 19.9392 15.3792C19.9469 14.9952 19.993 14.3578 20.1619 13.5974C20.8147 10.8019 22.9882 7.6992 25.0157 7.87584C25.4765 7.91424 25.4227 8.0832 25.9834 8.16768C27.7498 8.43648 28.3488 6.80832 30.0615 6.61632C31.7664 6.42432 31.8202 7.97568 34.9152 8.55936C35.8599 8.736 36.5971 8.736 37.0503 9.33504C37.5418 9.98784 37.0733 10.5178 37.5341 11.4701C38.0487 12.5376 38.9549 12.5299 39.1853 13.4131C39.3005 13.8509 39.2237 14.4192 38.7245 15.1718C39.2237 15.4176 39.9533 15.8861 40.4448 16.7078C41.0055 17.6525 40.9747 18.6125 40.8365 20.1024C40.6983 21.5309 40.4679 23.3741 40.0455 25.5245C38.7859 23.7504 38.3635 22.2067 38.2176 21.0701C37.9872 19.2653 38.402 17.8368 37.4419 16.8C36.9044 16.2163 36.1747 16.009 35.6295 15.9245C27.1738 16.0781 23.5181 16.1242 23.0727 16.1165C23.065 16.1165 23.0343 16.1165 22.9959 16.1165C22.3123 16.1626 21.8515 17.0458 21.721 17.2915Z" fill="#9A8B84"/>
<path d="M31.5976 35.4011H28.3874C27.2891 35.4011 26.3522 36.1076 25.9912 37.0907C26.9205 37.6283 28.0955 38.0967 29.4626 38.1505C29.6853 38.1582 29.8696 38.1582 29.9848 38.1505C30.1077 38.1582 30.2843 38.1582 30.507 38.1505C31.8741 38.0967 33.0568 37.6283 33.9784 37.0907C33.6328 36.1076 32.6959 35.4011 31.5976 35.4011Z" fill="#9A8B84"/>
<path d="M33.2256 33.2657H26.7514C26.3597 33.2657 26.1447 32.8126 26.3828 32.5054L27.3274 31.315C27.4196 31.1998 27.5501 31.1384 27.696 31.1384H32.2887C32.4346 31.1384 32.5652 31.2075 32.6573 31.315L33.602 32.5054C33.84 32.8203 33.6173 33.2657 33.2256 33.2657Z" fill="#9A8B84"/>
</g>
</svg>
