<svg width="60" height="60" viewBox="0 0 60 60" fill="none" xmlns="http://www.w3.org/2000/svg">
<mask id="mask0_9299_52908" style="mask-type:alpha" maskUnits="userSpaceOnUse" x="0" y="0" width="60" height="60">
<circle cx="30" cy="30" r="30" fill="#D9D9D9"/>
</mask>
<g mask="url(#mask0_9299_52908)">
<path d="M39.1768 28.8385C39.329 29.6605 39.5421 30.6728 39.8542 31.784C40.2728 33.253 40.5164 33.6944 40.5696 34.661C40.661 36.2442 40.1434 37.6218 40.0292 37.5761C39.9227 37.5304 40.3717 36.0919 40.0292 34.4327C39.839 33.5041 39.5878 33.4356 38.8343 31.3197C38.4461 30.239 38.332 29.7442 38.4537 29.3637C38.5983 28.9527 38.9637 28.8613 39.1768 28.8385Z" fill="#5B4637"/>
<path d="M20.9469 28.8385C20.7718 29.6605 20.5283 30.6728 20.1629 31.784C19.6834 33.253 19.3942 33.6944 19.3333 34.661C19.2344 36.2442 19.8281 37.6218 19.9574 37.5761C20.0868 37.5304 19.5617 36.0919 19.9574 34.4327C20.1782 33.5041 20.4674 33.4356 21.3427 31.3197C21.7917 30.239 21.9211 29.7442 21.7841 29.3637C21.6243 28.9527 21.1981 28.8613 20.9469 28.8385Z" fill="#5B4637"/>
<path d="M31.0022 11.8354C33.5244 11.8354 35.5689 9.99184 35.5689 7.71773C35.5689 5.44363 33.5244 3.6001 31.0022 3.6001C28.4801 3.6001 26.4355 5.44363 26.4355 7.71773C26.4355 9.99184 28.4801 11.8354 31.0022 11.8354Z" fill="#5B4637"/>
<path d="M53.5155 58.1644C53.0892 55.3254 51.3767 52.8366 48.8727 51.4209L35.6521 43.9468C34.5865 43.3074 33.932 42.1581 33.932 40.9175V34.7753H26.1458V40.9175C26.1458 42.1581 25.4912 43.3074 24.4256 43.9468L11.2127 51.4209C8.7086 52.8366 6.99609 55.3254 6.56987 58.1644L6.25781 60.1966H30.0427H53.8275L53.5155 58.1644Z" fill="#FFDED7"/>
<path d="M30.4918 40.6359C31.8542 40.164 33.0035 39.5704 33.9321 39.0071V34.7753H26.1459V40.9175C26.1459 41.1383 26.123 41.3514 26.085 41.5645C27.3104 41.4655 28.825 41.2144 30.4918 40.6359Z" fill="#F9BFB2"/>
<path d="M20.9562 29.067L20.1723 29.1507C19.023 29.2725 17.9879 28.4353 17.8661 27.286L17.6758 25.5126C17.5541 24.3633 18.3913 23.3282 19.5406 23.2064L20.3245 23.1227L20.9562 29.067Z" fill="#F9BFB2"/>
<path d="M20.925 27.9861L20.4455 28.0394C19.7376 28.1155 19.1059 27.5979 19.0298 26.8977L18.9156 25.8093C18.8395 25.1014 19.3571 24.4697 20.0573 24.3936L20.5368 24.3403L20.925 27.9861Z" fill="#DF827A"/>
<path d="M39.123 29.0669L39.907 29.1507C41.0563 29.2724 42.0914 28.4352 42.2132 27.2859L42.3958 25.5125C42.5176 24.3632 41.6804 23.3281 40.5311 23.2063L39.7472 23.1226L39.123 29.0669Z" fill="#F9BFB2"/>
<path d="M39.1611 27.9861L39.6406 28.0394C40.3485 28.1155 40.9802 27.5979 41.0563 26.8977L41.1705 25.8093C41.2466 25.1014 40.729 24.4697 40.0288 24.3936L39.5493 24.3403L39.1611 27.9861Z" fill="#DF827A"/>
<path d="M30.0431 38.3299C30.1649 38.3375 30.3399 38.3375 30.5607 38.3299C33.3159 38.2234 35.3024 36.4195 35.9722 35.803C39.009 33.0402 39.9681 28.5192 39.9681 24.6755C39.9681 22.7042 39.9681 19.7739 39.9681 16.3718C39.9681 16.151 39.9681 15.5193 39.9681 14.6973C39.9681 13.0609 38.3621 12.1095 38.1566 11.9573C36.7181 10.8689 34.8686 10.8384 31.1848 10.7776C30.6977 10.7699 30.3019 10.7699 30.0431 10.7776C29.7843 10.7776 29.3809 10.7699 28.9014 10.7776C25.21 10.8384 23.3681 10.8613 21.9296 11.9573C21.7241 12.1171 20.1182 13.0609 20.1182 14.6973C20.1182 15.5193 20.1182 16.151 20.1182 16.3718C20.1182 19.7816 20.1182 22.7042 20.1182 24.6755C20.1182 28.5192 21.0772 33.0402 24.114 35.803C24.7914 36.4195 26.7703 38.2234 29.5256 38.3299C29.7387 38.3375 29.9213 38.3299 30.0431 38.3299Z" fill="#FCD4C9"/>
<path d="M30.043 29.2192C29.5178 29.2192 29.084 28.7168 29.084 28.1003L29.2743 26.4106C29.2743 25.9159 29.5102 25.2918 30.043 25.2918C30.5682 25.2918 30.8117 25.9159 30.8117 26.4106L31.002 28.1003C31.002 28.7092 30.5682 29.2192 30.043 29.2192Z" fill="#F9BFB2"/>
<path d="M30.8049 26.4107C30.8049 25.9844 30.6222 25.4593 30.2341 25.3223C30.3939 25.5506 30.4624 25.8627 30.4624 26.1367L30.6527 27.8263C30.6527 28.4428 30.2188 28.9452 29.6937 28.9452C29.5643 28.9452 29.4501 28.9147 29.3359 28.8615C29.511 29.0746 29.7546 29.2116 30.0286 29.2116C30.5537 29.2116 30.9876 28.7092 30.9876 28.0927L30.8049 26.4107Z" fill="#DD8F88"/>
<path d="M25.978 26.5932C26.6001 26.5932 27.1045 26.0889 27.1045 25.4668C27.1045 24.8447 26.6001 24.3403 25.978 24.3403C25.3559 24.3403 24.8516 24.8447 24.8516 25.4668C24.8516 26.0889 25.3559 26.5932 25.978 26.5932Z" fill="#5B4637"/>
<path d="M34.0991 26.5932C34.7212 26.5932 35.2256 26.0888 35.2256 25.4667C35.2256 24.8446 34.7212 24.3403 34.0991 24.3403C33.477 24.3403 32.9727 24.8446 32.9727 25.4667C32.9727 26.0888 33.477 26.5932 34.0991 26.5932Z" fill="#5B4637"/>
<path d="M32.639 32.6518C32.3422 33.1617 31.6496 33.7554 30.4394 33.7554H30.0436H29.6479C28.4377 33.7554 27.7451 33.1617 27.4482 32.6518" stroke="#DF827A" stroke-width="0.8286" stroke-miterlimit="10" stroke-linecap="round"/>
<path d="M25.8105 29.8053H23.7784C23.1314 29.8053 22.5986 29.2725 22.5986 28.6255C22.5986 27.9786 23.1314 27.4458 23.7784 27.4458H25.8105C26.4575 27.4458 26.9903 27.9786 26.9903 28.6255C26.9903 29.2725 26.4575 29.8053 25.8105 29.8053Z" fill="#F9BFB2"/>
<path d="M36.2988 29.8052H34.2666C33.6197 29.8052 33.0869 29.2724 33.0869 28.6255C33.0869 27.9785 33.6197 27.4457 34.2666 27.4457H36.2988C36.9458 27.4457 37.4785 27.9785 37.4785 28.6255C37.4785 29.2724 36.9458 29.8052 36.2988 29.8052Z" fill="#F9BFB2"/>
<path d="M26.9142 21.57C26.5489 21.5243 26.0313 21.5015 25.43 21.6081C24.8896 21.6994 24.4558 21.8744 24.1514 22.0191" stroke="#5B4637" stroke-miterlimit="10" stroke-linecap="round"/>
<path d="M33.1631 21.57C33.5284 21.5243 34.046 21.5015 34.6473 21.6081C35.1877 21.6994 35.6215 21.8744 35.9259 22.0191" stroke="#5B4637" stroke-miterlimit="10" stroke-linecap="round"/>
<path d="M31.4047 11.7897C31.5646 12.5204 31.8005 13.5479 32.3485 14.72C33.513 17.2013 35.0581 18.792 36.763 20.4284C37.486 21.121 38.5592 22.08 39.9825 23.1075C40.0738 23.1303 40.1728 23.1532 40.2641 23.176C40.5609 23.2521 40.8502 23.3282 41.1318 23.4043C42.89 17.7949 41.4058 12.1474 37.6078 9.35415C35.1494 7.55031 32.3866 7.42092 31.009 7.46659C30.9709 8.54737 31.0166 10.0544 31.4047 11.7897Z" fill="#6C5749"/>
<path d="M33.0181 9.23994C32.4473 8.09065 31.3208 7.60354 31.0088 7.47415C27.8425 6.09653 23.6944 8.6006 21.6699 10.6252C17.0042 15.2984 18.4656 22.6203 18.6483 23.4652C19.0212 23.4043 19.5235 23.3358 20.1172 23.2901C20.7413 23.2445 21.198 23.2521 21.2589 23.2521C22.1266 23.2521 26.2822 21.9049 30.2477 17.1479C31.0164 16.2041 34.4414 12.0941 33.0181 9.23994Z" fill="#6C5749"/>
<path d="M53.5155 58.1644C53.0892 55.3254 51.3767 52.8366 48.8727 51.4209L37.2048 44.822C36.0326 46.9303 34.5485 47.661 33.9396 47.9122C32.9653 48.3079 31.9911 48.3079 30.0351 48.3079C28.079 48.3079 27.1124 48.3079 26.1305 47.9122C25.5293 47.6686 24.0375 46.9303 22.8653 44.822L11.2127 51.4209C8.7086 52.8366 6.99609 55.3254 6.56987 58.1644L6.25781 60.1966H30.0427H53.8275L53.5155 58.1644Z" fill="#FAFAFA"/>
<path d="M35.1576 43.5814C33.4375 47.3337 31.725 51.0936 30.0049 54.8459C35.15 53.0421 40.2952 51.2382 45.4403 49.4344C44.1692 48.346 42.2324 47.3493 40.2002 46.2C38.2441 45.0964 36.7027 44.1066 35.1576 43.5814Z" fill="#395185"/>
<path d="M24.8295 43.5814C26.5497 47.3337 28.2622 51.0936 29.9823 54.8459C24.8372 53.0421 19.692 51.2382 14.5469 49.4344C15.8179 48.346 18.0682 47.3493 20.1004 46.2C22.0565 45.0964 23.2845 44.1066 24.8295 43.5814Z" fill="#395185"/>
<path d="M29.6626 54.9525C29.8301 55.021 32.6234 56.2463 33.0572 59.1386C33.3388 61.0109 32.4635 62.4418 32.2048 62.8376C31.8547 62.6397 29.6626 61.3078 29.1679 58.6134C28.8483 56.8781 29.4115 55.4852 29.6626 54.9525Z" fill="#841209"/>
<path d="M29.2743 54.8079C28.9242 55.1656 27.2497 56.9314 27.2345 59.6943C27.2193 62.1146 28.4827 63.7586 28.8481 64.2001C29.0612 64.0403 31.5196 62.0918 31.3141 58.9332C31.1619 56.5737 29.6168 55.12 29.2743 54.8079Z" fill="#AC2016"/>
<path d="M32.1435 54.7014C32.1816 55.2266 31.6107 55.7061 31.1008 55.8431C30.6822 55.9496 30.5984 55.7517 29.9134 55.7822C29.1828 55.8126 29.0914 56.0486 28.688 55.9496C28.1705 55.8278 27.6225 55.2722 27.6834 54.7014C27.7443 54.161 28.3379 53.8642 28.5054 53.7804C28.8403 53.613 29.2056 53.613 29.9134 53.6206C30.6822 53.6282 31.0703 53.6358 31.428 53.8489C31.5955 53.9479 32.1054 54.2371 32.1435 54.7014Z" fill="#961A11"/>
</g>
</svg>
