<svg width="60" height="60" viewBox="0 0 60 60" fill="none" xmlns="http://www.w3.org/2000/svg">
<circle cx="30" cy="30" r="30" fill="#FFEFEF"/>
<mask id="mask0_9305_58358" style="mask-type:alpha" maskUnits="userSpaceOnUse" x="0" y="0" width="60" height="60">
<circle cx="30" cy="30" r="30" fill="#EAF3F4"/>
</mask>
<g mask="url(#mask0_9305_58358)">
<path d="M29.7925 44.4681C31.605 44.5295 33.7477 44.4527 36.1209 44.0764C40.414 43.4006 43.8469 41.9951 46.2508 40.7663C45.3753 36.9263 44.4921 33.0863 43.6165 29.2463C43.7778 28.0482 43.9621 26.351 44.0313 24.3081C44.1004 22.0425 44.1465 20.614 43.893 19.0473C43.317 15.3993 39.9455 10.1231 35.9826 8.57177C35.2146 8.27225 34.5388 8.14937 34.0933 8.08793C33.2485 7.94969 32.3116 7.84217 31.2901 7.81145C30.7756 7.79609 30.2841 7.79609 29.8156 7.81145H30.1842C29.7157 7.79609 29.2242 7.79609 28.7097 7.81145C27.6882 7.84985 26.7436 7.94969 25.9065 8.08793C25.461 8.14169 24.7852 8.27225 24.0172 8.57177C20.0466 10.1231 16.6828 15.3993 16.1068 19.0473C15.861 20.614 15.8994 22.0425 15.9685 24.3081C16.03 26.351 16.2143 28.0482 16.3833 29.2463C15.5077 33.0863 14.6245 36.9263 13.749 40.7663C16.1529 41.9951 19.5858 43.4006 23.8789 44.0764C26.2444 44.4527 28.3871 44.5295 30.2073 44.4681" fill="#985254"/>
<path d="M53.6851 58.2843C53.255 55.4197 51.527 52.9083 49.0003 51.4798L35.6602 43.9381C34.585 43.2929 33.9245 42.1333 33.9245 40.8814V34.6837H26.0678V40.8814C26.0678 42.1333 25.4074 43.2929 24.3322 43.9381L10.9997 51.4798C8.47296 52.9083 6.74496 55.4197 6.31488 58.2843L6 60.3349H30H54L53.6851 58.2843Z" fill="#F8DBD3"/>
<path d="M30.4531 40.6049C31.8278 40.1288 32.9875 39.5297 33.9244 38.9614V34.6913H26.0678V40.8891C26.0678 41.1118 26.0447 41.3269 26.0063 41.5419C27.2428 41.4344 28.7711 41.1809 30.4531 40.6049Z" fill="#FBC1B5"/>
<path d="M20.8303 28.9238L20.0392 29.0083C18.8795 29.1312 17.8351 28.2864 17.7122 27.1267L17.5202 25.3372C17.3973 24.1776 18.2421 23.1331 19.4018 23.0102L20.1928 22.9257L20.8303 28.9238Z" fill="#FBC1B5"/>
<path d="M20.7997 27.841L20.3158 27.8948C19.6016 27.9716 18.9641 27.4493 18.8873 26.7428L18.7721 25.6445C18.6953 24.9303 19.2176 24.2929 19.9241 24.2161L20.408 24.1623L20.7997 27.841Z" fill="#DF827A"/>
<path d="M39.1621 28.9237L39.9531 29.0082C41.1128 29.131 42.1573 28.2862 42.2802 27.1266L42.4645 25.3371C42.5874 24.1774 41.7426 23.133 40.5829 23.0101L39.7919 22.9256L39.1621 28.9237Z" fill="#FBC1B5"/>
<path d="M39.2002 27.841L39.684 27.8948C40.3983 27.9716 41.0357 27.4493 41.1125 26.7428L41.2277 25.6445C41.3045 24.9303 40.7823 24.2929 40.0757 24.2161L39.5919 24.1623L39.2002 27.841Z" fill="#DF827A"/>
<path d="M30.0001 38.2703C30.123 38.2779 30.2996 38.2779 30.5223 38.2703C33.3025 38.1627 35.307 36.3426 35.9828 35.7205C39.0471 32.9327 40.0148 28.3707 40.0148 24.4923C40.0148 22.5032 40.0148 19.5464 40.0148 16.1135C40.0148 15.8907 40.0148 15.2533 40.0148 14.4239C40.0148 12.7727 38.3943 11.8127 38.187 11.6591C36.7354 10.5608 34.8692 10.5301 31.1521 10.4687C30.6606 10.461 30.2612 10.461 30.0001 10.4687C29.739 10.4687 29.3319 10.461 28.8481 10.4687C25.1233 10.5301 23.2647 10.5531 21.8132 11.6591C21.6058 11.8203 19.9854 12.7727 19.9854 14.4239C19.9854 15.2533 19.9854 15.8907 19.9854 16.1135C19.9854 19.5541 19.9854 22.5032 19.9854 24.4923C19.9854 28.3707 20.953 32.9327 24.0174 35.7205C24.7009 36.3426 26.6977 38.1627 29.4778 38.2703C29.6929 38.2779 29.8772 38.2779 30.0001 38.2703Z" fill="#F8DBD3"/>
<path d="M29.9999 29.0771C29.47 29.0771 29.0322 28.5703 29.0322 27.9482L29.2242 26.2432C29.2242 25.744 29.4623 25.1143 29.9999 25.1143C30.5298 25.1143 30.7756 25.744 30.7756 26.2432L30.9676 27.9482C30.9676 28.5703 30.5298 29.0771 29.9999 29.0771Z" fill="#FBC1B5"/>
<path d="M30.7679 26.2511C30.7679 25.821 30.5836 25.2911 30.1919 25.1528C30.3532 25.3832 30.4223 25.6981 30.4223 25.9746L30.6143 27.6796C30.6143 28.3016 30.1765 28.8085 29.6466 28.8085C29.516 28.8085 29.4008 28.7778 29.2856 28.724C29.4623 28.9391 29.708 29.0773 29.9845 29.0773C30.5144 29.0773 30.9522 28.5704 30.9522 27.9484L30.7679 26.2511Z" fill="#FFB4AD"/>
<path d="M25.8988 26.4353C26.5266 26.4353 27.0355 25.9264 27.0355 25.2987C27.0355 24.6709 26.5266 24.162 25.8988 24.162C25.2711 24.162 24.7622 24.6709 24.7622 25.2987C24.7622 25.9264 25.2711 26.4353 25.8988 26.4353Z" fill="#6C5749"/>
<path d="M34.0932 26.4353C34.7209 26.4353 35.2298 25.9264 35.2298 25.2987C35.2298 24.6709 34.7209 24.162 34.0932 24.162C33.4654 24.162 32.9565 24.6709 32.9565 25.2987C32.9565 25.9264 33.4654 26.4353 34.0932 26.4353Z" fill="#6C5749"/>
<path d="M30.3917 33.9774H29.593C27.9648 33.9774 27.2659 33.0097 27.097 32.7102C27.0048 32.5566 27.0586 32.3646 27.2122 32.2725C27.3658 32.1803 27.5578 32.2341 27.6499 32.3877C27.8189 32.6718 28.3411 33.34 29.6007 33.34H30.3994C31.6512 33.34 32.1811 32.6718 32.3501 32.3877C32.4423 32.2341 32.6343 32.1803 32.7879 32.2725C32.9415 32.3646 32.9875 32.5566 32.9031 32.7102C32.7187 33.0097 32.0199 33.9774 30.3917 33.9774Z" fill="#DF827A"/>
<path d="M25.7297 29.6687H23.6792C23.0264 29.6687 22.4888 29.1311 22.4888 28.4783C22.4888 27.8255 23.0264 27.2879 23.6792 27.2879H25.7297C26.3825 27.2879 26.9201 27.8255 26.9201 28.4783C26.9201 29.1388 26.3825 29.6687 25.7297 29.6687Z" fill="#FBC1B5"/>
<path d="M36.3127 29.6687H34.2622C33.6094 29.6687 33.0718 29.1311 33.0718 28.4783C33.0718 27.8255 33.6094 27.2879 34.2622 27.2879H36.3127C36.9655 27.2879 37.5031 27.8255 37.5031 28.4783C37.5031 29.1388 36.9655 29.6687 36.3127 29.6687Z" fill="#FBC1B5"/>
<path d="M24.0483 23.2021C23.887 23.2021 23.7411 23.11 23.6643 22.9641C23.5644 22.749 23.6489 22.5033 23.8639 22.3957C24.3094 22.1807 24.7779 22.0348 25.2694 21.9426C25.807 21.8505 26.3599 21.8351 26.8975 21.9042C27.1279 21.9349 27.2969 22.15 27.2662 22.3804C27.2355 22.6108 27.0204 22.7797 26.79 22.749C26.3369 22.6876 25.8684 22.7029 25.4153 22.7797C25.0083 22.8489 24.6089 22.9794 24.2326 23.1561C24.1711 23.1868 24.1097 23.2021 24.0483 23.2021Z" fill="#6C5749"/>
<path d="M35.9443 23.2022C35.8829 23.2022 35.8214 23.1869 35.76 23.1638C35.3837 22.9872 34.9843 22.8566 34.5773 22.7875C34.1242 22.7107 33.6634 22.6953 33.2026 22.7568C32.9722 22.7875 32.7571 22.6262 32.7264 22.3881C32.6957 22.1577 32.857 21.9427 33.095 21.912C33.6326 21.8429 34.1856 21.8582 34.7232 21.9504C35.207 22.0349 35.6832 22.1885 36.1286 22.4035C36.3437 22.5033 36.4282 22.7568 36.3283 22.9718C36.2592 23.1101 36.1056 23.2022 35.9443 23.2022Z" fill="#6C5749"/>
<path d="M19.4091 29.8225C19.8799 29.8225 20.2616 29.4408 20.2616 28.97C20.2616 28.4992 19.8799 28.1175 19.4091 28.1175C18.9383 28.1175 18.5566 28.4992 18.5566 28.97C18.5566 29.4408 18.9383 29.8225 19.4091 29.8225Z" fill="white"/>
<path d="M40.5829 29.8225C41.0538 29.8225 41.4354 29.4408 41.4354 28.97C41.4354 28.4992 41.0538 28.1175 40.5829 28.1175C40.1121 28.1175 39.7305 28.4992 39.7305 28.97C39.7305 29.4408 40.1121 29.8225 40.5829 29.8225Z" fill="white"/>
<path d="M41.3361 22.2347C41.4667 21.3438 44.3697 17.8878 40.9445 13.18C37.3041 8.1726 31.5134 8.11884 30.2385 8.11884C30.1541 8.11884 30.0926 8.11884 30.0465 8.11884C30.0312 8.11884 30.0081 8.11884 30.0005 8.11884C29.9851 8.11884 29.9697 8.11884 29.9467 8.11884C29.8929 8.11884 29.8315 8.11884 29.7547 8.11884C28.4798 8.11884 22.6891 8.1726 19.0488 13.18C15.6235 17.8955 18.5342 21.3438 18.6571 22.2347C19.0027 22.6878 19.6171 23.6094 19.8629 24.938C20.0779 26.0824 19.9243 27.0347 19.7937 27.5723C20.1701 26.9502 20.6155 26.067 20.915 24.938C21.3144 23.4328 21.276 22.1348 21.1838 21.2977C21.7214 20.5912 22.3281 19.6542 22.8657 18.4868C23.3112 17.5115 23.603 16.6052 23.8027 15.8065C23.9333 15.2843 24.4017 14.9233 24.9317 14.9233L29.9544 14.9156H30.0542L35.0769 14.9233C35.6145 14.9233 36.083 15.292 36.2059 15.8065C36.3979 16.5976 36.6974 17.5115 37.1429 18.4868C37.6805 19.6542 38.2872 20.5912 38.8248 21.2977C38.7326 22.1348 38.6942 23.4328 39.0936 24.938C39.3931 26.067 39.8385 26.9502 40.2149 27.5723C40.0843 27.0347 39.9307 26.09 40.1457 24.938C40.3761 23.6094 40.9905 22.6878 41.3361 22.2347Z" fill="#985254"/>
<path d="M30.7141 14.8771C30.5529 15.8986 30.1689 17.2503 29.1781 18.4637C27.1199 21.0058 23.2953 21.9274 19.4092 20.929C19.4092 20.6218 19.4322 16.92 22.4965 14.8234C24.9004 13.1799 28.1644 13.1952 30.7141 14.8771Z" fill="#985254"/>
<path d="M45.5137 54.1985C45.6826 52.5934 45.9898 51.1803 46.32 49.9899C43.8548 48.5921 41.3818 47.202 38.9165 45.8043C38.0948 46.1652 37.1962 46.5185 36.2132 46.8411C36.1901 46.8487 36.1671 46.8564 36.1441 46.8641C32.1274 48.162 27.7882 48.162 23.7639 46.8641C23.7409 46.8564 23.7178 46.8487 23.6948 46.8411C22.7117 46.5262 21.8132 46.1729 20.9914 45.8043C18.5261 47.202 16.0532 48.5921 13.5879 49.9899C13.9258 51.1803 14.2253 52.5934 14.3943 54.1985C14.6477 56.6023 14.5095 58.699 14.2868 60.3348H29.954H45.6212C45.3985 58.7067 45.2679 56.61 45.5137 54.1985Z" fill="#FF8B8B"/>
</g>
</svg>
