<svg width="60" height="60" viewBox="0 0 60 60" fill="none" xmlns="http://www.w3.org/2000/svg">
<mask id="mask0_9305_53115" style="mask-type:alpha" maskUnits="userSpaceOnUse" x="0" y="0" width="60" height="60">
<circle cx="30" cy="30" r="30" fill="#D9D9D9"/>
</mask>
<g mask="url(#mask0_9305_53115)">
<path d="M55.4652 59.6383C55.0083 56.5946 53.1723 53.9263 50.4876 52.4085L36.3137 44.3954C35.1713 43.71 34.4696 42.4778 34.4696 41.1477V34.5626H26.1219V41.1477C26.1219 42.4778 25.4201 43.71 24.2777 44.3954L10.112 52.4085C7.42732 53.9263 5.59132 56.5946 5.13436 59.6383L4.7998 61.817H30.2998H55.7998L55.4652 59.6383Z" fill="#F5C2B6"/>
<path d="M30.7813 40.8458C32.2419 40.3399 33.4741 39.7034 34.4696 39.0996V34.5626H26.1219V41.1477C26.1219 41.3844 26.0974 41.6129 26.0566 41.8413C27.3704 41.7353 28.9942 41.466 30.7813 40.8458Z" fill="#ECA494"/>
<path d="M20.5574 28.4427L19.7169 28.5325C18.4848 28.663 17.375 27.7654 17.2444 26.5333L17.0404 24.632C16.9099 23.3998 17.8075 22.2901 19.0397 22.1595L19.8801 22.0698L20.5574 28.4427Z" fill="#ECA494"/>
<path d="M20.5245 27.284L20.0104 27.3411C19.2516 27.4227 18.5743 26.8678 18.4927 26.1171L18.3703 24.9502C18.2887 24.1914 18.8436 23.5141 19.5943 23.4325L20.1084 23.3754L20.5245 27.284Z" fill="#DF827A"/>
<path d="M40.0347 28.4428L40.8751 28.5325C42.1073 28.6631 43.2171 27.7655 43.3476 26.5333L43.5435 24.6321C43.674 23.3999 42.7764 22.2901 41.5443 22.1596L40.7038 22.0698L40.0347 28.4428Z" fill="#ECA494"/>
<path d="M40.0762 27.284L40.5903 27.3411C41.3491 27.4227 42.0264 26.8678 42.108 26.1171L42.2304 24.9502C42.312 24.1914 41.7571 23.5141 41.0064 23.4325L40.4923 23.3754L40.0762 27.284Z" fill="#DF827A"/>
<path d="M30.3003 38.3735C30.4309 38.3816 30.6185 38.3816 30.8552 38.3735C33.8091 38.2592 35.9389 36.3253 36.6569 35.6643C39.9128 32.7023 40.9409 27.8552 40.9409 23.7344C40.9409 21.621 40.9409 21.2375 40.9409 17.5818C40.9409 17.3451 40.9409 16.6679 40.9409 15.7866C40.9409 14.0322 39.2192 13.0122 38.9989 12.849C37.4566 11.6821 35.4737 11.6495 31.5243 11.5842C31.0021 11.576 30.5777 11.576 30.3003 11.5842C30.0229 11.5842 29.5904 11.576 29.0763 11.5842C25.1187 11.6495 23.144 11.6739 21.6017 12.849C21.3814 13.0203 19.6597 14.0322 19.6597 15.7866C19.6597 16.6679 19.6597 17.3451 19.6597 17.5818C19.6597 21.2375 19.6597 21.6128 19.6597 23.7344C19.6597 27.8552 20.6878 32.7023 23.9437 35.6643C24.6699 36.3253 26.7915 38.2592 29.7454 38.3735C29.9739 38.3816 30.1697 38.3816 30.3003 38.3735Z" fill="#F2C2B5"/>
<path d="M30.3 28.9241C29.6064 28.9241 29.0352 28.3447 29.0352 27.6348L29.2881 25.6845C29.2881 25.1133 29.6064 24.3953 30.3 24.3953C30.9936 24.3953 31.3118 25.1215 31.3118 25.6845L31.5648 27.6348C31.5648 28.3447 30.9936 28.9241 30.3 28.9241Z" fill="#ECA494"/>
<path d="M31.3119 25.6928C31.3119 25.2032 31.0752 24.5912 30.5611 24.4443C30.7651 24.7055 30.863 25.0645 30.863 25.3827L31.116 27.333C31.116 28.0429 30.5448 28.6223 29.8512 28.6223C29.688 28.6223 29.5248 28.5896 29.3779 28.5243C29.6064 28.7773 29.9328 28.9323 30.2918 28.9323C30.9854 28.9323 31.5566 28.353 31.5566 27.6431L31.3119 25.6928Z" fill="#DD8F88"/>
<path d="M25.9425 25.7988C26.6095 25.7988 27.1502 25.2581 27.1502 24.5912C27.1502 23.9242 26.6095 23.3835 25.9425 23.3835C25.2756 23.3835 24.7349 23.9242 24.7349 24.5912C24.7349 25.2581 25.2756 25.7988 25.9425 25.7988Z" fill="#1D2328"/>
<path d="M34.6496 25.7988C35.3166 25.7988 35.8573 25.2581 35.8573 24.5911C35.8573 23.9241 35.3166 23.3834 34.6496 23.3834C33.9826 23.3834 33.4419 23.9241 33.4419 24.5911C33.4419 25.2581 33.9826 25.7988 34.6496 25.7988Z" fill="#1D2328"/>
<path d="M30.7167 33.8119H29.868C28.1381 33.8119 27.4037 32.7837 27.216 32.4655C27.1181 32.3023 27.1752 32.0983 27.3384 32.0004C27.5016 31.9106 27.7056 31.9596 27.8035 32.1228C27.9831 32.4247 28.5379 33.1346 29.8762 33.1346H30.7248C32.0549 33.1346 32.6179 32.4247 32.7975 32.1228C32.8954 31.9596 33.0994 31.9106 33.2626 32.0004C33.4258 32.0983 33.4747 32.3023 33.385 32.4655C33.1891 32.7756 32.4466 33.8119 30.7167 33.8119Z" fill="#DF827A"/>
<path d="M25.7638 29.2342H23.5851C22.8915 29.2342 22.3203 28.663 22.3203 27.9694C22.3203 27.2758 22.8915 26.7046 23.5851 26.7046H25.7638C26.4574 26.7046 27.0286 27.2758 27.0286 27.9694C27.0286 28.6712 26.4574 29.2342 25.7638 29.2342Z" fill="#ECA494"/>
<path d="M37.0075 29.2342H34.8288C34.1352 29.2342 33.564 28.663 33.564 27.9694C33.564 27.2758 34.1352 26.7046 34.8288 26.7046H37.0075C37.7011 26.7046 38.2723 27.2758 38.2723 27.9694C38.2723 28.6712 37.7011 29.2342 37.0075 29.2342Z" fill="#ECA494"/>
<path d="M23.9757 22.3553C23.8044 22.3553 23.6493 22.2574 23.5677 22.1023C23.4617 21.8738 23.5514 21.6046 23.7799 21.4985C24.2532 21.27 24.7591 21.1068 25.2732 21.017C25.8444 20.9191 26.4237 20.9028 27.0031 20.9762C27.2479 21.0089 27.4274 21.2374 27.3948 21.4822C27.3621 21.727 27.1337 21.8983 26.8889 21.8738C26.3993 21.8086 25.9097 21.8249 25.4282 21.9065C24.9957 21.9799 24.5714 22.1186 24.1716 22.3063C24.1063 22.3471 24.041 22.3553 23.9757 22.3553Z" fill="#1D2328"/>
<path d="M36.6162 22.3553C36.551 22.3553 36.4857 22.339 36.4204 22.3145C36.0206 22.1268 35.5962 21.9881 35.1638 21.9147C34.6823 21.8331 34.1927 21.8167 33.7031 21.882C33.4583 21.9147 33.2298 21.7351 33.1972 21.4903C33.1646 21.2455 33.3441 21.0171 33.5889 20.9844C34.1682 20.911 34.7476 20.9273 35.3188 21.0252C35.8329 21.115 36.3388 21.2782 36.8121 21.5067C37.0406 21.6127 37.1303 21.882 37.0242 22.1105C36.9508 22.2655 36.7876 22.3553 36.6162 22.3553Z" fill="#1D2328"/>
<path d="M19.6593 24.281C20.2305 23.1386 20.9894 21.376 21.4709 19.1238C22.1318 16.023 21.6504 14.897 22.5888 14.1218C24.1473 12.8243 26.2934 15.2723 30.6753 14.9133C34.1025 14.6358 35.4489 12.9222 36.9014 13.8606C37.9296 14.5216 37.8398 15.7619 38.5497 18.3813C39.2515 20.9598 40.2062 22.959 40.9243 24.2646C41.2997 23.8974 41.8627 23.2773 42.3441 22.3878C44.4249 18.569 43.1683 13.1181 40.0349 9.91937C38.6966 8.55665 37.3339 7.91201 36.3629 7.47137C32.1768 5.56193 25.8365 5.10497 22.5235 8.58929C21.6585 9.50321 21.1853 10.4906 20.9241 11.1923C20.2877 11.5922 18.1089 13.0854 17.3093 15.9333C16.0445 20.4784 19.5043 24.1259 19.6593 24.281Z" fill="#1D2328"/>
<path d="M55.4652 59.6382C55.0083 56.5945 53.1723 53.9262 50.4876 52.4084L36.3137 44.3953C35.5956 43.971 35.0571 43.3264 34.7552 42.5838C33.3435 42.8612 32.0216 47.6838 30.4712 47.6838C28.9208 47.6838 27.2561 42.8612 25.8444 42.5838C25.5425 43.3264 24.9958 43.971 24.2859 44.3953L10.112 52.4084C7.42732 53.9262 5.59132 56.5945 5.13436 59.6382L4.7998 61.8169H30.2998H55.7998L55.4652 59.6382Z" fill="#3E3A39"/>
<path d="M30.4712 46.0111L24.4409 44.2893L26.1545 61.817H30.4712H34.7878L36.5014 44.2893L30.4712 46.0111Z" fill="#D1D1D1"/>
<path d="M30.4712 46.4026L27.9824 48.7037L29.2309 52.4818H30.4712H31.7115L32.9519 48.7037L30.4712 46.4026Z" fill="#4279A6"/>
<path d="M31.7115 52.4819H30.4712H29.2309L27.9824 63.8732L30.4712 67.8635L32.9519 63.8732L31.7115 52.4819Z" fill="#4279A6"/>
<path d="M30.4712 46.4026C28.9779 44.8195 27.4928 43.2447 25.9995 41.6616C25.4772 42.5347 24.955 43.4079 24.4409 44.2891C24.6041 45.1623 24.8816 46.2394 25.363 47.4144C25.7873 48.4426 26.2688 49.2912 26.7094 49.9685C27.966 48.7771 29.2145 47.5858 30.4712 46.4026Z" fill="#EFEFEF"/>
<path d="M30.4707 46.4026C31.964 44.8195 33.4491 43.2447 34.9424 41.6616C35.4646 42.5347 35.9869 43.4079 36.5009 44.2891C36.3377 45.1623 36.0603 46.2394 35.5789 47.4144C35.1545 48.4426 34.6731 49.2912 34.2325 49.9685C32.9758 48.7771 31.7192 47.5858 30.4707 46.4026Z" fill="#EFEFEF"/>
<path d="M24.3517 43.7426C24.6618 46.6638 25.1677 49.9197 26 53.4122C27.2322 58.5856 28.856 63.0328 30.4717 66.6803L19.4557 54.2771L22.3851 51.1355L18.9824 49.8544L24.3517 43.7426Z" fill="#5F5F5F"/>
<path d="M36.5907 43.7426C36.2806 46.6638 35.7747 49.9197 34.9424 53.4122C33.7102 58.5856 32.0864 63.0328 30.4707 66.6803L41.4867 54.2771L38.5573 51.1355L41.96 49.8544L36.5907 43.7426Z" fill="#5F5F5F"/>
</g>
</svg>
