<svg width="61" height="60" viewBox="0 0 61 60" fill="none" xmlns="http://www.w3.org/2000/svg">
<mask id="mask0_9305_53262" style="mask-type:alpha" maskUnits="userSpaceOnUse" x="0" y="0" width="61" height="60">
<circle cx="30.5" cy="30" r="30" fill="#EAF3F4"/>
</mask>
<g mask="url(#mask0_9305_53262)">
<path d="M16.6913 52.0938C15.739 51.1261 13.458 48.8298 12.8743 45.3507C12.2599 41.672 14.1492 40.3741 15.5009 33.7923C16.2842 29.9754 16.4839 26.335 16.6452 23.4243C16.9217 18.417 16.6682 15.5216 18.7726 13.3405C19.8708 12.2038 21.1841 11.6893 22.0596 11.4358C22.6202 10.6678 23.5726 9.57728 25.0241 8.69408C30.0007 5.66048 35.7838 8.13344 36.4826 8.44832C41.4516 10.6678 43.4177 15.2682 43.963 16.52C45.6833 20.4982 44.0014 20.9744 45.5143 28.977C45.6065 29.4838 46.3361 32.8861 47.7953 39.6906C48.3866 42.4554 48.6938 43.8915 48.3866 45.8422C47.5956 49.137 46.1518 51.249 44.9153 52.5853C38.1185 59.935 23.5342 59.0058 16.6913 52.0938Z" fill="#4D4543"/>
<path d="M54.1851 58.5834C53.755 55.7187 52.027 53.2074 49.5003 51.7789L36.1602 44.2371C35.085 43.592 34.4245 42.4323 34.4245 41.1805V34.9827H26.5678V41.1805C26.5678 42.4323 25.9074 43.592 24.8322 44.2371L11.492 51.7789C8.96528 53.2074 7.23728 55.7187 6.8072 58.5834L6.5 60.6339H30.5H54.5L54.1851 58.5834Z" fill="#F5C2B6"/>
<path d="M30.9531 40.8963C32.3278 40.4202 33.4875 39.8211 34.4244 39.2528V34.9827H26.5678V41.1805C26.5678 41.4032 26.5447 41.6182 26.5063 41.8333C27.7428 41.7334 29.2711 41.48 30.9531 40.8963Z" fill="#ECA494"/>
<path d="M21.3298 29.2227L20.5387 29.3072C19.379 29.4301 18.3346 28.5853 18.2117 27.4256L18.0197 25.6362C17.8968 24.4765 18.7416 23.432 19.9013 23.3091L20.6923 23.2246L21.3298 29.2227Z" fill="#ECA494"/>
<path d="M21.2992 28.132L20.8153 28.1858C20.1011 28.2626 19.4637 27.7403 19.3869 27.0338L19.2717 25.9355C19.1949 25.2213 19.7171 24.5839 20.4237 24.5071L20.9075 24.4533L21.2992 28.132Z" fill="#DF827A"/>
<path d="M39.6621 29.2228L40.4531 29.3072C41.6128 29.4301 42.6573 28.5853 42.7802 27.4256L42.9645 25.6362C43.0874 24.4765 42.2426 23.432 41.0829 23.3092L40.2919 23.2247L39.6621 29.2228Z" fill="#ECA494"/>
<path d="M39.7002 28.132L40.184 28.1858C40.8983 28.2626 41.5357 27.7403 41.6125 27.0338L41.7277 25.9355C41.8045 25.2213 41.2823 24.5839 40.5757 24.5071L40.0919 24.4533L39.7002 28.132Z" fill="#DF827A"/>
<path d="M30.5001 38.5694C30.623 38.5771 30.7996 38.5771 31.0223 38.5694C33.8025 38.4619 35.807 36.6417 36.4828 36.0196C39.5471 33.2318 40.5148 28.6699 40.5148 24.7915C40.5148 22.8024 40.5148 19.8456 40.5148 16.4126C40.5148 16.1899 40.5148 15.5524 40.5148 14.723C40.5148 13.0718 38.8943 12.1118 38.687 11.9582C37.2354 10.86 35.3692 10.8293 31.6521 10.7678C31.1606 10.7601 30.7612 10.7601 30.5001 10.7678C30.239 10.7678 29.8319 10.7601 29.3481 10.7678C25.6233 10.8293 23.7647 10.8523 22.3132 11.9582C22.1058 12.1195 20.4854 13.0718 20.4854 14.723C20.4854 15.5524 20.4854 16.1899 20.4854 16.4126C20.4854 19.8533 20.4854 22.8024 20.4854 24.7915C20.4854 28.6699 21.453 33.2318 24.5174 36.0196C25.2009 36.6417 27.1977 38.4619 29.9778 38.5694C30.1929 38.5771 30.3772 38.5694 30.5001 38.5694Z" fill="#F2C2B5"/>
<path d="M30.4999 29.3762C29.97 29.3762 29.5322 28.8693 29.5322 28.2472L29.7242 26.5423C29.7242 26.0431 29.9623 25.4133 30.4999 25.4133C31.0298 25.4133 31.2756 26.0431 31.2756 26.5423L31.4676 28.2472C31.4676 28.8616 31.0298 29.3762 30.4999 29.3762Z" fill="#ECA494"/>
<path d="M31.2679 26.5425C31.2679 26.1125 31.0836 25.5825 30.6919 25.4443C30.8532 25.6747 30.9223 25.9896 30.9223 26.2661L31.1143 27.971C31.1143 28.5931 30.6765 29.1 30.1466 29.1C30.016 29.1 29.9008 29.0693 29.7856 29.0155C29.9623 29.2305 30.208 29.3688 30.4845 29.3688C31.0144 29.3688 31.4522 28.8619 31.4522 28.2398L31.2679 26.5425Z" fill="#DD8F88"/>
<path d="M26.3984 26.7266C27.0261 26.7266 27.535 26.2177 27.535 25.5899C27.535 24.9622 27.0261 24.4533 26.3984 24.4533C25.7706 24.4533 25.2617 24.9622 25.2617 25.5899C25.2617 26.2177 25.7706 26.7266 26.3984 26.7266Z" fill="#4D4543"/>
<path d="M34.5932 26.7265C35.2209 26.7265 35.7298 26.2176 35.7298 25.5898C35.7298 24.9621 35.2209 24.4532 34.5932 24.4532C33.9654 24.4532 33.4565 24.9621 33.4565 25.5898C33.4565 26.2176 33.9654 26.7265 34.5932 26.7265Z" fill="#4D4543"/>
<path d="M30.8912 34.2684H30.0925C28.4643 34.2684 27.7655 33.3007 27.5965 33.0012C27.5043 32.8476 27.5581 32.6556 27.7117 32.5634C27.8653 32.4713 28.0573 32.525 28.1495 32.6786C28.3184 32.9628 28.8407 33.6309 30.1002 33.6309H30.8989C32.1507 33.6309 32.6807 32.9628 32.8496 32.6786C32.9418 32.525 33.1338 32.4713 33.2874 32.5634C33.441 32.6556 33.4871 32.8476 33.4026 33.0012C33.2183 33.3007 32.5194 34.2684 30.8912 34.2684Z" fill="#DF827A"/>
<path d="M26.2297 29.9677H24.1792C23.5264 29.9677 22.9888 29.4301 22.9888 28.7773C22.9888 28.1245 23.5264 27.5869 24.1792 27.5869H26.2297C26.8825 27.5869 27.4201 28.1245 27.4201 28.7773C27.4201 29.4301 26.8825 29.9677 26.2297 29.9677Z" fill="#ECA494"/>
<path d="M36.8127 29.9676H34.7622C34.1094 29.9676 33.5718 29.43 33.5718 28.7772C33.5718 28.1244 34.1094 27.5868 34.7622 27.5868H36.8127C37.4655 27.5868 38.0031 28.1244 38.0031 28.7772C38.0031 29.43 37.4655 29.9676 36.8127 29.9676Z" fill="#ECA494"/>
<path d="M24.5479 23.4934C24.3867 23.4934 24.2407 23.4012 24.1639 23.2476C24.0641 23.0326 24.1563 22.7868 24.3636 22.6793C24.8091 22.4643 25.2852 22.3184 25.7691 22.2339C26.3067 22.1417 26.8519 22.1264 27.3972 22.1955C27.6276 22.2262 27.7966 22.4336 27.7659 22.6716C27.7351 22.902 27.5201 23.0633 27.2897 23.0403C26.8289 22.9788 26.3681 22.9942 25.915 23.071C25.5079 23.1401 25.1086 23.2707 24.7323 23.455C24.6708 23.478 24.6094 23.4934 24.5479 23.4934Z" fill="#4D4543"/>
<path d="M36.4442 23.4935C36.3827 23.4935 36.3213 23.4782 36.2599 23.4551C35.8835 23.2708 35.4842 23.1479 35.0771 23.0711C34.624 22.9943 34.1632 22.979 33.7024 23.0404C33.472 23.0711 33.257 22.9022 33.2263 22.6718C33.1955 22.4414 33.3645 22.2263 33.5949 22.1956C34.1402 22.1265 34.6855 22.1418 35.2231 22.234C35.7069 22.3185 36.1754 22.4721 36.6285 22.6794C36.8435 22.7793 36.928 23.0327 36.8282 23.2478C36.7591 23.4014 36.6055 23.4935 36.4442 23.4935Z" fill="#4D4543"/>
<path d="M23.0812 16.4127C25.055 17.1269 26.6831 17.772 27.8582 18.2559C29.1714 18.7935 33.549 20.629 39.2092 23.6472C40.9065 24.5535 42.2966 25.3368 43.2489 25.8898C43.3564 25.4751 45.3071 17.4725 39.9849 12.204C34.8316 7.09682 25.7769 7.45011 21.5068 11.8354C19.0799 14.3237 17.0217 19.2082 18.8879 22.4568C19.3487 23.2632 19.9708 23.8162 20.4777 24.1771C20.9999 23.4783 21.599 22.5413 22.0905 21.3586C22.9199 19.3771 23.0812 17.58 23.0812 16.4127Z" fill="#4D4543"/>
<path d="M35.5382 22.9943C33.6105 22.9943 31.9977 24.1693 31.629 25.7207C31.2604 25.6132 30.8841 25.5441 30.5001 25.5441C30.4924 25.5441 30.4847 25.5441 30.477 25.5441C30.0777 25.5441 29.6783 25.6132 29.2866 25.7284C28.9257 24.1693 27.3129 22.9943 25.3775 22.9943C23.181 22.9943 21.3916 24.5149 21.3916 26.3889C21.3916 28.2628 23.181 29.7834 25.3775 29.7834C27.574 29.7834 29.3634 28.2628 29.3634 26.3889C29.3634 26.266 29.3327 26.1431 29.3174 26.0202C29.7014 25.8973 30.0854 25.8282 30.4924 25.8359C30.8687 25.8359 31.2374 25.8973 31.5906 26.0125C31.5753 26.1354 31.5446 26.2583 31.5446 26.3889C31.5446 28.2551 33.334 29.7834 35.5305 29.7834C37.727 29.7834 39.5164 28.2628 39.5164 26.3889C39.5164 24.5149 37.7423 22.9943 35.5382 22.9943ZM25.3852 29.4839C23.35 29.4839 21.6911 28.0938 21.6911 26.3812C21.6911 24.6685 23.35 23.2784 25.3852 23.2784C27.4204 23.2784 29.0793 24.6685 29.0793 26.3812C29.0793 28.0938 27.4204 29.4839 25.3852 29.4839ZM35.5382 29.4839C33.503 29.4839 31.8441 28.0938 31.8441 26.3812C31.8441 24.6685 33.503 23.2784 35.5382 23.2784C37.5734 23.2784 39.2322 24.6685 39.2322 26.3812C39.2399 28.0938 37.581 29.4839 35.5382 29.4839Z" fill="#4D4543"/>
<path d="M54.1851 58.5833C53.755 55.7187 52.027 53.2073 49.5003 51.7788L37.7269 45.1203L31.9131 50.6268C31.1221 51.3795 29.8779 51.3795 29.0869 50.6268L23.2731 45.1203L11.4997 51.7788C8.97296 53.2073 7.24496 55.7187 6.81488 58.5833L6.5 60.6339H30.5H54.5L54.1851 58.5833Z" fill="#B6AC93"/>
</g>
</svg>
