<svg width="60" height="60" viewBox="0 0 60 60" fill="none" xmlns="http://www.w3.org/2000/svg">
<mask id="mask0_9299_52979" style="mask-type:alpha" maskUnits="userSpaceOnUse" x="0" y="0" width="60" height="60">
<circle cx="30" cy="30" r="30" fill="#EAF3F4"/>
</mask>
<g mask="url(#mask0_9299_52979)">
<path d="M53.6774 58.4066C53.2473 55.5419 51.5193 53.0306 48.9926 51.6021L35.6525 44.0603C34.5773 43.4152 33.9168 42.2555 33.9168 41.0037V34.8059H26.0678V41.0037C26.0678 42.2555 25.4073 43.4152 24.3321 44.0603L10.992 51.6021C8.46528 53.0306 6.73728 55.5419 6.3072 58.4066L6 60.4571H30H54L53.6774 58.4066Z" fill="#F5C2B6"/>
<path d="M30.4457 40.7195C31.8205 40.2434 32.9801 39.6443 33.9171 39.076V34.8059H26.0605V41.0037C26.0605 41.2264 26.0374 41.4415 25.999 41.6565C27.2432 41.5567 28.7715 41.3032 30.4457 40.7195Z" fill="#ECA494"/>
<path d="M20.8226 29.0459L20.0315 29.1303C18.8719 29.2532 17.8274 28.4084 17.7045 27.2487L17.5202 25.4593C17.3973 24.2996 18.2421 23.2552 19.4018 23.1323L20.1928 23.0478L20.8226 29.0459Z" fill="#ECA494"/>
<path d="M20.7919 27.9553L20.308 28.0091C19.5938 28.0859 18.9563 27.5636 18.8795 26.8571L18.7643 25.7589C18.6875 25.0446 19.2098 24.4072 19.9163 24.3304L20.4002 24.2766L20.7919 27.9553Z" fill="#DF827A"/>
<path d="M39.1626 29.046L39.9536 29.1304C41.1133 29.2533 42.1578 28.4085 42.2807 27.2488L42.465 25.4594C42.5879 24.2997 41.7431 23.2552 40.5834 23.1324L39.7924 23.0479L39.1626 29.046Z" fill="#ECA494"/>
<path d="M39.1934 27.9553L39.6772 28.0091C40.3914 28.0859 41.0289 27.5636 41.1057 26.8571L41.2209 25.7589C41.2977 25.0446 40.7754 24.4072 40.0689 24.3304L39.585 24.2766L39.1934 27.9553Z" fill="#DF827A"/>
<path d="M29.9923 38.3923C30.1151 38.4 30.2918 38.4 30.5145 38.3923C33.2946 38.2848 35.2991 36.4646 35.975 35.8425C39.0393 33.0547 40.007 28.4928 40.007 24.6144C40.007 22.6253 40.007 22.2643 40.007 18.8237C40.007 18.601 40.007 17.9635 40.007 17.1341C40.007 15.4829 38.3865 14.5229 38.1791 14.3693C36.7276 13.271 34.8614 13.2403 31.1442 13.1789C30.6527 13.1712 30.2534 13.1712 29.9923 13.1789C29.7311 13.1789 29.3241 13.1712 28.8403 13.1789C25.1155 13.2403 23.2569 13.2634 21.8054 14.3693C21.598 14.5306 19.9775 15.4829 19.9775 17.1341C19.9775 17.9635 19.9775 18.601 19.9775 18.8237C19.9775 22.2643 19.9775 22.6176 19.9775 24.6144C19.9775 28.4928 20.9452 33.0547 24.0095 35.8425C24.6931 36.4646 26.6899 38.2848 29.47 38.3923C29.6927 38.4 29.8771 38.3923 29.9923 38.3923Z" fill="#F2C2B5"/>
<path d="M29.9922 29.4991C29.3394 29.4991 28.8018 28.9538 28.8018 28.2857L29.0398 26.4502C29.0398 25.9126 29.3394 25.2367 29.9922 25.2367C30.645 25.2367 30.9445 25.9202 30.9445 26.4502L31.1826 28.2857C31.1826 28.9538 30.645 29.4991 29.9922 29.4991Z" fill="#ECA494"/>
<path d="M30.9447 26.4502C30.9447 25.9894 30.7219 25.4134 30.2381 25.2751C30.4301 25.5209 30.5223 25.8588 30.5223 26.1583L30.7603 27.9939C30.7603 28.662 30.2228 29.2073 29.57 29.2073C29.4164 29.2073 29.2628 29.1766 29.1245 29.1151C29.3396 29.3532 29.6468 29.4991 29.9847 29.4991C30.6375 29.4991 31.1751 28.9539 31.1751 28.2857L30.9447 26.4502Z" fill="#DD8F88"/>
<path d="M25.8988 26.5575C26.5266 26.5575 27.0355 26.0487 27.0355 25.4209C27.0355 24.7932 26.5266 24.2843 25.8988 24.2843C25.2711 24.2843 24.7622 24.7932 24.7622 25.4209C24.7622 26.0487 25.2711 26.5575 25.8988 26.5575Z" fill="#384840"/>
<path d="M34.0932 26.5575C34.7209 26.5575 35.2298 26.0487 35.2298 25.4209C35.2298 24.7932 34.7209 24.2843 34.0932 24.2843C33.4654 24.2843 32.9565 24.7932 32.9565 25.4209C32.9565 26.0487 33.4654 26.5575 34.0932 26.5575Z" fill="#384840"/>
<path d="M30.3917 34.0918H29.593C27.9648 34.0918 27.2736 33.1241 27.097 32.8246C27.0048 32.671 27.0586 32.479 27.2122 32.3868C27.3658 32.3023 27.5578 32.3484 27.6499 32.502C27.8189 32.7862 28.3411 33.4543 29.6007 33.4543H30.3994C31.6512 33.4543 32.1811 32.7862 32.3501 32.502C32.4423 32.3484 32.6343 32.3023 32.7879 32.3868C32.9415 32.479 32.9875 32.671 32.9031 32.8246C32.7111 33.1241 32.0199 34.0918 30.3917 34.0918Z" fill="#DF827A"/>
<path d="M25.7302 29.7907H23.6797C23.0269 29.7907 22.4893 29.2531 22.4893 28.6003C22.4893 27.9475 23.0269 27.4099 23.6797 27.4099H25.7302C26.383 27.4099 26.9206 27.9475 26.9206 28.6003C26.9129 29.2531 26.383 29.7907 25.7302 29.7907Z" fill="#ECA494"/>
<path d="M36.3132 29.7907H34.2627C33.6099 29.7907 33.0723 29.2531 33.0723 28.6003C33.0723 27.9475 33.6099 27.4099 34.2627 27.4099H36.3132C36.966 27.4099 37.5036 27.9475 37.5036 28.6003C37.4959 29.2531 36.966 29.7907 36.3132 29.7907Z" fill="#ECA494"/>
<path d="M24.0483 23.3167C23.887 23.3167 23.7411 23.2245 23.6643 23.0786C23.5644 22.8636 23.6489 22.6101 23.8639 22.5103C24.3094 22.2953 24.7855 22.1417 25.2694 22.0572C25.807 21.965 26.3523 21.9497 26.8975 22.0188C27.1279 22.0495 27.2969 22.2645 27.2662 22.4949C27.2355 22.7253 27.0204 22.8866 26.79 22.8636C26.3292 22.8021 25.8684 22.8175 25.4153 22.8943C25.0083 22.9634 24.6089 23.094 24.2326 23.2706C24.1711 23.3013 24.1097 23.3167 24.0483 23.3167Z" fill="#384840"/>
<path d="M35.9442 23.317C35.8827 23.317 35.8213 23.3016 35.7599 23.2786C35.3835 23.1019 34.9842 22.9714 34.5771 22.9023C34.124 22.8255 33.6632 22.8101 33.2024 22.8716C32.972 22.9023 32.757 22.7333 32.7263 22.5029C32.6955 22.2725 32.8645 22.0575 33.0949 22.0268C33.6402 21.9576 34.1855 21.973 34.7231 22.0651C35.2069 22.1496 35.6831 22.3032 36.1285 22.5183C36.3435 22.6181 36.428 22.8715 36.3282 23.0866C36.2514 23.2248 36.0978 23.317 35.9442 23.317Z" fill="#384840"/>
<path d="M53.6774 58.4065C53.2473 55.5419 51.5193 53.0305 48.9926 51.602L35.6525 44.0603C34.9766 43.6609 34.4697 43.0542 34.1856 42.3553C32.8569 42.6164 31.4515 42.7547 29.9923 42.7547C28.5331 42.7547 27.1277 42.6164 25.799 42.3553C25.5149 43.0542 25.0003 43.6609 24.3321 44.0603L10.992 51.602C8.46528 53.0305 6.73728 55.5419 6.3072 58.4065L6 60.4571H30H54L53.6774 58.4065Z" fill="#AAC6B5"/>
<path d="M21.5212 18.7317C21.3753 20.2139 21.1833 21.7576 20.9375 23.3627C20.6994 24.9064 20.4306 26.381 20.1465 27.7864C19.1711 24.9141 18.6412 22.4719 18.3263 20.7055C17.6351 16.7579 17.9577 15.652 18.2649 14.9839C18.9561 13.4479 20.1618 12.7259 22.3353 11.4357C24.0325 10.4219 26.7589 8.83218 30.645 8.52498C33.0719 8.33298 35.2991 8.15634 36.6584 9.6693C37.941 11.0978 37.6952 13.2021 37.58 13.924C38.2021 13.8472 40.5292 13.6399 41.8117 15.0914C42.1266 15.4523 42.8101 16.397 42.3493 20.1832C42.1343 21.9112 41.6581 24.4533 40.4447 27.4562C40.3372 26.0968 40.03 24.0386 39.0623 21.7115C38.348 19.9912 37.964 19.0696 36.9964 18.3784C34.3775 16.4891 30.2303 18.2325 29.7772 18.4245C27.3119 19.4997 26.8588 20.9282 25.1461 20.8744C23.5871 20.813 22.3429 19.6994 21.5212 18.7317Z" fill="#384840"/>
<path d="M29.9922 44.383C31.9199 44.383 33.74 44.1987 35.3682 43.8608C34.8383 43.4691 34.4312 42.9469 34.1855 42.3478C32.8568 42.609 31.4514 42.7472 29.9922 42.7472C28.533 42.7472 27.1276 42.609 25.7989 42.3478C25.5532 42.9469 25.1461 43.4691 24.6162 43.8608C26.2444 44.1987 28.0645 44.383 29.9922 44.383Z" fill="#97C1A8"/>
</g>
</svg>
