<svg width="18" height="18" viewBox="0 0 18 18" fill="none" xmlns="http://www.w3.org/2000/svg">
<path fill-rule="evenodd" clip-rule="evenodd" d="M1.95799 0.0399846C3.08631 0.0399846 12.7873 8.9323e-06 12.7873 8.9323e-06C13.0361 -0.00100454 13.4172 0.0843521 13.639 0.190654C13.639 0.190654 13.4945 0.0353679 13.6972 0.245269C13.8789 0.433323 17.7029 4.37909 17.7777 4.4586C17.8526 4.53821 17.8048 4.49598 17.8048 4.49598C17.9089 4.72198 17.9781 5.11307 17.9781 5.36205V16.1287C17.9781 16.9263 17.0234 18 16.1116 18C15.1997 18 2.76369 17.9627 1.85304 17.9627C0.942378 17.9627 0.0513131 17.2567 0.0112247 16.1497C-0.0288636 15.0426 0.0513129 2.83243 0.0513129 1.8711C0.0513129 0.909879 0.829657 0.0399846 1.95799 0.0399846ZM1.75101 2.05037L1.7679 15.6759C1.76824 15.9234 1.9706 16.1267 2.21969 16.128L15.7959 16.1999C15.855 16.2003 15.9136 16.189 15.9683 16.1667C16.023 16.1443 16.0727 16.1113 16.1146 16.0696C16.1565 16.028 16.1897 15.9784 16.2123 15.9238C16.2349 15.8692 16.2465 15.8107 16.2463 15.7516L16.2302 5.57589C16.2301 5.45225 16.1571 5.28131 16.0675 5.19437L12.7755 2.00566C12.6853 1.91828 12.613 1.94902 12.613 2.07334V6.0306C12.613 6.40659 12.0911 7.05983 11.6184 7.05983H4.81709C4.2991 7.05983 3.74056 6.529 3.74056 6.0306C3.74056 5.5322 3.73899 2.07357 3.73899 2.07357C3.73899 1.94925 3.63854 1.84722 3.51467 1.84576L1.97488 1.82831C1.94555 1.82801 1.91645 1.83354 1.88927 1.84457C1.8621 1.8556 1.83738 1.87192 1.81656 1.89257C1.79573 1.91323 1.77922 1.93781 1.76796 1.9649C1.75671 1.99199 1.75095 2.02104 1.75101 2.05037ZM5.41549 2.09992V5.23097C5.41549 5.35484 5.51639 5.4563 5.64071 5.4563H10.6744C10.7997 5.4563 10.8996 5.3554 10.8996 5.23097V2.10003C10.8995 2.0403 10.8758 1.98302 10.8336 1.94076C10.7914 1.8985 10.7341 1.87471 10.6744 1.87459H5.64082C5.51537 1.87459 5.4156 1.97548 5.4156 2.10003L5.41549 2.09992Z" fill="white"/>
<path fill-rule="evenodd" clip-rule="evenodd" d="M8.97868 8.09215C10.8002 8.12087 12.5633 9.71686 12.5633 11.665C12.5633 13.6131 10.9176 15.2439 9.07068 15.2148C7.2238 15.1856 5.38525 13.5523 5.38525 11.6627C5.38525 9.77316 7.15714 8.06344 8.97856 8.09215H8.97868ZM7.15916 11.6179C7.15916 12.7075 8.02455 13.5189 8.98543 13.5145C9.94643 13.5102 10.7611 12.7119 10.766 11.6351C10.7708 10.5583 9.89801 9.79388 8.96595 9.79388C8.03401 9.79388 7.15916 10.5281 7.15916 11.6178V11.6179Z" fill="white"/>
</svg>
