<svg width="15" height="16" viewBox="0 0 15 16" fill="none" xmlns="http://www.w3.org/2000/svg">
<path fill-rule="evenodd" clip-rule="evenodd" d="M1.63364 0.0333611C2.57506 0.0333611 10.6691 7.45265e-06 10.6691 7.45265e-06C10.8766 -0.000838133 11.1946 0.070379 11.3797 0.159072C11.3797 0.159072 11.2591 0.0295091 11.4282 0.204639C11.5798 0.361542 14.7704 3.65369 14.8328 3.72002C14.8952 3.78645 14.8554 3.75121 14.8554 3.75121C14.9422 3.93978 15 4.26608 15 4.47381V13.4569C15 14.1224 14.2035 15.0183 13.4427 15.0183C12.6819 15.0183 2.30588 14.9872 1.54608 14.9872C0.786271 14.9872 0.0428129 14.3981 0.00936534 13.4745C-0.0240823 12.5508 0.0428129 2.36323 0.0428129 1.56115C0.0428129 0.759156 0.692223 0.0333611 1.63364 0.0333611ZM1.46095 1.71072L1.47505 13.0791C1.47533 13.2857 1.64416 13.4552 1.85199 13.4564L13.1793 13.5163C13.2286 13.5167 13.2775 13.5073 13.3231 13.4886C13.3687 13.47 13.4102 13.4425 13.4452 13.4077C13.4801 13.3729 13.5078 13.3315 13.5267 13.286C13.5456 13.2404 13.5552 13.1916 13.5551 13.1423L13.5416 4.65223C13.5416 4.54907 13.4807 4.40645 13.4059 4.33392L10.6592 1.67342C10.584 1.60051 10.5237 1.62616 10.5237 1.72989V5.03162C10.5237 5.34533 10.0882 5.89036 9.69376 5.89036H4.01913C3.58694 5.89036 3.12093 5.44746 3.12093 5.03162C3.12093 4.61578 3.11962 1.73008 3.11962 1.73008C3.11962 1.62635 3.03581 1.54123 2.93246 1.54001L1.64773 1.52544C1.62326 1.5252 1.59899 1.52981 1.57631 1.53901C1.55364 1.54822 1.53301 1.56183 1.51564 1.57906C1.49826 1.5963 1.48448 1.61681 1.4751 1.63941C1.46571 1.66201 1.4609 1.68625 1.46095 1.71072ZM4.5184 1.75206V4.36445C4.5184 4.4678 4.60259 4.55245 4.70631 4.55245H8.90615C9.01072 4.55245 9.09405 4.46827 9.09405 4.36445V1.75215C9.094 1.70232 9.0742 1.65453 9.03897 1.61927C9.00375 1.58401 8.95598 1.56416 8.90615 1.56406H4.70641C4.60174 1.56406 4.5185 1.64824 4.5185 1.75215L4.5184 1.75206Z" fill="white"/>
<path fill-rule="evenodd" clip-rule="evenodd" d="M7.49133 6.75225C9.01113 6.77621 10.4822 8.10782 10.4822 9.73322C10.4822 11.3586 9.10903 12.7193 7.56809 12.695C6.02715 12.6707 4.49316 11.3079 4.49316 9.73134C4.49316 8.1548 5.97153 6.72829 7.49124 6.75225H7.49133ZM5.97322 9.69395C5.97322 10.603 6.69526 11.2801 7.49697 11.2764C8.29877 11.2728 8.97853 10.6067 8.98257 9.70832C8.98661 8.80984 8.25837 8.17208 7.48071 8.17208C6.70315 8.17208 5.97322 8.78466 5.97322 9.69386V9.69395Z" fill="white"/>
</svg>
