<svg width="23" height="426" viewBox="0 0 23 426" fill="none" xmlns="http://www.w3.org/2000/svg">
<line x1="11.75" y1="14.75" x2="11.75" y2="358.25" stroke="#71AFB6" stroke-width="1.5" stroke-linecap="round"/>
<line x1="11.75" y1="374.75" x2="11.75" y2="425.25" stroke="#71AFB6" stroke-width="1.5" stroke-linecap="round" stroke-dasharray="10 10"/>
<circle cx="11.5" cy="166.5" r="7.5" fill="#EAF3F4"/>
<circle cx="11.5" cy="46.5" r="7.5" fill="#BAABE7"/>
<circle cx="11.5" cy="86.5" r="7.5" fill="#FC9F66"/>
<circle cx="11.5" cy="126.5" r="7.5" fill="#F9C357"/>
<circle cx="11.5" cy="366.5" r="7.5" fill="#EAF3F4"/>
<circle cx="11.5" cy="286.5" r="7.5" fill="#FC9F66"/>
<circle cx="11.5" cy="326.5" r="7.5" fill="#F9C357"/>
<circle cx="11.5" cy="206.5" r="7.5" fill="#96C5D7"/>
<circle cx="11.5" cy="246.5" r="7.5" fill="#96C5D7"/>
<rect width="23" height="14" rx="7" fill="#71AFB6"/>
<path d="M5.016 10H5.768V4.76H7.536V4.136H3.248V4.76H5.016V10ZM8.52506 10H9.25306V5.656H8.52506V10ZM8.89306 4.76C9.17306 4.76 9.38106 4.576 9.38106 4.272C9.38106 3.992 9.17306 3.808 8.89306 3.808C8.60506 3.808 8.40506 3.992 8.40506 4.272C8.40506 4.576 8.60506 4.76 8.89306 4.76ZM10.7282 11.832H11.4562V10.368L11.4402 9.608C11.8322 9.928 12.2402 10.112 12.6322 10.112C13.6322 10.112 14.5202 9.248 14.5202 7.768C14.5202 6.424 13.9202 5.552 12.7922 5.552C12.2882 5.552 11.8082 5.832 11.4162 6.16H11.3922L11.3202 5.656H10.7282V11.832ZM12.5202 9.496C12.2322 9.496 11.8482 9.376 11.4562 9.048V6.76C11.8802 6.368 12.2482 6.16 12.6162 6.16C13.4402 6.16 13.7682 6.808 13.7682 7.776C13.7682 8.848 13.2322 9.496 12.5202 9.496ZM16.7861 10.112C17.8101 10.112 18.3621 9.528 18.3621 8.816C18.3621 7.992 17.6741 7.736 17.0421 7.496C16.5461 7.32 16.1061 7.16 16.1061 6.744C16.1061 6.408 16.3541 6.12 16.9061 6.12C17.2901 6.12 17.6021 6.288 17.8981 6.504L18.2501 6.04C17.9141 5.768 17.4341 5.552 16.8981 5.552C15.9541 5.552 15.4021 6.088 15.4021 6.776C15.4021 7.52 16.0661 7.808 16.6661 8.04C17.1461 8.216 17.6661 8.416 17.6661 8.856C17.6661 9.24 17.3781 9.544 16.8021 9.544C16.2821 9.544 15.8981 9.328 15.5221 9.024L15.1621 9.512C15.5701 9.848 16.1701 10.112 16.7861 10.112Z" fill="white"/>
</svg>
