<svg width="30" height="555" viewBox="0 0 30 555" fill="none" xmlns="http://www.w3.org/2000/svg">
<line x1="15.0979" y1="18.0098" x2="15.0979" y2="466.51" stroke="#71AFB6" stroke-width="1.5" stroke-linecap="round"/>
<line x1="15.0979" y1="487.574" x2="15.0979" y2="553.9" stroke="#71AFB6" stroke-width="1.5" stroke-linecap="round" stroke-dasharray="10 10"/>
<circle cx="15.0001" cy="216.173" r="9.78261" fill="#EAF3F4"/>
<circle cx="15.0001" cy="59.6517" r="9.78261" fill="#BAABE7"/>
<circle cx="15.0001" cy="111.826" r="9.78261" fill="#FC9F66"/>
<circle cx="15.0001" cy="163.999" r="9.78261" fill="#F9C357"/>
<circle cx="15.0001" cy="477.042" r="9.78261" fill="#EAF3F4"/>
<circle cx="15.0001" cy="372.695" r="9.78261" fill="#FC9F66"/>
<circle cx="15.0001" cy="424.869" r="9.78261" fill="#F9C357"/>
<circle cx="15.0001" cy="268.347" r="9.78261" fill="#96C5D7"/>
<circle cx="15.0001" cy="320.521" r="9.78261" fill="#96C5D7"/>
<rect width="30" height="18.2609" rx="8" fill="#71AFB6"/>
<path d="M8.98861 11.9452H9.83445V6.0678H11.8231V5.3679H7V6.0678H8.98861V11.9452Z" fill="white"/>
<path d="M12.9355 11.9452H13.7544V7.07278H12.9355V11.9452ZM13.3495 6.0678C13.6644 6.0678 13.8983 5.86142 13.8983 5.52044C13.8983 5.20638 13.6644 5 13.3495 5C13.0255 5 12.8006 5.20638 12.8006 5.52044C12.8006 5.86142 13.0255 6.0678 13.3495 6.0678Z" fill="white"/>
<path d="M15.4136 14H16.2324V12.3579L16.2144 11.5055C16.6553 11.8644 17.1142 12.0708 17.5552 12.0708C18.6799 12.0708 19.6787 11.1017 19.6787 9.44167C19.6787 7.9342 19.0039 6.95613 17.7351 6.95613C17.1682 6.95613 16.6283 7.27019 16.1874 7.63809H16.1604L16.0794 7.07278H15.4136V14ZM17.4292 11.3799C17.1052 11.3799 16.6733 11.2453 16.2324 10.8774V8.31107C16.7093 7.87139 17.1232 7.63809 17.5372 7.63809C18.464 7.63809 18.8329 8.36491 18.8329 9.45065C18.8329 10.653 18.23 11.3799 17.4292 11.3799Z" fill="white"/>
<path d="M22.2273 12.0708C23.3791 12.0708 24 11.4158 24 10.6171C24 9.69292 23.2262 9.40578 22.5153 9.13659C21.9574 8.93918 21.4625 8.75972 21.4625 8.29312C21.4625 7.91625 21.7414 7.59322 22.3623 7.59322C22.7942 7.59322 23.1452 7.78165 23.4781 8.02393L23.874 7.50349C23.4961 7.19841 22.9562 6.95613 22.3533 6.95613C21.2915 6.95613 20.6707 7.55733 20.6707 8.32901C20.6707 9.16351 21.4175 9.48654 22.0924 9.74676C22.6323 9.94417 23.2172 10.1685 23.2172 10.662C23.2172 11.0927 22.8932 11.4337 22.2453 11.4337C21.6605 11.4337 21.2285 11.1914 20.8056 10.8504L20.4007 11.3978C20.8596 11.7747 21.5345 12.0708 22.2273 12.0708Z" fill="white"/>
</svg>
