<svg width="19" height="19" viewBox="0 0 21 22" fill="none" xmlns="http://www.w3.org/2000/svg">
<path d="M14.631 13.2296H13.7173L13.3934 12.9049C14.5269 11.5338 15.2094 9.75384 15.2094 7.8175C15.2094 3.49984 11.8435 0 7.6911 0C3.53872 0 0.172852 3.49984 0.172852 7.8175C0.172852 12.1352 3.53872 15.635 7.6911 15.635C9.55332 15.635 11.2652 14.9254 12.5838 13.7468L12.896 14.0835V15.0337L18.6793 21.0351L20.4027 19.2431L14.631 13.2296ZM7.6911 13.2296C4.81104 13.2296 2.48616 10.8122 2.48616 7.8175C2.48616 4.8228 4.81104 2.40539 7.6911 2.40539C10.5712 2.40539 12.896 4.8228 12.896 7.8175C12.896 10.8122 10.5712 13.2296 7.6911 13.2296Z" fill="#575757"/>
</svg>
