<svg width="100" height="100" viewBox="0 0 100 100" fill="none" xmlns="http://www.w3.org/2000/svg">
<circle cx="50" cy="50" r="50" fill="#EAF3F4"/>
<mask id="mask0_2841_34726" style="mask-type:alpha" maskUnits="userSpaceOnUse" x="0" y="0" width="100" height="100">
<circle cx="50" cy="50" r="50" fill="#EAF3F4"/>
</mask>
<g mask="url(#mask0_2841_34726)">
<path d="M26.9855 86.8228C25.3983 85.21 21.5967 81.3828 20.6239 75.5844C19.5999 69.4532 22.7487 67.29 25.0015 56.3204C26.3071 49.9588 26.6399 43.8916 26.9087 39.0404C27.3695 30.6948 26.9471 25.8692 30.4543 22.234C32.2847 20.3396 34.4735 19.482 35.9327 19.0596C36.8671 17.7796 38.4543 15.962 40.8735 14.49C49.1679 9.43401 58.8063 13.5556 59.9711 14.0804C68.2527 17.7796 71.5295 25.4468 72.4383 27.5332C75.3055 34.1636 72.5023 34.9572 75.0239 48.2948C75.1775 49.1396 76.3935 54.81 78.8255 66.1508C79.8111 70.7588 80.3231 73.1524 79.8111 76.4036C78.4927 81.8948 76.0863 85.4148 74.0255 87.642C62.6975 99.8916 38.3903 98.3428 26.9855 86.8228Z" fill="#578F91"/>
<path d="M89.4752 97.6388C88.7584 92.8644 85.8784 88.6788 81.6672 86.298L59.4336 73.7284C57.6416 72.6532 56.5408 70.7204 56.5408 68.634V58.3044H43.4464V68.634C43.4464 70.7204 42.3456 72.6532 40.5536 73.7284L18.32 86.298C14.1088 88.6788 11.2288 92.8644 10.512 97.6388L10 101.056H50H90L89.4752 97.6388Z" fill="#F5C2B6"/>
<path d="M50.7555 68.1604C53.0467 67.3668 54.9795 66.3684 56.5411 65.4212V58.3044H43.4467V68.634C43.4467 69.0052 43.4083 69.3636 43.3443 69.722C45.4051 69.5556 47.9523 69.1332 50.7555 68.1604Z" fill="#ECA494"/>
<path d="M34.7163 48.7046L33.3979 48.8454C31.4651 49.0502 29.7243 47.6422 29.5195 45.7094L29.1995 42.727C28.9947 40.7942 30.4027 39.0534 32.3355 38.8486L33.6539 38.7078L34.7163 48.7046Z" fill="#ECA494"/>
<path d="M34.6653 46.8866L33.8589 46.9762C32.6685 47.1042 31.6061 46.2338 31.4781 45.0562L31.2861 43.2258C31.1581 42.0354 32.0285 40.973 33.2061 40.845L34.0125 40.7554L34.6653 46.8866Z" fill="#DF827A"/>
<path d="M65.2702 48.7046L66.5886 48.8454C68.5214 49.0502 70.2622 47.6422 70.467 45.7094L70.7742 42.727C70.979 40.7942 69.571 39.0534 67.6382 38.8486L66.3198 38.7078L65.2702 48.7046Z" fill="#ECA494"/>
<path d="M65.3342 46.8866L66.1406 46.9762C67.331 47.1042 68.3934 46.2338 68.5214 45.0562L68.7134 43.2258C68.8414 42.0354 67.971 40.973 66.7934 40.845L65.987 40.7554L65.3342 46.8866Z" fill="#DF827A"/>
<path d="M50 64.2821C50.2048 64.2949 50.4992 64.2949 50.8704 64.2821C55.504 64.1029 58.8448 61.0693 59.9712 60.0325C65.0784 55.3861 66.6912 47.7829 66.6912 41.3189C66.6912 38.0037 66.6912 33.0757 66.6912 27.3541C66.6912 26.9829 66.6912 25.9205 66.6912 24.5381C66.6912 21.7861 63.9904 20.1861 63.6448 19.9301C61.2256 18.0997 58.1152 18.0485 51.92 17.9461C51.1008 17.9333 50.4352 17.9333 50 17.9461C49.5648 17.9461 48.8864 17.9333 48.08 17.9461C41.872 18.0485 38.7744 18.0869 36.3552 19.9301C36.0096 20.1989 33.3088 21.7861 33.3088 24.5381C33.3088 25.9205 33.3088 26.9829 33.3088 27.3541C33.3088 33.0885 33.3088 38.0037 33.3088 41.3189C33.3088 47.7829 34.9216 55.3861 40.0288 60.0325C41.168 61.0693 44.496 64.1029 49.1296 64.2821C49.488 64.2949 49.7952 64.2821 50 64.2821Z" fill="#F2C2B5"/>
<path d="M50 48.9603C49.1168 48.9603 48.3872 48.1155 48.3872 47.0787L48.7072 44.2371C48.7072 43.4051 49.104 42.3555 50 42.3555C50.8832 42.3555 51.2928 43.4051 51.2928 44.2371L51.6128 47.0787C51.6128 48.1027 50.8832 48.9603 50 48.9603Z" fill="#ECA494"/>
<path d="M51.28 44.2376C51.28 43.5208 50.9728 42.6376 50.32 42.4072C50.5888 42.7912 50.704 43.316 50.704 43.7768L51.024 46.6184C51.024 47.6552 50.2944 48.5 49.4112 48.5C49.1936 48.5 49.0016 48.4488 48.8096 48.3592C49.104 48.7176 49.5136 48.948 49.9744 48.948C50.8576 48.948 51.5872 48.1032 51.5872 47.0664L51.28 44.2376Z" fill="#DD8F88"/>
<path d="M43.1644 44.5442C44.2107 44.5442 45.0588 43.696 45.0588 42.6498C45.0588 41.6035 44.2107 40.7554 43.1644 40.7554C42.1182 40.7554 41.27 41.6035 41.27 42.6498C41.27 43.696 42.1182 44.5442 43.1644 44.5442Z" fill="#426767"/>
<path d="M56.8221 44.5442C57.8684 44.5442 58.7165 43.696 58.7165 42.6498C58.7165 41.6035 57.8684 40.7554 56.8221 40.7554C55.7759 40.7554 54.9277 41.6035 54.9277 42.6498C54.9277 43.696 55.7759 44.5442 56.8221 44.5442Z" fill="#426767"/>
<path d="M50.6527 57.114H49.3215C46.6079 57.114 45.4431 55.5012 45.1615 55.002C45.0079 54.746 45.0975 54.426 45.3535 54.2724C45.6095 54.1188 45.9295 54.2084 46.0831 54.4644C46.3647 54.938 47.2351 56.0516 49.3343 56.0516H50.6655C52.7519 56.0516 53.6351 54.938 53.9167 54.4644C54.0703 54.2084 54.3903 54.1188 54.6463 54.2724C54.9023 54.426 54.9791 54.746 54.8383 55.002C54.5311 55.5012 53.3663 57.114 50.6527 57.114Z" fill="#DF827A"/>
<path d="M42.8832 49.946H39.4656C38.3776 49.946 37.4816 49.05 37.4816 47.962C37.4816 46.874 38.3776 45.978 39.4656 45.978H42.8832C43.9712 45.978 44.8672 46.874 44.8672 47.962C44.8672 49.05 43.9712 49.946 42.8832 49.946Z" fill="#ECA494"/>
<path d="M60.5214 49.946H57.1038C56.0158 49.946 55.1198 49.05 55.1198 47.962C55.1198 46.874 56.0158 45.978 57.1038 45.978H60.5214C61.6094 45.978 62.5054 46.874 62.5054 47.962C62.5054 49.05 61.6094 49.946 60.5214 49.946Z" fill="#ECA494"/>
<path d="M40.08 39.1554C39.8112 39.1554 39.568 39.0018 39.44 38.7458C39.2736 38.3874 39.4272 37.9778 39.7728 37.7986C40.5152 37.4402 41.3088 37.197 42.1152 37.0562C43.0112 36.9026 43.92 36.877 44.8288 36.9922C45.2128 37.0434 45.4944 37.389 45.4432 37.7858C45.392 38.1698 45.0336 38.4386 44.6496 38.4002C43.8816 38.2978 43.1136 38.3234 42.3584 38.4514C41.68 38.5666 41.0144 38.7842 40.3872 39.0914C40.2848 39.1298 40.1824 39.1554 40.08 39.1554Z" fill="#426767"/>
<path d="M59.9072 39.1554C59.8048 39.1554 59.7024 39.1298 59.6 39.0914C58.9728 38.7842 58.3072 38.5794 57.6288 38.4514C56.8736 38.3234 56.1055 38.2978 55.3375 38.4002C54.9535 38.4514 54.5952 38.1698 54.544 37.7858C54.4928 37.4018 54.7743 37.0434 55.1583 36.9922C56.0671 36.877 56.976 36.9026 57.872 37.0562C58.6784 37.197 59.4592 37.453 60.2144 37.7986C60.5728 37.965 60.7136 38.3874 60.5472 38.7458C60.432 39.0018 60.176 39.1554 59.9072 39.1554Z" fill="#426767"/>
<path d="M37.6354 27.3543C40.925 28.5447 43.6386 29.6199 45.597 30.4263C47.7858 31.3223 55.0818 34.3815 64.5154 39.4119C67.3442 40.9223 69.661 42.2279 71.2482 43.1495C71.4274 42.4583 74.6786 29.1207 65.8082 20.3399C57.2194 11.8279 42.1282 12.4167 35.0114 19.7255C30.9666 23.8727 27.5362 32.0135 30.6466 37.4279C31.4146 38.7719 32.4514 39.6935 33.2962 40.2951C34.1666 39.1303 35.165 37.5687 35.9842 35.5975C37.3666 32.2951 37.6354 29.2999 37.6354 27.3543Z" fill="#578F91"/>
<path d="M58.3967 38.3237C55.1838 38.3237 52.4958 40.2821 51.8814 42.8677C51.267 42.6885 50.6398 42.5733 49.9998 42.5733C49.987 42.5733 49.9742 42.5733 49.9614 42.5733C49.2958 42.5733 48.6302 42.6885 47.9774 42.8805C47.3758 40.2821 44.6878 38.3237 41.4622 38.3237C37.8014 38.3237 34.819 40.8581 34.819 43.9813C34.819 47.1045 37.8014 49.6389 41.4622 49.6389C45.123 49.6389 48.1054 47.1045 48.1054 43.9813C48.1054 43.7765 48.0542 43.5717 48.0286 43.3669C48.6686 43.1621 49.3086 43.0469 49.987 43.0597C50.6142 43.0597 51.2286 43.1621 51.8174 43.3541C51.7918 43.5589 51.7406 43.7637 51.7406 43.9813C51.7406 47.0917 54.723 49.6389 58.3838 49.6389C62.0446 49.6389 65.0271 47.1045 65.0271 43.9813C65.0271 40.8581 62.0702 38.3237 58.3967 38.3237ZM41.475 49.1397C38.083 49.1397 35.3182 46.8229 35.3182 43.9685C35.3182 41.1141 38.083 38.7973 41.475 38.7973C44.867 38.7973 47.6318 41.1141 47.6318 43.9685C47.6318 46.8229 44.867 49.1397 41.475 49.1397ZM58.3967 49.1397C55.0047 49.1397 52.2398 46.8229 52.2398 43.9685C52.2398 41.1141 55.0047 38.7973 58.3967 38.7973C61.7887 38.7973 64.5534 41.1141 64.5534 43.9685C64.5662 46.8229 61.8015 49.1397 58.3967 49.1397Z" fill="#578F91"/>
<path d="M89.4752 97.6388C88.7584 92.8644 85.8784 88.6788 81.6672 86.298L62.0448 75.2004L52.3552 84.378C51.0368 85.6324 48.9632 85.6324 47.6448 84.378L37.9552 75.2004L18.3328 86.298C14.1216 88.6788 11.2416 92.8644 10.5248 97.6388L10 101.056H50H90L89.4752 97.6388Z" fill="#6DA9AF"/>
</g>
</svg>
