<svg width="15" height="15" viewBox="0 0 15 15" fill="none" xmlns="http://www.w3.org/2000/svg">
<path d="M13.2305 8.235C13.2614 7.995 13.2845 7.755 13.2845 7.5C13.2845 7.245 13.2614 7.005 13.2305 6.765L14.8574 5.5275C15.0039 5.415 15.0425 5.2125 14.9499 5.0475L13.4079 2.4525C13.3385 2.3325 13.2074 2.265 13.0686 2.265C13.0223 2.265 12.9761 2.2725 12.9375 2.2875L11.0176 3.0375C10.6167 2.7375 10.1849 2.49 9.71459 2.3025L9.42159 0.315C9.39846 0.135 9.23654 0 9.04378 0H5.95962C5.76686 0 5.60494 0.135 5.58181 0.315L5.28882 2.3025C4.81848 2.49 4.3867 2.745 3.98576 3.0375L2.06587 2.2875C2.01961 2.2725 1.97335 2.265 1.92708 2.265C1.79601 2.265 1.66493 2.3325 1.59554 2.4525L0.0534574 5.0475C-0.0467778 5.2125 -0.000515288 5.415 0.145982 5.5275L1.77288 6.765C1.74204 7.005 1.7189 7.2525 1.7189 7.5C1.7189 7.7475 1.74204 7.995 1.77288 8.235L0.145982 9.4725C-0.000515288 9.585 -0.0390674 9.7875 0.0534574 9.9525L1.59554 12.5475C1.66493 12.6675 1.79601 12.735 1.9348 12.735C1.98106 12.735 2.02732 12.7275 2.06587 12.7125L3.98576 11.9625C4.3867 12.2625 4.81848 12.51 5.28882 12.6975L5.58181 14.685C5.60494 14.865 5.76686 15 5.95962 15H9.04378C9.23654 15 9.39846 14.865 9.42159 14.685L9.71459 12.6975C10.1849 12.51 10.6167 12.255 11.0176 11.9625L12.9375 12.7125C12.9838 12.7275 13.0301 12.735 13.0763 12.735C13.2074 12.735 13.3385 12.6675 13.4079 12.5475L14.9499 9.9525C15.0425 9.7875 15.0039 9.585 14.8574 9.4725L13.2305 8.235ZM11.7039 6.9525C11.7347 7.185 11.7424 7.3425 11.7424 7.5C11.7424 7.6575 11.727 7.8225 11.7039 8.0475L11.5959 8.895L12.2822 9.42L13.1149 10.05L12.5751 10.9575L11.5959 10.575L10.794 10.26L10.1001 10.77C9.76856 11.01 9.45243 11.19 9.13631 11.3175L8.31901 11.64L8.19564 12.4875L8.04143 13.5H6.96198L6.81548 12.4875L6.69211 11.64L5.87481 11.3175C5.54326 11.1825 5.23485 11.01 4.92643 10.785L4.22478 10.26L3.40748 10.5825L2.42826 10.965L1.88853 10.0575L2.72126 9.4275L3.40748 8.9025L3.29954 8.055C3.2764 7.8225 3.26098 7.65 3.26098 7.5C3.26098 7.35 3.2764 7.1775 3.29954 6.9525L3.40748 6.105L2.72126 5.58L1.88853 4.95L2.42826 4.0425L3.40748 4.425L4.20936 4.74L4.9033 4.23C5.23485 3.99 5.55097 3.81 5.8671 3.6825L6.6844 3.36L6.80777 2.5125L6.96198 1.5H8.03372L8.18022 2.5125L8.30359 3.36L9.12089 3.6825C9.45243 3.8175 9.76085 3.99 10.0693 4.215L10.7709 4.74L11.5882 4.4175L12.5674 4.035L13.1072 4.9425L12.2822 5.58L11.5959 6.105L11.7039 6.9525ZM7.5017 4.5C5.79771 4.5 4.41754 5.8425 4.41754 7.5C4.41754 9.1575 5.79771 10.5 7.5017 10.5C9.2057 10.5 10.5859 9.1575 10.5859 7.5C10.5859 5.8425 9.2057 4.5 7.5017 4.5ZM7.5017 9C6.65356 9 5.95962 8.325 5.95962 7.5C5.95962 6.675 6.65356 6 7.5017 6C8.34985 6 9.04378 6.675 9.04378 7.5C9.04378 8.325 8.34985 9 7.5017 9Z" fill="#C4C4C4"/>
</svg>
