<svg width="85" height="85" viewBox="0 0 85 85" fill="none" xmlns="http://www.w3.org/2000/svg">
<rect x="0.5" y="0.5" width="84" height="84" fill="white" stroke="#5A7F9C"/>
<g clip-path="url(#clip0_3194_28920)">
<path d="M39.4754 71.9597C37.2479 71.9673 35.0179 71.9799 32.7904 71.9825C26.4254 71.985 20.0629 71.9749 13.698 71.9977C13.126 72.0002 12.9723 71.8736 13.005 71.2839C13.4183 63.5437 13.8114 55.801 14.1994 48.0609C14.4539 42.9683 14.6908 37.8756 14.9402 32.783C15.0158 31.239 15.1166 29.6976 15.1796 28.1511C15.1947 27.7765 15.2854 27.6373 15.6861 27.6398C18.0975 27.6626 20.5115 27.6575 22.9229 27.6626C22.9305 30.8391 22.938 34.0157 22.9481 37.1922C22.3459 37.6124 21.7537 38.0478 21.1389 38.4451C20.8315 38.6426 20.7156 38.8754 20.7156 39.2399C20.7282 41.8242 20.7282 44.411 20.7156 46.9953C20.713 47.4205 20.7962 47.6154 21.2775 47.6103C23.1144 47.585 24.9538 47.5901 26.7933 47.6078C27.204 47.6129 27.3552 47.4964 27.3527 47.0636C27.335 44.4566 27.3401 41.847 27.3502 39.2399C27.3527 38.8754 27.2368 38.6426 26.9268 38.4451C26.3095 38.0478 25.7199 37.6124 25.1176 37.1897C25.1252 34.0131 25.1327 30.8391 25.1428 27.6626C26.6119 27.6499 28.0784 27.6347 29.5474 27.6221C30.2857 27.6221 31.024 27.6221 31.7623 27.6221C34.7029 27.6347 37.641 27.6499 40.5815 27.6626C40.5841 29.0446 40.5815 30.4291 40.5891 31.8111C40.5916 32.6792 41.0023 33.1855 41.6902 33.1855C42.3781 33.1855 42.7889 32.6792 42.7939 31.8111C42.799 30.4291 42.799 29.0446 42.8015 27.6626C44.2705 27.6499 45.737 27.6347 47.2061 27.6221C47.5739 27.6373 47.9444 27.6524 48.3122 27.6676C48.6348 28.8319 48.4508 30.0368 48.5491 31.2213C48.7003 33.0184 48.7734 34.8282 48.8414 36.6329C48.922 38.8071 49.0682 40.9763 49.1438 43.1505C47.1909 43.1556 45.2381 43.1657 43.2853 43.1682C41.592 43.1707 41.6197 43.1707 41.5491 44.8615C41.4861 46.3549 41.3677 47.8483 41.2518 49.3391C41.0401 52.0448 40.8033 54.7456 40.5967 57.4513C40.4354 59.5395 40.3144 61.6277 40.1532 63.7158C39.9314 66.4621 39.6996 69.2109 39.4754 71.9597Z" fill="#5A7F9C"/>
<path d="M39.4753 71.9598C39.6996 69.211 39.9314 66.4597 40.1431 63.7109C40.3044 61.6227 40.4253 59.5345 40.5866 57.4463C40.7957 54.7406 41.0326 52.0399 41.2417 49.3341C41.3576 47.8433 41.4761 46.3524 41.539 44.8565C41.6096 43.1658 41.5844 43.1683 43.2752 43.1632C45.228 43.1607 47.1808 43.1506 49.1337 43.1455C52.0617 43.148 54.9871 43.1506 57.9151 43.1506C60.6415 43.1632 63.3679 43.1734 66.0969 43.186C66.0717 45.5526 66.432 47.8939 66.5403 50.2529C66.5958 51.4602 66.7243 52.6701 66.8049 53.8825C66.9561 56.1428 67.1602 58.398 67.3366 60.6583C67.4399 62.0049 67.4928 63.359 67.6339 64.7005C67.8909 67.1152 68.0169 69.5375 68.1656 71.9598C67.3643 71.9674 66.5605 71.98 65.7592 71.98C57.2726 71.9826 48.7859 71.98 40.2993 71.98C40.0247 71.9826 39.75 71.9674 39.4753 71.9598ZM47.201 54.4318C47.201 54.4318 47.2035 54.4318 47.201 54.4318C47.2035 55.8846 47.1859 57.34 47.206 58.7929C47.2464 61.405 49.1186 63.6223 51.6837 64.1057C52.936 64.3411 54.2085 64.2854 55.4608 64.1842C57.9202 63.9867 59.8579 62.134 60.3341 59.7066C60.513 58.7878 60.4299 57.8665 60.4374 56.9477C60.4525 54.5938 60.45 52.2398 60.4374 49.8859C60.4324 49.1772 59.9763 48.714 59.3489 48.7089C58.7215 48.7038 58.2729 49.167 58.2402 49.8682C58.2301 50.0529 58.2377 50.2377 58.2377 50.4225C58.2377 53.1687 58.2503 55.915 58.2326 58.6613C58.22 60.5495 56.7837 61.972 54.904 62.0049C54.2614 62.015 53.6164 62.0099 52.9738 62.0074C50.7917 61.9998 49.4134 60.6102 49.4109 58.4082C49.4083 55.6391 49.4109 52.8701 49.4083 50.101C49.4083 49.2151 49.0127 48.719 48.3198 48.7089C47.6268 48.6988 47.206 49.205 47.2035 50.0707C47.1985 51.526 47.201 52.9789 47.201 54.4318Z" fill="#FF7BB2"/>
<path d="M68.1656 71.9595C68.0194 69.5372 67.8909 67.1149 67.6339 64.7002C67.4903 63.3587 67.4399 62.0046 67.3366 60.658C67.1627 58.4003 66.9561 56.1425 66.8049 53.8822C66.7243 52.6723 66.5958 51.4625 66.5403 50.2526C66.432 47.8936 66.0716 45.5523 66.0968 43.1857C68.8283 43.1781 71.5597 43.1781 74.2912 43.1553C74.6717 43.1528 74.7926 43.2667 74.8203 43.6539C75.0244 46.4812 75.2563 49.3034 75.4755 52.1281C75.7829 56.0792 76.0853 60.0303 76.3952 63.9788C76.5867 66.4138 76.7807 68.8462 76.9899 71.2786C77.0327 71.7747 76.9596 72.0076 76.3599 71.9974C73.6285 71.9569 70.897 71.9696 68.1656 71.9595Z" fill="#EE0060"/>
<path d="M42.7914 27.6602C42.7889 29.0422 42.7914 30.4267 42.7838 31.8087C42.7788 32.6794 42.3681 33.1831 41.6802 33.1831C40.9923 33.1831 40.5815 32.6769 40.579 31.8087C40.574 30.4267 40.574 29.0422 40.574 27.6602C40.5765 25.5138 40.5715 23.3674 40.5815 21.221C40.5866 20.1529 40.4203 19.1227 40.0247 18.128C39.3821 16.5131 38.3213 15.2577 36.8523 14.349C36.5222 14.1465 36.187 13.9491 35.7662 14.1972C33.2616 15.6728 31.8782 17.8597 31.7724 20.7654C31.6892 23.046 31.7572 25.3341 31.7572 27.6172C31.019 27.6172 30.2807 27.6172 29.5424 27.6172C29.5424 25.3113 29.5096 23.0029 29.5524 20.6971C29.5902 18.6444 30.2555 16.789 31.4498 15.1109C31.916 14.4553 32.5737 13.982 33.0499 13.3163C32.1377 13.1695 31.3339 13.2986 30.0337 13.7897C27.1712 14.8705 25.1327 17.8141 25.1327 20.8793C25.1327 23.1396 25.1353 25.3999 25.1378 27.6602C25.1302 30.8368 25.1227 34.0108 25.1151 37.1873C24.3919 36.4989 23.6687 36.5141 22.9456 37.1899C22.938 34.0133 22.9304 30.8368 22.9204 27.6602C22.9229 25.491 22.9481 23.3219 22.9204 21.1527C22.8599 16.3233 26.1936 12.2077 30.8426 11.218C32.4275 10.8814 34.0225 10.9244 35.5823 11.418C35.9703 11.5395 36.313 11.537 36.7111 11.4307C40.3295 10.4536 43.5473 11.2054 46.2989 13.7871C48.4634 15.8196 49.4461 18.3583 49.4134 21.3223C49.3907 23.4206 49.4083 25.5214 49.4109 27.6222C49.0404 27.6374 48.6726 27.6526 48.3021 27.6678C47.9343 27.6526 47.5639 27.6374 47.196 27.6222C47.196 25.4303 47.2388 23.2383 47.1884 21.0489C47.1103 17.7686 45.6085 15.3615 42.6377 13.9365C41.592 13.4353 40.4807 13.1948 39.1881 13.2556C39.4023 13.4885 39.5031 13.615 39.619 13.7213C41.8717 15.8247 42.8443 18.4444 42.7964 21.5045C42.7637 23.5547 42.7914 25.6075 42.7914 27.6602Z" fill="#E8EDF1"/>
<path d="M48.3047 27.6657C48.6751 27.6505 49.043 27.6353 49.4134 27.6201C51.7795 27.6302 54.1481 27.6581 56.5141 27.6328C57.0408 27.6277 57.1441 27.7872 57.1668 28.2833C57.4011 33.2392 57.6632 38.1951 57.9177 43.1511C54.9897 43.1485 52.0642 43.146 49.1362 43.146C49.0631 40.9718 48.917 38.8026 48.8338 36.6284C48.7658 34.8237 48.6927 33.0139 48.5415 31.2168C48.4408 30.0348 48.6272 28.83 48.3047 27.6657Z" fill="#426784"/>
<path d="M22.9456 37.1896C23.6663 36.5138 24.3894 36.4961 25.1151 37.1871C25.7174 37.6073 26.307 38.0451 26.9243 38.4425C27.2317 38.64 27.3477 38.8728 27.3477 39.2373C27.3351 41.8444 27.3325 44.454 27.3502 47.061C27.3527 47.4964 27.2015 47.6103 26.7908 47.6052C24.9539 47.5875 23.1144 47.5824 21.275 47.6077C20.7937 47.6153 20.7105 47.4179 20.7131 46.9927C20.7282 44.4084 20.7257 41.8216 20.7131 39.2373C20.7105 38.8728 20.829 38.64 21.1364 38.4425C21.7512 38.0477 22.3434 37.6098 22.9456 37.1896Z" fill="#FF7BB2"/>
<path d="M47.201 54.432C47.201 52.9791 47.1985 51.5237 47.2036 50.0709C47.2061 49.2052 47.6269 48.699 48.3198 48.7091C49.0128 48.7193 49.4059 49.2154 49.4084 50.1012C49.4109 52.8703 49.4084 55.6393 49.4109 58.4084C49.4134 60.6105 50.7943 62 52.9739 62.0076C53.6164 62.0102 54.2615 62.0178 54.904 62.0051C56.7838 61.9722 58.2201 60.5497 58.2327 58.6615C58.2528 55.9152 58.2377 53.169 58.2377 50.4227C58.2377 50.2379 58.2301 50.0532 58.2402 49.8684C58.2755 49.1673 58.7215 48.7041 59.3489 48.7091C59.9763 48.7142 60.4324 49.1774 60.4375 49.8861C60.4501 52.24 60.4551 54.594 60.4375 56.9479C60.4324 57.8667 60.5156 58.788 60.3342 59.7068C59.8579 62.1342 57.9202 63.987 55.4609 64.1844C54.2086 64.2856 52.9361 64.3413 51.6837 64.1059C49.1211 63.6225 47.2464 61.4052 47.2061 58.7931C47.1859 57.3403 47.2036 55.8874 47.201 54.432C47.2036 54.432 47.201 54.432 47.201 54.432Z" fill="#E8EDF1"/>
</g>
<defs>
<clipPath id="clip0_3194_28920">
<rect width="64" height="61" fill="white" transform="translate(13 11)"/>
</clipPath>
</defs>
</svg>
