<svg width="20" height="17" viewBox="0 0 20 17" fill="none" xmlns="http://www.w3.org/2000/svg">
<path d="M10.5545 4.1249H3.01913C2.75153 4.1249 2.53435 3.90617 2.53435 3.63667C2.53435 3.36717 2.75153 3.14844 3.01913 3.14844H10.5565C10.8241 3.14844 11.0412 3.36717 11.0412 3.63667C11.0412 3.90617 10.8241 4.1249 10.5545 4.1249Z" fill="white"/>
<path d="M16.9807 7.35928H3.01913C2.75153 7.35928 2.53435 7.14055 2.53435 6.87104C2.53435 6.60154 2.75153 6.38281 3.01913 6.38281H16.9807C17.2483 6.38281 17.4655 6.60154 17.4655 6.87104C17.4655 7.14055 17.2483 7.35928 16.9807 7.35928Z" fill="white"/>
<path d="M16.9807 10.5858H3.01913C2.75153 10.5858 2.53435 10.3671 2.53435 10.0976C2.53435 9.8281 2.75153 9.60938 3.01913 9.60938H16.9807C17.2483 9.60938 17.4655 9.8281 17.4655 10.0976C17.4655 10.3671 17.2483 10.5858 16.9807 10.5858Z" fill="white"/>
<path d="M3.26934 16.9475V13.7525H1.99729C0.89587 13.7525 0 12.8698 0 11.7859V2.08573C0 0.935453 0.928835 0 2.07097 0H17.929C19.0712 0 20 0.935453 20 2.08573V11.7859C20 12.8698 19.1041 13.7525 18.0047 13.7525H6.96723L3.26934 16.9475ZM2.07097 0.976464C1.46403 0.976464 0.969556 1.47446 0.969556 2.08573V11.7859C0.969556 12.3327 1.43106 12.7761 1.99535 12.7761H4.23696V14.8227L6.60655 12.7761H18.0008C18.567 12.7761 19.0266 12.3308 19.0266 11.7859V2.08573C19.0266 1.47446 18.5321 0.976464 17.9252 0.976464H2.07097Z" fill="white"/>
</svg>
