<svg width="15" height="15" viewBox="0 0 15 15" fill="none" xmlns="http://www.w3.org/2000/svg">
<path d="M3.75 7.5C3.75 7.9125 4.0875 8.25 4.5 8.25H10.5C10.9125 8.25 11.25 7.9125 11.25 7.5C11.25 7.0875 10.9125 6.75 10.5 6.75H4.5C4.0875 6.75 3.75 7.0875 3.75 7.5ZM7.5 0C3.36 0 0 3.36 0 7.5C0 11.64 3.36 15 7.5 15C11.64 15 15 11.64 15 7.5C15 3.36 11.64 0 7.5 0ZM7.5 13.5C4.1925 13.5 1.5 10.8075 1.5 7.5C1.5 4.1925 4.1925 1.5 7.5 1.5C10.8075 1.5 13.5 4.1925 13.5 7.5C13.5 10.8075 10.8075 13.5 7.5 13.5Z" fill="#71AFB6"/>
</svg>
