<svg width="20" height="20" viewBox="0 0 20 20" fill="none" xmlns="http://www.w3.org/2000/svg">
<g clip-path="url(#clip0_2038_3308)">
<path d="M8.01248 20.0001C7.43179 20.0001 6.88582 19.7741 6.47533 19.3636L0.63578 13.5238C-0.211764 12.6763 -0.211764 11.2971 0.63578 10.4497L8.89678 2.18922C9.30728 1.77875 9.87571 1.54595 10.4571 1.55276L16.2354 1.61402C17.409 1.62627 18.3736 2.59152 18.3859 3.76439L18.4471 9.54227C18.4533 10.1229 18.2211 10.692 17.8106 11.1025L9.54963 19.3636C9.13913 19.7741 8.59316 20.0001 8.01248 20.0001ZM7.56998 18.269C7.68844 18.3874 7.84501 18.4521 8.01248 18.4521C8.17994 18.4521 8.33652 18.3868 8.45497 18.269L16.716 10.0086C16.8344 9.89012 16.9011 9.72675 16.8991 9.55929L16.8378 3.78141C16.8344 3.44378 16.5567 3.16604 16.219 3.16264L10.4407 3.1007C10.2726 3.10002 10.1099 3.16536 9.99144 3.28381L1.73044 11.5442C1.48673 11.7879 1.48673 12.1848 1.73044 12.4292L7.56998 18.269Z" fill="#8A8A8A"/>
<path d="M14.43 7.42865C13.9494 7.42865 13.4688 7.24554 13.1032 6.88C12.3714 6.14823 12.3714 4.95835 13.1032 4.22658C13.4579 3.87193 13.9289 3.67725 14.43 3.67725C14.931 3.67725 15.4021 3.87261 15.7568 4.22658C16.4886 4.95835 16.4886 6.14823 15.7568 6.88C15.3905 7.24554 14.9106 7.42865 14.43 7.42865ZM14.43 4.88687C14.2516 4.88687 14.0842 4.9563 13.9589 5.08224C13.6988 5.34227 13.6988 5.76499 13.9589 6.02502C14.2189 6.28505 14.6417 6.28505 14.9017 6.02502C15.1618 5.76499 15.1618 5.34227 14.9017 5.08224C14.7751 4.9563 14.6077 4.88687 14.43 4.88687Z" fill="#8A8A8A"/>
<path d="M14.6445 5.96036C14.4899 5.96036 14.3347 5.90114 14.217 5.78338C13.9807 5.54717 13.9807 5.16461 14.217 4.9284L18.968 0.177033C19.2042 -0.0591738 19.5868 -0.0591738 19.823 0.177033C20.0592 0.41324 20.0592 0.7958 19.823 1.03201L15.072 5.78338C14.9542 5.90114 14.799 5.96036 14.6445 5.96036Z" fill="#8A8A8A"/>
</g>
<defs>
<clipPath id="clip0_2038_3308">
<rect width="20" height="20" fill="white"/>
</clipPath>
</defs>
</svg>
