<svg width="13" height="17" viewBox="0 0 13 17" fill="none" xmlns="http://www.w3.org/2000/svg">
<path d="M-3.27835e-08 16.1572C-4.14783e-08 15.9583 0.0790175 15.7675 0.21967 15.6269C0.360322 15.4862 0.551088 15.4072 0.75 15.4072L11.75 15.4072C11.9489 15.4072 12.1397 15.4862 12.2803 15.6269C12.421 15.7675 12.5 15.9583 12.5 16.1572C12.5 16.3561 12.421 16.5469 12.2803 16.6876C12.1397 16.8282 11.9489 16.9072 11.75 16.9072L0.75 16.9072C0.551088 16.9072 0.360322 16.8282 0.21967 16.6876C0.0790175 16.5469 -2.40888e-08 16.3561 -3.27835e-08 16.1572ZM6.25 13.9072C6.05109 13.9072 5.86032 13.8282 5.71967 13.6876C5.57902 13.5469 5.5 13.3561 5.5 13.1572L5.5 2.96723L2.78 5.68723C2.63782 5.81971 2.44978 5.89183 2.25548 5.8884C2.06118 5.88497 1.87579 5.80626 1.73838 5.66885C1.60096 5.53143 1.52225 5.34605 1.51882 5.15175C1.5154 4.95745 1.58752 4.7694 1.72 4.62723L5.716 0.630226C5.78055 0.565479 5.85605 0.512665 5.939 0.474226C6.07877 0.410084 6.23494 0.390646 6.38618 0.418565C6.53741 0.446485 6.67634 0.520403 6.784 0.630226L10.78 4.62723C10.8537 4.69589 10.9128 4.77869 10.9538 4.87069C10.9948 4.96269 11.0168 5.062 11.0186 5.1627C11.0204 5.26341 11.0018 5.36344 10.9641 5.45682C10.9264 5.55021 10.8703 5.63505 10.799 5.70626C10.7278 5.77748 10.643 5.83363 10.5496 5.87135C10.4562 5.90907 10.3562 5.92759 10.2555 5.92582C10.1548 5.92404 10.0555 5.902 9.96346 5.86101C9.87146 5.82002 9.78866 5.76091 9.72 5.68723L7 2.96723L7 13.1572C7 13.3561 6.92098 13.5469 6.78033 13.6876C6.63968 13.8282 6.44891 13.9072 6.25 13.9072Z" fill="white"/>
</svg>
