<svg width="18" height="18" viewBox="0 0 18 18" fill="none" xmlns="http://www.w3.org/2000/svg">
<path fill-rule="evenodd" clip-rule="evenodd" d="M8.29289 0.292893C8.68342 -0.0976311 9.31658 -0.0976311 9.70711 0.292893L13.7071 4.29289C14.0976 4.68342 14.0976 5.31658 13.7071 5.70711C13.3166 6.09763 12.6834 6.09763 12.2929 5.70711L10 3.41421V13C10 13.5523 9.55229 14 9 14C8.44772 14 8 13.5523 8 13V3.41421L5.70711 5.70711C5.31658 6.09763 4.68342 6.09763 4.29289 5.70711C3.90237 5.31658 3.90237 4.68342 4.29289 4.29289L8.29289 0.292893ZM1 12C1.55228 12 2 12.4477 2 13V14C2 14.5304 2.21071 15.0391 2.58579 15.4142C2.96086 15.7893 3.46957 16 4 16H14C14.5304 16 15.0391 15.7893 15.4142 15.4142C15.7893 15.0391 16 14.5304 16 14C16 13.4477 16.4477 13 17 13C17.5523 13 18 13.4477 18 14C18 15.0609 17.5786 16.0783 16.8284 16.8284C16.0783 17.5786 15.0609 18 14 18H4C2.93913 18 1.92172 17.5786 1.17157 16.8284C0.421427 16.0783 0 15.0609 0 14V13C0 12.4477 0.447715 12 1 12Z" fill="white"/>
</svg>
