<svg width="13" height="17" viewBox="0 0 13 17" fill="none" xmlns="http://www.w3.org/2000/svg">
<path d="M-3.27835e-08 15.751C-4.14783e-08 15.5521 0.0790175 15.3613 0.21967 15.2206C0.360322 15.08 0.551088 15.001 0.75 15.001L11.75 15.001C11.9489 15.001 12.1397 15.08 12.2803 15.2206C12.421 15.3613 12.5 15.5521 12.5 15.751C12.5 15.9499 12.421 16.1407 12.2803 16.2813C12.1397 16.422 11.9489 16.501 11.75 16.501L0.75 16.501C0.551088 16.501 0.360322 16.422 0.21967 16.2813C0.0790175 16.1407 -2.40888e-08 15.9499 -3.27835e-08 15.751ZM6.25 13.501C6.05109 13.501 5.86032 13.422 5.71967 13.2813C5.57902 13.1407 5.5 12.9499 5.5 12.751L5.5 2.56098L2.78 5.28098C2.63782 5.41346 2.44978 5.48558 2.25548 5.48215C2.06118 5.47872 1.87579 5.40001 1.73838 5.2626C1.60096 5.12518 1.52225 4.9398 1.51882 4.7455C1.5154 4.5512 1.58752 4.36315 1.72 4.22098L5.716 0.223976C5.78055 0.159229 5.85605 0.106415 5.939 0.0679757C6.07877 0.00383351 6.23494 -0.0156043 6.38618 0.0123155C6.53741 0.0402352 6.67634 0.114153 6.784 0.223976L10.78 4.22098C10.8537 4.28964 10.9128 4.37244 10.9538 4.46444C10.9948 4.55644 11.0168 4.65575 11.0186 4.75645C11.0204 4.85716 11.0018 4.95719 10.9641 5.05057C10.9264 5.14396 10.8703 5.2288 10.799 5.30001C10.7278 5.37123 10.643 5.42738 10.5496 5.4651C10.4562 5.50282 10.3562 5.52134 10.2555 5.51957C10.1548 5.51779 10.0555 5.49575 9.96346 5.45476C9.87146 5.41377 9.78866 5.35466 9.72 5.28098L7 2.56098L7 12.751C7 12.9499 6.92098 13.1407 6.78033 13.2813C6.63968 13.422 6.44891 13.501 6.25 13.501Z" fill="#71AFB6"/>
</svg>
