<svg width="20" height="20" viewBox="0 0 20 20" fill="none" xmlns="http://www.w3.org/2000/svg">
<path fill-rule="evenodd" clip-rule="evenodd" d="M17.5 9.5C17.5 10.3284 16.8284 11 16 11C15.5889 11 15.2163 10.8346 14.9454 10.5667L13.3671 11.8819C13.4525 12.0704 13.5 12.2796 13.5 12.5C13.5 13.3284 12.8284 14 12 14C11.1716 14 10.5 13.3284 10.5 12.5C10.5 12.4656 10.5012 12.4316 10.5034 12.3978L9.2161 11.748C8.96039 11.9505 8.63714 12.0714 8.28564 12.0714C7.98896 12.0714 7.71239 11.9853 7.47958 11.8366L5.46563 13.1793C5.48814 13.2826 5.5 13.3899 5.5 13.5C5.5 14.3284 4.82843 15 4 15C3.17157 15 2.5 14.3284 2.5 13.5C2.5 12.6716 3.17157 12 4 12C4.48329 12 4.91319 12.2286 5.18752 12.5835L7.01333 11.3663C6.86905 11.1358 6.78564 10.8634 6.78564 10.5714C6.78564 9.74298 7.45722 9.07141 8.28564 9.07141C9.11407 9.07141 9.78564 9.74298 9.78564 10.5714C9.78564 10.8079 9.73091 11.0316 9.63343 11.2306L10.6921 11.7649C10.9493 11.3084 11.4386 11 12 11C12.3729 11 12.7141 11.1361 12.9765 11.3613L14.591 10.0158C14.5321 9.85499 14.5 9.68125 14.5 9.5C14.5 8.67157 15.1716 8 16 8C16.8284 8 17.5 8.67157 17.5 9.5Z" fill="white"/>
<path fill-rule="evenodd" clip-rule="evenodd" d="M18.5 5H1.5V18.5H18.5V5ZM0 1C0 0.447715 0.447715 0 1 0H19C19.5523 0 20 0.447715 20 1V19C20 19.5523 19.5523 20 19 20H1C0.447715 20 0 19.5523 0 19V1ZM3 2.5C3 2.77614 2.77614 3 2.5 3C2.22386 3 2 2.77614 2 2.5C2 2.22386 2.22386 2 2.5 2C2.77614 2 3 2.22386 3 2.5ZM4.5 3C4.77614 3 5 2.77614 5 2.5C5 2.22386 4.77614 2 4.5 2C4.22386 2 4 2.22386 4 2.5C4 2.77614 4.22386 3 4.5 3ZM7 2.5C7 2.77614 6.77614 3 6.5 3C6.22386 3 6 2.77614 6 2.5C6 2.22386 6.22386 2 6.5 2C6.77614 2 7 2.22386 7 2.5Z" fill="white"/>
</svg>
