<svg width="22" height="22" viewBox="0 0 22 22" fill="none" xmlns="http://www.w3.org/2000/svg">
<path fill-rule="evenodd" clip-rule="evenodd" d="M4.25272 0.729626L11 7.47695L17.7473 0.729626C17.8704 0.606479 18.0057 0.496877 18.1512 0.402452C18.2789 0.319479 18.4142 0.248173 18.5554 0.189631C18.8578 0.0644277 19.1818 0 19.5088 0C19.8359 0 20.1599 0.0644277 20.4622 0.189631C20.7644 0.314799 21.0389 0.498296 21.2704 0.729626C21.5016 0.960956 21.6851 1.23558 21.8102 1.53783C21.9356 1.84007 22 2.16402 22 2.49116C22 2.66873 21.981 2.84535 21.9436 3.0181C21.9121 3.16359 21.8675 3.30631 21.8102 3.44449C21.6851 3.74674 21.5016 4.02136 21.2704 4.25269L14.5231 11L21.2704 17.7473C21.5016 17.9786 21.6851 18.2533 21.8102 18.5555C21.9356 18.8578 22 19.1816 22 19.5088C22 19.836 21.9356 20.1599 21.8102 20.4622C21.6851 20.7643 21.5016 21.039 21.2704 21.2703C21.0389 21.5017 20.7644 21.6851 20.4622 21.8104C20.1599 21.9355 19.8359 22 19.5088 22C19.1818 22 18.8578 21.9355 18.5554 21.8104C18.2533 21.6851 17.9788 21.5017 17.7473 21.2703L11 14.523L4.25272 21.2703C4.02125 21.5017 3.74666 21.6851 3.44456 21.8104C3.14217 21.9355 2.81822 22 2.49115 22C2.16409 22 1.84014 21.9355 1.53775 21.8104C1.23565 21.6851 0.96106 21.5017 0.729589 21.2703C0.498401 21.039 0.314869 20.7643 0.189773 20.4622C0.0643922 20.1599 0 19.836 0 19.5088C0 19.1816 0.0643922 18.8578 0.189773 18.5555C0.314869 18.2533 0.498401 17.9786 0.729589 17.7473L7.47687 11L0.729589 4.25269C0.262391 3.78549 0 3.15185 0 2.49116C0 1.83046 0.262391 1.19682 0.729589 0.729626C1.19679 0.262462 1.8305 0 2.49115 0C3.15181 0 3.78552 0.262462 4.25272 0.729626Z" fill="white"/>
</svg>
