<svg width="21" height="22" viewBox="0 0 21 22" fill="none" xmlns="http://www.w3.org/2000/svg">
<path d="M14.5598 13.2296H13.6396L13.3134 12.9049C14.4549 11.5338 15.1421 9.75384 15.1421 7.8175C15.1421 3.49984 11.7526 0 7.57107 0C3.38951 0 0 3.49984 0 7.8175C0 12.1352 3.38951 15.635 7.57107 15.635C9.44637 15.635 11.1702 14.9254 12.4981 13.7468L12.8126 14.0835V15.0337L18.6365 21.0351L20.372 19.2431L14.5598 13.2296ZM7.57107 13.2296C4.67077 13.2296 2.32956 10.8122 2.32956 7.8175C2.32956 4.8228 4.67077 2.40539 7.57107 2.40539C10.4714 2.40539 12.8126 4.8228 12.8126 7.8175C12.8126 10.8122 10.4714 13.2296 7.57107 13.2296Z" fill="white"/>
</svg>
