<svg width="16" height="18" viewBox="0 0 16 18" fill="none" xmlns="http://www.w3.org/2000/svg">
<path d="M15.4286 17.3571C15.4286 17.7122 15.1408 18 14.7857 18C14.4307 18 14.1429 17.7122 14.1429 17.3571V11.5714H6.42857V17.3571C6.42857 17.7122 6.14075 18 5.78571 18C5.43067 18 5.14286 17.7122 5.14286 17.3571V11.5714C5.1432 11.2305 5.27877 10.9037 5.51981 10.6627C5.76085 10.4216 6.08768 10.2861 6.42857 10.2857H14.1429C14.4837 10.2861 14.8106 10.4216 15.0516 10.6627C15.2927 10.9037 15.4282 11.2305 15.4286 11.5714V17.3571ZM2.03786 9L0.453537 10.5843C0.202848 10.835 0.202274 11.2413 0.452254 11.4927C0.703234 11.7451 1.11149 11.7457 1.36318 11.494L3.85714 9L1.36607 6.50893C1.11551 6.25837 0.709489 6.25765 0.458041 6.50733C0.205334 6.75825 0.204613 7.16676 0.456432 7.41857L2.03786 9ZM14.1429 7.71429H6.42857C6.08768 7.71395 5.76085 7.57838 5.51981 7.33733C5.27877 7.09629 5.1432 6.76946 5.14286 6.42857V0.642857C5.14286 0.287817 5.43067 0 5.78571 0C6.14075 0 6.42857 0.287817 6.42857 0.642857V6.42857H14.1429V0.642857C14.1429 0.287817 14.4307 0 14.7857 0C15.1408 0 15.4286 0.287817 15.4286 0.642857V6.42857C15.4282 6.76946 15.2927 7.09629 15.0516 7.33733C14.8106 7.57838 14.4837 7.71395 14.1429 7.71429Z" fill="white"/>
</svg>
